<svg width="19" height="9" viewBox="0 0 19 9" fill="none" xmlns="http://www.w3.org/2000/svg">
<path d="M-0.00030899 8.19291C-0.000911364 8.08872 0.0190594 7.98544 0.0584564 7.88898C0.0978534 7.79253 0.155904 7.7048 0.229277 7.63083L6.69719 1.16291C7.06489 0.794283 7.50169 0.501819 7.98259 0.302268C8.46349 0.102717 8.97903 0 9.49969 0C10.0203 0 10.5359 0.102717 11.0168 0.302268C11.4977 0.501819 11.9345 0.794283 12.3022 1.16291L18.7701 7.63083C18.8439 7.70464 18.9025 7.79227 18.9424 7.88871C18.9824 7.98515 19.0029 8.08852 19.0029 8.19291C19.0029 8.2973 18.9824 8.40066 18.9424 8.49711C18.9025 8.59355 18.8439 8.68118 18.7701 8.75499C18.6963 8.82881 18.6087 8.88736 18.5122 8.92731C18.4158 8.96725 18.3124 8.98781 18.208 8.98781C18.1036 8.98781 18.0003 8.96725 17.9038 8.92731C17.8074 8.88736 17.7198 8.82881 17.6459 8.75499L11.178 2.28708C10.7327 1.84232 10.1291 1.5925 9.49969 1.5925C8.87031 1.5925 8.26667 1.84232 7.82136 2.28708L1.35344 8.75499C1.27985 8.82919 1.19229 8.88809 1.09582 8.92828C0.999344 8.96847 0.895868 8.98917 0.791359 8.98917C0.68685 8.98917 0.583374 8.96847 0.486902 8.92828C0.39043 8.88809 0.302872 8.82919 0.229277 8.75499C0.155904 8.68102 0.0978534 8.59329 0.0584564 8.49684C0.0190594 8.40038 -0.000911364 8.2971 -0.00030899 8.19291Z" fill="black"/>
</svg>
