<svg width="24" height="24" viewBox="0 0 24 24" fill="none" xmlns="http://www.w3.org/2000/svg">
<g clip-path="url(#clip0_998_10840)">
<path d="M0.484711 8.08809L10.3467 14.0051C10.8567 14.3111 11.4277 14.4641 11.9997 14.4641C12.5707 14.4641 13.1427 14.3111 13.6527 14.0051L23.5137 8.08809C23.8147 7.90709 23.9987 7.58209 23.9987 7.23109C23.9987 6.88009 23.8147 6.55409 23.5137 6.37409L13.6537 0.456088C12.6327 -0.156912 11.3667 -0.156912 10.3467 0.456088L0.484711 6.37309C0.183711 6.55409 -0.000288782 6.87909 -0.000288782 7.23009C-0.000288782 7.58109 0.183711 7.90709 0.484711 8.08709V8.08809ZM11.3757 2.17109C11.7597 1.94109 12.2387 1.94109 12.6237 2.17109L21.0557 7.23109L12.6237 12.2911C12.2387 12.5211 11.7597 12.5211 11.3747 12.2911L2.94371 7.23009L11.3757 2.17109ZM23.9997 20.0001C23.9997 20.5531 23.5517 21.0001 22.9997 21.0001H20.9997V23.0001C20.9997 23.5531 20.5517 24.0001 19.9997 24.0001C19.4477 24.0001 18.9997 23.5531 18.9997 23.0001V21.0001H16.9997C16.4477 21.0001 15.9997 20.5531 15.9997 20.0001C15.9997 19.4471 16.4477 19.0001 16.9997 19.0001H18.9997V17.0001C18.9997 16.4471 19.4477 16.0001 19.9997 16.0001C20.5517 16.0001 20.9997 16.4471 20.9997 17.0001V19.0001H22.9997C23.5517 19.0001 23.9997 19.4471 23.9997 20.0001ZM12.8567 23.2861C12.6687 23.5981 12.3377 23.7711 11.9987 23.7711C11.8237 23.7711 11.6457 23.7251 11.4847 23.6281L0.484711 17.0291C0.0107112 16.7451 -0.142289 16.1311 0.141711 15.6571C0.424711 15.1831 1.03871 15.0291 1.51371 15.3141L12.5137 21.9141C12.9877 22.1981 13.1407 22.8121 12.8567 23.2861ZM23.8567 11.0901C24.1407 11.5641 23.9877 12.1781 23.5137 12.4621L12.5137 19.0621C12.3547 19.1571 12.1777 19.2051 11.9987 19.2051C11.8197 19.2051 11.6427 19.1571 11.4837 19.0621L0.484711 12.4621C0.0107112 12.1781 -0.142289 11.5641 0.141711 11.0901C0.424711 10.6151 1.03871 10.4621 1.51371 10.7471L11.9987 17.0381L22.4837 10.7471C22.9577 10.4631 23.5727 10.6161 23.8567 11.0901Z" fill="#010101"/>
</g>
<defs>
<clipPath id="clip0_998_10840">
<rect width="24" height="24" fill="white"/>
</clipPath>
</defs>
</svg>
