<svg width="21" height="21" viewBox="0 0 21 21" fill="none" xmlns="http://www.w3.org/2000/svg">
<g clip-path="url(#clip0_998_10728)">
<path d="M19.6875 9.1875H11.8125V1.3125C11.8125 0.587631 11.2249 0 10.5 0C9.77513 0 9.1875 0.587631 9.1875 1.3125V9.1875H1.3125C0.587631 9.1875 0 9.77513 0 10.5C0 11.2249 0.587631 11.8125 1.3125 11.8125H9.1875V19.6875C9.1875 20.4124 9.77513 21 10.5 21C11.2249 21 11.8125 20.4124 11.8125 19.6875V11.8125H19.6875C20.4124 11.8125 21 11.2249 21 10.5C21 9.77513 20.4124 9.1875 19.6875 9.1875Z" fill="black"/>
</g>
<defs>
<clipPath id="clip0_998_10728">
<rect width="21" height="21" fill="white"/>
</clipPath>
</defs>
</svg>
