<svg width="20" height="20" viewBox="0 0 20 20" fill="none" xmlns="http://www.w3.org/2000/svg">
<g clip-path="url(#clip0_996_10692)">
<path d="M20.0267 18.8486L14.8083 13.6302C16.1639 11.9724 16.8303 9.85699 16.6699 7.72155C16.5094 5.58611 15.5344 3.59403 13.9463 2.15735C12.3583 0.720677 10.2788 -0.0506719 8.13804 0.00285463C5.99725 0.0563811 3.95893 0.930687 2.44468 2.44493C0.930443 3.95917 0.056137 5.99749 0.00261049 8.13828C-0.050916 10.2791 0.720432 12.3585 2.15711 13.9466C3.59378 15.5346 5.58587 16.5097 7.72131 16.6701C9.85675 16.8306 11.9722 16.1641 13.63 14.8086L18.8483 20.0269L20.0267 18.8486ZM8.36001 15.0269C7.04146 15.0269 5.75253 14.6359 4.6562 13.9034C3.55988 13.1708 2.70539 12.1296 2.20081 10.9115C1.69623 9.6933 1.5642 8.35285 1.82144 7.05965C2.07867 5.76644 2.71361 4.57856 3.64596 3.64621C4.57831 2.71386 5.7662 2.07892 7.0594 1.82168C8.35261 1.56445 9.69305 1.69647 10.9112 2.20105C12.1294 2.70564 13.1706 3.56012 13.9031 4.65645C14.6357 5.75278 15.0267 7.04171 15.0267 8.36025C15.0247 10.1278 14.3217 11.8223 13.0719 13.0721C11.822 14.3219 10.1275 15.0249 8.36001 15.0269Z" fill="black"/>
</g>
<defs>
<clipPath id="clip0_996_10692">
<rect width="20" height="20" fill="white"/>
</clipPath>
</defs>
</svg>
