<svg width="15" height="15" viewBox="0 0 15 15" fill="none" xmlns="http://www.w3.org/2000/svg">
<path d="M14.0267 13.2014L10.3718 9.54645C11.3212 8.3853 11.788 6.90366 11.6756 5.408C11.5632 3.91234 10.8803 2.51708 9.768 1.51084C8.65575 0.504591 7.19929 -0.0356616 5.69988 0.00182839C4.20047 0.0393183 2.77283 0.651682 1.71226 1.71226C0.651682 2.77283 0.0393183 4.20047 0.00182839 5.69988C-0.0356616 7.19929 0.504591 8.65575 1.51084 9.768C2.51708 10.8803 3.91234 11.5632 5.408 11.6756C6.90366 11.788 8.3853 11.3212 9.54645 10.3718L13.2014 14.0267L14.0267 13.2014ZM5.85534 10.5247C4.93184 10.5247 4.02907 10.2508 3.2612 9.73775C2.49334 9.22468 1.89486 8.49543 1.54145 7.64222C1.18804 6.78901 1.09557 5.85016 1.27573 4.9444C1.4559 4.03864 1.90061 3.20665 2.55363 2.55363C3.20665 1.90061 4.03864 1.4559 4.9444 1.27573C5.85016 1.09557 6.78901 1.18804 7.64222 1.54145C8.49543 1.89486 9.22468 2.49334 9.73775 3.2612C10.2508 4.02907 10.5247 4.93184 10.5247 5.85534C10.5233 7.0933 10.0309 8.28016 9.15552 9.15552C8.28016 10.0309 7.0933 10.5233 5.85534 10.5247Z" fill="#6B6B6B"/>
</svg>
