<svg width="776" height="740" viewBox="0 0 776 740" fill="none" xmlns="http://www.w3.org/2000/svg">
    <ellipse cx="385.701" cy="369.611" rx="385.701" ry="369.611" fill="#F2F6FF"/>
    <g clip-path="url(#clip0_531_435)">
        <path d="M569.57 418.72C568.87 420.043 568.171 421.444 567.55 423.001C562.033 434.754 553.332 452.735 551.156 467.368C542.998 473.829 535.073 479.433 527.926 485.505C521.399 490.564 511.454 496.246 503.918 502.395H418.688C420.164 502.006 421.562 501.617 422.961 501.306C432.129 499.437 441.685 497.258 450.853 495.39C463.439 493.133 477.89 488.307 491.254 486.75C497.236 482.547 503.685 478.966 509.978 475.541C517.359 471.416 523.264 465.889 529.635 460.596C532.665 450.4 535.073 438.958 540.745 430.707C547.038 422.067 558.77 419.031 569.57 418.72Z" fill="#EAA888"/>
        <g style="mix-blend-mode:multiply" opacity="0.4">
            <path d="M569.57 418.72C568.87 420.043 568.171 421.444 567.55 423.001C562.033 434.754 553.332 452.735 551.156 467.368C542.998 473.829 535.073 479.433 527.926 485.505C521.399 490.564 511.454 496.246 503.918 502.395H418.688C420.164 502.006 421.562 501.617 422.961 501.306C432.129 499.437 441.685 497.258 450.853 495.39C463.439 493.133 477.89 488.307 491.254 486.75C497.236 482.547 503.685 478.966 509.978 475.541C517.359 471.416 523.264 465.889 529.635 460.596C532.665 450.4 535.073 438.958 540.745 430.707C547.038 422.067 558.77 419.031 569.57 418.72Z" fill="#B0B0B0"/>
        </g>
        <path d="M604.066 403.152C602.9 419.887 600.026 435.144 598.316 448.765C596.141 462.776 593.966 486.205 591.013 490.642C586.274 497.725 560.868 523.723 546.261 539.913C539.657 547.23 535.229 559.061 527.925 565.678C518.369 575.252 503.685 573.773 491.254 575.952C464.061 581.089 437.334 590.274 409.442 590.274C385.201 590.274 354.046 586.227 329.805 579.611C285.286 567.079 247.372 548.709 201.688 541.236V416.618C241.7 414.595 363.136 417.163 386.367 417.163C404.314 417.163 434.848 420.588 455.204 421.444C482.319 482.858 386.833 462.62 342.236 475.697C355.6 498.659 384.735 502.473 410.607 502.473H503.996C511.532 496.324 521.477 490.564 528.003 485.583C535.151 479.511 543.076 473.907 551.234 467.446C553.409 452.813 562.111 434.832 567.627 423.079C568.326 421.522 568.948 420.121 569.647 418.798C577.65 403.775 588.061 403.23 604.143 403.23L604.066 403.152Z" fill="#F4C19A"/>
        <g opacity="0.69">
            <path d="M457.534 437.323L436.712 441.449C431.585 441.449 424.126 443.083 420.552 439.503C418.299 437.246 417.367 432.03 416.357 429.462C414.88 426.037 412.86 422.223 411.617 418.331C425.758 419.421 440.986 420.744 452.717 421.289C454.66 422.846 457.768 431.797 457.457 437.323H457.534Z" fill="#EDE3D6"/>
        </g>
        <path d="M258.172 402.841H169.601V564.588H258.172V402.841Z" fill="white"/>
        <path d="M127.801 578.599H241.623V578.287V564.588V483.403V402.841V388.908H127.801V483.403V578.287V578.599Z" fill="url(#paint0_linear_531_435)"/>
        <g style="mix-blend-mode:multiply" opacity="0.44">
            <path d="M241.623 483.403H127.801V578.21H241.623V483.403Z" fill="#A8A8A8"/>
        </g>
        <path d="M203.475 538.59C203.475 548.942 195.084 557.349 184.751 557.349C174.417 557.349 166.026 548.942 166.026 538.59C166.026 528.238 174.417 519.831 184.751 519.831C195.084 519.831 203.475 528.238 203.475 538.59Z" fill="#DBE7E6"/>
        <path d="M538.493 151.426C538.493 184.818 511.533 211.828 478.202 211.828C444.871 211.828 417.911 184.818 417.911 151.426C417.911 118.033 444.871 91.0234 478.202 91.0234C511.533 91.0234 538.493 118.111 538.493 151.426Z" fill="#FFD200"/>
        <path d="M532.199 151.425C532.199 181.315 508.036 205.523 478.202 205.523C448.367 205.523 424.204 181.315 424.204 151.425C424.204 121.536 448.367 97.3281 478.202 97.3281C508.036 97.3281 532.199 121.536 532.199 151.425Z" fill="#FFC800"/>
        <path d="M538.493 151.426C538.493 118.033 511.533 91.0234 478.202 91.0234V211.828C511.533 211.828 538.493 184.818 538.493 151.426Z" fill="#FFDC00"/>
        <path d="M532.2 151.425C532.2 121.536 508.037 97.3281 478.202 97.3281V205.523C508.037 205.523 532.2 181.315 532.2 151.425Z" fill="#FFD200"/>
        <path d="M473.385 188.709V179.602C468.645 179.291 464.838 178.746 461.886 177.968C458.934 177.189 456.525 176.411 454.661 175.711V160.766H471.287C471.287 162.245 471.598 163.412 472.219 164.113C472.841 164.813 474.084 165.202 476.026 165.202C477.658 165.202 478.901 164.969 479.6 164.424C480.3 163.957 480.688 163.179 480.688 162.167C480.688 161.466 480.377 160.844 479.833 160.299C479.29 159.754 478.046 159.131 476.337 158.431C472.608 157.029 469.345 155.628 466.548 154.383C463.751 153.138 461.42 151.659 459.633 150.102C457.768 148.545 456.447 146.677 455.515 144.575C454.583 142.474 454.194 139.983 454.194 136.947C454.194 134.457 454.505 132.199 455.204 130.175C455.904 128.152 456.991 126.361 458.468 124.805C459.944 123.248 461.964 122.003 464.45 120.991C466.936 119.979 469.966 119.356 473.618 118.967V110.249H483.485V118.811C485.816 118.967 487.914 119.2 489.778 119.512C491.565 119.823 493.275 120.212 494.751 120.679C496.227 121.068 497.625 121.535 498.869 122.003C500.112 122.47 501.122 122.937 501.976 123.481V137.025H486.127C486.127 135.546 485.738 134.534 484.884 134.067C484.107 133.523 483.097 133.289 481.931 133.289C480.3 133.289 479.056 133.523 478.357 133.912C477.658 134.301 477.27 135.079 477.27 136.169C477.27 137.025 477.658 137.648 478.435 138.037C479.212 138.426 480.377 138.893 481.931 139.36C484.884 140.294 487.603 141.306 490.167 142.396C492.731 143.486 495.062 144.731 497.004 146.366C498.946 147.922 500.5 149.791 501.665 152.048C502.831 154.305 503.375 157.029 503.375 160.221C503.375 166.059 501.665 170.495 498.325 173.765C494.984 176.956 490.011 178.902 483.485 179.447V188.632H473.618L473.385 188.709Z" fill="#FFE600"/>
        <path d="M503.841 405.176C537.138 405.176 564.131 378.133 564.131 344.774C564.131 311.415 537.138 284.372 503.841 284.372C470.543 284.372 443.55 311.415 443.55 344.774C443.55 378.133 470.543 405.176 503.841 405.176Z" fill="#FFD200"/>
        <path d="M557.838 344.774C557.838 374.664 533.675 398.871 503.84 398.871C474.006 398.871 449.843 374.664 449.843 344.774C449.843 314.884 474.006 290.677 503.84 290.677C533.675 290.677 557.838 314.884 557.838 344.774Z" fill="#FFC800"/>
        <path d="M564.132 344.774C564.132 311.382 537.172 284.372 503.841 284.372V405.176C537.172 405.176 564.132 378.167 564.132 344.774Z" fill="#FFDC00"/>
        <path d="M557.838 344.774C557.838 314.884 533.675 290.677 503.841 290.677V398.871C533.675 398.871 557.838 374.664 557.838 344.774Z" fill="#FFD200"/>
        <path d="M499.023 382.058V372.951C494.284 372.64 490.477 372.095 487.525 371.316C484.572 370.538 482.164 369.76 480.299 369.059V354.114H496.926C496.926 355.593 497.237 356.761 497.858 357.461C498.48 358.162 499.723 358.551 501.665 358.551C503.297 358.551 504.54 358.318 505.239 357.773C505.938 357.306 506.327 356.527 506.327 355.515C506.327 354.815 506.016 354.192 505.472 353.647C504.928 353.102 503.685 352.48 501.976 351.779C498.247 350.378 494.983 348.977 492.186 347.732C489.389 346.408 487.059 345.007 485.272 343.451C483.407 341.894 482.086 340.026 481.154 337.924C480.221 335.822 479.833 333.332 479.833 330.296C479.833 327.805 480.144 325.548 480.843 323.524C481.542 321.5 482.63 319.71 484.106 318.153C485.582 316.597 487.602 315.351 490.089 314.339C492.575 313.327 495.605 312.705 499.257 312.315V303.598H509.124V312.16C511.455 312.315 513.552 312.549 515.417 312.86C517.204 313.172 518.913 313.561 520.389 314.028C521.866 314.417 523.264 314.884 524.507 315.351C525.75 315.818 526.76 316.285 527.615 316.83V330.374H511.765C511.765 328.895 511.377 327.883 510.522 327.416C509.745 326.871 508.735 326.638 507.57 326.638C505.938 326.638 504.695 326.871 503.996 327.26C503.297 327.65 502.908 328.428 502.908 329.518C502.908 330.374 503.297 330.997 504.074 331.386C504.851 331.775 506.016 332.242 507.57 332.709C510.522 333.643 513.241 334.655 515.805 335.745C518.369 336.834 520.7 338.08 522.642 339.714C524.585 341.271 526.139 343.139 527.304 345.397C528.47 347.654 529.013 350.378 529.013 353.569C529.013 359.407 527.304 363.844 523.963 367.113C520.622 370.305 515.65 372.251 509.124 372.795V381.98H499.257L499.023 382.058Z" fill="#FFE600"/>
        <path d="M423.038 279.625C423.038 313.017 396.079 340.027 362.748 340.027C329.417 340.027 302.457 313.017 302.457 279.625C302.457 246.232 329.417 219.223 362.748 219.223C396.079 219.223 423.038 246.232 423.038 279.625Z" fill="#FFD200"/>
        <path d="M416.745 279.625C416.745 309.514 392.582 333.722 362.747 333.722C332.913 333.722 308.75 309.514 308.75 279.625C308.75 249.735 332.913 225.527 362.747 225.527C392.582 225.527 416.745 249.735 416.745 279.625Z" fill="#FFC800"/>
        <path d="M423.039 279.625C423.039 246.232 396.079 219.223 362.748 219.223V340.027C396.079 340.027 423.039 313.017 423.039 279.625Z" fill="#FFDC00"/>
        <path d="M416.746 279.625C416.746 249.735 392.583 225.527 362.748 225.527V333.722C392.583 333.722 416.746 309.514 416.746 279.625Z" fill="#FFD200"/>
        <path d="M357.931 316.909V307.802C353.191 307.49 349.384 306.945 346.432 306.167C343.48 305.389 341.071 304.61 339.206 303.91V288.965H355.833C355.833 290.444 356.144 291.611 356.765 292.312C357.387 293.012 358.63 293.402 360.572 293.402C362.204 293.402 363.447 293.168 364.146 292.623C364.845 292.156 365.234 291.378 365.234 290.366C365.234 289.665 364.923 289.043 364.379 288.498C363.835 287.953 362.592 287.33 360.883 286.63C357.154 285.229 353.891 283.828 351.094 282.582C348.297 281.337 345.966 279.858 344.179 278.301C342.314 276.744 340.993 274.876 340.061 272.775C339.129 270.673 338.74 268.182 338.74 265.147C338.74 262.656 339.051 260.398 339.75 258.375C340.45 256.351 341.537 254.561 343.013 253.004C344.49 251.447 346.51 250.202 348.996 249.19C351.482 248.178 354.512 247.555 358.164 247.166V238.448H368.031V247.01C370.362 247.166 372.46 247.4 374.324 247.711C376.111 248.022 377.82 248.411 379.297 248.878C380.773 249.268 382.171 249.735 383.414 250.202C384.658 250.669 385.668 251.136 386.522 251.681V265.224H370.673C370.673 263.745 370.284 262.734 369.429 262.267C368.653 261.722 367.642 261.488 366.477 261.488C364.845 261.488 363.602 261.722 362.903 262.111C362.204 262.5 361.815 263.278 361.815 264.368C361.815 265.224 362.204 265.847 362.981 266.236C363.758 266.625 364.923 267.093 366.477 267.56C369.429 268.494 372.149 269.505 374.713 270.595C377.277 271.685 379.607 272.93 381.55 274.565C383.492 276.122 385.046 277.99 386.211 280.247C387.377 282.504 387.921 285.229 387.921 288.42C387.921 294.258 386.211 298.695 382.871 301.964C379.53 305.155 374.557 307.101 368.031 307.646V316.831H358.164L357.931 316.909Z" fill="#FFE600"/>
    </g>
    <ellipse cx="656.934" cy="244.109" rx="114.469" ry="110.791" fill="#F2F6FF"/>
    <path d="M588.044 232.28L598.924 245.208L551.564 287.192L540.812 274.392L588.044 232.28ZM551.564 232.28L598.924 274.392L588.044 287.192L540.812 245.336L551.564 232.28ZM649.097 208.856V297.176H625.161V238.552C625.161 236.76 625.204 235.01 625.289 233.304C625.374 231.512 625.63 229.762 626.057 228.056L605.449 232.664L602.633 217.56L625.161 208.856H649.097ZM700.703 207.064C709.663 207.064 716.788 208.514 722.079 211.416C727.37 214.232 731.167 219.01 733.471 225.752C735.775 232.408 736.927 241.496 736.927 253.016C736.927 264.536 735.775 273.666 733.471 280.408C731.167 287.064 727.37 291.842 722.079 294.744C716.788 297.56 709.663 298.968 700.703 298.968C691.828 298.968 684.746 297.56 679.455 294.744C674.164 291.842 670.367 287.064 668.063 280.408C665.844 273.666 664.735 264.536 664.735 253.016C664.735 241.496 665.844 232.408 668.063 225.752C670.367 219.01 674.164 214.232 679.455 211.416C684.746 208.514 691.828 207.064 700.703 207.064ZM700.575 225.24C698.186 225.24 696.18 225.624 694.559 226.392C693.023 227.074 691.786 228.397 690.847 230.36C689.994 232.237 689.396 235.01 689.055 238.68C688.714 242.349 688.543 247.128 688.543 253.016C688.543 258.904 688.714 263.682 689.055 267.352C689.396 271.021 689.994 273.837 690.847 275.8C691.786 277.677 693.023 279 694.559 279.768C696.18 280.45 698.186 280.792 700.575 280.792C703.05 280.792 705.098 280.45 706.719 279.768C708.34 279 709.62 277.677 710.559 275.8C711.498 273.837 712.138 271.021 712.479 267.352C712.906 263.682 713.119 258.904 713.119 253.016C713.119 247.128 712.906 242.349 712.479 238.68C712.138 235.01 711.498 232.237 710.559 230.36C709.62 228.397 708.34 227.074 706.719 226.392C705.098 225.624 703.05 225.24 700.575 225.24Z" fill="url(#paint1_linear_531_435)"/>
    <defs>
        <linearGradient id="paint0_linear_531_435" x1="184.712" y1="388.908" x2="184.712" y2="578.599" gradientUnits="userSpaceOnUse">
            <stop stop-color="#2080C9"/>
            <stop offset="1" stop-color="#7F0EAC"/>
        </linearGradient>
        <linearGradient id="paint1_linear_531_435" x1="719.915" y1="169.176" x2="548.441" y2="283.185" gradientUnits="userSpaceOnUse">
            <stop stop-color="#0C96D1"/>
            <stop offset="1" stop-color="#7F0EAC"/>
        </linearGradient>
        <clipPath id="clip0_531_435">
            <rect width="476.265" height="499.251" fill="white" transform="translate(127.801 91.0234)"/>
        </clipPath>
    </defs>
</svg>
