<svg width="850" height="1155" viewBox="0 0 850 1155" fill="none" xmlns="http://www.w3.org/2000/svg">
    <g clip-path="url(#clip0_506_491)">
        <path d="M485.451 532.123C485.086 534.434 484.72 537.354 484.477 539.665C484.477 539.665 484.477 540.03 484.477 540.152C484.964 536.745 485.33 534.191 485.573 532.123H485.451Z" fill="#F7BE89"/>
        <path d="M485.451 532.123C486.182 527.135 486.548 524.337 485.451 532.123V532.123Z" fill="#F7BE89"/>
        <path d="M483.867 544.045C483.867 544.045 484.111 542.342 484.355 540.273C484.355 540.273 484.355 540.274 484.355 540.152C484.111 541.977 483.867 543.437 483.867 544.045Z" fill="#F7BE89"/>
        <path d="M640.445 104.624C632.647 96.8381 605.108 49.0274 605.108 49.0274C605.108 49.0274 620.096 27.7377 631.672 19.1001C648.487 30.7791 664.449 68.4923 675.294 98.5413L661.891 104.746C661.891 104.746 648.122 112.532 640.323 104.746L640.445 104.624Z" fill="#FFD7B6"/>
        <path d="M516.157 892.224C550.032 892.224 577.692 860.228 577.692 821.055V432.73C610.469 449.762 640.323 468.01 640.323 468.01V274.699C640.323 274.699 595.116 208.275 577.692 152.8V81.9962C582.931 57.4217 593.532 33.0905 612.297 18.7352C618.755 13.7473 625.335 14.4772 631.793 18.9785C620.095 27.7377 605.23 48.9058 605.23 48.9058C605.23 48.9058 632.646 96.5949 640.566 104.502C648.365 112.288 662.134 104.502 662.134 104.502L675.537 98.298C682.727 118.006 680.899 114.235 682.727 118.006C708.681 171.656 761.442 164.722 765.219 223.239C769.971 296.719 848.321 420.443 829.556 483.947C812.131 542.95 825.048 607.184 825.657 668.012C825.779 684.557 838.573 708.402 838.207 720.324C867.573 753.293 1030.12 854.875 1030.12 854.875L840.523 1154.88C840.523 1154.88 649.096 1009.26 557.586 991.373C418.433 964.122 384.072 922.516 349.101 892.102H516.279L516.157 892.224Z" fill="#F7BE89"/>
        <path d="M77.8621 655.481C82.005 655.481 85.5387 656.333 88.9505 657.428V758.037C85.6606 759.132 82.005 759.984 77.8621 759.984C52.0299 759.984 19.374 736.626 19.374 707.793C19.374 678.961 52.0299 655.603 77.8621 655.603V655.481Z" fill="#F7BE89"/>
        <path d="M73.9627 526.04C79.8115 526.04 84.6855 527.621 88.9503 530.054V572.147V641.491C84.6855 644.046 79.8115 645.627 73.9627 645.627C48.1305 645.627 15.4746 618.863 15.4746 585.773C15.4746 552.682 48.1305 525.918 73.9627 525.918V526.04Z" fill="#F7BE89"/>
        <path d="M36.0673 179.564C52.7608 176.279 72.7442 179.199 88.8284 186.255V304.383C43.2564 305.721 13.4031 260.1 1.70551 220.319C-7.79881 188.08 36.0673 179.442 36.0673 179.442V179.564Z" fill="#F7BE89"/>
        <path d="M23.2732 400.613C45.4499 377.255 80.1773 394.286 88.8286 399.153V523.728C83.2235 521.173 77.0091 518.497 69.9418 515.334C4.87381 486.502 -23.761 450.37 23.2732 400.613Z" fill="#F7BE89"/>
        <path d="M88.9502 821.055C88.9502 860.106 116.61 892.224 150.363 892.224H516.035C549.91 892.224 577.57 860.228 577.57 821.055V71.047C577.57 31.9955 549.91 0 516.157 0H150.363C116.61 0 88.9502 31.9955 88.9502 71.047V821.055Z" fill="#161616"/>
        <path d="M150.363 0H367.012L338.256 92.0934H129.283V442.584L88.9502 572.147V71.047C88.9502 31.9955 116.61 0 150.363 0Z" fill="url(#paint0_linear_506_491)"/>
        <path d="M537.237 92.0933H129.282V800.13H537.237V92.0933Z" fill="white"/>
        <path d="M260.394 34.6718C260.394 40.8763 264.78 45.8642 270.02 45.8642H383.828C389.189 45.8642 393.454 40.8763 393.454 34.6718C393.454 28.4674 389.067 23.4795 383.828 23.4795H270.02C264.658 23.4795 260.394 28.4674 260.394 34.6718Z" fill="#161616"/>
        <path d="M257.348 34.6717C257.348 26.8857 263.075 20.438 270.02 20.438H383.828C390.896 20.438 396.501 26.7641 396.501 34.6717C396.501 42.5793 390.774 48.9054 383.828 48.9054H270.02C262.953 48.9054 257.348 42.5793 257.348 34.6717ZM270.02 26.5208C266.365 26.5208 263.44 30.1705 263.44 34.6717C263.44 39.173 266.365 42.8227 270.02 42.8227H383.828C387.484 42.8227 390.408 39.173 390.408 34.6717C390.408 30.1705 387.484 26.5208 383.828 26.5208H270.02Z" fill="black"/>
        <path d="M315.106 306.512C315.778 306.512 316.306 307.04 316.306 307.664V313.568C316.306 314.192 315.778 314.768 315.106 314.768H308.866V330.8C308.866 331.472 308.338 332 307.666 332H300.61C299.938 332 299.41 331.472 299.41 330.8V314.768H293.17C292.546 314.768 291.97 314.192 291.97 313.568V307.664C291.97 307.04 292.546 306.512 293.17 306.512H315.106ZM345.593 306.512C346.697 306.512 346.985 307.136 346.649 308.096C346.313 309.008 338.729 330.608 338.201 331.952C333.977 342.656 326.009 342.032 323.225 342.032C322.553 342.032 322.073 341.504 322.073 340.784V334.592C322.073 333.872 322.601 333.296 323.225 333.296C323.225 333.296 328.505 333.488 329.129 330.464C326.633 324.464 320.201 308.96 319.913 308.24C319.481 307.184 319.721 306.512 320.873 306.512C322.073 306.512 327.545 306.512 327.545 306.512C328.697 306.512 328.889 306.848 329.321 307.76C329.513 308.144 333.545 319.856 333.545 319.856C333.545 319.856 336.905 308.048 337.049 307.76C337.481 306.848 337.673 306.512 338.825 306.512C338.825 306.512 344.393 306.512 345.593 306.512ZM372.809 306.512C373.481 306.512 374.009 307.04 374.009 307.664V313.568C374.009 314.192 373.481 314.768 372.809 314.768H366.569V330.8C366.569 331.472 366.041 332 365.369 332H358.313C357.641 332 357.113 331.472 357.113 330.8V314.768H350.873C350.249 314.768 349.673 314.192 349.673 313.568V307.664C349.673 307.04 350.249 306.512 350.873 306.512H372.809ZM277.081 378.8C280.345 378.896 282.505 381.728 282.505 384.32C282.505 389.12 278.281 392 272.233 392C272.137 392 260.569 392 260.569 392C259.945 392 259.369 391.472 259.369 390.8V367.712C259.369 367.04 259.897 366.512 260.569 366.512C260.569 366.512 270.745 366.512 270.793 366.512C276.697 366.512 281.017 368.192 281.017 373.328C281.017 375.296 279.289 377.936 277.081 378.656V378.8ZM272.905 374.528C272.905 373.376 272.089 372.656 270.313 372.656C270.217 372.656 269.593 372.656 268.825 372.656V376.688C269.449 376.688 270.121 376.688 270.409 376.688C272.569 376.688 272.905 375.584 272.905 374.528ZM271.657 385.952C273.241 385.952 274.153 385.04 274.153 383.888C274.153 382.784 273.241 381.92 271.705 381.92C271.465 381.92 270.121 381.92 268.825 381.92V385.952C270.121 385.952 271.369 385.952 271.657 385.952ZM310.586 366.464C311.258 366.464 311.786 367.04 311.786 367.664V390.8C311.786 391.472 311.258 392 310.586 392H303.53C302.858 392 302.33 391.472 302.33 390.8V381.296C302.33 381.296 296.042 390.08 295.274 391.136C294.746 391.904 294.458 392 293.786 392C293.738 392 288.506 392 288.506 392C287.834 392 287.306 391.472 287.306 390.8V367.664C287.306 367.04 287.834 366.464 288.506 366.464H295.562C296.234 366.464 296.762 367.04 296.762 367.664V377.168C296.762 377.168 302.57 369.056 303.674 367.52C304.346 366.608 304.73 366.464 305.546 366.464H310.586ZM344.43 383.744C345.054 383.744 345.582 384.272 345.582 384.944V397.808C345.582 398.48 345.054 399.008 344.43 399.008H337.326C336.702 399.008 336.126 398.48 336.126 397.808V392H324.606V397.808C324.606 398.48 324.078 399.008 323.406 399.008H316.35C315.678 399.008 315.15 398.48 315.15 397.808V384.944C315.15 384.272 315.678 383.744 316.35 383.744H318.27C318.702 382.928 319.086 382.112 319.422 381.344C321.342 376.736 320.91 367.712 320.91 367.712C320.91 367.088 321.438 366.512 322.11 366.512H341.07C341.742 366.512 342.27 367.088 342.27 367.712V383.744H344.43ZM328.542 381.488C328.35 382.256 328.11 383.024 327.822 383.744H332.814V374.768H329.406C329.166 377.408 328.83 380.144 328.542 381.488ZM372.215 382.16C371.159 382.16 367.463 382.16 358.919 382.16C359.879 385.04 362.663 385.856 364.487 385.904C367.415 386 369.143 385.424 370.871 384.656C371.495 384.416 372.167 384.416 372.551 385.136C372.743 385.616 373.655 388.112 373.895 388.688C374.182 389.456 373.847 389.984 373.415 390.272C370.631 392 366.743 392.576 363.431 392.576C354.455 392.576 349.463 386.576 349.463 379.184C349.463 371.792 354.407 365.84 363.047 365.84C370.583 365.84 375.047 371.792 375.047 379.184C375.047 381.344 374.807 382.16 372.215 382.16ZM363.047 372.464C360.407 372.464 358.727 374.384 358.727 377.36H366.455C366.455 374.432 365.303 372.464 363.047 372.464ZM392.772 365.84C400.308 365.84 406.644 371.792 406.644 379.184C406.644 386.576 400.308 392.576 392.772 392.576C385.236 392.576 378.9 386.576 378.9 379.184C378.9 371.792 385.236 365.84 392.772 365.84ZM392.772 384.656C395.7 384.656 398.052 382.208 398.052 379.184C398.052 376.16 395.7 373.712 392.772 373.712C389.892 373.712 387.54 376.16 387.54 379.184C387.54 382.208 389.892 384.656 392.772 384.656Z" fill="black"/>
    </g>
    <defs>
        <linearGradient id="paint0_linear_506_491" x1="257.835" y1="-19.8299" x2="54.7521" y2="406.218" gradientUnits="userSpaceOnUse">
            <stop stop-color="#535353"/>
            <stop offset="1" stop-color="#161616"/>
        </linearGradient>
        <clipPath id="clip0_506_491">
            <rect width="1030" height="1155" fill="white"/>
        </clipPath>
    </defs>
</svg>
