<svg width="537" height="683" viewBox="0 0 537 683" fill="none" xmlns="http://www.w3.org/2000/svg">
    <g clip-path="url(#clip0_534_456)">
        <path d="M359.293 425.401C328.257 461.858 292.485 491.533 252.979 513.589C240.154 520.75 227.16 526.979 214.035 532.275C191.858 541.222 169.302 547.485 146.553 551.022L161.381 590.495L66.9417 551.125L159.621 493.236L146.571 534.524C181.097 529.05 215.169 517.018 248.08 498.644C286.113 477.409 320.536 448.857 350.401 413.78C380.266 378.703 405.11 337.628 424.272 291.695C443.43 245.751 455.851 197.442 461.197 148.083C461.688 143.55 465.047 140.151 468.694 140.496C472.34 140.841 474.9 144.802 474.409 149.335C468.849 200.642 455.949 250.836 436.052 298.552C416.155 346.269 390.328 388.944 359.293 425.401Z" fill="url(#paint0_linear_534_456)"/>
    </g>
    <defs>
        <linearGradient id="paint0_linear_534_456" x1="244.389" y1="230.33" x2="357.737" y2="511.274" gradientUnits="userSpaceOnUse">
            <stop offset="0.465" stop-color="#7F0EAC"/>
            <stop offset="1" stop-color="#2080C9"/>
        </linearGradient>
        <clipPath id="clip0_534_456">
            <rect width="460.028" height="629.008" fill="white" transform="translate(80.7812) rotate(7.3787)"/>
        </clipPath>
    </defs>
</svg>
