<svg width="35" height="35" viewBox="0 0 35 35" fill="none" xmlns="http://www.w3.org/2000/svg">
    <path fill-rule="evenodd" clip-rule="evenodd" d="M17.5002 0C7.83522 0 0 7.83492 0 17.5C0 27.1651 7.83522 35 17.5002 35C27.1652 35 35 27.1651 35 17.5C35 7.83492 27.1648 0 17.5002 0ZM8.80459 10.0846H26.1954C27.0156 10.0846 27.702 10.6868 27.8343 11.4711L17.1044 17.6445L7.14271 11.7465C7.14271 10.8321 7.89067 10.0846 8.80459 10.0846ZM27.8573 23.2539C27.8573 24.1678 27.1093 24.9158 26.1954 24.9158H8.80459C7.89067 24.9158 7.14271 24.1678 7.14271 23.2539V13.86L17.1044 19.394L27.8332 13.4336L27.8573 13.4175V23.2539Z" fill="#ACBBD5"/>
</svg>
