<svg width="1066" height="558" viewBox="0 0 1066 558" fill="none" xmlns="http://www.w3.org/2000/svg">
    <rect x="995.41" y="58.5355" width="94.0274" height="93.1613" rx="17.5" transform="rotate(45 995.41 58.5355)" stroke="url(#paint0_linear_582_514)" stroke-width="5"/>
    <rect x="533.41" y="392.536" width="94.0274" height="93.1613" rx="17.5" transform="rotate(45 533.41 392.536)" stroke="url(#paint1_linear_582_514)" stroke-width="5"/>
    <rect x="532.41" y="11.5355" width="94.0274" height="93.1613" rx="17.5" transform="rotate(45 532.41 11.5355)" stroke="url(#paint2_linear_582_514)" stroke-width="5"/>
    <rect x="69.4102" y="60.5355" width="94.0274" height="93.1613" rx="17.5" transform="rotate(45 69.4102 60.5355)" stroke="url(#paint3_linear_582_514)" stroke-width="5"/>
    <rect x="322.774" y="9.19239" width="383.299" height="379.833" rx="43.5" transform="rotate(45 322.774 9.19239)" fill="#F2F6FF" stroke="url(#paint4_linear_582_514)" stroke-width="13"/>
    <g clip-path="url(#clip0_582_514)">
        <path d="M346.099 114.058H263.516C260.332 114.058 257.752 116.622 257.752 119.785V225.532C257.752 228.695 260.332 231.259 263.516 231.259H346.099C349.283 231.259 351.863 228.695 351.863 225.532V119.785C351.863 116.622 349.283 114.058 346.099 114.058Z" fill="#820CAC" stroke="#820CAC" stroke-width="2" stroke-linecap="round" stroke-linejoin="round"/>
        <path d="M323.868 220.884H267.843V124.449H341.544V205.879L323.868 220.884Z" fill="white" stroke="#820CAC" stroke-width="2" stroke-linecap="round" stroke-linejoin="round"/>
        <path d="M327.302 109.74H282.296V128.801H327.302V109.74Z" fill="#1392CE" stroke="#820CAC" stroke-width="2" stroke-linecap="round" stroke-linejoin="round"/>
        <path d="M286.185 138.444H275.271V149.289H286.185V138.444Z" fill="white" stroke="#820CAC" stroke-width="2" stroke-linecap="round" stroke-linejoin="round"/>
        <path d="M286.185 159.367H275.271V170.212H286.185V159.367Z" fill="white" stroke="#820CAC" stroke-width="2" stroke-linecap="round" stroke-linejoin="round"/>
        <path d="M286.185 180.291H275.271V191.136H286.185V180.291Z" fill="white" stroke="#820CAC" stroke-width="2" stroke-linecap="round" stroke-linejoin="round"/>
        <path d="M293.087 140.689H326.338" stroke="#820CAC" stroke-width="2" stroke-linecap="round" stroke-linejoin="round"/>
        <path d="M293.087 147.043H332.487" stroke="#820CAC" stroke-width="2" stroke-linecap="round" stroke-linejoin="round"/>
        <path d="M293.087 161.613H326.338" stroke="#820CAC" stroke-width="2" stroke-linecap="round" stroke-linejoin="round"/>
        <path d="M293.087 167.967H332.487" stroke="#820CAC" stroke-width="2" stroke-linecap="round" stroke-linejoin="round"/>
        <path d="M293.087 182.536H326.338" stroke="#820CAC" stroke-width="2" stroke-linecap="round" stroke-linejoin="round"/>
        <path d="M293.087 188.89H332.487" stroke="#820CAC" stroke-width="2" stroke-linecap="round" stroke-linejoin="round"/>
        <path d="M286.185 200.622H275.271V211.467H286.185V200.622Z" fill="white" stroke="#820CAC" stroke-width="2" stroke-linecap="round" stroke-linejoin="round"/>
        <path d="M293.087 202.868H326.338" stroke="#820CAC" stroke-width="2" stroke-linecap="round" stroke-linejoin="round"/>
        <path d="M293.087 209.222H332.487" stroke="#820CAC" stroke-width="2" stroke-linecap="round" stroke-linejoin="round"/>
        <path d="M341.545 205.879L323.868 220.884V205.879H341.545Z" fill="white" stroke="#820CAC" stroke-width="2" stroke-linecap="round" stroke-linejoin="round"/>
        <path d="M382.539 130.699H366.807V203.757H382.539V130.699Z" fill="#1392CE" stroke="#820CAC" stroke-width="2" stroke-linecap="round" stroke-linejoin="round"/>
        <path d="M366.807 203.756L374.673 217.716L382.556 203.756H366.807Z" fill="white" stroke="#820CAC" stroke-width="2" stroke-linecap="round" stroke-linejoin="round"/>
        <path d="M373.043 213.87H376.319" stroke="#E3EAFD" stroke-width="2" stroke-linecap="round" stroke-linejoin="round"/>
        <path d="M374.673 122.709C370.328 122.709 366.807 126.208 366.807 130.525H382.539C382.539 126.208 379.017 122.709 374.673 122.709Z" fill="#820CAC" stroke="#820CAC" stroke-width="2" stroke-linecap="round" stroke-linejoin="round"/>
        <path d="M366.807 137.418H389.248V163.198" stroke="#820CAC" stroke-width="2" stroke-linecap="round" stroke-linejoin="round"/>
        <path d="M374.796 194.756C373.009 194.756 371.555 193.312 371.555 191.536V175.278C371.555 173.502 373.009 172.058 374.796 172.058C376.583 172.058 378.037 173.502 378.037 175.278V191.536C378.037 193.312 376.583 194.756 374.796 194.756Z" fill="white" stroke="#820CAC" stroke-width="2" stroke-linecap="round" stroke-linejoin="round"/>
    </g>
    <path d="M206.732 297V271.8H211.34V289.692L224.876 271.8H229.232V297H224.624V279.144L211.088 297H206.732ZM235.794 297V277.776H240.294V285.588H249.978V277.776H254.478V297H249.978V289.404H240.294V297H235.794ZM264.504 297V280.512L265.548 281.592H257.736V277.776H275.736V281.592H267.96L269.004 280.512V297H264.504ZM287.121 297.252C284.985 297.252 283.113 296.832 281.505 295.992C279.921 295.128 278.685 293.952 277.797 292.464C276.933 290.976 276.501 289.284 276.501 287.388C276.501 285.468 276.921 283.776 277.761 282.312C278.625 280.824 279.801 279.66 281.289 278.82C282.801 277.98 284.517 277.56 286.437 277.56C288.309 277.56 289.977 277.968 291.441 278.784C292.905 279.6 294.057 280.752 294.897 282.24C295.737 283.728 296.157 285.48 296.157 287.496C296.157 287.688 296.145 287.904 296.121 288.144C296.121 288.384 296.109 288.612 296.085 288.828H280.065V285.84H293.709L291.945 286.776C291.969 285.672 291.741 284.7 291.261 283.86C290.781 283.02 290.121 282.36 289.281 281.88C288.465 281.4 287.517 281.16 286.437 281.16C285.333 281.16 284.361 281.4 283.521 281.88C282.705 282.36 282.057 283.032 281.577 283.896C281.121 284.736 280.893 285.732 280.893 286.884V287.604C280.893 288.756 281.157 289.776 281.685 290.664C282.213 291.552 282.957 292.236 283.917 292.716C284.877 293.196 285.981 293.436 287.229 293.436C288.309 293.436 289.281 293.268 290.145 292.932C291.009 292.596 291.777 292.068 292.449 291.348L294.861 294.12C293.997 295.128 292.905 295.908 291.585 296.46C290.289 296.988 288.801 297.252 287.121 297.252ZM301.079 297V277.776H315.839V281.592H304.535L305.579 280.584V297H301.079ZM329.77 297.252C328.21 297.252 326.782 296.892 325.486 296.172C324.214 295.452 323.194 294.372 322.426 292.932C321.682 291.468 321.31 289.62 321.31 287.388C321.31 285.132 321.67 283.284 322.39 281.844C323.134 280.404 324.142 279.336 325.414 278.64C326.686 277.92 328.138 277.56 329.77 277.56C331.666 277.56 333.334 277.968 334.774 278.784C336.238 279.6 337.39 280.74 338.23 282.204C339.094 283.668 339.526 285.396 339.526 287.388C339.526 289.38 339.094 291.12 338.23 292.608C337.39 294.072 336.238 295.212 334.774 296.028C333.334 296.844 331.666 297.252 329.77 297.252ZM319.114 303.984V277.776H323.398V282.312L323.254 287.424L323.614 292.536V303.984H319.114ZM329.266 293.4C330.346 293.4 331.306 293.16 332.146 292.68C333.01 292.2 333.694 291.504 334.198 290.592C334.702 289.68 334.954 288.612 334.954 287.388C334.954 286.14 334.702 285.072 334.198 284.184C333.694 283.272 333.01 282.576 332.146 282.096C331.306 281.616 330.346 281.376 329.266 281.376C328.186 281.376 327.214 281.616 326.35 282.096C325.486 282.576 324.802 283.272 324.298 284.184C323.794 285.072 323.542 286.14 323.542 287.388C323.542 288.612 323.794 289.68 324.298 290.592C324.802 291.504 325.486 292.2 326.35 292.68C327.214 293.16 328.186 293.4 329.266 293.4ZM355.422 297V293.112L355.17 292.284V285.48C355.17 284.16 354.774 283.14 353.982 282.42C353.19 281.676 351.99 281.304 350.382 281.304C349.302 281.304 348.234 281.472 347.178 281.808C346.146 282.144 345.27 282.612 344.55 283.212L342.786 279.936C343.818 279.144 345.042 278.556 346.458 278.172C347.898 277.764 349.386 277.56 350.922 277.56C353.706 277.56 355.854 278.232 357.366 279.576C358.902 280.896 359.67 282.948 359.67 285.732V297H355.422ZM349.374 297.252C347.934 297.252 346.674 297.012 345.594 296.532C344.514 296.028 343.674 295.344 343.074 294.48C342.498 293.592 342.21 292.596 342.21 291.492C342.21 290.412 342.462 289.44 342.966 288.576C343.494 287.712 344.346 287.028 345.522 286.524C346.698 286.02 348.258 285.768 350.202 285.768H355.782V288.756H350.526C348.99 288.756 347.958 289.008 347.43 289.512C346.902 289.992 346.638 290.592 346.638 291.312C346.638 292.128 346.962 292.776 347.61 293.256C348.258 293.736 349.158 293.976 350.31 293.976C351.414 293.976 352.398 293.724 353.262 293.22C354.15 292.716 354.786 291.972 355.17 290.988L355.926 293.688C355.494 294.816 354.714 295.692 353.586 296.316C352.482 296.94 351.078 297.252 349.374 297.252ZM365.239 297V277.776H369.739V293.184H378.919V277.776H383.419V297H365.239ZM382.123 301.284V296.892L383.167 297H378.919V293.184H386.335V301.284H382.123ZM390.34 297V277.776H394.84V290.448L405.46 277.776H409.564V297H405.064V284.328L394.48 297H390.34ZM427.822 297V290.448L428.47 291.204H422.71C420.07 291.204 417.994 290.652 416.482 289.548C414.994 288.42 414.25 286.8 414.25 284.688C414.25 282.432 415.042 280.716 416.626 279.54C418.234 278.364 420.37 277.776 423.034 277.776H431.854V297H427.822ZM413.998 297L419.182 289.656H423.79L418.822 297H413.998ZM427.822 289.008V280.368L428.47 281.556H423.178C421.786 281.556 420.706 281.82 419.938 282.348C419.194 282.852 418.822 283.68 418.822 284.832C418.822 286.992 420.226 288.072 423.034 288.072H428.47L427.822 289.008ZM276.903 341.252C274.887 341.252 273.087 340.832 271.503 339.992C269.943 339.128 268.719 337.952 267.831 336.464C266.943 334.976 266.499 333.284 266.499 331.388C266.499 329.468 266.943 327.776 267.831 326.312C268.719 324.824 269.943 323.66 271.503 322.82C273.087 321.98 274.887 321.56 276.903 321.56C278.775 321.56 280.419 321.944 281.835 322.712C283.275 323.456 284.367 324.56 285.111 326.024L281.655 328.04C281.079 327.128 280.371 326.456 279.531 326.024C278.715 325.592 277.827 325.376 276.867 325.376C275.763 325.376 274.767 325.616 273.879 326.096C272.991 326.576 272.295 327.272 271.791 328.184C271.287 329.072 271.035 330.14 271.035 331.388C271.035 332.636 271.287 333.716 271.791 334.628C272.295 335.516 272.991 336.2 273.879 336.68C274.767 337.16 275.763 337.4 276.867 337.4C277.827 337.4 278.715 337.184 279.531 336.752C280.371 336.32 281.079 335.648 281.655 334.736L285.111 336.752C284.367 338.192 283.275 339.308 281.835 340.1C280.419 340.868 278.775 341.252 276.903 341.252ZM311.046 341.36C309.126 341.36 307.338 341.048 305.682 340.424C304.05 339.776 302.622 338.876 301.398 337.724C300.198 336.548 299.262 335.168 298.59 333.584C297.918 332 297.582 330.272 297.582 328.4C297.582 326.528 297.918 324.8 298.59 323.216C299.262 321.632 300.21 320.264 301.434 319.112C302.658 317.936 304.086 317.036 305.718 316.412C307.35 315.764 309.138 315.44 311.082 315.44C313.146 315.44 315.03 315.8 316.734 316.52C318.438 317.216 319.878 318.26 321.054 319.652L318.03 322.496C317.118 321.512 316.098 320.78 314.97 320.3C313.842 319.796 312.618 319.544 311.298 319.544C309.978 319.544 308.766 319.76 307.662 320.192C306.582 320.624 305.634 321.236 304.818 322.028C304.026 322.82 303.402 323.756 302.946 324.836C302.514 325.916 302.298 327.104 302.298 328.4C302.298 329.696 302.514 330.884 302.946 331.964C303.402 333.044 304.026 333.98 304.818 334.772C305.634 335.564 306.582 336.176 307.662 336.608C308.766 337.04 309.978 337.256 311.298 337.256C312.618 337.256 313.842 337.016 314.97 336.536C316.098 336.032 317.118 335.276 318.03 334.268L321.054 337.148C319.878 338.516 318.438 339.56 316.734 340.28C315.03 341 313.134 341.36 311.046 341.36ZM325.538 341V315.8H335.906C338.138 315.8 340.046 316.16 341.63 316.88C343.238 317.6 344.474 318.632 345.338 319.976C346.202 321.32 346.634 322.916 346.634 324.764C346.634 326.612 346.202 328.208 345.338 329.552C344.474 330.872 343.238 331.892 341.63 332.612C340.046 333.308 338.138 333.656 335.906 333.656H328.13L330.218 331.532V341H325.538ZM342.026 341L335.654 331.856H340.658L347.066 341H342.026ZM330.218 332.036L328.13 329.804H335.69C337.754 329.804 339.302 329.36 340.334 328.472C341.39 327.584 341.918 326.348 341.918 324.764C341.918 323.156 341.39 321.92 340.334 321.056C339.302 320.192 337.754 319.76 335.69 319.76H328.13L330.218 317.456V332.036ZM351.87 341V315.8H355.722L366.738 334.196H364.722L375.558 315.8H379.41L379.446 341H375.018L374.982 322.748H375.918L366.702 338.12H364.614L355.254 322.748H356.334V341H351.87Z" fill="#0A1526"/>
    <rect x="741.774" y="9.19239" width="383.299" height="379.833" rx="43.5" transform="rotate(45 741.774 9.19239)" fill="#F2F6FF" stroke="url(#paint5_linear_582_514)" stroke-width="13"/>
    <path d="M676.093 249.36C674.173 249.36 672.385 249.048 670.729 248.424C669.097 247.776 667.669 246.876 666.445 245.724C665.245 244.548 664.309 243.168 663.637 241.584C662.965 240 662.629 238.272 662.629 236.4C662.629 234.528 662.965 232.8 663.637 231.216C664.309 229.632 665.257 228.264 666.481 227.112C667.705 225.936 669.133 225.036 670.765 224.412C672.397 223.764 674.185 223.44 676.129 223.44C678.193 223.44 680.077 223.8 681.781 224.52C683.485 225.216 684.925 226.26 686.101 227.652L683.077 230.496C682.165 229.512 681.145 228.78 680.017 228.3C678.889 227.796 677.665 227.544 676.345 227.544C675.025 227.544 673.813 227.76 672.709 228.192C671.629 228.624 670.681 229.236 669.865 230.028C669.073 230.82 668.449 231.756 667.993 232.836C667.561 233.916 667.345 235.104 667.345 236.4C667.345 237.696 667.561 238.884 667.993 239.964C668.449 241.044 669.073 241.98 669.865 242.772C670.681 243.564 671.629 244.176 672.709 244.608C673.813 245.04 675.025 245.256 676.345 245.256C677.665 245.256 678.889 245.016 680.017 244.536C681.145 244.032 682.165 243.276 683.077 242.268L686.101 245.148C684.925 246.516 683.485 247.56 681.781 248.28C680.077 249 678.181 249.36 676.093 249.36ZM689.942 249V229.776H694.442V242.448L705.062 229.776H709.166V249H704.666V236.328L694.082 249H689.942ZM723.967 249.252C721.951 249.252 720.151 248.832 718.567 247.992C717.007 247.128 715.783 245.952 714.895 244.464C714.007 242.976 713.563 241.284 713.563 239.388C713.563 237.468 714.007 235.776 714.895 234.312C715.783 232.824 717.007 231.66 718.567 230.82C720.151 229.98 721.951 229.56 723.967 229.56C725.839 229.56 727.483 229.944 728.899 230.712C730.339 231.456 731.431 232.56 732.175 234.024L728.719 236.04C728.143 235.128 727.435 234.456 726.595 234.024C725.779 233.592 724.891 233.376 723.931 233.376C722.827 233.376 721.831 233.616 720.943 234.096C720.055 234.576 719.359 235.272 718.855 236.184C718.351 237.072 718.099 238.14 718.099 239.388C718.099 240.636 718.351 241.716 718.855 242.628C719.359 243.516 720.055 244.2 720.943 244.68C721.831 245.16 722.827 245.4 723.931 245.4C724.891 245.4 725.779 245.184 726.595 244.752C727.435 244.32 728.143 243.648 728.719 242.736L732.175 244.752C731.431 246.192 730.339 247.308 728.899 248.1C727.483 248.868 725.839 249.252 723.967 249.252ZM739.993 249V232.512L741.037 233.592H733.225V229.776H751.225V233.592H743.449L744.493 232.512V249H739.993ZM762.609 249.252C760.473 249.252 758.601 248.832 756.993 247.992C755.409 247.128 754.173 245.952 753.285 244.464C752.421 242.976 751.989 241.284 751.989 239.388C751.989 237.468 752.409 235.776 753.249 234.312C754.113 232.824 755.289 231.66 756.777 230.82C758.289 229.98 760.005 229.56 761.925 229.56C763.797 229.56 765.465 229.968 766.929 230.784C768.393 231.6 769.545 232.752 770.385 234.24C771.225 235.728 771.645 237.48 771.645 239.496C771.645 239.688 771.633 239.904 771.609 240.144C771.609 240.384 771.597 240.612 771.573 240.828H755.553V237.84H769.197L767.433 238.776C767.457 237.672 767.229 236.7 766.749 235.86C766.269 235.02 765.609 234.36 764.769 233.88C763.953 233.4 763.005 233.16 761.925 233.16C760.821 233.16 759.849 233.4 759.009 233.88C758.193 234.36 757.545 235.032 757.065 235.896C756.609 236.736 756.381 237.732 756.381 238.884V239.604C756.381 240.756 756.645 241.776 757.173 242.664C757.701 243.552 758.445 244.236 759.405 244.716C760.365 245.196 761.469 245.436 762.717 245.436C763.797 245.436 764.769 245.268 765.633 244.932C766.497 244.596 767.265 244.068 767.937 243.348L770.349 246.12C769.485 247.128 768.393 247.908 767.073 248.46C765.777 248.988 764.289 249.252 762.609 249.252ZM776.567 249V229.776H781.283L789.023 243.42H787.151L795.287 229.776H799.499L799.535 249H795.467V234.6L796.187 235.068L788.987 246.984H787.043L779.807 234.744L780.671 234.528V249H776.567ZM817.235 249V245.112L816.983 244.284V237.48C816.983 236.16 816.587 235.14 815.795 234.42C815.003 233.676 813.803 233.304 812.195 233.304C811.115 233.304 810.047 233.472 808.991 233.808C807.959 234.144 807.083 234.612 806.363 235.212L804.599 231.936C805.631 231.144 806.855 230.556 808.271 230.172C809.711 229.764 811.199 229.56 812.735 229.56C815.519 229.56 817.667 230.232 819.179 231.576C820.715 232.896 821.483 234.948 821.483 237.732V249H817.235ZM811.187 249.252C809.747 249.252 808.487 249.012 807.407 248.532C806.327 248.028 805.487 247.344 804.887 246.48C804.311 245.592 804.023 244.596 804.023 243.492C804.023 242.412 804.275 241.44 804.779 240.576C805.307 239.712 806.159 239.028 807.335 238.524C808.511 238.02 810.071 237.768 812.015 237.768H817.595V240.756H812.339C810.803 240.756 809.771 241.008 809.243 241.512C808.715 241.992 808.451 242.592 808.451 243.312C808.451 244.128 808.775 244.776 809.423 245.256C810.071 245.736 810.971 245.976 812.123 245.976C813.227 245.976 814.211 245.724 815.075 245.22C815.963 244.716 816.599 243.972 816.983 242.988L817.739 245.688C817.307 246.816 816.527 247.692 815.399 248.316C814.295 248.94 812.891 249.252 811.187 249.252ZM629.9 292.964L630.116 289.184C630.284 289.208 630.44 289.232 630.584 289.256C630.728 289.28 630.86 289.292 630.98 289.292C631.724 289.292 632.3 289.064 632.708 288.608C633.116 288.152 633.416 287.54 633.608 286.772C633.824 285.98 633.968 285.104 634.04 284.144C634.136 283.16 634.208 282.176 634.256 281.192L634.58 273.776H650.132V293H645.632V276.368L646.676 277.592H637.532L638.504 276.332L638.252 281.408C638.18 283.112 638.036 284.696 637.82 286.16C637.628 287.6 637.316 288.86 636.884 289.94C636.476 291.02 635.9 291.86 635.156 292.46C634.436 293.06 633.512 293.36 632.384 293.36C632.024 293.36 631.628 293.324 631.196 293.252C630.788 293.18 630.356 293.084 629.9 292.964ZM664.76 293.252C662.792 293.252 661.04 292.832 659.504 291.992C657.968 291.128 656.756 289.952 655.868 288.464C654.98 286.976 654.536 285.284 654.536 283.388C654.536 281.468 654.98 279.776 655.868 278.312C656.756 276.824 657.968 275.66 659.504 274.82C661.04 273.98 662.792 273.56 664.76 273.56C666.752 273.56 668.516 273.98 670.052 274.82C671.612 275.66 672.824 276.812 673.688 278.276C674.576 279.74 675.02 281.444 675.02 283.388C675.02 285.284 674.576 286.976 673.688 288.464C672.824 289.952 671.612 291.128 670.052 291.992C668.516 292.832 666.752 293.252 664.76 293.252ZM664.76 289.4C665.864 289.4 666.848 289.16 667.712 288.68C668.576 288.2 669.248 287.504 669.728 286.592C670.232 285.68 670.484 284.612 670.484 283.388C670.484 282.14 670.232 281.072 669.728 280.184C669.248 279.272 668.576 278.576 667.712 278.096C666.848 277.616 665.876 277.376 664.796 277.376C663.692 277.376 662.708 277.616 661.844 278.096C661.004 278.576 660.332 279.272 659.828 280.184C659.324 281.072 659.072 282.14 659.072 283.388C659.072 284.612 659.324 285.68 659.828 286.592C660.332 287.504 661.004 288.2 661.844 288.68C662.708 289.16 663.68 289.4 664.76 289.4ZM691.037 293V286.448L691.685 287.204H685.925C683.285 287.204 681.209 286.652 679.697 285.548C678.209 284.42 677.465 282.8 677.465 280.688C677.465 278.432 678.257 276.716 679.841 275.54C681.449 274.364 683.585 273.776 686.249 273.776H695.069V293H691.037ZM677.213 293L682.397 285.656H687.005L682.037 293H677.213ZM691.037 285.008V276.368L691.685 277.556H686.393C685.001 277.556 683.921 277.82 683.153 278.348C682.409 278.852 682.037 279.68 682.037 280.832C682.037 282.992 683.441 284.072 686.249 284.072H691.685L691.037 285.008ZM698.314 292.964L698.53 289.184C698.698 289.208 698.854 289.232 698.998 289.256C699.142 289.28 699.274 289.292 699.394 289.292C700.138 289.292 700.714 289.064 701.122 288.608C701.53 288.152 701.83 287.54 702.022 286.772C702.238 285.98 702.382 285.104 702.454 284.144C702.55 283.16 702.622 282.176 702.67 281.192L702.994 273.776H718.546V293H714.046V276.368L715.09 277.592H705.946L706.918 276.332L706.666 281.408C706.594 283.112 706.45 284.696 706.234 286.16C706.042 287.6 705.73 288.86 705.298 289.94C704.89 291.02 704.314 291.86 703.57 292.46C702.85 293.06 701.926 293.36 700.798 293.36C700.438 293.36 700.042 293.324 699.61 293.252C699.202 293.18 698.77 293.084 698.314 292.964ZM734.254 280.112C736.726 280.112 738.61 280.664 739.906 281.768C741.202 282.872 741.85 284.432 741.85 286.448C741.85 288.536 741.13 290.168 739.69 291.344C738.25 292.496 736.222 293.06 733.606 293.036L724.606 293V273.776H729.106V280.076L734.254 280.112ZM733.21 289.724C734.53 289.748 735.538 289.472 736.234 288.896C736.93 288.32 737.278 287.48 737.278 286.376C737.278 285.272 736.93 284.48 736.234 284C735.562 283.496 734.554 283.232 733.21 283.208L729.106 283.172V289.688L733.21 289.724ZM745.805 293V273.776H750.305V281.588H759.989V273.776H764.489V293H759.989V285.404H750.305V293H745.805ZM779.088 293.252C777.12 293.252 775.368 292.832 773.832 291.992C772.296 291.128 771.084 289.952 770.196 288.464C769.308 286.976 768.864 285.284 768.864 283.388C768.864 281.468 769.308 279.776 770.196 278.312C771.084 276.824 772.296 275.66 773.832 274.82C775.368 273.98 777.12 273.56 779.088 273.56C781.08 273.56 782.844 273.98 784.38 274.82C785.94 275.66 787.152 276.812 788.016 278.276C788.904 279.74 789.348 281.444 789.348 283.388C789.348 285.284 788.904 286.976 788.016 288.464C787.152 289.952 785.94 291.128 784.38 291.992C782.844 292.832 781.08 293.252 779.088 293.252ZM779.088 289.4C780.192 289.4 781.176 289.16 782.04 288.68C782.904 288.2 783.576 287.504 784.056 286.592C784.56 285.68 784.812 284.612 784.812 283.388C784.812 282.14 784.56 281.072 784.056 280.184C783.576 279.272 782.904 278.576 782.04 278.096C781.176 277.616 780.204 277.376 779.124 277.376C778.02 277.376 777.036 277.616 776.172 278.096C775.332 278.576 774.66 279.272 774.156 280.184C773.652 281.072 773.4 282.14 773.4 283.388C773.4 284.612 773.652 285.68 774.156 286.592C774.66 287.504 775.332 288.2 776.172 288.68C777.036 289.16 778.008 289.4 779.088 289.4ZM802.542 293.252C800.526 293.252 798.726 292.832 797.142 291.992C795.582 291.128 794.358 289.952 793.47 288.464C792.582 286.976 792.138 285.284 792.138 283.388C792.138 281.468 792.582 279.776 793.47 278.312C794.358 276.824 795.582 275.66 797.142 274.82C798.726 273.98 800.526 273.56 802.542 273.56C804.414 273.56 806.058 273.944 807.474 274.712C808.914 275.456 810.006 276.56 810.75 278.024L807.294 280.04C806.718 279.128 806.01 278.456 805.17 278.024C804.354 277.592 803.466 277.376 802.506 277.376C801.402 277.376 800.406 277.616 799.518 278.096C798.63 278.576 797.934 279.272 797.43 280.184C796.926 281.072 796.674 282.14 796.674 283.388C796.674 284.636 796.926 285.716 797.43 286.628C797.934 287.516 798.63 288.2 799.518 288.68C800.406 289.16 801.402 289.4 802.506 289.4C803.466 289.4 804.354 289.184 805.17 288.752C806.01 288.32 806.718 287.648 807.294 286.736L810.75 288.752C810.006 290.192 808.914 291.308 807.474 292.1C806.058 292.868 804.414 293.252 802.542 293.252ZM818.567 293V276.512L819.611 277.592H811.799V273.776H829.799V277.592H822.023L823.067 276.512V293H818.567ZM833.063 293V273.776H837.563V286.448L848.183 273.776H852.287V293H847.787V280.328L837.203 293H833.063ZM643.465 337V317.776H647.965V330.448L658.585 317.776H662.689V337H658.189V324.328L647.605 337H643.465ZM687.872 337.36C686.288 337.36 684.872 337.12 683.624 336.64C682.376 336.16 681.296 335.428 680.384 334.444C679.496 333.436 678.812 332.164 678.332 330.628C677.852 329.092 677.612 327.268 677.612 325.156C677.612 323.62 677.744 322.216 678.008 320.944C678.272 319.672 678.668 318.532 679.196 317.524C679.724 316.492 680.384 315.58 681.176 314.788C681.992 313.996 682.94 313.336 684.02 312.808C685.1 312.28 686.324 311.872 687.692 311.584L696.62 309.676L697.268 313.708L689.168 315.364C688.712 315.46 688.16 315.604 687.512 315.796C686.888 315.964 686.24 316.228 685.568 316.588C684.92 316.924 684.308 317.416 683.732 318.064C683.18 318.688 682.724 319.504 682.364 320.512C682.028 321.496 681.86 322.732 681.86 324.22C681.86 324.676 681.872 325.024 681.896 325.264C681.944 325.48 681.98 325.72 682.004 325.984C682.052 326.224 682.076 326.584 682.076 327.064L680.384 325.3C680.864 324.076 681.524 323.032 682.364 322.168C683.228 321.28 684.224 320.608 685.352 320.152C686.504 319.672 687.752 319.432 689.096 319.432C690.896 319.432 692.492 319.804 693.884 320.548C695.276 321.292 696.368 322.336 697.16 323.68C697.952 325.024 698.348 326.548 698.348 328.252C698.348 330.028 697.916 331.6 697.052 332.968C696.188 334.336 694.964 335.416 693.38 336.208C691.82 336.976 689.984 337.36 687.872 337.36ZM688.232 333.724C689.312 333.724 690.26 333.496 691.076 333.04C691.916 332.56 692.564 331.912 693.02 331.096C693.5 330.28 693.74 329.368 693.74 328.36C693.74 327.352 693.5 326.476 693.02 325.732C692.564 324.964 691.916 324.352 691.076 323.896C690.26 323.44 689.288 323.212 688.16 323.212C687.08 323.212 686.108 323.428 685.244 323.86C684.404 324.292 683.744 324.892 683.264 325.66C682.808 326.404 682.58 327.268 682.58 328.252C682.58 329.26 682.82 330.184 683.3 331.024C683.78 331.864 684.44 332.524 685.28 333.004C686.144 333.484 687.128 333.724 688.232 333.724ZM711.272 337.252C709.304 337.252 707.552 336.832 706.016 335.992C704.48 335.128 703.268 333.952 702.38 332.464C701.492 330.976 701.048 329.284 701.048 327.388C701.048 325.468 701.492 323.776 702.38 322.312C703.268 320.824 704.48 319.66 706.016 318.82C707.552 317.98 709.304 317.56 711.272 317.56C713.264 317.56 715.028 317.98 716.564 318.82C718.124 319.66 719.336 320.812 720.2 322.276C721.088 323.74 721.532 325.444 721.532 327.388C721.532 329.284 721.088 330.976 720.2 332.464C719.336 333.952 718.124 335.128 716.564 335.992C715.028 336.832 713.264 337.252 711.272 337.252ZM711.272 333.4C712.376 333.4 713.36 333.16 714.224 332.68C715.088 332.2 715.76 331.504 716.24 330.592C716.744 329.68 716.996 328.612 716.996 327.388C716.996 326.14 716.744 325.072 716.24 324.184C715.76 323.272 715.088 322.576 714.224 322.096C713.36 321.616 712.388 321.376 711.308 321.376C710.204 321.376 709.22 321.616 708.356 322.096C707.516 322.576 706.844 323.272 706.34 324.184C705.836 325.072 705.584 326.14 705.584 327.388C705.584 328.612 705.836 329.68 706.34 330.592C706.844 331.504 707.516 332.2 708.356 332.68C709.22 333.16 710.192 333.4 711.272 333.4ZM725.977 337V317.776H730.477V325.588H740.161V317.776H744.661V337H740.161V329.404H730.477V337H725.977ZM752.42 344.236C751.484 344.236 750.548 344.08 749.612 343.768C748.676 343.456 747.896 343.024 747.272 342.472L749.072 339.16C749.528 339.568 750.044 339.892 750.62 340.132C751.196 340.372 751.784 340.492 752.384 340.492C753.2 340.492 753.86 340.288 754.364 339.88C754.868 339.472 755.336 338.788 755.768 337.828L756.884 335.308L757.244 334.768L764.516 317.776H768.836L759.836 338.548C759.236 339.988 758.564 341.128 757.82 341.968C757.1 342.808 756.284 343.396 755.372 343.732C754.484 344.068 753.5 344.236 752.42 344.236ZM756.38 337.684L747.704 317.776H752.384L759.44 334.372L756.38 337.684ZM780.182 337.252C778.166 337.252 776.366 336.832 774.782 335.992C773.222 335.128 771.998 333.952 771.11 332.464C770.222 330.976 769.778 329.284 769.778 327.388C769.778 325.468 770.222 323.776 771.11 322.312C771.998 320.824 773.222 319.66 774.782 318.82C776.366 317.98 778.166 317.56 780.182 317.56C782.054 317.56 783.698 317.944 785.114 318.712C786.554 319.456 787.646 320.56 788.39 322.024L784.934 324.04C784.358 323.128 783.65 322.456 782.81 322.024C781.994 321.592 781.106 321.376 780.146 321.376C779.042 321.376 778.046 321.616 777.158 322.096C776.27 322.576 775.574 323.272 775.07 324.184C774.566 325.072 774.314 326.14 774.314 327.388C774.314 328.636 774.566 329.716 775.07 330.628C775.574 331.516 776.27 332.2 777.158 332.68C778.046 333.16 779.042 333.4 780.146 333.4C781.106 333.4 781.994 333.184 782.81 332.752C783.65 332.32 784.358 331.648 784.934 330.736L788.39 332.752C787.646 334.192 786.554 335.308 785.114 336.1C783.698 336.868 782.054 337.252 780.182 337.252ZM800.639 337.252C798.671 337.252 796.919 336.832 795.383 335.992C793.847 335.128 792.635 333.952 791.747 332.464C790.859 330.976 790.415 329.284 790.415 327.388C790.415 325.468 790.859 323.776 791.747 322.312C792.635 320.824 793.847 319.66 795.383 318.82C796.919 317.98 798.671 317.56 800.639 317.56C802.631 317.56 804.395 317.98 805.931 318.82C807.491 319.66 808.703 320.812 809.567 322.276C810.455 323.74 810.899 325.444 810.899 327.388C810.899 329.284 810.455 330.976 809.567 332.464C808.703 333.952 807.491 335.128 805.931 335.992C804.395 336.832 802.631 337.252 800.639 337.252ZM800.639 333.4C801.743 333.4 802.727 333.16 803.591 332.68C804.455 332.2 805.127 331.504 805.607 330.592C806.111 329.68 806.363 328.612 806.363 327.388C806.363 326.14 806.111 325.072 805.607 324.184C805.127 323.272 804.455 322.576 803.591 322.096C802.727 321.616 801.755 321.376 800.675 321.376C799.571 321.376 798.587 321.616 797.723 322.096C796.883 322.576 796.211 323.272 795.707 324.184C795.203 325.072 794.951 326.14 794.951 327.388C794.951 328.612 795.203 329.68 795.707 330.592C796.211 331.504 796.883 332.2 797.723 332.68C798.587 333.16 799.559 333.4 800.639 333.4ZM815.344 337V317.776H824.74C827.068 317.776 828.892 318.208 830.212 319.072C831.556 319.936 832.228 321.16 832.228 322.744C832.228 324.304 831.604 325.528 830.356 326.416C829.108 327.28 827.452 327.712 825.388 327.712L825.928 326.596C828.256 326.596 829.984 327.028 831.112 327.892C832.264 328.732 832.84 329.968 832.84 331.6C832.84 333.304 832.204 334.636 830.932 335.596C829.66 336.532 827.728 337 825.136 337H815.344ZM819.628 333.724H824.776C826 333.724 826.924 333.532 827.548 333.148C828.172 332.74 828.484 332.128 828.484 331.312C828.484 330.448 828.196 329.812 827.62 329.404C827.044 328.996 826.144 328.792 824.92 328.792H819.628V333.724ZM819.628 325.804H824.344C825.496 325.804 826.36 325.6 826.936 325.192C827.536 324.76 827.836 324.16 827.836 323.392C827.836 322.6 827.536 322.012 826.936 321.628C826.36 321.244 825.496 321.052 824.344 321.052H819.628V325.804ZM627.638 378.912V365.592H620.258L620.15 368.688C620.102 369.792 620.03 370.86 619.934 371.892C619.838 372.9 619.682 373.836 619.466 374.7C619.25 375.54 618.938 376.236 618.53 376.788C618.122 377.34 617.582 377.7 616.91 377.868L612.446 377.184C613.166 377.184 613.742 376.956 614.174 376.5C614.63 376.02 614.978 375.372 615.218 374.556C615.482 373.716 615.674 372.768 615.794 371.712C615.914 370.632 615.998 369.516 616.046 368.364L616.298 361.776H632.138V378.912H627.638ZM611.762 385.284V377.184H634.982V385.284H630.77V381H615.938V385.284H611.762ZM636.193 380.964L636.409 377.184C636.577 377.208 636.733 377.232 636.877 377.256C637.021 377.28 637.153 377.292 637.273 377.292C638.017 377.292 638.593 377.064 639.001 376.608C639.409 376.152 639.709 375.54 639.901 374.772C640.117 373.98 640.261 373.104 640.333 372.144C640.429 371.16 640.501 370.176 640.549 369.192L640.873 361.776H656.425V381H651.925V364.368L652.969 365.592H643.825L644.797 364.332L644.545 369.408C644.473 371.112 644.329 372.696 644.113 374.16C643.921 375.6 643.609 376.86 643.177 377.94C642.769 379.02 642.193 379.86 641.449 380.46C640.729 381.06 639.805 381.36 638.677 381.36C638.317 381.36 637.921 381.324 637.489 381.252C637.081 381.18 636.649 381.084 636.193 380.964ZM674.689 381V374.448L675.337 375.204H669.577C666.937 375.204 664.861 374.652 663.349 373.548C661.861 372.42 661.117 370.8 661.117 368.688C661.117 366.432 661.909 364.716 663.493 363.54C665.101 362.364 667.237 361.776 669.901 361.776H678.721V381H674.689ZM660.865 381L666.049 373.656H670.657L665.689 381H660.865ZM674.689 373.008V364.368L675.337 365.556H670.045C668.653 365.556 667.573 365.82 666.805 366.348C666.061 366.852 665.689 367.68 665.689 368.832C665.689 370.992 667.093 372.072 669.901 372.072H675.337L674.689 373.008ZM708.511 381L701.563 371.784L705.235 369.516L713.803 381H708.511ZM694.723 381V361.776H699.223V381H694.723ZM697.891 373.296V369.552H704.407V373.296H697.891ZM705.667 371.928L701.455 371.424L708.511 361.776H713.335L705.667 371.928ZM714.169 380.964L714.385 377.184C714.553 377.208 714.709 377.232 714.853 377.256C714.997 377.28 715.129 377.292 715.249 377.292C715.993 377.292 716.569 377.064 716.977 376.608C717.385 376.152 717.685 375.54 717.877 374.772C718.093 373.98 718.237 373.104 718.309 372.144C718.405 371.16 718.477 370.176 718.525 369.192L718.849 361.776H734.401V381H729.901V364.368L730.945 365.592H721.801L722.773 364.332L722.521 369.408C722.449 371.112 722.305 372.696 722.089 374.16C721.897 375.6 721.585 376.86 721.153 377.94C720.745 379.02 720.169 379.86 719.425 380.46C718.705 381.06 717.781 381.36 716.653 381.36C716.293 381.36 715.897 381.324 715.465 381.252C715.057 381.18 714.625 381.084 714.169 380.964ZM740.462 381V361.776H744.962V374.448L755.582 361.776H759.686V381H755.186V368.328L744.602 381H740.462ZM774.703 381.252C772.567 381.252 770.695 380.832 769.087 379.992C767.503 379.128 766.267 377.952 765.379 376.464C764.515 374.976 764.083 373.284 764.083 371.388C764.083 369.468 764.503 367.776 765.343 366.312C766.207 364.824 767.383 363.66 768.871 362.82C770.383 361.98 772.099 361.56 774.019 361.56C775.891 361.56 777.559 361.968 779.023 362.784C780.487 363.6 781.639 364.752 782.479 366.24C783.319 367.728 783.739 369.48 783.739 371.496C783.739 371.688 783.727 371.904 783.703 372.144C783.703 372.384 783.691 372.612 783.667 372.828H767.647V369.84H781.291L779.527 370.776C779.551 369.672 779.323 368.7 778.843 367.86C778.363 367.02 777.703 366.36 776.863 365.88C776.047 365.4 775.099 365.16 774.019 365.16C772.915 365.16 771.943 365.4 771.103 365.88C770.287 366.36 769.639 367.032 769.159 367.896C768.703 368.736 768.475 369.732 768.475 370.884V371.604C768.475 372.756 768.739 373.776 769.267 374.664C769.795 375.552 770.539 376.236 771.499 376.716C772.459 377.196 773.563 377.436 774.811 377.436C775.891 377.436 776.863 377.268 777.727 376.932C778.591 376.596 779.359 376.068 780.031 375.348L782.443 378.12C781.579 379.128 780.487 379.908 779.167 380.46C777.871 380.988 776.383 381.252 774.703 381.252ZM788.661 381V361.776H793.161V369.588H802.845V361.776H807.345V381H802.845V373.404H793.161V381H788.661ZM817.372 381V364.512L818.416 365.592H810.604V361.776H828.604V365.592H820.828L821.872 364.512V381H817.372ZM839.592 381.252C837.624 381.252 835.872 380.832 834.336 379.992C832.8 379.128 831.588 377.952 830.7 376.464C829.812 374.976 829.368 373.284 829.368 371.388C829.368 369.468 829.812 367.776 830.7 366.312C831.588 364.824 832.8 363.66 834.336 362.82C835.872 361.98 837.624 361.56 839.592 361.56C841.584 361.56 843.348 361.98 844.884 362.82C846.444 363.66 847.656 364.812 848.52 366.276C849.408 367.74 849.852 369.444 849.852 371.388C849.852 373.284 849.408 374.976 848.52 376.464C847.656 377.952 846.444 379.128 844.884 379.992C843.348 380.832 841.584 381.252 839.592 381.252ZM839.592 377.4C840.696 377.4 841.68 377.16 842.544 376.68C843.408 376.2 844.08 375.504 844.56 374.592C845.064 373.68 845.316 372.612 845.316 371.388C845.316 370.14 845.064 369.072 844.56 368.184C844.08 367.272 843.408 366.576 842.544 366.096C841.68 365.616 840.708 365.376 839.628 365.376C838.524 365.376 837.54 365.616 836.676 366.096C835.836 366.576 835.164 367.272 834.66 368.184C834.156 369.072 833.904 370.14 833.904 371.388C833.904 372.612 834.156 373.68 834.66 374.592C835.164 375.504 835.836 376.2 836.676 376.68C837.54 377.16 838.512 377.4 839.592 377.4ZM854.297 381V361.776H863.693C866.021 361.776 867.845 362.208 869.165 363.072C870.509 363.936 871.181 365.16 871.181 366.744C871.181 368.304 870.557 369.528 869.309 370.416C868.061 371.28 866.405 371.712 864.341 371.712L864.881 370.596C867.209 370.596 868.937 371.028 870.065 371.892C871.217 372.732 871.793 373.968 871.793 375.6C871.793 377.304 871.157 378.636 869.885 379.596C868.613 380.532 866.681 381 864.089 381H854.297ZM858.581 377.724H863.729C864.953 377.724 865.877 377.532 866.501 377.148C867.125 376.74 867.437 376.128 867.437 375.312C867.437 374.448 867.149 373.812 866.573 373.404C865.997 372.996 865.097 372.792 863.873 372.792H858.581V377.724ZM858.581 369.804H863.297C864.449 369.804 865.313 369.6 865.889 369.192C866.489 368.76 866.789 368.16 866.789 367.392C866.789 366.6 866.489 366.012 865.889 365.628C865.313 365.244 864.449 365.052 863.297 365.052H858.581V369.804Z" fill="#0A1526"/>
    <g clip-path="url(#clip1_582_514)">
        <path d="M787.651 118.779V134.289H780.838H747.233H733.766H699.983H693.33V118.779H740.58H787.651Z" fill="white"/>
        <path d="M747.233 134.289H733.767V196.683H747.233V134.289Z" fill="white"/>
        <path d="M780.838 187.77V196.683H747.233V134.289H780.838V187.77Z" fill="#1392CE"/>
        <path d="M699.983 187.77V134.289H733.766V196.683H699.983V187.77Z" fill="#1392CE"/>
        <path d="M780.839 199H747.234C745.971 199 744.903 197.93 744.903 196.682C744.903 195.434 745.988 194.365 747.234 194.365H778.668V134.288C778.668 133.04 779.753 131.971 780.999 131.971C782.244 131.971 783.329 133.04 783.329 134.288V196.682C783.151 197.93 782.066 199 780.821 199H780.839Z" fill="#820CAC"/>
        <path d="M733.767 199H699.984C698.721 199 697.653 197.93 697.653 196.682V134.288C697.653 133.04 698.738 131.971 699.984 131.971C701.229 131.971 702.314 133.04 702.314 134.288V194.543H733.749C735.012 194.543 736.079 195.612 736.079 196.86C735.901 197.93 734.816 199 733.749 199H733.767Z" fill="#820CAC"/>
        <path d="M787.652 136.606H747.233C745.97 136.606 744.903 135.537 744.903 134.289C744.903 133.041 745.988 131.971 747.233 131.971H785.321V120.919H695.483V132.15H733.749C735.012 132.15 736.079 133.219 736.079 134.467C736.079 135.715 734.994 136.784 733.749 136.784H693.33C692.067 136.784 691 135.715 691 134.467V118.779C691 117.532 692.085 116.462 693.33 116.462H787.652C788.915 116.462 789.982 117.532 789.982 118.779V134.467C789.804 135.537 788.719 136.606 787.652 136.606Z" fill="#820CAC"/>
        <path d="M747.234 199H733.767C732.504 199 731.437 197.93 731.437 196.682V134.288C731.437 133.04 732.522 131.971 733.767 131.971H747.234C748.497 131.971 749.564 133.04 749.564 134.288V196.682C749.386 197.93 748.301 199 747.234 199ZM735.92 194.543H744.903V136.606H735.92V194.543Z" fill="#820CAC"/>
        <path d="M740.58 120.919C740.046 120.919 739.494 120.74 738.961 120.205C738.427 119.671 738.249 118.958 738.427 118.066C738.961 116.105 739.139 113.61 739.317 111.292C739.85 106.122 740.402 100.952 743.444 97.7436C745.952 95.2479 749.19 94 752.606 94C756.021 94 759.259 95.2479 761.767 97.7436C764.276 100.239 765.539 103.448 765.539 106.835C765.539 110.222 764.276 113.431 761.767 115.927C758.707 118.958 753.317 119.492 748.105 119.849C745.774 120.027 743.248 120.205 741.096 120.74C740.918 120.919 740.74 120.919 740.562 120.919H740.58ZM752.623 98.635C750.471 98.635 748.318 99.5263 746.699 101.131C744.725 103.092 744.369 107.548 743.817 111.827C743.639 113.253 743.462 114.679 743.284 115.927C744.725 115.749 746.166 115.57 747.589 115.57C751.894 115.214 756.573 114.857 758.369 112.896C759.988 111.292 760.878 109.153 760.878 107.014C760.878 104.874 759.988 102.735 758.369 101.131C756.928 99.5263 754.776 98.635 752.623 98.635Z" fill="#820CAC"/>
        <path d="M740.58 120.919H740.047C738.072 120.384 735.564 120.206 733.037 120.028C727.825 119.493 722.435 119.136 719.375 116.106C716.867 113.61 715.604 110.401 715.604 107.014C715.604 103.627 716.867 100.418 719.375 97.9223C721.901 95.4266 725.139 94.1787 728.554 94.1787C731.97 94.1787 735.208 95.4266 737.716 97.9223C740.776 100.953 741.31 106.301 741.843 111.471C742.021 113.788 742.377 116.284 742.733 118.245C742.911 118.958 742.733 119.849 742.199 120.384C741.843 120.741 741.114 120.919 740.58 120.919ZM728.537 98.6354C726.384 98.6354 724.232 99.5268 722.613 101.131C720.994 102.736 720.104 104.875 720.104 107.014C720.104 109.153 720.994 111.292 722.613 112.897C724.587 114.858 729.088 115.214 733.393 115.571C734.834 115.749 736.275 115.749 737.698 115.927C737.52 114.501 737.343 113.253 737.165 111.827C736.809 107.549 736.275 103.092 734.283 101.131C732.842 99.5268 730.867 98.6354 728.537 98.6354Z" fill="#820CAC"/>
        <path d="M720.282 190.086H699.984C698.721 190.086 697.653 189.017 697.653 187.769C697.653 186.521 698.738 185.451 699.984 185.451H720.282C721.545 185.451 722.612 186.521 722.612 187.769C722.434 189.017 721.349 190.086 720.282 190.086Z" fill="#820CAC"/>
        <path d="M780.838 190.086H760.718C759.455 190.086 758.388 189.017 758.388 187.769C758.388 186.521 759.473 185.451 760.718 185.451H781.016C782.279 185.451 783.347 186.521 783.347 187.769C783.169 189.017 782.084 190.086 780.838 190.086Z" fill="#820CAC"/>
    </g>
    <rect x="322.774" y="9.19239" width="383.299" height="379.833" rx="43.5" transform="rotate(45 322.774 9.19239)" stroke="url(#paint6_linear_582_514)" stroke-width="13"/>
    <defs>
        <linearGradient id="paint0_linear_582_514" x1="1044.92" y1="55" x2="1044.92" y2="153.161" gradientUnits="userSpaceOnUse">
            <stop stop-color="#168ECD"/>
            <stop offset="1" stop-color="#8705AB"/>
        </linearGradient>
        <linearGradient id="paint1_linear_582_514" x1="582.924" y1="389" x2="582.924" y2="487.161" gradientUnits="userSpaceOnUse">
            <stop stop-color="#168ECD"/>
            <stop offset="1" stop-color="#8705AB"/>
        </linearGradient>
        <linearGradient id="paint2_linear_582_514" x1="581.924" y1="8" x2="581.924" y2="106.161" gradientUnits="userSpaceOnUse">
            <stop stop-color="#168ECD"/>
            <stop offset="1" stop-color="#8705AB"/>
        </linearGradient>
        <linearGradient id="paint3_linear_582_514" x1="118.924" y1="57" x2="118.924" y2="155.161" gradientUnits="userSpaceOnUse">
            <stop stop-color="#168ECD"/>
            <stop offset="1" stop-color="#8705AB"/>
        </linearGradient>
        <linearGradient id="paint4_linear_582_514" x1="520.924" y1="0" x2="520.924" y2="392.833" gradientUnits="userSpaceOnUse">
            <stop stop-color="#168ECD"/>
            <stop offset="1" stop-color="#8705AB"/>
        </linearGradient>
        <linearGradient id="paint5_linear_582_514" x1="939.924" y1="0" x2="939.924" y2="392.833" gradientUnits="userSpaceOnUse">
            <stop stop-color="#168ECD"/>
            <stop offset="1" stop-color="#8705AB"/>
        </linearGradient>
        <linearGradient id="paint6_linear_582_514" x1="520.924" y1="0" x2="520.924" y2="392.833" gradientUnits="userSpaceOnUse">
            <stop stop-color="#168ECD"/>
            <stop offset="1" stop-color="#8705AB"/>
        </linearGradient>
        <clipPath id="clip0_582_514">
            <rect width="135" height="125" fill="white" transform="translate(256 108)"/>
        </clipPath>
        <clipPath id="clip1_582_514">
            <rect width="99" height="105" fill="white" transform="translate(691 94)"/>
        </clipPath>
    </defs>
</svg>
