<svg width="680" height="822" viewBox="0 0 680 822" fill="none" xmlns="http://www.w3.org/2000/svg">
    <g clip-path="url(#clip0_509_667)">
        <path d="M657.446 749.68H181.856C174.599 749.68 168.719 743.788 168.719 736.529C168.719 729.269 174.599 723.388 181.856 723.388H657.446C664.712 723.388 670.603 729.269 670.603 736.529C670.603 743.788 664.712 749.68 657.446 749.68Z" fill="#F2F6FF"/>
        <path d="M265.41 822H22.5141C15.2471 822 9.36719 816.118 9.36719 808.849C9.36719 801.58 15.2471 795.708 22.5141 795.708H265.41C272.677 795.708 278.557 801.6 278.557 808.849C278.557 816.098 272.677 822 265.41 822Z" fill="#F2F6FF"/>
        <path d="M541.556 197.326C524.66 214.559 521.262 240.368 537.344 258.014C541.928 263.061 547.476 266.711 553.446 268.963C557.688 270.561 558.854 275.81 556.311 279.299L511.02 320.582C510.588 320.974 510.106 321.265 509.613 321.527C508.92 321.899 508.186 322.19 507.422 322.301C505.874 322.11 504.367 321.436 503.211 320.19L499.019 315.705L461.116 275.086C460.453 274.372 459.659 273.889 458.835 273.517L458.182 272.804C454.463 268.711 456.865 262.337 462.313 261.392C469.881 260.055 477.168 256.646 483.269 251.076C507.121 229.349 500.225 186.457 460.071 177.066C458.041 176.594 455.87 176.493 453.789 176.775C431.757 179.831 418.53 193.365 414.338 208.949C412.921 214.207 406.468 216.047 402.8 212.005L376.164 182.777L359.52 164.489C358.565 163.453 358.002 162.176 357.801 160.869C357.931 159.552 358.524 158.325 359.389 157.249C359.58 157.008 359.69 156.727 359.922 156.515L404.87 114.549C405.674 113.805 406.197 112.92 406.559 111.985C408.81 108.496 407.564 103.489 403.453 101.941C397.483 99.6684 391.934 96.0187 387.331 90.9815C371.923 74.05 372.908 47.9792 389.361 32.2442C406.368 17.1226 432.431 18.2386 448.04 34.979C452.704 39.9659 455.89 45.7874 457.659 51.9205C458.875 56.1433 463.75 57.8023 467.398 55.8517C468.363 55.5702 469.288 55.1077 470.102 54.3637L515.553 12.94C516.84 11.7737 518.448 11.2106 520.056 11.1704C521.343 11.472 522.559 12.1457 523.524 13.1712L567.367 60.165C571.086 64.1566 568.744 70.4406 563.377 71.4359C547.516 74.3517 532.952 86.4571 528.138 108.164C527.675 110.205 527.605 112.387 527.906 114.448C534.017 155.249 576.192 165.584 599.792 143.566C605.823 137.935 609.803 130.947 611.753 123.507C613.15 118.158 619.703 116.278 623.473 120.32L624.126 121.024C624.417 121.868 624.84 122.703 625.493 123.417L667.044 169.033C668.19 170.28 668.743 171.838 668.803 173.407C668.502 174.684 667.838 175.89 666.813 176.845L622.015 218.661C618.326 220.913 613.2 219.325 611.954 214.981C610.185 208.838 606.989 203.017 602.335 198.03C586.052 180.565 558.412 180.083 541.526 197.306L541.556 197.326Z" fill="#7F0EAC"/>
        <path d="M507.432 333.471C506.98 333.471 506.518 333.441 506.065 333.391C501.824 332.868 497.904 330.877 495.039 327.8L453.588 283.37C452.453 282.767 451.427 281.973 450.563 281.008L449.91 280.294C445.517 275.468 444.09 268.621 446.201 262.437C448.352 256.153 453.799 251.528 460.403 250.372C466.132 249.357 471.449 246.743 475.761 242.811C484.275 235.049 487.762 223.306 484.858 212.146C481.722 200.091 471.771 191.263 457.549 187.935C456.865 187.774 456.061 187.734 455.317 187.834C439.678 190.006 428.672 198.753 425.154 211.834C423.023 219.797 415.836 225.357 407.685 225.357C402.649 225.357 397.996 223.286 394.558 219.506L351.278 171.999C348.876 169.385 347.308 166.087 346.765 162.508C346.624 161.593 346.604 160.668 346.694 159.743C347.016 156.515 348.283 153.388 350.363 150.664C350.725 150.111 351.368 149.216 352.333 148.321L393.643 109.753C388.186 106.897 383.311 103.127 379.099 98.512C359.48 76.9455 360.605 44.2992 381.662 24.1604C391.704 15.212 404.267 10.4363 417.324 10.4363C432.029 10.4363 446.211 16.5995 456.242 27.3577C460.443 31.8519 463.851 37.1003 466.273 42.7709L508.066 4.67513C511.272 1.75938 515.443 0.110478 519.815 -0.00011928C520.75 -0.0302822 521.695 0.0702609 522.61 0.281401C526.087 1.08575 529.233 2.89552 531.696 5.50964L575.569 52.5437C580.012 57.3094 581.519 64.0961 579.479 70.2493C577.398 76.5433 572.021 81.2085 565.438 82.4251C552.11 84.8783 542.501 95.1438 539.073 110.587C538.913 111.301 538.882 112.105 538.993 112.829C542.4 135.602 558.432 143.696 571.116 143.696C578.966 143.696 586.454 140.74 592.194 135.381C596.455 131.4 599.491 126.312 600.968 120.672C603.069 112.588 610.316 106.948 618.578 106.948C623.563 106.948 628.207 108.979 631.665 112.668L632.338 113.392C633.202 114.327 633.906 115.393 634.408 116.559L675.337 161.502C678.151 164.569 679.82 168.641 680 172.934C680.041 173.97 679.94 175.005 679.699 176.011C678.875 179.469 677.065 182.586 674.482 184.999L629.674 226.825C629.122 227.338 628.529 227.79 627.885 228.182C625.041 229.922 621.764 230.847 618.417 230.847C610.356 230.847 603.461 225.709 601.26 218.068C599.913 213.403 597.541 209.22 594.214 205.661C588.304 199.327 580.283 195.838 571.629 195.838C562.975 195.838 555.427 199.135 549.547 205.138C549.285 205.409 549.014 205.661 548.722 205.892C542.149 211.372 538.209 219.063 537.626 227.559C537.043 236.045 539.877 244.179 545.607 250.473C548.893 254.082 552.853 256.777 557.397 258.496C562.583 260.457 566.473 264.639 568.061 269.968C569.679 275.367 568.664 281.309 565.357 285.864C564.915 286.477 564.412 287.04 563.849 287.553L518.559 328.836C517.122 330.133 515.745 330.927 514.84 331.4C512.87 332.446 510.95 333.079 508.98 333.36C508.468 333.431 507.955 333.471 507.442 333.471H507.432ZM472.042 270.39L507.643 308.546L542.923 276.393C537.757 273.578 533.053 269.898 529.083 265.534C519.212 254.706 514.327 240.68 515.323 226.051C516.318 211.603 522.931 198.502 533.967 189.101C544.039 179.037 557.387 173.497 571.609 173.497C585.831 173.497 600.506 179.66 610.527 190.418C614.608 194.782 617.854 199.699 620.236 205.068L655.114 172.512L619.975 133.923C617.09 140.629 612.839 146.692 607.441 151.739C597.541 160.979 584.645 166.067 571.116 166.067C548.602 166.067 522.027 150.442 516.88 116.117C516.378 112.648 516.509 109.069 517.262 105.731C522.037 84.2148 535.566 68.4496 554.1 62.3165L519.122 24.824L477.641 62.6382C475.942 64.2067 473.902 65.4233 471.62 66.2377C469.278 67.2934 466.725 67.8464 464.142 67.8464C456.061 67.8464 449.146 62.6885 446.935 55.017C445.588 50.3518 443.216 46.1793 439.899 42.6201C433.989 36.2859 425.968 32.797 417.314 32.797C409.745 32.797 402.458 35.562 396.799 40.5992C384.879 52.0108 384.225 70.9531 395.603 83.4607C398.88 87.0601 402.87 89.7647 407.434 91.4941C412.409 93.3642 416.258 97.3758 417.937 102.483C419.555 107.37 419.033 112.628 416.55 117.062C415.535 119.274 414.158 121.184 412.439 122.763L371.481 161.01L406.006 198.904C413.615 180.927 430.421 168.711 452.262 165.675C455.769 165.192 459.287 165.373 462.624 166.157C484.857 171.355 501.251 186.437 506.467 206.505C511.463 225.729 505.462 245.958 490.798 259.311C485.35 264.287 478.968 268.038 472.032 270.38L472.042 270.39Z" fill="#F2F6FF"/>
        <path d="M80.6902 398.191L80.3284 336.91C80.9716 333.662 83.8563 331.319 86.9923 331.319C87.9471 331.319 88.9221 331.541 89.8669 332.003C95.4955 334.818 101.848 336.427 108.572 336.427H108.843C141.088 336.226 164.627 299.819 141.168 265.986C139.982 264.277 138.434 262.739 136.705 261.563C127.177 255.067 117.548 252.252 108.602 252.252C101.717 252.252 95.2443 253.921 89.5252 256.847C88.5301 257.35 87.4948 257.591 86.4897 257.591C83.3739 257.591 80.4992 255.349 79.8258 252.122L79.4338 187.623C79.4037 183.833 82.4693 180.736 86.2786 180.706L147.963 180.344C152.998 180.304 156.466 174.965 154.114 170.501C151.068 164.73 149.309 158.154 149.269 151.176C149.138 127.85 168.004 108.848 191.353 108.848C200.299 108.838 209.908 111.623 219.356 118.037C221.054 119.204 222.592 120.702 223.778 122.401C235.548 139.242 235.639 156.626 228.854 169.938C226.552 174.482 229.92 179.821 235.005 179.821H235.046L296.76 179.449H296.79C300.569 179.449 303.655 182.495 303.675 186.286L304.047 247.798C304.067 251.74 307.323 254.655 310.892 254.655C311.907 254.655 312.942 254.414 313.937 253.921C319.656 250.985 326.129 249.316 333.004 249.316C341.96 249.316 351.599 252.132 361.117 258.627C362.846 259.813 364.394 261.341 365.58 263.051C389.049 296.883 365.489 333.29 333.245 333.481H332.994C326.26 333.481 319.917 331.892 314.269 329.067C313.324 328.585 312.339 328.373 311.384 328.373C307.806 328.373 304.539 331.41 304.569 335.361L304.931 396.853C304.931 398.351 304.368 399.669 303.554 400.805L80.6802 398.191H80.6902Z" fill="#2080C9"/>
        <path d="M303.554 411.975C301.293 411.975 299.021 411.292 297.051 409.874C292.418 406.546 291.091 400.323 293.765 395.436L293.403 335.422C293.373 330.576 295.242 325.991 298.67 322.532C304.007 317.163 312.651 315.695 319.345 319.104C323.566 321.215 328.18 322.301 333.004 322.301C344.694 322.231 355.147 315.836 360.454 305.611C366.183 294.581 364.706 281.38 356.403 269.415C355.991 268.822 355.428 268.269 354.805 267.837C342.864 259.683 329.868 258.285 319.043 263.855C316.43 265.162 313.646 265.826 310.892 265.826C301.012 265.826 292.93 257.763 292.88 247.859L292.538 190.65L235.126 190.992C228.694 190.992 222.934 187.774 219.617 182.375C216.331 177.016 216.059 170.471 218.894 164.871C224.512 153.851 222.954 140.71 214.622 128.796C214.22 128.213 213.657 127.67 213.034 127.237C205.978 122.452 198.681 120.008 191.414 120.008H191.364C183.061 120.008 175.272 123.246 169.432 129.128C163.592 135.009 160.396 142.812 160.446 151.096C160.486 156.093 161.673 160.869 164.004 165.263C166.909 170.783 166.718 177.278 163.502 182.657C160.215 188.157 154.436 191.454 148.053 191.505L90.6411 191.846L90.9527 244.079C107.426 238.237 126.574 241.123 142.997 252.313C145.852 254.264 148.395 256.787 150.345 259.602C163.341 278.344 165.391 300.493 155.863 318.852C146.716 336.458 128.735 347.467 108.914 347.588C102.813 347.588 97.0336 346.643 91.5557 344.783L91.8673 398.111C91.9075 404.284 86.9322 409.321 80.7608 409.351H80.6905C74.5492 409.351 69.5538 404.395 69.5236 398.241L69.1618 336.96C69.1618 336.206 69.2321 335.462 69.3729 334.718C71.0514 326.262 78.4591 320.129 86.9925 320.129C89.7063 320.129 92.3397 320.753 94.8224 321.969C99.1645 324.141 103.778 325.237 108.572 325.237C120.282 325.167 130.725 318.772 136.032 308.547C141.761 297.507 140.294 284.316 131.991 272.341C131.589 271.758 131.006 271.185 130.403 270.773C118.422 262.609 105.497 261.221 94.6113 266.781C92.0382 268.088 89.3143 268.752 86.49 268.752C78.0269 268.752 70.6192 262.709 68.8904 254.384C68.7396 253.66 68.6592 252.916 68.6592 252.172L68.2672 187.674C68.227 182.858 70.0865 178.303 73.4838 174.875C76.871 171.456 81.384 169.556 86.2085 169.516L141.359 169.194C139.269 163.463 138.153 157.37 138.113 151.237C138.032 136.94 143.53 123.487 153.601 113.363C163.673 103.228 177.081 97.6577 191.364 97.6577H191.444C203.083 97.6577 214.903 101.498 225.638 108.768C228.523 110.748 231.035 113.232 232.965 115.997C244.675 132.747 247.68 151.569 241.599 168.591L296.72 168.259C306.721 168.259 314.822 176.313 314.872 186.206L315.204 241.193C331.607 235.301 350.966 238.136 367.44 249.377C370.314 251.348 372.857 253.871 374.797 256.687C387.773 275.388 389.833 297.537 380.295 315.907C371.148 333.512 353.157 344.531 333.336 344.652C327.165 344.652 321.335 343.687 315.797 341.796L316.128 396.783C316.138 400.504 314.942 404.133 312.661 407.31C310.48 410.347 307.052 411.965 303.575 411.965L303.554 411.975Z" fill="#F2F6FF"/>
        <path d="M299.766 397.407C300.771 396.904 301.223 395.738 302.228 395.215C301.575 396.13 300.771 396.904 299.766 397.407Z" fill="#B889BE"/>
        <path d="M299.776 408.587C296.589 408.587 293.453 407.219 291.272 404.666C287.935 400.754 287.694 395.064 290.699 390.891C292.408 388.508 294.549 386.628 297.042 385.321C301.625 382.918 307.244 383.974 310.641 387.855C314.038 391.746 314.33 397.457 311.344 401.669C309.575 404.163 307.374 406.093 304.781 407.39C303.183 408.195 301.464 408.577 299.765 408.577L299.776 408.587ZM305.575 401.579L307.424 405.108C308.249 404.676 308.691 404.143 308.842 403.932L305.575 401.579ZM294.75 387.422C293.755 387.925 293.252 388.569 293.112 388.75L296.69 391.283L294.75 387.422Z" fill="#CBD5FB"/>
        <path d="M296.71 611.915C296.72 613.846 297.122 615.676 297.705 617.435L89.8978 618.672C86.0985 618.692 83.0128 615.635 82.9826 611.825L82.6208 550.122C82.5906 545.074 77.2434 541.606 72.7807 543.968C67.0114 547.015 60.448 548.774 53.4624 548.815C21.2083 548.996 -2.78376 512.84 20.3238 478.706C21.4797 476.997 22.9974 475.458 24.6961 474.282C41.5317 462.508 58.9102 462.408 72.2179 469.194C76.771 471.507 82.1283 468.109 82.0981 463.001L81.7464 403.721C83.8269 404.545 86.0784 405.028 88.4505 405.028L152.476 404.646C159.03 404.596 165.03 400.996 168.136 395.265C171.302 389.424 171.021 382.285 167.402 376.645C164.256 371.748 162.578 366.057 162.537 360.216C162.487 351.931 165.683 344.119 171.523 338.237C177.363 332.365 185.153 329.128 193.445 329.128C200.762 329.128 208.089 331.581 215.215 336.427C215.798 336.83 216.371 337.393 216.773 337.976C225.799 350.966 226.835 364.992 219.608 376.433C216.04 382.084 215.809 389.192 218.995 394.984C222.111 400.644 228.091 404.163 234.685 404.163L295.474 403.801L296.72 611.925L296.71 611.915Z" fill="#2080C9"/>
        <path d="M89.857 629.842C79.9666 629.842 71.8755 621.819 71.8051 611.905L71.4734 556.737C65.7342 558.839 59.6332 559.945 53.5221 559.985H53.2105C33.4902 559.985 15.5087 549.207 6.21135 531.783C-3.53826 513.514 -1.72905 491.324 11.0661 472.432C12.9959 469.587 15.4986 467.053 18.3129 465.092C35.0581 453.389 53.8638 450.373 70.8804 456.456L70.5688 403.781C70.5487 400.061 72.368 396.582 75.4436 394.481C78.5092 392.39 82.4191 391.957 85.8667 393.325C86.7311 393.667 87.5955 393.837 88.4398 393.837L152.395 393.455C154.868 393.435 157.129 392.088 158.295 389.926C159.531 387.654 159.401 384.879 157.984 382.667C153.702 376.001 151.4 368.259 151.34 360.286C151.269 348.985 155.622 338.358 163.572 330.355C171.543 322.351 182.137 317.938 193.424 317.938C203.023 317.938 212.461 321.044 221.477 327.167C223.226 328.364 224.743 329.872 225.919 331.561C237.478 348.191 238.634 367.184 229.035 382.386C227.638 384.588 227.538 387.342 228.764 389.574C229.92 391.666 232.181 392.963 234.674 392.963L295.393 392.601C301.313 392.661 306.59 397.537 306.63 403.711C306.67 409.884 301.695 414.921 295.523 414.952L234.734 415.313C224.04 415.313 214.27 409.583 209.184 400.363C204.028 390.992 204.39 379.54 210.129 370.451C216.28 360.698 211.767 350.684 208.099 345.124C197.696 338.398 186.519 338.961 179.403 346.12C175.684 349.87 173.643 354.857 173.673 360.145C173.704 363.866 174.769 367.495 176.769 370.602C182.599 379.681 183.041 391.173 177.925 400.594C172.889 409.904 163.15 415.746 152.526 415.816L92.9628 416.168L93.2442 462.921C93.2844 469.275 90.0781 475.066 84.6706 478.404C79.3033 481.722 72.7399 482.004 67.1313 479.138C56.1253 473.528 42.9885 475.086 31.0779 483.421C30.4849 483.834 29.9421 484.387 29.5602 484.96C21.3785 497.035 20.0518 510.266 25.9116 521.246C31.3091 531.36 41.7522 537.624 53.2004 537.624H53.3814C58.3667 537.594 63.141 536.398 67.5535 534.065C73.0515 531.169 79.5545 531.35 84.9319 534.568C90.4299 537.855 93.7367 543.637 93.7769 550.031L94.1187 607.451L287.02 606.305C288.94 602.987 292.518 600.745 296.629 600.725H296.689C302.831 600.725 307.826 605.692 307.866 611.835C307.866 612.358 308.007 613.042 308.298 613.896C309.424 617.294 308.861 621.025 306.781 623.93C304.7 626.836 301.343 628.575 297.765 628.596L89.9575 629.832H89.857V629.842Z" fill="#F2F6FF"/>
        <path d="M292.298 543.214C291.293 543.214 290.267 543.445 289.292 543.968C283.523 547.024 276.95 548.784 269.974 548.814H269.723C237.589 548.814 213.788 512.759 236.835 478.705C238.001 476.996 239.509 475.468 241.208 474.281C250.827 467.555 260.617 464.639 269.723 464.639C276.568 464.639 283.021 466.288 288.73 469.194C289.725 469.707 290.76 469.938 291.775 469.938C295.373 469.938 298.64 466.992 298.61 463.001L298.238 401.941C298.298 401.911 298.348 401.88 298.399 401.85C298.399 401.73 298.338 401.629 298.338 401.508C298.338 399.95 298.942 398.583 299.786 397.416C300.791 396.904 301.605 396.139 302.248 395.224C303.233 394.712 304.299 394.35 305.495 394.35C305.726 394.35 305.907 394.47 306.128 394.48C306.148 394.44 306.198 394.4 306.219 394.35L366.586 393.998C371.651 393.968 374.999 388.619 372.687 384.094C365.942 370.933 365.932 353.74 377.411 336.909C378.587 335.19 380.115 333.632 381.833 332.445C391.362 325.83 401.111 322.954 410.178 322.954C433.295 322.954 452.101 341.625 452.252 364.78C452.292 371.607 450.694 378.052 447.839 383.773C445.588 388.237 449.085 393.475 454.091 393.475H454.131L515.604 393.113H515.644C519.433 393.113 522.499 396.17 522.529 399.96L522.901 464.237C522.921 468.239 519.705 470.933 516.167 470.933C514.88 470.933 513.564 470.592 512.327 469.817C505.854 465.725 498.185 463.352 489.974 463.352C480.887 463.352 471.118 466.248 461.539 472.914C459.81 474.1 458.292 475.649 457.116 477.378C434.009 511.422 457.83 547.517 489.953 547.517H490.215C498.477 547.467 506.146 545.034 512.619 540.881C513.865 540.077 515.212 539.715 516.529 539.715C520.107 539.715 523.384 542.44 523.404 546.481L523.786 610.517C523.816 614.318 520.74 617.425 516.941 617.435L455.679 617.807C451.447 616.962 448.754 612.317 450.784 608.265C453.639 602.564 455.237 596.109 455.197 589.293C455.056 566.138 436.25 547.457 413.133 547.457C404.056 547.457 394.327 550.332 384.788 556.958C383.08 558.144 381.542 559.693 380.366 561.412C368.897 578.253 368.908 595.436 375.652 608.607C377.742 612.689 375.179 617.425 370.928 618.309L306.46 618.691H306.43C302.63 618.691 299.565 615.645 299.545 611.844L299.173 550.141C299.153 546.21 295.886 543.234 292.348 543.234L292.298 543.214Z" fill="#2080C9"/>
        <path d="M306.409 629.842H306.379C296.479 629.842 288.378 621.789 288.317 611.885L287.986 556.737C282.236 558.839 276.135 559.945 270.014 559.975C249.952 559.975 231.91 549.116 222.653 531.642C212.984 513.403 214.823 491.264 227.578 472.422C229.538 469.556 232.021 467.043 234.805 465.102C251.208 453.64 270.497 450.523 287.383 456.476L287.051 401.991C287.051 401.348 287.101 400.714 287.202 400.091C287.473 396.843 288.659 393.676 290.699 390.851C291.504 389.735 292.509 388.77 293.654 388.026C294.589 386.9 295.745 385.965 297.052 385.291C299.886 383.813 302.741 383.099 305.806 383.15C305.917 383.15 306.017 383.15 306.128 383.15L359.962 382.838C353.891 366.017 356.745 347.326 368.154 330.596C370.113 327.73 372.616 325.197 375.421 323.246C386.266 315.725 398.267 311.754 410.147 311.754C439.316 311.754 463.207 335.502 463.388 364.69C463.418 370.743 462.463 376.624 460.534 382.245L515.503 381.913C525.494 381.913 533.595 389.966 533.666 399.86L534.038 464.147C534.068 468.953 532.238 473.437 528.901 476.795C523.142 482.597 513.332 483.673 506.327 479.239C501.422 476.132 495.753 474.493 489.943 474.493C482.526 474.493 475.098 477.037 467.881 482.064C467.268 482.486 466.725 483.039 466.313 483.642C458.151 495.677 456.795 508.889 462.604 519.858C467.981 530.013 478.455 536.317 489.923 536.317C495.954 536.277 501.643 534.598 506.548 531.451C509.523 529.53 512.97 528.515 516.488 528.515C526.549 528.515 534.48 536.367 534.53 546.401L534.912 610.427C534.952 615.253 533.093 619.798 529.695 623.236C526.298 626.675 521.765 628.575 516.941 628.585L455.719 628.957C454.995 628.967 454.211 628.887 453.478 628.746C447.96 627.65 443.185 623.97 440.703 618.913C438.26 613.916 438.27 608.205 440.753 603.238C442.924 598.905 444.01 594.23 443.989 589.333C443.889 572.402 430.028 558.607 413.092 558.607C405.684 558.607 398.287 561.131 391.12 566.108C390.527 566.52 389.954 567.093 389.552 567.686C378.466 583.964 382.285 597.105 385.552 603.49C388.115 608.487 388.195 614.258 385.773 619.325C383.351 624.383 378.637 628.093 373.159 629.229C372.435 629.38 371.692 629.46 370.948 629.46L306.48 629.842H306.409ZM292.298 532.034C302.168 532.034 310.239 540.117 310.299 550.051L310.641 607.461L362.847 607.149C356.876 590.369 359.741 571.748 371.088 555.088C373.038 552.233 375.561 549.689 378.396 547.729C389.201 540.218 401.202 536.246 413.092 536.246C442.281 536.246 466.162 560.005 466.333 589.192C466.363 595.094 465.408 600.986 463.519 606.546L512.548 606.255L512.237 553.761C505.372 556.938 497.894 558.617 490.255 558.668C470.173 558.668 452.141 547.799 442.874 530.314C433.205 512.056 435.064 489.916 447.849 471.074C449.809 468.189 452.332 465.645 455.176 463.685C472.876 451.368 494.114 448.905 511.664 456.787L511.352 404.294L454.171 404.636C447.718 404.636 441.949 401.408 438.612 395.999C435.345 390.7 435.064 384.245 437.838 378.736C439.999 374.412 441.085 369.717 441.054 364.831C440.944 347.899 427.083 334.115 410.157 334.115C402.75 334.115 395.352 336.638 388.175 341.615C387.602 342.007 387.03 342.601 386.607 343.214C375.521 359.482 379.34 372.613 382.607 378.987C385.462 384.567 385.22 391.103 381.964 396.461C378.687 401.871 372.958 405.118 366.636 405.158L309.425 405.49L309.777 462.92C309.807 467.767 307.947 472.331 304.54 475.76C299.173 481.169 290.378 482.607 283.623 479.128C272.758 473.598 259.621 475.046 247.61 483.431C247.027 483.843 246.484 484.396 246.062 485.01C237.931 497.015 236.584 510.216 242.404 521.175C247.781 531.32 258.254 537.624 269.723 537.624C274.909 537.604 279.663 536.407 284.066 534.075C286.589 532.738 289.443 532.024 292.298 532.024V532.034Z" fill="#F2F6FF"/>
    </g>
    <defs>
        <clipPath id="clip0_509_667">
            <rect width="680" height="822" fill="white"/>
        </clipPath>
    </defs>
</svg>
