<svg width="504" height="145" viewBox="0 0 504 145" fill="none" xmlns="http://www.w3.org/2000/svg">
    <g clip-path="url(#clip0_0_1)">
        <path d="M65.5731 44.345C65.5731 44.345 64.8614 34.248 75.67 34.248C86.4787 34.248 84.987 44.345 84.987 44.345" stroke="url(#paint0_linear_0_1)" stroke-width="6" stroke-miterlimit="10" stroke-linecap="round"/>
        <path d="M66.3145 94.5506C66.3145 94.5506 79.2582 84.9411 79.6969 84.5999C80.1357 84.2586 79.4532 83.9824 79.4532 83.9824H34.6198L32.1273 96.3217C31.6723 98.5607 33.3849 100.654 35.6695 100.654H66.1C66.1 100.654 64.7611 99.1944 64.7611 97.4428C64.7611 95.6912 66.3178 94.5506 66.3178 94.5506H66.3145Z" fill="url(#paint1_linear_0_1)"/>
        <path d="M89.0392 48.0186C88.9417 49.5947 87.606 50.8036 86.0267 50.8036H63.1388C62.2549 50.8036 61.3937 51.1773 60.838 51.8663C60.37 52.4512 59.967 53.3189 59.967 54.5928C59.967 54.7163 59.967 54.843 59.9768 54.96C60.071 56.5524 61.4002 57.784 62.9925 57.784H70.9317C72.2185 57.784 73.3787 58.5965 73.7882 59.8184C73.9604 60.3351 74.0774 60.9655 74.0774 61.7227V61.8072C74.0546 63.4548 72.6995 64.7645 71.0551 64.7645H57.7832C56.4151 64.7645 55.1899 65.6809 54.865 67.01C54.7642 67.4195 54.6992 67.881 54.6992 68.4074C54.6992 68.6446 54.7122 68.8689 54.735 69.0801C54.9007 70.6042 56.2038 71.7481 57.7377 71.7481H100.033C101.375 71.7481 102.565 72.6321 102.935 73.9222C103.085 74.4454 103.185 75.0596 103.185 75.7583C103.185 78.3581 101.924 79.099 101.924 79.099L89.0424 87.5646C88.9774 87.6069 88.9157 87.6459 88.8474 87.6848C88.5225 87.8636 87.4046 88.5298 88.7825 88.5298H113.695L113.919 88.6825L106.614 52.5032C105.655 47.7586 101.486 44.3496 96.6468 44.3496H87.7685C87.7685 44.3496 89.0554 45.6365 89.0554 47.7163C89.0554 47.8203 89.0554 47.9243 89.0424 48.0218L89.0392 48.0186Z" fill="url(#paint2_linear_0_1)"/>
        <g filter="url(#filter0_d_0_1)">
            <path d="M113.829 95.7305L113.455 93.8879L113.205 93.7157H85.3678C83.8274 93.7157 85.0753 92.9715 85.4393 92.77C85.514 92.7278 85.5855 92.6855 85.657 92.6368L100.053 83.1768C100.053 83.1768 101.464 82.3481 101.464 79.4429C101.464 78.6629 101.35 77.9772 101.184 77.3923C100.772 75.9494 99.4424 74.9615 97.941 74.9615H50.6768C48.9642 74.9615 47.5083 73.6843 47.3231 71.9815C47.2971 71.7475 47.2841 71.4973 47.2841 71.2308C47.2841 70.6458 47.3556 70.1291 47.4693 69.6709C47.8333 68.1858 49.2015 67.1621 50.7321 67.1621H65.5639C67.4 67.1621 68.9144 65.6965 68.9404 63.8571V63.7629C68.9404 62.9179 68.8104 62.2128 68.6186 61.6343C68.1637 60.2694 66.8638 59.3627 65.4274 59.3627H56.5556C54.778 59.3627 53.2896 57.9848 53.1856 56.2072C53.1791 56.0773 53.1759 55.9375 53.1759 55.7978C53.1759 54.3744 53.6243 53.4027 54.1476 52.7495C54.7683 51.9793 55.7302 51.5634 56.7181 51.5634H82.2935C84.0581 51.5634 85.553 50.2115 85.6603 48.4501C85.67 48.3396 85.6733 48.2259 85.6733 48.1089C85.6733 45.7853 84.2336 44.3457 84.2336 44.3457H52.097C46.6894 44.3457 42.0325 48.1576 40.9601 53.458L35.2568 81.7014H86.2257C86.2257 81.7014 86.9991 82.0167 86.5019 82.4034C86.0047 82.7901 71.2899 93.7157 71.2899 93.7157C71.2899 93.7157 69.5221 95.0156 69.5221 97.0044C69.5221 98.9933 71.0429 100.654 71.0429 100.654H109.803C112.399 100.654 114.342 98.2751 113.829 95.7305Z" fill="url(#paint3_linear_0_1)"/>
        </g>
        <path d="M72.5016 0C32.4584 0 0 32.4584 0 72.5016C0 112.545 32.4584 145 72.5016 145C112.545 145 145 112.542 145 72.5016C145 32.4616 112.542 0 72.5016 0ZM72.5016 143.411C33.3391 143.411 1.59237 111.661 1.59237 72.5016C1.59237 33.3423 33.3391 1.58912 72.5016 1.58912C111.664 1.58912 143.411 33.3391 143.411 72.5016C143.411 111.664 111.661 143.411 72.5016 143.411Z" fill="url(#paint4_linear_0_1)"/>
    </g>
    <path d="M186.16 44.472C189.872 44.472 193.648 44.472 197.488 44.472C201.392 44.472 205.2 44.568 208.912 44.76C212.688 44.888 216.144 45.144 219.28 45.528L218.416 58.392H193.648C192.24 58.392 191.152 58.776 190.384 59.544C189.616 60.248 189.232 61.24 189.232 62.52V93.24C189.232 94.52 189.616 95.544 190.384 96.312C191.152 97.016 192.24 97.368 193.648 97.368H218.416L219.28 110.232C216.144 110.552 212.688 110.808 208.912 111C205.2 111.128 201.392 111.192 197.488 111.192C193.648 111.256 189.872 111.288 186.16 111.288C181.744 111.288 178.16 109.976 175.408 107.352C172.656 104.728 171.28 101.304 171.28 97.08V58.68C171.28 54.392 172.656 50.968 175.408 48.408C178.16 45.784 181.744 44.472 186.16 44.472ZM173.008 70.776H214.96V82.968H173.008V70.776ZM249.798 74.712L269.958 74.808L245.862 99.576L225.702 99.48L249.798 74.712ZM270.438 99.48V111H225.702V99.48H270.438ZM269.958 63.288V74.808H226.182V63.288H269.958ZM303.095 43.416C306.487 43.48 310.231 43.704 314.327 44.088C318.423 44.472 322.391 45.272 326.231 46.488L325.079 58.2C322.263 58.136 318.807 58.072 314.711 58.008C310.679 57.944 306.711 57.912 302.807 57.912C301.335 57.912 300.087 57.976 299.063 58.104C298.103 58.168 297.303 58.36 296.663 58.68C296.087 58.936 295.671 59.352 295.415 59.928C295.159 60.44 295.031 61.176 295.031 62.136C295.031 63.672 295.479 64.856 296.375 65.688C297.335 66.456 298.999 67.256 301.367 68.088L313.751 72.696C319.127 74.808 322.871 77.432 324.983 80.568C327.159 83.64 328.247 87.64 328.247 92.568C328.247 96.28 327.799 99.416 326.903 101.976C326.007 104.536 324.535 106.552 322.487 108.024C320.503 109.496 317.847 110.584 314.519 111.288C311.255 111.992 307.191 112.344 302.327 112.344C300.087 112.344 296.791 112.184 292.439 111.864C288.151 111.544 283.287 110.712 277.847 109.368L278.903 96.696C282.743 96.76 286.135 96.856 289.079 96.984C292.087 97.048 294.679 97.112 296.855 97.176C299.095 97.176 300.855 97.176 302.135 97.176C304.311 97.176 305.975 97.08 307.127 96.888C308.279 96.632 309.079 96.216 309.527 95.64C309.975 95 310.199 94.104 310.199 92.952C310.199 91.864 310.039 91 309.719 90.36C309.399 89.72 308.823 89.176 307.991 88.728C307.223 88.28 306.167 87.832 304.823 87.384L291.575 82.104C286.327 79.928 282.615 77.336 280.439 74.328C278.263 71.32 277.175 67.384 277.175 62.52C277.175 58.68 277.655 55.544 278.615 53.112C279.575 50.68 281.047 48.76 283.031 47.352C285.079 45.944 287.767 44.952 291.095 44.376C294.423 43.736 298.423 43.416 303.095 43.416ZM371.508 61.944C380.724 61.944 385.332 66.392 385.332 75.288V111H367.86V80.76C367.86 79.224 367.54 78.168 366.9 77.592C366.324 77.016 365.268 76.728 363.732 76.728C362.132 76.728 360.404 76.952 358.548 77.4C356.756 77.848 354.484 78.68 351.732 79.896L350.004 71.832C353.46 68.568 357.012 66.104 360.66 64.44C364.372 62.776 367.988 61.944 371.508 61.944ZM353.556 43.8L353.652 59.064C353.652 61.752 353.46 64.344 353.076 66.84C352.692 69.336 352.276 71.352 351.828 72.888L353.556 74.136V111H336.084V43.8H353.556ZM418.865 61.944C425.137 61.944 430.161 62.776 433.937 64.44C437.713 66.04 440.433 68.696 442.097 72.408C443.761 76.056 444.593 80.984 444.593 87.192C444.593 93.336 443.761 98.232 442.097 101.88C440.433 105.464 437.713 108.088 433.937 109.752C430.161 111.352 425.137 112.152 418.865 112.152C412.593 112.152 407.569 111.352 403.793 109.752C400.017 108.088 397.297 105.464 395.633 101.88C393.969 98.232 393.137 93.336 393.137 87.192C393.137 80.984 393.969 76.056 395.633 72.408C397.297 68.696 400.017 66.04 403.793 64.44C407.569 62.776 412.593 61.944 418.865 61.944ZM418.865 74.136C416.881 74.136 415.345 74.488 414.257 75.192C413.233 75.896 412.497 77.176 412.049 79.032C411.601 80.888 411.377 83.608 411.377 87.192C411.377 90.712 411.601 93.4 412.049 95.256C412.497 97.112 413.233 98.392 414.257 99.096C415.345 99.736 416.881 100.056 418.865 100.056C420.849 100.056 422.385 99.736 423.473 99.096C424.561 98.392 425.297 97.112 425.681 95.256C426.129 93.4 426.353 90.712 426.353 87.192C426.353 83.608 426.129 80.888 425.681 79.032C425.297 77.176 424.561 75.896 423.473 75.192C422.385 74.488 420.849 74.136 418.865 74.136ZM486.025 62.136C492.169 62.136 496.521 64.344 499.081 68.76C501.705 73.176 503.017 79.48 503.017 87.672C503.017 94.136 502.313 99.16 500.905 102.744C499.561 106.264 497.545 108.76 494.857 110.232C492.233 111.64 488.937 112.344 484.969 112.344C481.449 112.344 478.121 111.832 474.985 110.808C471.849 109.72 469.225 107.96 467.113 105.528L468.265 98.328C469.929 98.84 471.465 99.352 472.873 99.864C474.345 100.312 476.137 100.536 478.249 100.536C479.913 100.536 481.225 100.248 482.185 99.672C483.209 99.032 483.945 97.816 484.393 96.024C484.841 94.168 485.065 91.416 485.065 87.768C485.065 84.12 484.841 81.368 484.393 79.512C483.945 77.656 483.241 76.44 482.281 75.864C481.385 75.288 480.201 75 478.729 75C476.809 75 475.209 75.288 473.929 75.864C472.649 76.376 471.209 77.112 469.609 78.072L467.305 70.968C468.329 69.304 469.801 67.8 471.721 66.456C473.641 65.112 475.817 64.056 478.249 63.288C480.745 62.52 483.337 62.136 486.025 62.136ZM466.537 63.288L468.169 71.352L469.993 72.792V104.184L469.417 105.336C469.609 107.32 469.737 109.432 469.801 111.672C469.929 113.976 469.993 116.184 469.993 118.296V128.76H452.521V63.288H466.537Z" fill="url(#paint5_linear_0_1)"/>
    <defs>
        <filter id="filter0_d_0_1" x="30.2568" y="39.3457" width="98.6553" height="76.3086" filterUnits="userSpaceOnUse" color-interpolation-filters="sRGB">
            <feFlood flood-opacity="0" result="BackgroundImageFix"/>
            <feColorMatrix in="SourceAlpha" type="matrix" values="0 0 0 0 0 0 0 0 0 0 0 0 0 0 0 0 0 0 127 0" result="hardAlpha"/>
            <feOffset dx="5" dy="5"/>
            <feGaussianBlur stdDeviation="5"/>
            <feColorMatrix type="matrix" values="0 0 0 0 0 0 0 0 0 0 0 0 0 0 0 0 0 0 0.6 0"/>
            <feBlend mode="normal" in2="BackgroundImageFix" result="effect1_dropShadow_0_1"/>
            <feBlend mode="normal" in="SourceGraphic" in2="effect1_dropShadow_0_1" result="shape"/>
        </filter>
        <linearGradient id="paint0_linear_0_1" x1="64.5884" y1="39.2949" x2="86.0334" y2="39.2949" gradientUnits="userSpaceOnUse">
            <stop stop-color="#5571A1"/>
            <stop offset="0.15" stop-color="#7C94C0"/>
            <stop offset="0.4" stop-color="#CCDCFF"/>
            <stop offset="0.41" stop-color="#CEDDFF"/>
            <stop offset="0.54" stop-color="#E9F0FF"/>
            <stop offset="0.66" stop-color="#F9FBFF"/>
            <stop offset="0.75" stop-color="white"/>
        </linearGradient>
        <linearGradient id="paint1_linear_0_1" x1="36.9661" y1="100.429" x2="77.8446" y2="75.6696" gradientUnits="userSpaceOnUse">
            <stop stop-color="#5571A1"/>
            <stop offset="0.15" stop-color="#7C94C0"/>
            <stop offset="0.4" stop-color="#CCDCFF"/>
            <stop offset="0.41" stop-color="#CEDDFF"/>
            <stop offset="0.54" stop-color="#E9F0FF"/>
            <stop offset="0.66" stop-color="#F9FBFF"/>
            <stop offset="0.75" stop-color="white"/>
        </linearGradient>
        <linearGradient id="paint2_linear_0_1" x1="54.696" y1="66.5128" x2="113.913" y2="66.5128" gradientUnits="userSpaceOnUse">
            <stop stop-color="#5571A1"/>
            <stop offset="0.15" stop-color="#7C94C0"/>
            <stop offset="0.4" stop-color="#CCDCFF"/>
            <stop offset="0.41" stop-color="#CEDDFF"/>
            <stop offset="0.54" stop-color="#E9F0FF"/>
            <stop offset="0.66" stop-color="#F9FBFF"/>
            <stop offset="0.75" stop-color="white"/>
        </linearGradient>
        <linearGradient id="paint3_linear_0_1" x1="48.0056" y1="91.7366" x2="115.382" y2="51.1572" gradientUnits="userSpaceOnUse">
            <stop stop-color="#8C00AA"/>
            <stop offset="0.03" stop-color="#9009AD"/>
            <stop offset="0.07" stop-color="#9C23B5"/>
            <stop offset="0.13" stop-color="#AF4EC4"/>
            <stop offset="0.2" stop-color="#CA89D7"/>
            <stop offset="0.28" stop-color="#EBD4F0"/>
            <stop offset="0.32" stop-color="white"/>
            <stop offset="0.35" stop-color="#DCF2F9"/>
            <stop offset="0.4" stop-color="#A3DDEF"/>
            <stop offset="0.45" stop-color="#71CBE7"/>
            <stop offset="0.5" stop-color="#48BDE0"/>
            <stop offset="0.55" stop-color="#28B1DA"/>
            <stop offset="0.59" stop-color="#12A9D7"/>
            <stop offset="0.64" stop-color="#04A4D4"/>
            <stop offset="0.68" stop-color="#00A3D4"/>
        </linearGradient>
        <linearGradient id="paint4_linear_0_1" x1="22.017" y1="102.906" x2="181.348" y2="6.94469" gradientUnits="userSpaceOnUse">
            <stop stop-color="#8C00AA"/>
            <stop offset="0.03" stop-color="#9009AD"/>
            <stop offset="0.07" stop-color="#9C23B5"/>
            <stop offset="0.13" stop-color="#AF4EC4"/>
            <stop offset="0.2" stop-color="#CA89D7"/>
            <stop offset="0.28" stop-color="#EBD4F0"/>
            <stop offset="0.32" stop-color="white"/>
            <stop offset="0.35" stop-color="#DCF2F9"/>
            <stop offset="0.4" stop-color="#A3DDEF"/>
            <stop offset="0.45" stop-color="#71CBE7"/>
            <stop offset="0.5" stop-color="#48BDE0"/>
            <stop offset="0.55" stop-color="#28B1DA"/>
            <stop offset="0.59" stop-color="#12A9D7"/>
            <stop offset="0.64" stop-color="#04A4D4"/>
            <stop offset="0.68" stop-color="#00A3D4"/>
        </linearGradient>
        <linearGradient id="paint5_linear_0_1" x1="166" y1="104.514" x2="516.145" y2="46.3581" gradientUnits="userSpaceOnUse">
            <stop stop-color="#9AACCC"/>
            <stop offset="1" stop-color="white"/>
        </linearGradient>
        <clipPath id="clip0_0_1">
            <rect width="145" height="145" fill="white"/>
        </clipPath>
    </defs>
</svg>
