<svg width="174" height="125" viewBox="0 0 174 125" fill="none" xmlns="http://www.w3.org/2000/svg">
<rect width="174" height="125" fill="#F4F4F7"/>
<path d="M80.5951 42.6136C80.5951 42.6136 79.988 34 89.2088 34C98.4295 34 97.157 42.6136 97.157 42.6136" stroke="#D6D6D6" stroke-width="1.82357" stroke-miterlimit="10" stroke-linecap="round"/>
<path d="M81.2277 85.4434C81.2277 85.4434 92.2699 77.2456 92.6442 76.9545C93.0184 76.6634 92.4362 76.4277 92.4362 76.4277H54.1891L52.0628 86.9543C51.6746 88.8644 53.1357 90.6498 55.0846 90.6498H81.0447C81.0447 90.6498 79.9025 89.405 79.9025 87.9107C79.9025 86.4164 81.2305 85.4434 81.2305 85.4434H81.2277Z" fill="#D6D6D6"/>
<path d="M100.616 45.7462C100.532 47.0908 99.3929 48.1221 98.0456 48.1221H78.5201C77.766 48.1221 77.0313 48.4409 76.5572 49.0286C76.158 49.5276 75.8143 50.2678 75.8143 51.3546C75.8143 51.4599 75.8143 51.5681 75.8226 51.6679C75.903 53.0263 77.0369 54.077 78.3953 54.077H85.1681C86.2659 54.077 87.2557 54.7701 87.605 55.8125C87.7519 56.2533 87.8517 56.7911 87.8517 57.4371V57.5092C87.8323 58.9147 86.6762 60.032 85.2735 60.032H73.9513C72.7841 60.032 71.7389 60.8138 71.4617 61.9477C71.3758 62.297 71.3203 62.6907 71.3203 63.1398C71.3203 63.3422 71.3314 63.5335 71.3508 63.7137C71.4922 65.0139 72.6039 65.9897 73.9124 65.9897H109.994C111.139 65.9897 112.154 66.7438 112.47 67.8444C112.598 68.2908 112.683 68.8147 112.683 69.4108C112.683 71.6287 111.608 72.2607 111.608 72.2607L100.618 79.4827C100.563 79.5187 100.51 79.552 100.452 79.5852C100.175 79.7377 99.2211 80.3061 100.397 80.3061H121.649L121.84 80.4364L115.608 49.572C114.79 45.5244 111.234 42.6162 107.106 42.6162H99.5315C99.5315 42.6162 100.629 43.7141 100.629 45.4883C100.629 45.5771 100.629 45.6658 100.618 45.7489L100.616 45.7462Z" fill="#D6D6D6"/>
<g filter="url(#filter0_d_2323_11552)">
<path d="M121.762 86.4499L121.443 84.878L121.23 84.731H97.4818C96.1677 84.731 97.2323 84.0962 97.5428 83.9243C97.6065 83.8882 97.6675 83.8522 97.7285 83.8106L110.01 75.7403C110.01 75.7403 111.213 75.0334 111.213 72.5549C111.213 71.8896 111.116 71.3046 110.975 70.8056C110.623 69.5747 109.489 68.7319 108.208 68.7319H67.8871C66.4261 68.7319 65.1841 67.6424 65.0261 66.1897C65.0039 65.9901 64.9928 65.7766 64.9928 65.5493C64.9928 65.0502 65.0538 64.6094 65.1508 64.2185C65.4613 62.9516 66.6285 62.0783 67.9343 62.0783H80.5872C82.1536 62.0783 83.4455 60.828 83.4676 59.2588V59.1784C83.4676 58.4576 83.3567 57.856 83.1932 57.3626C82.805 56.1982 81.6961 55.4247 80.4707 55.4247H72.9023C71.3858 55.4247 70.1161 54.2492 70.0274 52.7328C70.0218 52.6219 70.0191 52.5027 70.0191 52.3835C70.0191 51.1692 70.4016 50.3403 70.848 49.783C71.3775 49.126 72.1981 48.7711 73.0409 48.7711H94.8591C96.3645 48.7711 97.6398 47.6178 97.7313 46.1152C97.7396 46.021 97.7424 45.9239 97.7424 45.8241C97.7424 43.8419 96.5142 42.6138 96.5142 42.6138H69.0986C64.4855 42.6138 60.5127 45.8657 59.5979 50.3874L54.7324 74.4817H98.2137C98.2137 74.4817 98.8735 74.7506 98.4493 75.0805C98.0251 75.4104 85.472 84.731 85.472 84.731C85.472 84.731 83.9639 85.84 83.9639 87.5366C83.9639 89.2333 85.2613 90.6499 85.2613 90.6499H118.327C120.542 90.6499 122.2 88.6206 121.762 86.4499Z" fill="white"/>
</g>
<defs>
<filter id="filter0_d_2323_11552" x="53.2128" y="41.0941" width="73.1782" height="54.1147" filterUnits="userSpaceOnUse" color-interpolation-filters="sRGB">
<feFlood flood-opacity="0" result="BackgroundImageFix"/>
<feColorMatrix in="SourceAlpha" type="matrix" values="0 0 0 0 0 0 0 0 0 0 0 0 0 0 0 0 0 0 127 0" result="hardAlpha"/>
<feOffset dx="1.51964" dy="1.51964"/>
<feGaussianBlur stdDeviation="1.51964"/>
<feColorMatrix type="matrix" values="0 0 0 0 0 0 0 0 0 0 0 0 0 0 0 0 0 0 0.08 0"/>
<feBlend mode="normal" in2="BackgroundImageFix" result="effect1_dropShadow_2323_11552"/>
<feBlend mode="normal" in="SourceGraphic" in2="effect1_dropShadow_2323_11552" result="shape"/>
</filter>
</defs>
</svg>
