<svg width="51" height="51" viewBox="0 0 51 51" fill="none" xmlns="http://www.w3.org/2000/svg">
<g clip-path="url(#clip0_1019_10803)">
<path d="M25.5 51C20.4566 51 15.5264 49.5045 11.333 46.7025C7.13952 43.9005 3.87112 39.918 1.94108 35.2584C0.0110488 30.5989 -0.493936 25.4717 0.489987 20.5252C1.47391 15.5787 3.90255 11.035 7.46879 7.46879C11.035 3.90255 15.5787 1.47391 20.5252 0.489987C25.4717 -0.493936 30.5989 0.0110488 35.2584 1.94108C39.918 3.87112 43.9005 7.13952 46.7025 11.333C49.5045 15.5264 51 20.4566 51 25.5C50.9927 32.2608 48.3038 38.7426 43.5232 43.5232C38.7426 48.3038 32.2608 50.9927 25.5 51ZM25.5 4.25001C21.2972 4.25001 17.1887 5.4963 13.6941 7.83128C10.1996 10.1663 7.47593 13.4851 5.86757 17.368C4.25921 21.2509 3.83839 25.5236 4.65833 29.6457C5.47826 33.7678 7.50213 37.5542 10.474 40.526C13.4459 43.4979 17.2322 45.5218 21.3543 46.3417C25.4764 47.1616 29.7491 46.7408 33.632 45.1325C37.515 43.5241 40.8338 40.8004 43.1687 37.3059C45.5037 33.8113 46.75 29.7029 46.75 25.5C46.7438 19.8661 44.503 14.4646 40.5192 10.4808C36.5354 6.49702 31.134 4.2562 25.5 4.25001ZM37.7103 37.5424C37.8965 37.3342 38.0398 37.0913 38.132 36.8276C38.2242 36.564 38.2636 36.2847 38.2478 36.0058C38.232 35.727 38.1614 35.4539 38.04 35.1537C37.9186 34.9508 37.7488 34.7256 37.5403 34.5398C34.166 31.6571 29.9323 29.9729 25.5 29.75C21.0677 29.9729 16.834 31.6571 13.4598 34.5398C13.0388 34.9146 12.7839 35.4412 12.7512 36.0039C12.7185 36.5666 12.9107 37.1193 13.2855 37.5403C13.6603 37.9613 14.187 38.2161 14.7497 38.2488C15.3124 38.2815 15.865 38.0893 16.286 37.7145C18.8838 35.5273 22.1116 34.226 25.5 34C28.8883 34.2263 32.1161 35.5276 34.714 37.7145C35.1345 38.0883 35.686 38.2801 36.2477 38.2478C36.8094 38.2156 37.3354 37.9619 37.7103 37.5424ZM12.75 21.25C12.75 23.375 14.6519 23.375 17 23.375C19.3481 23.375 21.25 23.375 21.25 21.25C21.25 20.1228 20.8022 19.0418 20.0052 18.2448C19.2082 17.4478 18.1272 17 17 17C15.8728 17 14.7918 17.4478 13.9948 18.2448C13.1978 19.0418 12.75 20.1228 12.75 21.25ZM29.75 21.25C29.75 23.375 31.6519 23.375 34 23.375C36.3481 23.375 38.25 23.375 38.25 21.25C38.25 20.1228 37.8022 19.0418 37.0052 18.2448C36.2082 17.4478 35.1272 17 34 17C32.8728 17 31.7918 17.4478 30.9948 18.2448C30.1978 19.0418 29.75 20.1228 29.75 21.25Z" fill="#AFAFAF"/>
</g>
<defs>
<clipPath id="clip0_1019_10803">
<rect width="51" height="51" fill="white"/>
</clipPath>
</defs>
</svg>
