<svg width="149" height="148" viewBox="0 0 149 148" fill="none" xmlns="http://www.w3.org/2000/svg">
<rect width="149" height="148" rx="15" fill="white"/>

<g clip-path="url(#clip0_1813_10784)">
<path d="M109.817 48.2503C108.903 47.1532 107.759 46.2708 106.465 45.6659C105.171 45.061 103.761 44.7483 102.332 44.75H49.7865L49.65 43.6093C49.3707 41.2381 48.231 39.0519 46.4471 37.4651C44.6632 35.8782 42.359 35.0011 39.9715 35H39.25C38.388 35 37.5614 35.3424 36.9519 35.9519C36.3424 36.5614 36 37.388 36 38.25C36 39.112 36.3424 39.9386 36.9519 40.5481C37.5614 41.1576 38.388 41.5 39.25 41.5H39.9715C40.7675 41.5001 41.5358 41.7924 42.1307 42.3213C42.7256 42.8503 43.1056 43.5792 43.1987 44.3698L47.6708 82.3948C48.135 86.3493 50.0351 89.9958 53.0102 92.642C55.9854 95.2883 59.8285 96.7501 63.8103 96.75H97.75C98.612 96.75 99.4386 96.4076 100.048 95.7981C100.658 95.1886 101 94.362 101 93.5C101 92.638 100.658 91.8114 100.048 91.2019C99.4386 90.5924 98.612 90.25 97.75 90.25H63.8103C61.7987 90.2443 59.8381 89.6166 58.1973 88.4529C56.5565 87.2893 55.3158 85.6465 54.6453 83.75H93.3853C97.1952 83.7502 100.884 82.4118 103.807 79.9684C106.731 77.5251 108.703 74.1323 109.378 70.3828L111.93 56.2323C112.184 54.8283 112.127 53.3855 111.762 52.0061C111.397 50.6267 110.733 49.3444 109.817 48.2503ZM105.55 55.0785L102.995 69.229C102.59 71.4812 101.405 73.519 99.6476 74.9854C97.8906 76.4518 95.6738 77.2535 93.3853 77.25H53.6117L50.5535 51.25H102.332C102.81 51.2471 103.282 51.3495 103.715 51.5498C104.149 51.7501 104.533 52.0435 104.84 52.409C105.147 52.7745 105.37 53.2032 105.493 53.6645C105.615 54.1259 105.635 54.6087 105.55 55.0785Z" fill="#AFAFAF"/>
<path d="M58.75 113C62.3399 113 65.25 110.09 65.25 106.5C65.25 102.91 62.3399 100 58.75 100C55.1601 100 52.25 102.91 52.25 106.5C52.25 110.09 55.1601 113 58.75 113Z" fill="#AFAFAF"/>
<path d="M91.25 113C94.8399 113 97.75 110.09 97.75 106.5C97.75 102.91 94.8399 100 91.25 100C87.6601 100 84.75 102.91 84.75 106.5C84.75 110.09 87.6601 113 91.25 113Z" fill="#AFAFAF"/>
</g>

<defs>
<clipPath id="clip0_1813_10784">
<rect width="78" height="78" fill="white" transform="translate(36 35)"/>
</clipPath>
</defs>
</svg>
