<svg width="1612" height="935" viewBox="0 0 1612 935" fill="none" xmlns="http://www.w3.org/2000/svg">
    <rect x="266.41" y="613.536" width="94.0274" height="93.1613" rx="17.5" transform="rotate(45 266.41 613.536)" stroke="url(#paint0_linear_534_491)" stroke-width="5"/>
    <rect x="1347.41" y="195.536" width="94.0274" height="93.1613" rx="17.5" transform="rotate(45 1347.41 195.536)" stroke="url(#paint1_linear_534_491)" stroke-width="5"/>
    <rect x="972.41" y="672.536" width="94.0274" height="93.1613" rx="17.5" transform="rotate(45 972.41 672.536)" stroke="url(#paint2_linear_534_491)" stroke-width="5"/>
    <rect x="640.41" y="136.536" width="94.0274" height="93.1613" rx="17.5" transform="rotate(45 640.41 136.536)" stroke="url(#paint3_linear_534_491)" stroke-width="5"/>
    <rect x="303.66" y="9.19239" width="420.23" height="416.44" rx="43.5" transform="rotate(45 303.66 9.19239)" fill="#F2F6FF" stroke="url(#paint4_linear_534_491)" stroke-width="13"/>
    <path d="M196.021 281V255.8H218.305V281H213.697V258.608L214.777 259.76H199.549L200.629 258.608V281H196.021ZM233.475 281.252C231.507 281.252 229.755 280.832 228.219 279.992C226.683 279.128 225.471 277.952 224.583 276.464C223.695 274.976 223.251 273.284 223.251 271.388C223.251 269.468 223.695 267.776 224.583 266.312C225.471 264.824 226.683 263.66 228.219 262.82C229.755 261.98 231.507 261.56 233.475 261.56C235.467 261.56 237.231 261.98 238.767 262.82C240.327 263.66 241.539 264.812 242.403 266.276C243.291 267.74 243.735 269.444 243.735 271.388C243.735 273.284 243.291 274.976 242.403 276.464C241.539 277.952 240.327 279.128 238.767 279.992C237.231 280.832 235.467 281.252 233.475 281.252ZM233.475 277.4C234.579 277.4 235.563 277.16 236.427 276.68C237.291 276.2 237.963 275.504 238.443 274.592C238.947 273.68 239.199 272.612 239.199 271.388C239.199 270.14 238.947 269.072 238.443 268.184C237.963 267.272 237.291 266.576 236.427 266.096C235.563 265.616 234.591 265.376 233.511 265.376C232.407 265.376 231.423 265.616 230.559 266.096C229.719 266.576 229.047 267.272 228.543 268.184C228.039 269.072 227.787 270.14 227.787 271.388C227.787 272.612 228.039 273.68 228.543 274.592C229.047 275.504 229.719 276.2 230.559 276.68C231.423 277.16 232.395 277.4 233.475 277.4ZM261.104 277.184L260.132 278.264V261.776H264.632V278.264L263.552 277.184H273.056L272.012 278.264V261.776H276.512V281H248.18V261.776H252.68V278.264L251.636 277.184H261.104ZM294.227 281V277.112L293.975 276.284V269.48C293.975 268.16 293.579 267.14 292.787 266.42C291.995 265.676 290.795 265.304 289.187 265.304C288.107 265.304 287.039 265.472 285.983 265.808C284.951 266.144 284.075 266.612 283.355 267.212L281.591 263.936C282.623 263.144 283.847 262.556 285.263 262.172C286.703 261.764 288.191 261.56 289.727 261.56C292.511 261.56 294.659 262.232 296.171 263.576C297.707 264.896 298.475 266.948 298.475 269.732V281H294.227ZM288.179 281.252C286.739 281.252 285.479 281.012 284.399 280.532C283.319 280.028 282.479 279.344 281.879 278.48C281.303 277.592 281.015 276.596 281.015 275.492C281.015 274.412 281.267 273.44 281.771 272.576C282.299 271.712 283.151 271.028 284.327 270.524C285.503 270.02 287.063 269.768 289.007 269.768H294.587V272.756H289.331C287.795 272.756 286.763 273.008 286.235 273.512C285.707 273.992 285.443 274.592 285.443 275.312C285.443 276.128 285.767 276.776 286.415 277.256C287.063 277.736 287.963 277.976 289.115 277.976C290.219 277.976 291.203 277.724 292.067 277.22C292.955 276.716 293.591 275.972 293.975 274.988L294.731 277.688C294.299 278.816 293.519 279.692 292.391 280.316C291.287 280.94 289.883 281.252 288.179 281.252ZM304.044 281V261.776H318.804V265.592H307.5L308.544 264.584V281H304.044ZM329.803 281.252C327.835 281.252 326.083 280.832 324.547 279.992C323.011 279.128 321.799 277.952 320.911 276.464C320.023 274.976 319.579 273.284 319.579 271.388C319.579 269.468 320.023 267.776 320.911 266.312C321.799 264.824 323.011 263.66 324.547 262.82C326.083 261.98 327.835 261.56 329.803 261.56C331.795 261.56 333.559 261.98 335.095 262.82C336.655 263.66 337.867 264.812 338.731 266.276C339.619 267.74 340.063 269.444 340.063 271.388C340.063 273.284 339.619 274.976 338.731 276.464C337.867 277.952 336.655 279.128 335.095 279.992C333.559 280.832 331.795 281.252 329.803 281.252ZM329.803 277.4C330.907 277.4 331.891 277.16 332.755 276.68C333.619 276.2 334.291 275.504 334.771 274.592C335.275 273.68 335.527 272.612 335.527 271.388C335.527 270.14 335.275 269.072 334.771 268.184C334.291 267.272 333.619 266.576 332.755 266.096C331.891 265.616 330.919 265.376 329.839 265.376C328.735 265.376 327.751 265.616 326.887 266.096C326.047 266.576 325.375 267.272 324.871 268.184C324.367 269.072 324.115 270.14 324.115 271.388C324.115 272.612 324.367 273.68 324.871 274.592C325.375 275.504 326.047 276.2 326.887 276.68C327.751 277.16 328.723 277.4 329.803 277.4ZM344.508 281V261.776H353.904C356.232 261.776 358.056 262.208 359.376 263.072C360.72 263.936 361.392 265.16 361.392 266.744C361.392 268.304 360.768 269.528 359.52 270.416C358.272 271.28 356.616 271.712 354.552 271.712L355.092 270.596C357.42 270.596 359.148 271.028 360.276 271.892C361.428 272.732 362.004 273.968 362.004 275.6C362.004 277.304 361.368 278.636 360.096 279.596C358.824 280.532 356.892 281 354.3 281H344.508ZM348.792 277.724H353.94C355.164 277.724 356.088 277.532 356.712 277.148C357.336 276.74 357.648 276.128 357.648 275.312C357.648 274.448 357.36 273.812 356.784 273.404C356.208 272.996 355.308 272.792 354.084 272.792H348.792V277.724ZM348.792 269.804H353.508C354.66 269.804 355.524 269.6 356.1 269.192C356.7 268.76 357 268.16 357 267.392C357 266.6 356.7 266.012 356.1 265.628C355.524 265.244 354.66 265.052 353.508 265.052H348.792V269.804ZM378.461 281V277.112L378.209 276.284V269.48C378.209 268.16 377.813 267.14 377.021 266.42C376.229 265.676 375.029 265.304 373.421 265.304C372.341 265.304 371.273 265.472 370.217 265.808C369.185 266.144 368.309 266.612 367.589 267.212L365.825 263.936C366.857 263.144 368.081 262.556 369.497 262.172C370.937 261.764 372.425 261.56 373.961 261.56C376.745 261.56 378.893 262.232 380.405 263.576C381.941 264.896 382.709 266.948 382.709 269.732V281H378.461ZM372.413 281.252C370.973 281.252 369.713 281.012 368.633 280.532C367.553 280.028 366.713 279.344 366.113 278.48C365.537 277.592 365.249 276.596 365.249 275.492C365.249 274.412 365.501 273.44 366.005 272.576C366.533 271.712 367.385 271.028 368.561 270.524C369.737 270.02 371.297 269.768 373.241 269.768H378.821V272.756H373.565C372.029 272.756 370.997 273.008 370.469 273.512C369.941 273.992 369.677 274.592 369.677 275.312C369.677 276.128 370.001 276.776 370.649 277.256C371.297 277.736 372.197 277.976 373.349 277.976C374.453 277.976 375.437 277.724 376.301 277.22C377.189 276.716 377.825 275.972 378.209 274.988L378.965 277.688C378.533 278.816 377.753 279.692 376.625 280.316C375.521 280.94 374.117 281.252 372.413 281.252ZM400.482 281V274.448L401.13 275.204H395.37C392.73 275.204 390.654 274.652 389.142 273.548C387.654 272.42 386.91 270.8 386.91 268.688C386.91 266.432 387.702 264.716 389.286 263.54C390.894 262.364 393.03 261.776 395.694 261.776H404.514V281H400.482ZM386.658 281L391.842 273.656H396.45L391.482 281H386.658ZM400.482 273.008V264.368L401.13 265.556H395.838C394.446 265.556 393.366 265.82 392.598 266.348C391.854 266.852 391.482 267.68 391.482 268.832C391.482 270.992 392.886 272.072 395.694 272.072H401.13L400.482 273.008ZM183.141 325V305.776H187.641V318.448L198.261 305.776H202.365V325H197.865V312.328L187.281 325H183.141ZM208.419 325V305.776H212.919V313.588H222.603V305.776H227.103V325H222.603V317.404H212.919V325H208.419ZM241.881 325.252C239.865 325.252 238.065 324.832 236.481 323.992C234.921 323.128 233.697 321.952 232.809 320.464C231.921 318.976 231.477 317.284 231.477 315.388C231.477 313.468 231.921 311.776 232.809 310.312C233.697 308.824 234.921 307.66 236.481 306.82C238.065 305.98 239.865 305.56 241.881 305.56C243.753 305.56 245.397 305.944 246.813 306.712C248.253 307.456 249.345 308.56 250.089 310.024L246.633 312.04C246.057 311.128 245.349 310.456 244.509 310.024C243.693 309.592 242.805 309.376 241.845 309.376C240.741 309.376 239.745 309.616 238.857 310.096C237.969 310.576 237.273 311.272 236.769 312.184C236.265 313.072 236.013 314.14 236.013 315.388C236.013 316.636 236.265 317.716 236.769 318.628C237.273 319.516 237.969 320.2 238.857 320.68C239.745 321.16 240.741 321.4 241.845 321.4C242.805 321.4 243.693 321.184 244.509 320.752C245.349 320.32 246.057 319.648 246.633 318.736L250.089 320.752C249.345 322.192 248.253 323.308 246.813 324.1C245.397 324.868 243.753 325.252 241.881 325.252ZM257.907 325V308.512L258.951 309.592H251.139V305.776H269.139V309.592H261.363L262.407 308.512V325H257.907ZM283.059 325.252C281.499 325.252 280.071 324.892 278.775 324.172C277.503 323.452 276.483 322.372 275.715 320.932C274.971 319.468 274.599 317.62 274.599 315.388C274.599 313.132 274.959 311.284 275.679 309.844C276.423 308.404 277.431 307.336 278.703 306.64C279.975 305.92 281.427 305.56 283.059 305.56C284.955 305.56 286.623 305.968 288.063 306.784C289.527 307.6 290.679 308.74 291.519 310.204C292.383 311.668 292.815 313.396 292.815 315.388C292.815 317.38 292.383 319.12 291.519 320.608C290.679 322.072 289.527 323.212 288.063 324.028C286.623 324.844 284.955 325.252 283.059 325.252ZM272.403 331.984V305.776H276.687V310.312L276.543 315.424L276.903 320.536V331.984H272.403ZM282.555 321.4C283.635 321.4 284.595 321.16 285.435 320.68C286.299 320.2 286.983 319.504 287.487 318.592C287.991 317.68 288.243 316.612 288.243 315.388C288.243 314.14 287.991 313.072 287.487 312.184C286.983 311.272 286.299 310.576 285.435 310.096C284.595 309.616 283.635 309.376 282.555 309.376C281.475 309.376 280.503 309.616 279.639 310.096C278.775 310.576 278.091 311.272 277.587 312.184C277.083 313.072 276.831 314.14 276.831 315.388C276.831 316.612 277.083 317.68 277.587 318.592C278.091 319.504 278.775 320.2 279.639 320.68C280.503 321.16 281.475 321.4 282.555 321.4ZM298.494 332.236C297.558 332.236 296.622 332.08 295.686 331.768C294.75 331.456 293.97 331.024 293.346 330.472L295.146 327.16C295.602 327.568 296.118 327.892 296.694 328.132C297.27 328.372 297.858 328.492 298.458 328.492C299.274 328.492 299.934 328.288 300.438 327.88C300.942 327.472 301.41 326.788 301.842 325.828L302.958 323.308L303.318 322.768L310.59 305.776H314.91L305.91 326.548C305.31 327.988 304.638 329.128 303.894 329.968C303.174 330.808 302.358 331.396 301.446 331.732C300.558 332.068 299.574 332.236 298.494 332.236ZM302.454 325.684L293.778 305.776H298.458L305.514 322.372L302.454 325.684ZM331.824 325L324.876 315.784L328.548 313.516L337.116 325H331.824ZM318.036 325V305.776H322.536V325H318.036ZM321.204 317.296V313.552H327.72V317.296H321.204ZM328.98 315.928L324.768 315.424L331.824 305.776H336.648L328.98 315.928ZM340.29 325V305.776H344.79V321.184H353.97V305.776H358.47V325H340.29ZM357.174 329.284V324.892L358.218 325H353.97V321.184H361.386V329.284H357.174ZM365.391 325V305.776H369.891V318.448L380.511 305.776H384.615V325H380.115V312.328L369.531 325H365.391ZM402.873 325V318.448L403.521 319.204H397.761C395.121 319.204 393.045 318.652 391.533 317.548C390.045 316.42 389.301 314.8 389.301 312.688C389.301 310.432 390.093 308.716 391.677 307.54C393.285 306.364 395.421 305.776 398.085 305.776H406.905V325H402.873ZM389.049 325L394.233 317.656H398.841L393.873 325H389.049ZM402.873 317.008V308.368L403.521 309.556H398.229C396.837 309.556 395.757 309.82 394.989 310.348C394.245 310.852 393.873 311.68 393.873 312.832C393.873 314.992 395.277 316.072 398.085 316.072H403.521L402.873 317.008ZM120.669 369V349.776H139.101V369H134.637V352.548L135.681 353.592H124.125L125.169 352.548V369H120.669ZM153.74 369.252C151.772 369.252 150.02 368.832 148.484 367.992C146.948 367.128 145.736 365.952 144.848 364.464C143.96 362.976 143.516 361.284 143.516 359.388C143.516 357.468 143.96 355.776 144.848 354.312C145.736 352.824 146.948 351.66 148.484 350.82C150.02 349.98 151.772 349.56 153.74 349.56C155.732 349.56 157.496 349.98 159.032 350.82C160.592 351.66 161.804 352.812 162.668 354.276C163.556 355.74 164 357.444 164 359.388C164 361.284 163.556 362.976 162.668 364.464C161.804 365.952 160.592 367.128 159.032 367.992C157.496 368.832 155.732 369.252 153.74 369.252ZM153.74 365.4C154.844 365.4 155.828 365.16 156.692 364.68C157.556 364.2 158.228 363.504 158.708 362.592C159.212 361.68 159.464 360.612 159.464 359.388C159.464 358.14 159.212 357.072 158.708 356.184C158.228 355.272 157.556 354.576 156.692 354.096C155.828 353.616 154.856 353.376 153.776 353.376C152.672 353.376 151.688 353.616 150.824 354.096C149.984 354.576 149.312 355.272 148.808 356.184C148.304 357.072 148.052 358.14 148.052 359.388C148.052 360.612 148.304 361.68 148.808 362.592C149.312 363.504 149.984 364.2 150.824 364.68C151.688 365.16 152.66 365.4 153.74 365.4ZM178.395 369V349.776H182.895V362.448L193.515 349.776H197.619V369H193.119V356.328L182.535 369H178.395ZM212.42 369.252C210.404 369.252 208.604 368.832 207.02 367.992C205.46 367.128 204.236 365.952 203.348 364.464C202.46 362.976 202.016 361.284 202.016 359.388C202.016 357.468 202.46 355.776 203.348 354.312C204.236 352.824 205.46 351.66 207.02 350.82C208.604 349.98 210.404 349.56 212.42 349.56C214.292 349.56 215.936 349.944 217.352 350.712C218.792 351.456 219.884 352.56 220.628 354.024L217.172 356.04C216.596 355.128 215.888 354.456 215.048 354.024C214.232 353.592 213.344 353.376 212.384 353.376C211.28 353.376 210.284 353.616 209.396 354.096C208.508 354.576 207.812 355.272 207.308 356.184C206.804 357.072 206.552 358.14 206.552 359.388C206.552 360.636 206.804 361.716 207.308 362.628C207.812 363.516 208.508 364.2 209.396 364.68C210.284 365.16 211.28 365.4 212.384 365.4C213.344 365.4 214.232 365.184 215.048 364.752C215.888 364.32 216.596 363.648 217.172 362.736L220.628 364.752C219.884 366.192 218.792 367.308 217.352 368.1C215.936 368.868 214.292 369.252 212.42 369.252ZM224.59 369V349.776H243.022V369H238.558V352.548L239.602 353.592H228.046L229.09 352.548V369H224.59ZM257.662 369.252C255.694 369.252 253.942 368.832 252.406 367.992C250.87 367.128 249.658 365.952 248.77 364.464C247.882 362.976 247.438 361.284 247.438 359.388C247.438 357.468 247.882 355.776 248.77 354.312C249.658 352.824 250.87 351.66 252.406 350.82C253.942 349.98 255.694 349.56 257.662 349.56C259.654 349.56 261.418 349.98 262.954 350.82C264.514 351.66 265.726 352.812 266.59 354.276C267.478 355.74 267.922 357.444 267.922 359.388C267.922 361.284 267.478 362.976 266.59 364.464C265.726 365.952 264.514 367.128 262.954 367.992C261.418 368.832 259.654 369.252 257.662 369.252ZM257.662 365.4C258.766 365.4 259.75 365.16 260.614 364.68C261.478 364.2 262.15 363.504 262.63 362.592C263.134 361.68 263.386 360.612 263.386 359.388C263.386 358.14 263.134 357.072 262.63 356.184C262.15 355.272 261.478 354.576 260.614 354.096C259.75 353.616 258.778 353.376 257.698 353.376C256.594 353.376 255.61 353.616 254.746 354.096C253.906 354.576 253.234 355.272 252.73 356.184C252.226 357.072 251.974 358.14 251.974 359.388C251.974 360.612 252.226 361.68 252.73 362.592C253.234 363.504 253.906 364.2 254.746 364.68C255.61 365.16 256.582 365.4 257.662 365.4ZM269.349 368.964L269.565 365.184C269.733 365.208 269.889 365.232 270.033 365.256C270.177 365.28 270.309 365.292 270.429 365.292C271.173 365.292 271.749 365.064 272.157 364.608C272.565 364.152 272.865 363.54 273.057 362.772C273.273 361.98 273.417 361.104 273.489 360.144C273.585 359.16 273.657 358.176 273.705 357.192L274.029 349.776H289.581V369H285.081V352.368L286.125 353.592H276.981L277.953 352.332L277.701 357.408C277.629 359.112 277.485 360.696 277.269 362.16C277.077 363.6 276.765 364.86 276.333 365.94C275.925 367.02 275.349 367.86 274.605 368.46C273.885 369.06 272.961 369.36 271.833 369.36C271.473 369.36 271.077 369.324 270.645 369.252C270.237 369.18 269.805 369.084 269.349 368.964ZM305.289 356.112C307.761 356.112 309.645 356.664 310.941 357.768C312.237 358.872 312.885 360.432 312.885 362.448C312.885 364.536 312.165 366.168 310.725 367.344C309.285 368.496 307.257 369.06 304.641 369.036L295.641 369V349.776H300.141V356.076L305.289 356.112ZM304.245 365.724C305.565 365.748 306.573 365.472 307.269 364.896C307.965 364.32 308.313 363.48 308.313 362.376C308.313 361.272 307.965 360.48 307.269 360C306.597 359.496 305.589 359.232 304.245 359.208L300.141 359.172V365.688L304.245 365.724ZM322.538 369.324C321.074 369.324 319.622 369.156 318.182 368.82C316.766 368.46 315.482 367.956 314.33 367.308L315.59 363.96C316.526 364.488 317.582 364.896 318.758 365.184C319.934 365.472 321.11 365.616 322.286 365.616C323.294 365.616 324.158 365.52 324.878 365.328C325.598 365.112 326.15 364.8 326.534 364.392C326.942 363.984 327.146 363.516 327.146 362.988C327.146 362.22 326.81 361.644 326.138 361.26C325.49 360.852 324.554 360.648 323.33 360.648H319.622V357.624H322.97C323.738 357.624 324.386 357.54 324.914 357.372C325.466 357.204 325.886 356.952 326.174 356.616C326.462 356.28 326.606 355.884 326.606 355.428C326.606 354.972 326.426 354.576 326.066 354.24C325.73 353.88 325.238 353.616 324.59 353.448C323.942 353.256 323.162 353.16 322.25 353.16C321.29 353.16 320.294 353.28 319.262 353.52C318.254 353.76 317.222 354.108 316.166 354.564L315.014 351.252C316.238 350.7 317.426 350.28 318.578 349.992C319.754 349.68 320.918 349.512 322.07 349.488C323.822 349.416 325.382 349.596 326.75 350.028C328.118 350.46 329.198 351.084 329.99 351.9C330.782 352.716 331.178 353.676 331.178 354.78C331.178 355.692 330.89 356.52 330.314 357.264C329.762 357.984 328.994 358.548 328.01 358.956C327.05 359.364 325.946 359.568 324.698 359.568L324.842 358.596C326.978 358.596 328.658 359.028 329.882 359.892C331.106 360.732 331.718 361.884 331.718 363.348C331.718 364.524 331.322 365.568 330.53 366.48C329.738 367.368 328.646 368.064 327.254 368.568C325.886 369.072 324.314 369.324 322.538 369.324ZM344.92 369.252C342.952 369.252 341.2 368.832 339.664 367.992C338.128 367.128 336.916 365.952 336.028 364.464C335.14 362.976 334.696 361.284 334.696 359.388C334.696 357.468 335.14 355.776 336.028 354.312C336.916 352.824 338.128 351.66 339.664 350.82C341.2 349.98 342.952 349.56 344.92 349.56C346.912 349.56 348.676 349.98 350.212 350.82C351.772 351.66 352.984 352.812 353.848 354.276C354.736 355.74 355.18 357.444 355.18 359.388C355.18 361.284 354.736 362.976 353.848 364.464C352.984 365.952 351.772 367.128 350.212 367.992C348.676 368.832 346.912 369.252 344.92 369.252ZM344.92 365.4C346.024 365.4 347.008 365.16 347.872 364.68C348.736 364.2 349.408 363.504 349.888 362.592C350.392 361.68 350.644 360.612 350.644 359.388C350.644 358.14 350.392 357.072 349.888 356.184C349.408 355.272 348.736 354.576 347.872 354.096C347.008 353.616 346.036 353.376 344.956 353.376C343.852 353.376 342.868 353.616 342.004 354.096C341.164 354.576 340.492 355.272 339.988 356.184C339.484 357.072 339.232 358.14 339.232 359.388C339.232 360.612 339.484 361.68 339.988 362.592C340.492 363.504 341.164 364.2 342.004 364.68C342.868 365.16 343.84 365.4 344.92 365.4ZM359.626 369V349.776H369.022C371.35 349.776 373.174 350.208 374.494 351.072C375.838 351.936 376.51 353.16 376.51 354.744C376.51 356.304 375.886 357.528 374.638 358.416C373.39 359.28 371.734 359.712 369.67 359.712L370.21 358.596C372.538 358.596 374.266 359.028 375.394 359.892C376.546 360.732 377.122 361.968 377.122 363.6C377.122 365.304 376.486 366.636 375.214 367.596C373.942 368.532 372.01 369 369.418 369H359.626ZM363.91 365.724H369.058C370.282 365.724 371.206 365.532 371.83 365.148C372.454 364.74 372.766 364.128 372.766 363.312C372.766 362.448 372.478 361.812 371.902 361.404C371.326 360.996 370.426 360.792 369.202 360.792H363.91V365.724ZM363.91 357.804H368.626C369.778 357.804 370.642 357.6 371.218 357.192C371.818 356.76 372.118 356.16 372.118 355.392C372.118 354.6 371.818 354.012 371.218 353.628C370.642 353.244 369.778 353.052 368.626 353.052H363.91V357.804ZM393.579 369V365.112L393.327 364.284V357.48C393.327 356.16 392.931 355.14 392.139 354.42C391.347 353.676 390.147 353.304 388.539 353.304C387.459 353.304 386.391 353.472 385.335 353.808C384.303 354.144 383.427 354.612 382.707 355.212L380.943 351.936C381.975 351.144 383.199 350.556 384.615 350.172C386.055 349.764 387.543 349.56 389.079 349.56C391.863 349.56 394.011 350.232 395.523 351.576C397.059 352.896 397.827 354.948 397.827 357.732V369H393.579ZM387.531 369.252C386.091 369.252 384.831 369.012 383.751 368.532C382.671 368.028 381.831 367.344 381.231 366.48C380.655 365.592 380.367 364.596 380.367 363.492C380.367 362.412 380.619 361.44 381.123 360.576C381.651 359.712 382.503 359.028 383.679 358.524C384.855 358.02 386.415 357.768 388.359 357.768H393.939V360.756H388.683C387.147 360.756 386.115 361.008 385.587 361.512C385.059 361.992 384.795 362.592 384.795 363.312C384.795 364.128 385.119 364.776 385.767 365.256C386.415 365.736 387.315 365.976 388.467 365.976C389.571 365.976 390.555 365.724 391.419 365.22C392.307 364.716 392.943 363.972 393.327 362.988L394.083 365.688C393.651 366.816 392.871 367.692 391.743 368.316C390.639 368.94 389.235 369.252 387.531 369.252ZM403.395 369V349.776H407.895V357.588H417.579V349.776H422.079V369H417.579V361.404H407.895V369H403.395ZM428.11 369V349.776H432.61V362.448L443.23 349.776H447.334V369H442.834V356.328L432.25 369H428.11ZM453.387 369V349.776H457.887V357.228H463.611V361.296H457.887V369H453.387ZM470.955 369.252C469.035 369.252 467.319 368.832 465.807 367.992C464.319 367.128 463.143 365.952 462.279 364.464C461.415 362.976 460.983 361.284 460.983 359.388C460.983 357.468 461.415 355.764 462.279 354.276C463.143 352.788 464.319 351.636 465.807 350.82C467.319 349.98 469.035 349.56 470.955 349.56C472.899 349.56 474.615 349.98 476.103 350.82C477.615 351.636 478.803 352.788 479.667 354.276C480.531 355.764 480.963 357.468 480.963 359.388C480.963 361.284 480.531 362.988 479.667 364.5C478.803 365.988 477.615 367.152 476.103 367.992C474.615 368.832 472.899 369.252 470.955 369.252ZM470.955 365.436C472.035 365.436 472.983 365.184 473.799 364.68C474.639 364.176 475.299 363.48 475.779 362.592C476.259 361.704 476.499 360.636 476.499 359.388C476.499 358.14 476.259 357.072 475.779 356.184C475.299 355.272 474.639 354.576 473.799 354.096C472.983 353.616 472.047 353.376 470.991 353.376C469.935 353.376 468.987 353.616 468.147 354.096C467.307 354.576 466.647 355.272 466.167 356.184C465.687 357.072 465.447 358.14 465.447 359.388C465.447 360.636 465.687 361.704 466.167 362.592C466.647 363.48 467.307 364.176 468.147 364.68C468.987 365.184 469.923 365.436 470.955 365.436Z" fill="#0A1526"/>
    <g clip-path="url(#clip0_534_491)">
        <path d="M281.13 203.38C281.02 203.38 280.91 203.38 280.81 203.38C277.72 203.27 274.87 201.66 273.21 199.05C262.8 182.72 244.58 167.52 244.4 167.37C240.41 164.06 239.85 158.14 243.16 154.14C246.47 150.15 252.39 149.59 256.38 152.89C257.06 153.45 270.26 164.44 281.62 178.64C293.14 165.64 317.08 141.51 354.43 117.49C358.79 114.68 364.61 115.95 367.41 120.31C370.22 124.67 368.95 130.49 364.59 133.29C313.89 165.9 288.93 199.23 288.69 199.56C286.92 201.96 284.11 203.37 281.13 203.37V203.38Z" fill="#2FA124"/>
    </g>
    <rect x="971.66" y="9.19239" width="420.23" height="416.44" rx="43.5" transform="rotate(45 971.66 9.19239)" fill="#F2F6FF" stroke="url(#paint5_linear_534_491)" stroke-width="13"/>
    <path d="M828.736 287V261.8H851.02V287H846.412V264.608L847.492 265.76H832.264L833.344 264.608V287H828.736ZM866.586 287.252C864.45 287.252 862.578 286.832 860.97 285.992C859.386 285.128 858.15 283.952 857.262 282.464C856.398 280.976 855.966 279.284 855.966 277.388C855.966 275.468 856.386 273.776 857.226 272.312C858.09 270.824 859.266 269.66 860.754 268.82C862.266 267.98 863.982 267.56 865.902 267.56C867.774 267.56 869.442 267.968 870.906 268.784C872.37 269.6 873.522 270.752 874.362 272.24C875.202 273.728 875.622 275.48 875.622 277.496C875.622 277.688 875.61 277.904 875.586 278.144C875.586 278.384 875.574 278.612 875.55 278.828H859.53V275.84H873.174L871.41 276.776C871.434 275.672 871.206 274.7 870.726 273.86C870.246 273.02 869.586 272.36 868.746 271.88C867.93 271.4 866.982 271.16 865.902 271.16C864.798 271.16 863.826 271.4 862.986 271.88C862.17 272.36 861.522 273.032 861.042 273.896C860.586 274.736 860.358 275.732 860.358 276.884V277.604C860.358 278.756 860.622 279.776 861.15 280.664C861.678 281.552 862.422 282.236 863.382 282.716C864.342 283.196 865.446 283.436 866.694 283.436C867.774 283.436 868.746 283.268 869.61 282.932C870.474 282.596 871.242 282.068 871.914 281.348L874.326 284.12C873.462 285.128 872.37 285.908 871.05 286.46C869.754 286.988 868.266 287.252 866.586 287.252ZM891.2 287.252C889.64 287.252 888.212 286.892 886.916 286.172C885.644 285.452 884.624 284.372 883.856 282.932C883.112 281.468 882.74 279.62 882.74 277.388C882.74 275.132 883.1 273.284 883.82 271.844C884.564 270.404 885.572 269.336 886.844 268.64C888.116 267.92 889.568 267.56 891.2 267.56C893.096 267.56 894.764 267.968 896.204 268.784C897.668 269.6 898.82 270.74 899.66 272.204C900.524 273.668 900.956 275.396 900.956 277.388C900.956 279.38 900.524 281.12 899.66 282.608C898.82 284.072 897.668 285.212 896.204 286.028C894.764 286.844 893.096 287.252 891.2 287.252ZM880.544 293.984V267.776H884.828V272.312L884.684 277.424L885.044 282.536V293.984H880.544ZM890.696 283.4C891.776 283.4 892.736 283.16 893.576 282.68C894.44 282.2 895.124 281.504 895.628 280.592C896.132 279.68 896.384 278.612 896.384 277.388C896.384 276.14 896.132 275.072 895.628 274.184C895.124 273.272 894.44 272.576 893.576 272.096C892.736 271.616 891.776 271.376 890.696 271.376C889.616 271.376 888.644 271.616 887.78 272.096C886.916 272.576 886.232 273.272 885.728 274.184C885.224 275.072 884.972 276.14 884.972 277.388C884.972 278.612 885.224 279.68 885.728 280.592C886.232 281.504 886.916 282.2 887.78 282.68C888.644 283.16 889.616 283.4 890.696 283.4ZM905.434 287V267.776H914.83C917.158 267.776 918.982 268.208 920.302 269.072C921.646 269.936 922.318 271.16 922.318 272.744C922.318 274.304 921.694 275.528 920.446 276.416C919.198 277.28 917.542 277.712 915.478 277.712L916.018 276.596C918.346 276.596 920.074 277.028 921.202 277.892C922.354 278.732 922.93 279.968 922.93 281.6C922.93 283.304 922.294 284.636 921.022 285.596C919.75 286.532 917.818 287 915.226 287H905.434ZM909.718 283.724H914.866C916.09 283.724 917.014 283.532 917.638 283.148C918.262 282.74 918.574 282.128 918.574 281.312C918.574 280.448 918.286 279.812 917.71 279.404C917.134 278.996 916.234 278.792 915.01 278.792H909.718V283.724ZM909.718 275.804H914.434C915.586 275.804 916.45 275.6 917.026 275.192C917.626 274.76 917.926 274.16 917.926 273.392C917.926 272.6 917.626 272.012 917.026 271.628C916.45 271.244 915.586 271.052 914.434 271.052H909.718V275.804ZM947.127 287V267.776H951.627V287H947.127ZM937.083 274.112C939.555 274.112 941.427 274.664 942.699 275.768C943.995 276.872 944.643 278.432 944.643 280.448C944.643 282.536 943.923 284.168 942.483 285.344C941.067 286.496 939.051 287.06 936.435 287.036L927.723 287V267.776H932.223V274.076L937.083 274.112ZM936.039 283.724C937.359 283.748 938.367 283.472 939.063 282.896C939.759 282.32 940.107 281.48 940.107 280.376C940.107 279.272 939.759 278.48 939.063 278C938.391 277.496 937.383 277.232 936.039 277.208L932.223 277.172V283.688L936.039 283.724ZM966.64 287.252C964.504 287.252 962.632 286.832 961.024 285.992C959.44 285.128 958.204 283.952 957.316 282.464C956.452 280.976 956.02 279.284 956.02 277.388C956.02 275.468 956.44 273.776 957.28 272.312C958.144 270.824 959.32 269.66 960.808 268.82C962.32 267.98 964.036 267.56 965.956 267.56C967.828 267.56 969.496 267.968 970.96 268.784C972.424 269.6 973.576 270.752 974.416 272.24C975.256 273.728 975.676 275.48 975.676 277.496C975.676 277.688 975.664 277.904 975.64 278.144C975.64 278.384 975.628 278.612 975.604 278.828H959.584V275.84H973.228L971.464 276.776C971.488 275.672 971.26 274.7 970.78 273.86C970.3 273.02 969.64 272.36 968.8 271.88C967.984 271.4 967.036 271.16 965.956 271.16C964.852 271.16 963.88 271.4 963.04 271.88C962.224 272.36 961.576 273.032 961.096 273.896C960.64 274.736 960.412 275.732 960.412 276.884V277.604C960.412 278.756 960.676 279.776 961.204 280.664C961.732 281.552 962.476 282.236 963.436 282.716C964.396 283.196 965.5 283.436 966.748 283.436C967.828 283.436 968.8 283.268 969.664 282.932C970.528 282.596 971.296 282.068 971.968 281.348L974.38 284.12C973.516 285.128 972.424 285.908 971.104 286.46C969.808 286.988 968.32 287.252 966.64 287.252ZM993.319 287L1003.72 263.672L1004.95 265.76H990.655L992.887 263.492V270.044H988.531V261.8H1008.12V264.932L998.323 287H993.319ZM1035.58 284.912V271.592H1028.2L1028.09 274.688C1028.04 275.792 1027.97 276.86 1027.87 277.892C1027.78 278.9 1027.62 279.836 1027.4 280.7C1027.19 281.54 1026.88 282.236 1026.47 282.788C1026.06 283.34 1025.52 283.7 1024.85 283.868L1020.38 283.184C1021.1 283.184 1021.68 282.956 1022.11 282.5C1022.57 282.02 1022.92 281.372 1023.16 280.556C1023.42 279.716 1023.61 278.768 1023.73 277.712C1023.85 276.632 1023.94 275.516 1023.98 274.364L1024.24 267.776H1040.08V284.912H1035.58ZM1019.7 291.284V283.184H1042.92V291.284H1038.71V287H1023.88V291.284H1019.7ZM1046.94 287V267.776H1051.44V275.588H1061.12V267.776H1065.62V287H1061.12V279.404H1051.44V287H1046.94ZM1080.62 287.252C1078.48 287.252 1076.61 286.832 1075 285.992C1073.42 285.128 1072.18 283.952 1071.29 282.464C1070.43 280.976 1070 279.284 1070 277.388C1070 275.468 1070.42 273.776 1071.26 272.312C1072.12 270.824 1073.3 269.66 1074.78 268.82C1076.3 267.98 1078.01 267.56 1079.93 267.56C1081.8 267.56 1083.47 267.968 1084.94 268.784C1086.4 269.6 1087.55 270.752 1088.39 272.24C1089.23 273.728 1089.65 275.48 1089.65 277.496C1089.65 277.688 1089.64 277.904 1089.62 278.144C1089.62 278.384 1089.6 278.612 1089.58 278.828H1073.56V275.84H1087.2L1085.44 276.776C1085.46 275.672 1085.24 274.7 1084.76 273.86C1084.28 273.02 1083.62 272.36 1082.78 271.88C1081.96 271.4 1081.01 271.16 1079.93 271.16C1078.83 271.16 1077.86 271.4 1077.02 271.88C1076.2 272.36 1075.55 273.032 1075.07 273.896C1074.62 274.736 1074.39 275.732 1074.39 276.884V277.604C1074.39 278.756 1074.65 279.776 1075.18 280.664C1075.71 281.552 1076.45 282.236 1077.41 282.716C1078.37 283.196 1079.48 283.436 1080.72 283.436C1081.8 283.436 1082.78 283.268 1083.64 282.932C1084.5 282.596 1085.27 282.068 1085.94 281.348L1088.36 284.12C1087.49 285.128 1086.4 285.908 1085.08 286.46C1083.78 286.988 1082.3 287.252 1080.62 287.252ZM1094.57 287V267.776H1099.07V280.448L1109.69 267.776H1113.8V287H1109.3V274.328L1098.71 287H1094.57ZM1103.9 265.508C1101.98 265.508 1100.5 265.064 1099.47 264.176C1098.44 263.264 1097.91 261.944 1097.89 260.216H1100.87C1100.9 261.08 1101.16 261.764 1101.67 262.268C1102.19 262.772 1102.93 263.024 1103.86 263.024C1104.77 263.024 1105.49 262.772 1106.02 262.268C1106.57 261.764 1106.86 261.08 1106.89 260.216H1109.95C1109.92 261.944 1109.38 263.264 1108.33 264.176C1107.29 265.064 1105.82 265.508 1103.9 265.508ZM864.429 331.36C862.845 331.36 861.429 331.12 860.181 330.64C858.933 330.16 857.853 329.428 856.941 328.444C856.053 327.436 855.369 326.164 854.889 324.628C854.409 323.092 854.169 321.268 854.169 319.156C854.169 317.62 854.301 316.216 854.565 314.944C854.829 313.672 855.225 312.532 855.753 311.524C856.281 310.492 856.941 309.58 857.733 308.788C858.549 307.996 859.497 307.336 860.577 306.808C861.657 306.28 862.881 305.872 864.249 305.584L873.177 303.676L873.825 307.708L865.725 309.364C865.269 309.46 864.717 309.604 864.069 309.796C863.445 309.964 862.797 310.228 862.125 310.588C861.477 310.924 860.865 311.416 860.289 312.064C859.737 312.688 859.281 313.504 858.921 314.512C858.585 315.496 858.417 316.732 858.417 318.22C858.417 318.676 858.429 319.024 858.453 319.264C858.501 319.48 858.537 319.72 858.561 319.984C858.609 320.224 858.633 320.584 858.633 321.064L856.941 319.3C857.421 318.076 858.081 317.032 858.921 316.168C859.785 315.28 860.781 314.608 861.909 314.152C863.061 313.672 864.309 313.432 865.653 313.432C867.453 313.432 869.049 313.804 870.441 314.548C871.833 315.292 872.925 316.336 873.717 317.68C874.509 319.024 874.905 320.548 874.905 322.252C874.905 324.028 874.473 325.6 873.609 326.968C872.745 328.336 871.521 329.416 869.937 330.208C868.377 330.976 866.541 331.36 864.429 331.36ZM864.789 327.724C865.869 327.724 866.817 327.496 867.633 327.04C868.473 326.56 869.121 325.912 869.577 325.096C870.057 324.28 870.297 323.368 870.297 322.36C870.297 321.352 870.057 320.476 869.577 319.732C869.121 318.964 868.473 318.352 867.633 317.896C866.817 317.44 865.845 317.212 864.717 317.212C863.637 317.212 862.665 317.428 861.801 317.86C860.961 318.292 860.301 318.892 859.821 319.66C859.365 320.404 859.137 321.268 859.137 322.252C859.137 323.26 859.377 324.184 859.857 325.024C860.337 325.864 860.997 326.524 861.837 327.004C862.701 327.484 863.685 327.724 864.789 327.724ZM888.224 331.252C886.088 331.252 884.216 330.832 882.608 329.992C881.024 329.128 879.788 327.952 878.9 326.464C878.036 324.976 877.604 323.284 877.604 321.388C877.604 319.468 878.024 317.776 878.864 316.312C879.728 314.824 880.904 313.66 882.392 312.82C883.904 311.98 885.62 311.56 887.54 311.56C889.412 311.56 891.08 311.968 892.544 312.784C894.008 313.6 895.16 314.752 896 316.24C896.84 317.728 897.26 319.48 897.26 321.496C897.26 321.688 897.248 321.904 897.224 322.144C897.224 322.384 897.212 322.612 897.188 322.828H881.168V319.84H894.812L893.048 320.776C893.072 319.672 892.844 318.7 892.364 317.86C891.884 317.02 891.224 316.36 890.384 315.88C889.568 315.4 888.62 315.16 887.54 315.16C886.436 315.16 885.464 315.4 884.624 315.88C883.808 316.36 883.16 317.032 882.68 317.896C882.224 318.736 881.996 319.732 881.996 320.884V321.604C881.996 322.756 882.26 323.776 882.788 324.664C883.316 325.552 884.06 326.236 885.02 326.716C885.98 327.196 887.084 327.436 888.332 327.436C889.412 327.436 890.384 327.268 891.248 326.932C892.112 326.596 892.88 326.068 893.552 325.348L895.964 328.12C895.1 329.128 894.008 329.908 892.688 330.46C891.392 330.988 889.904 331.252 888.224 331.252ZM910.93 331.252C908.914 331.252 907.114 330.832 905.53 329.992C903.97 329.128 902.746 327.952 901.858 326.464C900.97 324.976 900.526 323.284 900.526 321.388C900.526 319.468 900.97 317.776 901.858 316.312C902.746 314.824 903.97 313.66 905.53 312.82C907.114 311.98 908.914 311.56 910.93 311.56C912.802 311.56 914.446 311.944 915.862 312.712C917.302 313.456 918.394 314.56 919.138 316.024L915.682 318.04C915.106 317.128 914.398 316.456 913.558 316.024C912.742 315.592 911.854 315.376 910.894 315.376C909.79 315.376 908.794 315.616 907.906 316.096C907.018 316.576 906.322 317.272 905.818 318.184C905.314 319.072 905.062 320.14 905.062 321.388C905.062 322.636 905.314 323.716 905.818 324.628C906.322 325.516 907.018 326.2 907.906 326.68C908.794 327.16 909.79 327.4 910.894 327.4C911.854 327.4 912.742 327.184 913.558 326.752C914.398 326.32 915.106 325.648 915.682 324.736L919.138 326.752C918.394 328.192 917.302 329.308 915.862 330.1C914.446 330.868 912.802 331.252 910.93 331.252ZM923.1 331V311.776H941.532V331H937.068V314.548L938.112 315.592H926.556L927.6 314.548V331H923.1ZM944.796 330.964L945.012 327.184C945.18 327.208 945.336 327.232 945.48 327.256C945.624 327.28 945.756 327.292 945.876 327.292C946.62 327.292 947.196 327.064 947.604 326.608C948.012 326.152 948.312 325.54 948.504 324.772C948.72 323.98 948.864 323.104 948.936 322.144C949.032 321.16 949.104 320.176 949.152 319.192L949.476 311.776H965.028V331H960.528V314.368L961.572 315.592H952.428L953.4 314.332L953.148 319.408C953.076 321.112 952.932 322.696 952.716 324.16C952.524 325.6 952.212 326.86 951.78 327.94C951.372 329.02 950.796 329.86 950.052 330.46C949.332 331.06 948.408 331.36 947.28 331.36C946.92 331.36 946.524 331.324 946.092 331.252C945.684 331.18 945.252 331.084 944.796 330.964ZM982.752 331V327.112L982.5 326.284V319.48C982.5 318.16 982.104 317.14 981.312 316.42C980.52 315.676 979.32 315.304 977.712 315.304C976.632 315.304 975.564 315.472 974.508 315.808C973.476 316.144 972.6 316.612 971.88 317.212L970.116 313.936C971.148 313.144 972.372 312.556 973.788 312.172C975.228 311.764 976.716 311.56 978.252 311.56C981.036 311.56 983.184 312.232 984.696 313.576C986.232 314.896 987 316.948 987 319.732V331H982.752ZM976.704 331.252C975.264 331.252 974.004 331.012 972.924 330.532C971.844 330.028 971.004 329.344 970.404 328.48C969.828 327.592 969.54 326.596 969.54 325.492C969.54 324.412 969.792 323.44 970.296 322.576C970.824 321.712 971.676 321.028 972.852 320.524C974.028 320.02 975.588 319.768 977.532 319.768H983.112V322.756H977.856C976.32 322.756 975.288 323.008 974.76 323.512C974.232 323.992 973.968 324.592 973.968 325.312C973.968 326.128 974.292 326.776 974.94 327.256C975.588 327.736 976.488 327.976 977.64 327.976C978.744 327.976 979.728 327.724 980.592 327.22C981.48 326.716 982.116 325.972 982.5 324.988L983.256 327.688C982.824 328.816 982.044 329.692 980.916 330.316C979.812 330.94 978.408 331.252 976.704 331.252ZM996.565 331V314.512L997.609 315.592H989.797V311.776H1007.8V315.592H1000.02L1001.06 314.512V331H996.565ZM1011.06 331V311.776H1015.56V319.588H1025.25V311.776H1029.75V331H1025.25V323.404H1015.56V331H1011.06ZM1044.34 331.252C1042.38 331.252 1040.62 330.832 1039.09 329.992C1037.55 329.128 1036.34 327.952 1035.45 326.464C1034.56 324.976 1034.12 323.284 1034.12 321.388C1034.12 319.468 1034.56 317.776 1035.45 316.312C1036.34 314.824 1037.55 313.66 1039.09 312.82C1040.62 311.98 1042.38 311.56 1044.34 311.56C1046.34 311.56 1048.1 311.98 1049.64 312.82C1051.2 313.66 1052.41 314.812 1053.27 316.276C1054.16 317.74 1054.6 319.444 1054.6 321.388C1054.6 323.284 1054.16 324.976 1053.27 326.464C1052.41 327.952 1051.2 329.128 1049.64 329.992C1048.1 330.832 1046.34 331.252 1044.34 331.252ZM1044.34 327.4C1045.45 327.4 1046.43 327.16 1047.3 326.68C1048.16 326.2 1048.83 325.504 1049.31 324.592C1049.82 323.68 1050.07 322.612 1050.07 321.388C1050.07 320.14 1049.82 319.072 1049.31 318.184C1048.83 317.272 1048.16 316.576 1047.3 316.096C1046.43 315.616 1045.46 315.376 1044.38 315.376C1043.28 315.376 1042.29 315.616 1041.43 316.096C1040.59 316.576 1039.92 317.272 1039.41 318.184C1038.91 319.072 1038.66 320.14 1038.66 321.388C1038.66 322.612 1038.91 323.68 1039.41 324.592C1039.92 325.504 1040.59 326.2 1041.43 326.68C1042.29 327.16 1043.26 327.4 1044.34 327.4ZM1067.95 322.864V319.12H1077.85V322.864H1067.95ZM810.306 375.36C808.722 375.36 807.306 375.12 806.058 374.64C804.81 374.16 803.73 373.428 802.818 372.444C801.93 371.436 801.246 370.164 800.766 368.628C800.286 367.092 800.046 365.268 800.046 363.156C800.046 361.62 800.178 360.216 800.442 358.944C800.706 357.672 801.102 356.532 801.63 355.524C802.158 354.492 802.818 353.58 803.61 352.788C804.426 351.996 805.374 351.336 806.454 350.808C807.534 350.28 808.758 349.872 810.126 349.584L819.054 347.676L819.702 351.708L811.602 353.364C811.146 353.46 810.594 353.604 809.946 353.796C809.322 353.964 808.674 354.228 808.002 354.588C807.354 354.924 806.742 355.416 806.166 356.064C805.614 356.688 805.158 357.504 804.798 358.512C804.462 359.496 804.294 360.732 804.294 362.22C804.294 362.676 804.306 363.024 804.33 363.264C804.378 363.48 804.414 363.72 804.438 363.984C804.486 364.224 804.51 364.584 804.51 365.064L802.818 363.3C803.298 362.076 803.958 361.032 804.798 360.168C805.662 359.28 806.658 358.608 807.786 358.152C808.938 357.672 810.186 357.432 811.53 357.432C813.33 357.432 814.926 357.804 816.318 358.548C817.71 359.292 818.802 360.336 819.594 361.68C820.386 363.024 820.782 364.548 820.782 366.252C820.782 368.028 820.35 369.6 819.486 370.968C818.622 372.336 817.398 373.416 815.814 374.208C814.254 374.976 812.418 375.36 810.306 375.36ZM810.666 371.724C811.746 371.724 812.694 371.496 813.51 371.04C814.35 370.56 814.998 369.912 815.454 369.096C815.934 368.28 816.174 367.368 816.174 366.36C816.174 365.352 815.934 364.476 815.454 363.732C814.998 362.964 814.35 362.352 813.51 361.896C812.694 361.44 811.722 361.212 810.594 361.212C809.514 361.212 808.542 361.428 807.678 361.86C806.838 362.292 806.178 362.892 805.698 363.66C805.242 364.404 805.014 365.268 805.014 366.252C805.014 367.26 805.254 368.184 805.734 369.024C806.214 369.864 806.874 370.524 807.714 371.004C808.578 371.484 809.562 371.724 810.666 371.724ZM834.101 375.252C831.965 375.252 830.093 374.832 828.485 373.992C826.901 373.128 825.665 371.952 824.777 370.464C823.913 368.976 823.481 367.284 823.481 365.388C823.481 363.468 823.901 361.776 824.741 360.312C825.605 358.824 826.781 357.66 828.269 356.82C829.781 355.98 831.497 355.56 833.417 355.56C835.289 355.56 836.957 355.968 838.421 356.784C839.885 357.6 841.037 358.752 841.877 360.24C842.717 361.728 843.137 363.48 843.137 365.496C843.137 365.688 843.125 365.904 843.101 366.144C843.101 366.384 843.089 366.612 843.065 366.828H827.045V363.84H840.689L838.925 364.776C838.949 363.672 838.721 362.7 838.241 361.86C837.761 361.02 837.101 360.36 836.261 359.88C835.445 359.4 834.497 359.16 833.417 359.16C832.313 359.16 831.341 359.4 830.501 359.88C829.685 360.36 829.037 361.032 828.557 361.896C828.101 362.736 827.873 363.732 827.873 364.884V365.604C827.873 366.756 828.137 367.776 828.665 368.664C829.193 369.552 829.937 370.236 830.897 370.716C831.857 371.196 832.961 371.436 834.209 371.436C835.289 371.436 836.261 371.268 837.125 370.932C837.989 370.596 838.757 370.068 839.429 369.348L841.841 372.12C840.977 373.128 839.885 373.908 838.565 374.46C837.269 374.988 835.781 375.252 834.101 375.252ZM853.827 375.324C852.363 375.324 850.911 375.156 849.471 374.82C848.055 374.46 846.771 373.956 845.619 373.308L846.879 369.96C847.815 370.488 848.871 370.896 850.047 371.184C851.223 371.472 852.399 371.616 853.575 371.616C854.583 371.616 855.447 371.52 856.167 371.328C856.887 371.112 857.439 370.8 857.823 370.392C858.231 369.984 858.435 369.516 858.435 368.988C858.435 368.22 858.099 367.644 857.427 367.26C856.779 366.852 855.843 366.648 854.619 366.648H850.911V363.624H854.259C855.027 363.624 855.675 363.54 856.203 363.372C856.755 363.204 857.175 362.952 857.463 362.616C857.751 362.28 857.895 361.884 857.895 361.428C857.895 360.972 857.715 360.576 857.355 360.24C857.019 359.88 856.527 359.616 855.879 359.448C855.231 359.256 854.451 359.16 853.539 359.16C852.579 359.16 851.583 359.28 850.551 359.52C849.543 359.76 848.511 360.108 847.455 360.564L846.303 357.252C847.527 356.7 848.715 356.28 849.867 355.992C851.043 355.68 852.207 355.512 853.359 355.488C855.111 355.416 856.671 355.596 858.039 356.028C859.407 356.46 860.487 357.084 861.279 357.9C862.071 358.716 862.467 359.676 862.467 360.78C862.467 361.692 862.179 362.52 861.603 363.264C861.051 363.984 860.283 364.548 859.299 364.956C858.339 365.364 857.235 365.568 855.987 365.568L856.131 364.596C858.267 364.596 859.947 365.028 861.171 365.892C862.395 366.732 863.007 367.884 863.007 369.348C863.007 370.524 862.611 371.568 861.819 372.48C861.027 373.368 859.935 374.064 858.543 374.568C857.175 375.072 855.603 375.324 853.827 375.324ZM877.59 375V355.776H886.986C889.314 355.776 891.138 356.208 892.458 357.072C893.802 357.936 894.474 359.16 894.474 360.744C894.474 362.304 893.85 363.528 892.602 364.416C891.354 365.28 889.698 365.712 887.634 365.712L888.174 364.596C890.502 364.596 892.23 365.028 893.358 365.892C894.51 366.732 895.086 367.968 895.086 369.6C895.086 371.304 894.45 372.636 893.178 373.596C891.906 374.532 889.974 375 887.382 375H877.59ZM881.874 371.724H887.022C888.246 371.724 889.17 371.532 889.794 371.148C890.418 370.74 890.73 370.128 890.73 369.312C890.73 368.448 890.442 367.812 889.866 367.404C889.29 366.996 888.39 366.792 887.166 366.792H881.874V371.724ZM881.874 363.804H886.59C887.742 363.804 888.606 363.6 889.182 363.192C889.782 362.76 890.082 362.16 890.082 361.392C890.082 360.6 889.782 360.012 889.182 359.628C888.606 359.244 887.742 359.052 886.59 359.052H881.874V363.804ZM899.879 375V355.776H909.275C911.603 355.776 913.427 356.208 914.747 357.072C916.091 357.936 916.763 359.16 916.763 360.744C916.763 362.304 916.139 363.528 914.891 364.416C913.643 365.28 911.987 365.712 909.923 365.712L910.463 364.596C912.791 364.596 914.519 365.028 915.647 365.892C916.799 366.732 917.375 367.968 917.375 369.6C917.375 371.304 916.739 372.636 915.467 373.596C914.195 374.532 912.263 375 909.671 375H899.879ZM904.163 371.724H909.311C910.535 371.724 911.459 371.532 912.083 371.148C912.707 370.74 913.019 370.128 913.019 369.312C913.019 368.448 912.731 367.812 912.155 367.404C911.579 366.996 910.679 366.792 909.455 366.792H904.163V371.724ZM904.163 363.804H908.879C910.031 363.804 910.895 363.6 911.471 363.192C912.071 362.76 912.371 362.16 912.371 361.392C912.371 360.6 912.071 360.012 911.471 359.628C910.895 359.244 910.031 359.052 908.879 359.052H904.163V363.804ZM930.737 375.252C928.769 375.252 927.017 374.832 925.481 373.992C923.945 373.128 922.733 371.952 921.845 370.464C920.957 368.976 920.513 367.284 920.513 365.388C920.513 363.468 920.957 361.776 921.845 360.312C922.733 358.824 923.945 357.66 925.481 356.82C927.017 355.98 928.769 355.56 930.737 355.56C932.729 355.56 934.493 355.98 936.029 356.82C937.589 357.66 938.801 358.812 939.665 360.276C940.553 361.74 940.997 363.444 940.997 365.388C940.997 367.284 940.553 368.976 939.665 370.464C938.801 371.952 937.589 373.128 936.029 373.992C934.493 374.832 932.729 375.252 930.737 375.252ZM930.737 371.4C931.841 371.4 932.825 371.16 933.689 370.68C934.553 370.2 935.225 369.504 935.705 368.592C936.209 367.68 936.461 366.612 936.461 365.388C936.461 364.14 936.209 363.072 935.705 362.184C935.225 361.272 934.553 360.576 933.689 360.096C932.825 359.616 931.853 359.376 930.773 359.376C929.669 359.376 928.685 359.616 927.821 360.096C926.981 360.576 926.309 361.272 925.805 362.184C925.301 363.072 925.049 364.14 925.049 365.388C925.049 366.612 925.301 367.68 925.805 368.592C926.309 369.504 926.981 370.2 927.821 370.68C928.685 371.16 929.657 371.4 930.737 371.4ZM958.407 372.912V359.592H951.027L950.919 362.688C950.871 363.792 950.799 364.86 950.703 365.892C950.607 366.9 950.451 367.836 950.235 368.7C950.019 369.54 949.707 370.236 949.299 370.788C948.891 371.34 948.351 371.7 947.679 371.868L943.215 371.184C943.935 371.184 944.511 370.956 944.943 370.5C945.399 370.02 945.747 369.372 945.987 368.556C946.251 367.716 946.443 366.768 946.563 365.712C946.683 364.632 946.767 363.516 946.815 362.364L947.067 355.776H962.907V372.912H958.407ZM942.531 379.284V371.184H965.751V379.284H961.539V375H946.707V379.284H942.531ZM981.434 375V371.112L981.182 370.284V363.48C981.182 362.16 980.786 361.14 979.994 360.42C979.202 359.676 978.002 359.304 976.394 359.304C975.314 359.304 974.246 359.472 973.19 359.808C972.158 360.144 971.282 360.612 970.562 361.212L968.798 357.936C969.83 357.144 971.054 356.556 972.47 356.172C973.91 355.764 975.398 355.56 976.934 355.56C979.718 355.56 981.866 356.232 983.378 357.576C984.914 358.896 985.682 360.948 985.682 363.732V375H981.434ZM975.386 375.252C973.946 375.252 972.686 375.012 971.606 374.532C970.526 374.028 969.686 373.344 969.086 372.48C968.51 371.592 968.222 370.596 968.222 369.492C968.222 368.412 968.474 367.44 968.978 366.576C969.506 365.712 970.358 365.028 971.534 364.524C972.71 364.02 974.27 363.768 976.214 363.768H981.794V366.756H976.538C975.002 366.756 973.97 367.008 973.442 367.512C972.914 367.992 972.65 368.592 972.65 369.312C972.65 370.128 972.974 370.776 973.622 371.256C974.27 371.736 975.17 371.976 976.322 371.976C977.426 371.976 978.41 371.724 979.274 371.22C980.162 370.716 980.798 369.972 981.182 368.988L981.938 371.688C981.506 372.816 980.726 373.692 979.598 374.316C978.494 374.94 977.09 375.252 975.386 375.252ZM1014.38 372.912V359.592H1007L1006.89 362.688C1006.84 363.792 1006.77 364.86 1006.67 365.892C1006.58 366.9 1006.42 367.836 1006.2 368.7C1005.99 369.54 1005.68 370.236 1005.27 370.788C1004.86 371.34 1004.32 371.7 1003.65 371.868L999.184 371.184C999.904 371.184 1000.48 370.956 1000.91 370.5C1001.37 370.02 1001.72 369.372 1001.96 368.556C1002.22 367.716 1002.41 366.768 1002.53 365.712C1002.65 364.632 1002.74 363.516 1002.78 362.364L1003.04 355.776H1018.88V372.912H1014.38ZM998.5 379.284V371.184H1021.72V379.284H1017.51V375H1002.68V379.284H998.5ZM1037.4 375V371.112L1037.15 370.284V363.48C1037.15 362.16 1036.75 361.14 1035.96 360.42C1035.17 359.676 1033.97 359.304 1032.36 359.304C1031.28 359.304 1030.21 359.472 1029.16 359.808C1028.13 360.144 1027.25 360.612 1026.53 361.212L1024.77 357.936C1025.8 357.144 1027.02 356.556 1028.44 356.172C1029.88 355.764 1031.37 355.56 1032.9 355.56C1035.69 355.56 1037.83 356.232 1039.35 357.576C1040.88 358.896 1041.65 360.948 1041.65 363.732V375H1037.4ZM1031.35 375.252C1029.91 375.252 1028.65 375.012 1027.57 374.532C1026.49 374.028 1025.65 373.344 1025.05 372.48C1024.48 371.592 1024.19 370.596 1024.19 369.492C1024.19 368.412 1024.44 367.44 1024.95 366.576C1025.47 365.712 1026.33 365.028 1027.5 364.524C1028.68 364.02 1030.24 363.768 1032.18 363.768H1037.76V366.756H1032.51C1030.97 366.756 1029.94 367.008 1029.41 367.512C1028.88 367.992 1028.62 368.592 1028.62 369.312C1028.62 370.128 1028.94 370.776 1029.59 371.256C1030.24 371.736 1031.14 371.976 1032.29 371.976C1033.39 371.976 1034.38 371.724 1035.24 371.22C1036.13 370.716 1036.77 369.972 1037.15 368.988L1037.91 371.688C1037.47 372.816 1036.69 373.692 1035.57 374.316C1034.46 374.94 1033.06 375.252 1031.35 375.252ZM1047.22 375V355.776H1051.72V363.588H1061.4V355.776H1065.9V375H1061.4V367.404H1051.72V375H1047.22ZM1071.93 375V355.776H1076.43V363.588H1086.12V355.776H1090.62V375H1086.12V367.404H1076.43V375H1071.93ZM1116.05 375V355.776H1120.55V375H1116.05ZM1106.01 362.112C1108.48 362.112 1110.35 362.664 1111.62 363.768C1112.92 364.872 1113.57 366.432 1113.57 368.448C1113.57 370.536 1112.85 372.168 1111.41 373.344C1109.99 374.496 1107.98 375.06 1105.36 375.036L1096.65 375V355.776H1101.15V362.076L1106.01 362.112ZM1104.97 371.724C1106.29 371.748 1107.29 371.472 1107.99 370.896C1108.69 370.32 1109.03 369.48 1109.03 368.376C1109.03 367.272 1108.69 366.48 1107.99 366C1107.32 365.496 1106.31 365.232 1104.97 365.208L1101.15 365.172V371.688L1104.97 371.724ZM1123.76 375L1132.22 363.984L1132.15 366.396L1124.08 355.776H1129.09L1134.74 363.336H1132.83L1138.52 355.776H1143.38L1135.24 366.396L1135.28 363.984L1143.7 375H1138.63L1132.69 366.972L1134.56 367.224L1128.73 375H1123.76ZM929.804 419L922.856 409.784L926.528 407.516L935.096 419H929.804ZM916.016 419V399.776H920.516V419H916.016ZM919.184 411.296V407.552H925.7V411.296H919.184ZM926.96 409.928L922.748 409.424L929.804 399.776H934.628L926.96 409.928ZM949.583 419V415.112L949.331 414.284V407.48C949.331 406.16 948.935 405.14 948.143 404.42C947.351 403.676 946.151 403.304 944.543 403.304C943.463 403.304 942.395 403.472 941.339 403.808C940.307 404.144 939.431 404.612 938.711 405.212L936.947 401.936C937.979 401.144 939.203 400.556 940.619 400.172C942.059 399.764 943.547 399.56 945.083 399.56C947.867 399.56 950.015 400.232 951.527 401.576C953.063 402.896 953.831 404.948 953.831 407.732V419H949.583ZM943.535 419.252C942.095 419.252 940.835 419.012 939.755 418.532C938.675 418.028 937.835 417.344 937.235 416.48C936.659 415.592 936.371 414.596 936.371 413.492C936.371 412.412 936.623 411.44 937.127 410.576C937.655 409.712 938.507 409.028 939.683 408.524C940.859 408.02 942.419 407.768 944.363 407.768H949.943V410.756H944.687C943.151 410.756 942.119 411.008 941.591 411.512C941.063 411.992 940.799 412.592 940.799 413.312C940.799 414.128 941.123 414.776 941.771 415.256C942.419 415.736 943.319 415.976 944.471 415.976C945.575 415.976 946.559 415.724 947.423 415.22C948.311 414.716 948.947 413.972 949.331 412.988L950.087 415.688C949.655 416.816 948.875 417.692 947.747 418.316C946.643 418.94 945.239 419.252 943.535 419.252ZM970.055 419.252C968.495 419.252 967.067 418.892 965.771 418.172C964.499 417.452 963.479 416.372 962.711 414.932C961.967 413.468 961.595 411.62 961.595 409.388C961.595 407.132 961.955 405.284 962.675 403.844C963.419 402.404 964.427 401.336 965.699 400.64C966.971 399.92 968.423 399.56 970.055 399.56C971.951 399.56 973.619 399.968 975.059 400.784C976.523 401.6 977.675 402.74 978.515 404.204C979.379 405.668 979.811 407.396 979.811 409.388C979.811 411.38 979.379 413.12 978.515 414.608C977.675 416.072 976.523 417.212 975.059 418.028C973.619 418.844 971.951 419.252 970.055 419.252ZM959.399 425.984V399.776H963.683V404.312L963.539 409.424L963.899 414.536V425.984H959.399ZM969.551 415.4C970.631 415.4 971.591 415.16 972.431 414.68C973.295 414.2 973.979 413.504 974.483 412.592C974.987 411.68 975.239 410.612 975.239 409.388C975.239 408.14 974.987 407.072 974.483 406.184C973.979 405.272 973.295 404.576 972.431 404.096C971.591 403.616 970.631 403.376 969.551 403.376C968.471 403.376 967.499 403.616 966.635 404.096C965.771 404.576 965.087 405.272 964.583 406.184C964.079 407.072 963.827 408.14 963.827 409.388C963.827 410.612 964.079 411.68 964.583 412.592C965.087 413.504 965.771 414.2 966.635 414.68C967.499 415.16 968.471 415.4 969.551 415.4ZM987.583 419V402.512L988.627 403.592H980.815V399.776H998.815V403.592H991.039L992.083 402.512V419H987.583ZM1021.48 419V399.776H1025.98V419H1021.48ZM1011.44 406.112C1013.91 406.112 1015.78 406.664 1017.05 407.768C1018.35 408.872 1019 410.432 1019 412.448C1019 414.536 1018.28 416.168 1016.84 417.344C1015.42 418.496 1013.41 419.06 1010.79 419.036L1002.08 419V399.776H1006.58V406.076L1011.44 406.112ZM1010.39 415.724C1011.71 415.748 1012.72 415.472 1013.42 414.896C1014.11 414.32 1014.46 413.48 1014.46 412.376C1014.46 411.272 1014.11 410.48 1013.42 410C1012.75 409.496 1011.74 409.232 1010.39 409.208L1006.58 409.172V415.688L1010.39 415.724Z" fill="#0A1526"/>
    <g clip-path="url(#clip1_534_491)">
        <path d="M950.13 209.38C950.02 209.38 949.91 209.38 949.81 209.38C946.72 209.27 943.87 207.66 942.21 205.05C931.8 188.72 913.58 173.52 913.4 173.37C909.41 170.06 908.85 164.14 912.16 160.14C915.47 156.15 921.39 155.59 925.38 158.89C926.06 159.45 939.26 170.44 950.62 184.64C962.14 171.64 986.08 147.51 1023.43 123.49C1027.79 120.68 1033.61 121.95 1036.41 126.31C1039.22 130.67 1037.95 136.49 1033.59 139.29C982.89 171.9 957.93 205.23 957.69 205.56C955.92 207.96 953.11 209.37 950.13 209.37V209.38Z" fill="#2FA124"/>
    </g>
    <rect x="1305.66" y="334.192" width="420.23" height="416.44" rx="43.5" transform="rotate(45 1305.66 334.192)" fill="#F2F6FF" stroke="url(#paint6_linear_534_491)" stroke-width="13"/>
    <path d="M1239.26 630.36C1237.29 630.36 1235.48 630.036 1233.83 629.388C1232.17 628.74 1230.73 627.84 1229.51 626.688C1228.28 625.512 1227.33 624.144 1226.66 622.584C1225.99 621 1225.65 619.272 1225.65 617.4C1225.65 615.528 1225.99 613.812 1226.66 612.252C1227.33 610.668 1228.28 609.3 1229.51 608.148C1230.73 606.972 1232.17 606.06 1233.83 605.412C1235.48 604.764 1237.28 604.44 1239.23 604.44C1241.19 604.44 1242.99 604.764 1244.63 605.412C1246.28 606.06 1247.72 606.972 1248.95 608.148C1250.17 609.3 1251.12 610.668 1251.79 612.252C1252.46 613.812 1252.8 615.528 1252.8 617.4C1252.8 619.272 1252.46 621 1251.79 622.584C1251.12 624.168 1250.17 625.536 1248.95 626.688C1247.72 627.84 1246.28 628.74 1244.63 629.388C1242.99 630.036 1241.21 630.36 1239.26 630.36ZM1239.23 626.256C1240.5 626.256 1241.67 626.04 1242.75 625.608C1243.83 625.176 1244.77 624.564 1245.56 623.772C1246.35 622.956 1246.97 622.02 1247.4 620.964C1247.85 619.884 1248.08 618.696 1248.08 617.4C1248.08 616.104 1247.85 614.928 1247.4 613.872C1246.97 612.792 1246.35 611.856 1245.56 611.064C1244.77 610.248 1243.83 609.624 1242.75 609.192C1241.67 608.76 1240.5 608.544 1239.23 608.544C1237.95 608.544 1236.78 608.76 1235.7 609.192C1234.64 609.624 1233.71 610.248 1232.89 611.064C1232.1 611.856 1231.47 612.792 1231.02 613.872C1230.59 614.928 1230.37 616.104 1230.37 617.4C1230.37 618.672 1230.59 619.848 1231.02 620.928C1231.47 622.008 1232.1 622.956 1232.89 623.772C1233.68 624.564 1234.62 625.176 1235.7 625.608C1236.78 626.04 1237.95 626.256 1239.23 626.256ZM1257.47 630V610.776H1261.97V618.588H1271.65V610.776H1276.15V630H1271.65V622.404H1261.97V630H1257.47ZM1279.37 629.964L1279.59 626.184C1279.76 626.208 1279.91 626.232 1280.06 626.256C1280.2 626.28 1280.33 626.292 1280.45 626.292C1281.2 626.292 1281.77 626.064 1282.18 625.608C1282.59 625.152 1282.89 624.54 1283.08 623.772C1283.3 622.98 1283.44 622.104 1283.51 621.144C1283.61 620.16 1283.68 619.176 1283.73 618.192L1284.05 610.776H1299.61V630H1295.11V613.368L1296.15 614.592H1287.01L1287.98 613.332L1287.73 618.408C1287.65 620.112 1287.51 621.696 1287.29 623.16C1287.1 624.6 1286.79 625.86 1286.36 626.94C1285.95 628.02 1285.37 628.86 1284.63 629.46C1283.91 630.06 1282.99 630.36 1281.86 630.36C1281.5 630.36 1281.1 630.324 1280.67 630.252C1280.26 630.18 1279.83 630.084 1279.37 629.964ZM1317.33 630V626.112L1317.08 625.284V618.48C1317.08 617.16 1316.68 616.14 1315.89 615.42C1315.1 614.676 1313.9 614.304 1312.29 614.304C1311.21 614.304 1310.14 614.472 1309.09 614.808C1308.05 615.144 1307.18 615.612 1306.46 616.212L1304.69 612.936C1305.73 612.144 1306.95 611.556 1308.37 611.172C1309.81 610.764 1311.29 610.56 1312.83 610.56C1315.61 610.56 1317.76 611.232 1319.27 612.576C1320.81 613.896 1321.58 615.948 1321.58 618.732V630H1317.33ZM1311.28 630.252C1309.84 630.252 1308.58 630.012 1307.5 629.532C1306.42 629.028 1305.58 628.344 1304.98 627.48C1304.41 626.592 1304.12 625.596 1304.12 624.492C1304.12 623.412 1304.37 622.44 1304.87 621.576C1305.4 620.712 1306.25 620.028 1307.43 619.524C1308.61 619.02 1310.17 618.768 1312.11 618.768H1317.69V621.756H1312.43C1310.9 621.756 1309.87 622.008 1309.34 622.512C1308.81 622.992 1308.55 623.592 1308.55 624.312C1308.55 625.128 1308.87 625.776 1309.52 626.256C1310.17 626.736 1311.07 626.976 1312.22 626.976C1313.32 626.976 1314.31 626.724 1315.17 626.22C1316.06 625.716 1316.69 624.972 1317.08 623.988L1317.83 626.688C1317.4 627.816 1316.62 628.692 1315.49 629.316C1314.39 629.94 1312.99 630.252 1311.28 630.252ZM1327.15 630V610.776H1331.65V623.448L1342.27 610.776H1346.37V630H1341.87V617.328L1331.29 630H1327.15ZM1336.47 608.508C1334.55 608.508 1333.08 608.064 1332.04 607.176C1331.01 606.264 1330.48 604.944 1330.46 603.216H1333.45C1333.47 604.08 1333.74 604.764 1334.24 605.268C1334.77 605.772 1335.5 606.024 1336.44 606.024C1337.35 606.024 1338.07 605.772 1338.6 605.268C1339.15 604.764 1339.44 604.08 1339.46 603.216H1342.52C1342.5 604.944 1341.96 606.264 1340.9 607.176C1339.87 608.064 1338.39 608.508 1336.47 608.508ZM1352.42 630V610.776H1356.92V618.588H1366.61V610.776H1371.11V630H1366.61V622.404H1356.92V630H1352.42ZM1376.1 621.864V618.12H1386V621.864H1376.1ZM1153.95 674V654.776H1172.38V674H1167.92V657.548L1168.96 658.592H1157.41L1158.45 657.548V674H1153.95ZM1187.02 674.252C1185.05 674.252 1183.3 673.832 1181.77 672.992C1180.23 672.128 1179.02 670.952 1178.13 669.464C1177.24 667.976 1176.8 666.284 1176.8 664.388C1176.8 662.468 1177.24 660.776 1178.13 659.312C1179.02 657.824 1180.23 656.66 1181.77 655.82C1183.3 654.98 1185.05 654.56 1187.02 654.56C1189.01 654.56 1190.78 654.98 1192.31 655.82C1193.87 656.66 1195.09 657.812 1195.95 659.276C1196.84 660.74 1197.28 662.444 1197.28 664.388C1197.28 666.284 1196.84 667.976 1195.95 669.464C1195.09 670.952 1193.87 672.128 1192.31 672.992C1190.78 673.832 1189.01 674.252 1187.02 674.252ZM1187.02 670.4C1188.13 670.4 1189.11 670.16 1189.97 669.68C1190.84 669.2 1191.51 668.504 1191.99 667.592C1192.49 666.68 1192.75 665.612 1192.75 664.388C1192.75 663.14 1192.49 662.072 1191.99 661.184C1191.51 660.272 1190.84 659.576 1189.97 659.096C1189.11 658.616 1188.14 658.376 1187.06 658.376C1185.95 658.376 1184.97 658.616 1184.11 659.096C1183.27 659.576 1182.59 660.272 1182.09 661.184C1181.59 662.072 1181.33 663.14 1181.33 664.388C1181.33 665.612 1181.59 666.68 1182.09 667.592C1182.59 668.504 1183.27 669.2 1184.11 669.68C1184.97 670.16 1185.94 670.4 1187.02 670.4ZM1214.69 671.912V658.592H1207.31L1207.2 661.688C1207.16 662.792 1207.08 663.86 1206.99 664.892C1206.89 665.9 1206.74 666.836 1206.52 667.7C1206.3 668.54 1205.99 669.236 1205.58 669.788C1205.18 670.34 1204.64 670.7 1203.96 670.868L1199.5 670.184C1200.22 670.184 1200.8 669.956 1201.23 669.5C1201.68 669.02 1202.03 668.372 1202.27 667.556C1202.54 666.716 1202.73 665.768 1202.85 664.712C1202.97 663.632 1203.05 662.516 1203.1 661.364L1203.35 654.776H1219.19V671.912H1214.69ZM1198.82 678.284V670.184H1222.04V678.284H1217.82V674H1202.99V678.284H1198.82ZM1239.23 671.912V658.592H1231.85L1231.74 661.688C1231.7 662.792 1231.62 663.86 1231.53 664.892C1231.43 665.9 1231.28 666.836 1231.06 667.7C1230.84 668.54 1230.53 669.236 1230.12 669.788C1229.72 670.34 1229.18 670.7 1228.5 670.868L1224.04 670.184C1224.76 670.184 1225.34 669.956 1225.77 669.5C1226.22 669.02 1226.57 668.372 1226.81 667.556C1227.08 666.716 1227.27 665.768 1227.39 664.712C1227.51 663.632 1227.59 662.516 1227.64 661.364L1227.89 654.776H1243.73V671.912H1239.23ZM1223.36 678.284V670.184H1246.58V678.284H1242.36V674H1227.53V678.284H1223.36ZM1259.56 674.252C1257.42 674.252 1255.55 673.832 1253.94 672.992C1252.36 672.128 1251.12 670.952 1250.23 669.464C1249.37 667.976 1248.94 666.284 1248.94 664.388C1248.94 662.468 1249.36 660.776 1250.2 659.312C1251.06 657.824 1252.24 656.66 1253.73 655.82C1255.24 654.98 1256.95 654.56 1258.87 654.56C1260.75 654.56 1262.41 654.968 1263.88 655.784C1265.34 656.6 1266.49 657.752 1267.33 659.24C1268.17 660.728 1268.59 662.48 1268.59 664.496C1268.59 664.688 1268.58 664.904 1268.56 665.144C1268.56 665.384 1268.55 665.612 1268.52 665.828H1252.5V662.84H1266.15L1264.38 663.776C1264.41 662.672 1264.18 661.7 1263.7 660.86C1263.22 660.02 1262.56 659.36 1261.72 658.88C1260.9 658.4 1259.95 658.16 1258.87 658.16C1257.77 658.16 1256.8 658.4 1255.96 658.88C1255.14 659.36 1254.49 660.032 1254.01 660.896C1253.56 661.736 1253.33 662.732 1253.33 663.884V664.604C1253.33 665.756 1253.59 666.776 1254.12 667.664C1254.65 668.552 1255.39 669.236 1256.35 669.716C1257.31 670.196 1258.42 670.436 1259.67 670.436C1260.75 670.436 1261.72 670.268 1262.58 669.932C1263.45 669.596 1264.21 669.068 1264.89 668.348L1267.3 671.12C1266.43 672.128 1265.34 672.908 1264.02 673.46C1262.73 673.988 1261.24 674.252 1259.56 674.252ZM1284.17 674.252C1282.61 674.252 1281.18 673.892 1279.89 673.172C1278.62 672.452 1277.6 671.372 1276.83 669.932C1276.08 668.468 1275.71 666.62 1275.71 664.388C1275.71 662.132 1276.07 660.284 1276.79 658.844C1277.54 657.404 1278.54 656.336 1279.82 655.64C1281.09 654.92 1282.54 654.56 1284.17 654.56C1286.07 654.56 1287.74 654.968 1289.18 655.784C1290.64 656.6 1291.79 657.74 1292.63 659.204C1293.5 660.668 1293.93 662.396 1293.93 664.388C1293.93 666.38 1293.5 668.12 1292.63 669.608C1291.79 671.072 1290.64 672.212 1289.18 673.028C1287.74 673.844 1286.07 674.252 1284.17 674.252ZM1273.52 680.984V654.776H1277.8V659.312L1277.66 664.424L1278.02 669.536V680.984H1273.52ZM1283.67 670.4C1284.75 670.4 1285.71 670.16 1286.55 669.68C1287.41 669.2 1288.1 668.504 1288.6 667.592C1289.1 666.68 1289.36 665.612 1289.36 664.388C1289.36 663.14 1289.1 662.072 1288.6 661.184C1288.1 660.272 1287.41 659.576 1286.55 659.096C1285.71 658.616 1284.75 658.376 1283.67 658.376C1282.59 658.376 1281.62 658.616 1280.75 659.096C1279.89 659.576 1279.2 660.272 1278.7 661.184C1278.2 662.072 1277.94 663.14 1277.94 664.388C1277.94 665.612 1278.2 666.68 1278.7 667.592C1279.2 668.504 1279.89 669.2 1280.75 669.68C1281.62 670.16 1282.59 670.4 1283.67 670.4ZM1320.71 674L1315.09 664.784L1318.76 662.516L1326.07 674H1320.71ZM1311.45 666.296V662.552H1317.9V666.296H1311.45ZM1319.19 664.928L1314.95 664.424L1320.78 654.776H1325.57L1319.19 664.928ZM1300.4 674H1295.07L1302.35 662.516L1306.02 664.784L1300.4 674ZM1312.79 674H1308.32V654.776H1312.79V674ZM1309.65 666.296H1303.25V662.552H1309.65V666.296ZM1301.91 664.928L1295.54 654.776H1300.33L1306.13 664.424L1301.91 664.928ZM1343.2 674L1336.25 664.784L1339.93 662.516L1348.49 674H1343.2ZM1329.41 674V654.776H1333.91V674H1329.41ZM1332.58 666.296V662.552H1339.1V666.296H1332.58ZM1340.36 664.928L1336.15 664.424L1343.2 654.776H1348.03L1340.36 664.928ZM1362.98 674V670.112L1362.73 669.284V662.48C1362.73 661.16 1362.33 660.14 1361.54 659.42C1360.75 658.676 1359.55 658.304 1357.94 658.304C1356.86 658.304 1355.79 658.472 1354.74 658.808C1353.7 659.144 1352.83 659.612 1352.11 660.212L1350.34 656.936C1351.38 656.144 1352.6 655.556 1354.02 655.172C1355.46 654.764 1356.94 654.56 1358.48 654.56C1361.26 654.56 1363.41 655.232 1364.92 656.576C1366.46 657.896 1367.23 659.948 1367.23 662.732V674H1362.98ZM1356.93 674.252C1355.49 674.252 1354.23 674.012 1353.15 673.532C1352.07 673.028 1351.23 672.344 1350.63 671.48C1350.06 670.592 1349.77 669.596 1349.77 668.492C1349.77 667.412 1350.02 666.44 1350.52 665.576C1351.05 664.712 1351.9 664.028 1353.08 663.524C1354.26 663.02 1355.82 662.768 1357.76 662.768H1363.34V665.756H1358.08C1356.55 665.756 1355.52 666.008 1354.99 666.512C1354.46 666.992 1354.2 667.592 1354.2 668.312C1354.2 669.128 1354.52 669.776 1355.17 670.256C1355.82 670.736 1356.72 670.976 1357.87 670.976C1358.97 670.976 1359.96 670.724 1360.82 670.22C1361.71 669.716 1362.34 668.972 1362.73 667.988L1363.48 670.688C1363.05 671.816 1362.27 672.692 1361.14 673.316C1360.04 673.94 1358.64 674.252 1356.93 674.252ZM1380.98 674V670.868L1390.99 661.364C1391.83 660.572 1392.45 659.876 1392.86 659.276C1393.27 658.676 1393.53 658.124 1393.65 657.62C1393.8 657.092 1393.87 656.6 1393.87 656.144C1393.87 654.992 1393.47 654.104 1392.68 653.48C1391.89 652.832 1390.73 652.508 1389.19 652.508C1387.97 652.508 1386.85 652.724 1385.84 653.156C1384.86 653.588 1384.01 654.248 1383.29 655.136L1380.01 652.616C1380.99 651.296 1382.31 650.276 1383.97 649.556C1385.65 648.812 1387.52 648.44 1389.59 648.44C1391.41 648.44 1392.99 648.74 1394.34 649.34C1395.71 649.916 1396.75 650.744 1397.47 651.824C1398.21 652.904 1398.59 654.188 1398.59 655.676C1398.59 656.492 1398.48 657.308 1398.26 658.124C1398.05 658.916 1397.64 659.756 1397.04 660.644C1396.44 661.532 1395.56 662.528 1394.41 663.632L1385.81 671.804L1384.83 670.04H1399.56V674H1380.98ZM1401.37 668.276V665.036L1413.79 648.8H1418.8L1406.56 665.036L1404.22 664.316H1424.2V668.276H1401.37ZM1415.2 674V668.276L1415.34 664.316V659.24H1419.73V674H1415.2ZM1424.42 677.6L1436.3 643.688H1440.33L1428.45 677.6H1424.42ZM1444.97 674L1455.37 650.672L1456.6 652.76H1442.3L1444.54 650.492V657.044H1440.18V648.8H1459.76V651.932L1449.97 674H1444.97Z" fill="#0A1526"/>
    <g clip-path="url(#clip2_534_491)">
        <path d="M1286.13 553.38C1286.02 553.38 1285.91 553.38 1285.81 553.38C1282.72 553.27 1279.87 551.66 1278.21 549.05C1267.8 532.72 1249.58 517.52 1249.4 517.37C1245.41 514.06 1244.85 508.14 1248.16 504.14C1251.47 500.15 1257.39 499.59 1261.38 502.89C1262.06 503.45 1275.26 514.44 1286.62 528.64C1298.14 515.64 1322.08 491.51 1359.43 467.49C1363.79 464.68 1369.61 465.95 1372.41 470.31C1375.22 474.67 1373.95 480.49 1369.59 483.29C1318.89 515.9 1293.93 549.23 1293.69 549.56C1291.92 551.96 1289.11 553.37 1286.13 553.37V553.38Z" fill="#2FA124"/>
    </g>
    <rect x="639.66" y="334.192" width="420.23" height="416.44" rx="43.5" transform="rotate(45 639.66 334.192)" fill="#F2F6FF" stroke="url(#paint7_linear_534_491)" stroke-width="13"/>
    <path d="M552.852 630V604.8H563.22C565.452 604.8 567.36 605.16 568.944 605.88C570.552 606.6 571.788 607.632 572.652 608.976C573.516 610.32 573.948 611.916 573.948 613.764C573.948 615.612 573.516 617.208 572.652 618.552C571.788 619.896 570.552 620.928 568.944 621.648C567.36 622.368 565.452 622.728 563.22 622.728H555.444L557.532 620.532V630H552.852ZM557.532 621.036L555.444 618.768H563.004C565.068 618.768 566.616 618.336 567.648 617.472C568.704 616.584 569.232 615.348 569.232 613.764C569.232 612.156 568.704 610.92 567.648 610.056C566.616 609.192 565.068 608.76 563.004 608.76H555.444L557.532 606.456V621.036ZM589.36 630V626.112L589.108 625.284V618.48C589.108 617.16 588.712 616.14 587.92 615.42C587.128 614.676 585.928 614.304 584.32 614.304C583.24 614.304 582.172 614.472 581.116 614.808C580.084 615.144 579.208 615.612 578.488 616.212L576.724 612.936C577.756 612.144 578.98 611.556 580.396 611.172C581.836 610.764 583.324 610.56 584.86 610.56C587.644 610.56 589.792 611.232 591.304 612.576C592.84 613.896 593.608 615.948 593.608 618.732V630H589.36ZM583.312 630.252C581.872 630.252 580.612 630.012 579.532 629.532C578.452 629.028 577.612 628.344 577.012 627.48C576.436 626.592 576.148 625.596 576.148 624.492C576.148 623.412 576.4 622.44 576.904 621.576C577.432 620.712 578.284 620.028 579.46 619.524C580.636 619.02 582.196 618.768 584.14 618.768H589.72V621.756H584.464C582.928 621.756 581.896 622.008 581.368 622.512C580.84 622.992 580.576 623.592 580.576 624.312C580.576 625.128 580.9 625.776 581.548 626.256C582.196 626.736 583.096 626.976 584.248 626.976C585.352 626.976 586.336 626.724 587.2 626.22C588.088 625.716 588.724 624.972 589.108 623.988L589.864 626.688C589.432 627.816 588.652 628.692 587.524 629.316C586.42 629.94 585.016 630.252 583.312 630.252ZM607.924 630.252C605.908 630.252 604.108 629.832 602.524 628.992C600.964 628.128 599.74 626.952 598.852 625.464C597.964 623.976 597.52 622.284 597.52 620.388C597.52 618.468 597.964 616.776 598.852 615.312C599.74 613.824 600.964 612.66 602.524 611.82C604.108 610.98 605.908 610.56 607.924 610.56C609.796 610.56 611.44 610.944 612.856 611.712C614.296 612.456 615.388 613.56 616.132 615.024L612.676 617.04C612.1 616.128 611.392 615.456 610.552 615.024C609.736 614.592 608.848 614.376 607.888 614.376C606.784 614.376 605.788 614.616 604.9 615.096C604.012 615.576 603.316 616.272 602.812 617.184C602.308 618.072 602.056 619.14 602.056 620.388C602.056 621.636 602.308 622.716 602.812 623.628C603.316 624.516 604.012 625.2 604.9 625.68C605.788 626.16 606.784 626.4 607.888 626.4C608.848 626.4 609.736 626.184 610.552 625.752C611.392 625.32 612.1 624.648 612.676 623.736L616.132 625.752C615.388 627.192 614.296 628.308 612.856 629.1C611.44 629.868 609.796 630.252 607.924 630.252ZM628.561 630.252C626.545 630.252 624.745 629.832 623.161 628.992C621.601 628.128 620.377 626.952 619.489 625.464C618.601 623.976 618.157 622.284 618.157 620.388C618.157 618.468 618.601 616.776 619.489 615.312C620.377 613.824 621.601 612.66 623.161 611.82C624.745 610.98 626.545 610.56 628.561 610.56C630.433 610.56 632.077 610.944 633.493 611.712C634.933 612.456 636.025 613.56 636.769 615.024L633.313 617.04C632.737 616.128 632.029 615.456 631.189 615.024C630.373 614.592 629.485 614.376 628.525 614.376C627.421 614.376 626.425 614.616 625.537 615.096C624.649 615.576 623.953 616.272 623.449 617.184C622.945 618.072 622.693 619.14 622.693 620.388C622.693 621.636 622.945 622.716 623.449 623.628C623.953 624.516 624.649 625.2 625.537 625.68C626.425 626.16 627.421 626.4 628.525 626.4C629.485 626.4 630.373 626.184 631.189 625.752C632.029 625.32 632.737 624.648 633.313 623.736L636.769 625.752C636.025 627.192 634.933 628.308 633.493 629.1C632.077 629.868 630.433 630.252 628.561 630.252ZM660.135 630V610.776H664.635V630H660.135ZM650.091 617.112C652.563 617.112 654.435 617.664 655.707 618.768C657.003 619.872 657.651 621.432 657.651 623.448C657.651 625.536 656.931 627.168 655.491 628.344C654.075 629.496 652.059 630.06 649.443 630.036L640.731 630V610.776H645.231V617.076L650.091 617.112ZM649.047 626.724C650.367 626.748 651.375 626.472 652.071 625.896C652.767 625.32 653.115 624.48 653.115 623.376C653.115 622.272 652.767 621.48 652.071 621C651.399 620.496 650.391 620.232 649.047 620.208L645.231 620.172V626.688L649.047 626.724ZM667.876 629.964L668.092 626.184C668.26 626.208 668.416 626.232 668.56 626.256C668.704 626.28 668.836 626.292 668.956 626.292C669.7 626.292 670.276 626.064 670.684 625.608C671.092 625.152 671.392 624.54 671.584 623.772C671.8 622.98 671.944 622.104 672.016 621.144C672.112 620.16 672.184 619.176 672.232 618.192L672.556 610.776H688.108V630H683.608V613.368L684.652 614.592H675.508L676.48 613.332L676.228 618.408C676.156 620.112 676.012 621.696 675.796 623.16C675.604 624.6 675.292 625.86 674.86 626.94C674.452 628.02 673.876 628.86 673.132 629.46C672.412 630.06 671.488 630.36 670.36 630.36C670 630.36 669.604 630.324 669.172 630.252C668.764 630.18 668.332 630.084 667.876 629.964ZM707.957 630L701.009 620.784L704.681 618.516L713.249 630H707.957ZM694.169 630V610.776H698.669V630H694.169ZM697.337 622.296V618.552H703.853V622.296H697.337ZM705.113 620.928L700.901 620.424L707.957 610.776H712.781L705.113 620.928ZM716.422 630V610.776H720.922V623.448L731.542 610.776H735.646V630H731.146V617.328L720.562 630H716.422ZM566.998 674L560.05 664.784L563.722 662.516L572.29 674H566.998ZM553.21 674V654.776H557.71V674H553.21ZM556.378 666.296V662.552H562.894V666.296H556.378ZM564.154 664.928L559.942 664.424L566.998 654.776H571.822L564.154 664.928ZM572.655 673.964L572.871 670.184C573.039 670.208 573.195 670.232 573.339 670.256C573.483 670.28 573.615 670.292 573.735 670.292C574.479 670.292 575.055 670.064 575.463 669.608C575.871 669.152 576.171 668.54 576.363 667.772C576.579 666.98 576.723 666.104 576.795 665.144C576.891 664.16 576.963 663.176 577.011 662.192L577.335 654.776H592.887V674H588.387V657.368L589.431 658.592H580.287L581.259 657.332L581.007 662.408C580.935 664.112 580.791 665.696 580.575 667.16C580.383 668.6 580.071 669.86 579.639 670.94C579.231 672.02 578.655 672.86 577.911 673.46C577.191 674.06 576.267 674.36 575.139 674.36C574.779 674.36 574.383 674.324 573.951 674.252C573.543 674.18 573.111 674.084 572.655 673.964ZM598.948 674V654.776H603.448V667.448L614.068 654.776H618.172V674H613.672V661.328L603.088 674H598.948ZM633.189 674.252C631.053 674.252 629.181 673.832 627.573 672.992C625.989 672.128 624.753 670.952 623.865 669.464C623.001 667.976 622.569 666.284 622.569 664.388C622.569 662.468 622.989 660.776 623.829 659.312C624.693 657.824 625.869 656.66 627.357 655.82C628.869 654.98 630.585 654.56 632.505 654.56C634.377 654.56 636.045 654.968 637.509 655.784C638.973 656.6 640.125 657.752 640.965 659.24C641.805 660.728 642.225 662.48 642.225 664.496C642.225 664.688 642.213 664.904 642.189 665.144C642.189 665.384 642.177 665.612 642.153 665.828H626.133V662.84H639.777L638.013 663.776C638.037 662.672 637.809 661.7 637.329 660.86C636.849 660.02 636.189 659.36 635.349 658.88C634.533 658.4 633.585 658.16 632.505 658.16C631.401 658.16 630.429 658.4 629.589 658.88C628.773 659.36 628.125 660.032 627.645 660.896C627.189 661.736 626.961 662.732 626.961 663.884V664.604C626.961 665.756 627.225 666.776 627.753 667.664C628.281 668.552 629.025 669.236 629.985 669.716C630.945 670.196 632.049 670.436 633.297 670.436C634.377 670.436 635.349 670.268 636.213 669.932C637.077 669.596 637.845 669.068 638.517 668.348L640.929 671.12C640.065 672.128 638.973 672.908 637.653 673.46C636.357 673.988 634.869 674.252 633.189 674.252ZM647.147 674V654.776H651.647V662.588H661.331V654.776H665.831V674H661.331V666.404H651.647V674H647.147ZM675.858 674V657.512L676.902 658.592H669.09V654.776H687.09V658.592H679.314L680.358 657.512V674H675.858ZM702.018 674V670.112L701.766 669.284V662.48C701.766 661.16 701.37 660.14 700.578 659.42C699.786 658.676 698.586 658.304 696.978 658.304C695.898 658.304 694.83 658.472 693.774 658.808C692.742 659.144 691.866 659.612 691.146 660.212L689.382 656.936C690.414 656.144 691.638 655.556 693.054 655.172C694.494 654.764 695.982 654.56 697.518 654.56C700.302 654.56 702.45 655.232 703.962 656.576C705.498 657.896 706.266 659.948 706.266 662.732V674H702.018ZM695.97 674.252C694.53 674.252 693.27 674.012 692.19 673.532C691.11 673.028 690.27 672.344 689.67 671.48C689.094 670.592 688.806 669.596 688.806 668.492C688.806 667.412 689.058 666.44 689.562 665.576C690.09 664.712 690.942 664.028 692.118 663.524C693.294 663.02 694.854 662.768 696.798 662.768H702.378V665.756H697.122C695.586 665.756 694.554 666.008 694.026 666.512C693.498 666.992 693.234 667.592 693.234 668.312C693.234 669.128 693.558 669.776 694.206 670.256C694.854 670.736 695.754 670.976 696.906 670.976C698.01 670.976 698.994 670.724 699.858 670.22C700.746 669.716 701.382 668.972 701.766 667.988L702.522 670.688C702.09 671.816 701.31 672.692 700.182 673.316C699.078 673.94 697.674 674.252 695.97 674.252ZM711.835 674V654.776H716.551L724.291 668.42H722.419L730.555 654.776H734.767L734.803 674H730.735V659.6L731.455 660.068L724.255 671.984H722.311L715.075 659.744L715.939 659.528V674H711.835Z" fill="#0A1526"/>
    <g clip-path="url(#clip3_534_491)">
        <path d="M624.13 553.38C624.02 553.38 623.91 553.38 623.81 553.38C620.72 553.27 617.87 551.66 616.21 549.05C605.8 532.72 587.58 517.52 587.4 517.37C583.41 514.06 582.85 508.14 586.16 504.14C589.47 500.15 595.39 499.59 599.38 502.89C600.06 503.45 613.26 514.44 624.62 528.64C636.14 515.64 660.08 491.51 697.43 467.49C701.79 464.68 707.61 465.95 710.41 470.31C713.22 474.67 711.95 480.49 707.59 483.29C656.89 515.9 631.93 549.23 631.69 549.56C629.92 551.96 627.11 553.37 624.13 553.37V553.38Z" fill="#2FA124"/>
    </g>
    <defs>
        <linearGradient id="paint0_linear_534_491" x1="315.924" y1="610" x2="315.924" y2="708.161" gradientUnits="userSpaceOnUse">
            <stop stop-color="#168ECD"/>
            <stop offset="1" stop-color="#8705AB"/>
        </linearGradient>
        <linearGradient id="paint1_linear_534_491" x1="1396.92" y1="192" x2="1396.92" y2="290.161" gradientUnits="userSpaceOnUse">
            <stop stop-color="#168ECD"/>
            <stop offset="1" stop-color="#8705AB"/>
        </linearGradient>
        <linearGradient id="paint2_linear_534_491" x1="1021.92" y1="669" x2="1021.92" y2="767.161" gradientUnits="userSpaceOnUse">
            <stop stop-color="#168ECD"/>
            <stop offset="1" stop-color="#8705AB"/>
        </linearGradient>
        <linearGradient id="paint3_linear_534_491" x1="689.924" y1="133" x2="689.924" y2="231.161" gradientUnits="userSpaceOnUse">
            <stop stop-color="#168ECD"/>
            <stop offset="1" stop-color="#8705AB"/>
        </linearGradient>
        <linearGradient id="paint4_linear_534_491" x1="520.275" y1="0" x2="520.275" y2="429.44" gradientUnits="userSpaceOnUse">
            <stop stop-color="#168ECD"/>
            <stop offset="1" stop-color="#8705AB"/>
        </linearGradient>
        <linearGradient id="paint5_linear_534_491" x1="1188.27" y1="0" x2="1188.27" y2="429.44" gradientUnits="userSpaceOnUse">
            <stop stop-color="#168ECD"/>
            <stop offset="1" stop-color="#8705AB"/>
        </linearGradient>
        <linearGradient id="paint6_linear_534_491" x1="1522.27" y1="325" x2="1522.27" y2="754.44" gradientUnits="userSpaceOnUse">
            <stop stop-color="#168ECD"/>
            <stop offset="1" stop-color="#8705AB"/>
        </linearGradient>
        <linearGradient id="paint7_linear_534_491" x1="856.275" y1="325" x2="856.275" y2="754.44" gradientUnits="userSpaceOnUse">
            <stop stop-color="#168ECD"/>
            <stop offset="1" stop-color="#8705AB"/>
        </linearGradient>
        <clipPath id="clip0_534_491">
            <rect width="127.91" height="87.38" fill="white" transform="translate(241 116)"/>
        </clipPath>
        <clipPath id="clip1_534_491">
            <rect width="127.91" height="87.38" fill="white" transform="translate(910 122)"/>
        </clipPath>
        <clipPath id="clip2_534_491">
            <rect width="127.91" height="87.38" fill="white" transform="translate(1246 466)"/>
        </clipPath>
        <clipPath id="clip3_534_491">
            <rect width="127.91" height="87.38" fill="white" transform="translate(584 466)"/>
        </clipPath>
    </defs>
</svg>
