<svg width="567" height="544" viewBox="0 0 567 544" fill="none" xmlns="http://www.w3.org/2000/svg">
    <g clip-path="url(#clip0_534_457)">
        <path d="M293.071 133.585C330.114 167.49 362.584 208.755 389.569 256.224C398.33 271.634 406.356 287.428 413.639 303.56C425.943 330.814 436.107 359.038 444.057 387.994L473.476 361.725L461.71 491.502L393.314 381.229L430.389 390.89C418.237 346.963 400.752 304.785 378.273 265.241C352.293 219.541 321.05 179.832 285.409 147.205C249.768 114.578 210.266 89.5412 167.996 72.7547C125.718 55.973 82.9676 48.3734 40.9083 50.1582C37.0452 50.3221 33.4895 46.5552 32.9704 41.7524C32.4512 36.9496 35.1669 32.9199 39.03 32.756C82.7493 30.904 127.166 38.7939 171.076 56.2214C214.985 73.6489 256.028 99.6799 293.071 133.585Z" fill="url(#paint0_linear_534_457)"/>
    </g>
    <defs>
        <linearGradient id="paint0_linear_534_457" x1="156.869" y1="317.536" x2="403.303" y2="206.285" gradientUnits="userSpaceOnUse">
            <stop offset="0.465" stop-color="#7F0EAC"/>
            <stop offset="1" stop-color="#2080C9"/>
        </linearGradient>
        <clipPath id="clip0_534_457">
            <rect width="567" height="544" fill="white"/>
        </clipPath>
    </defs>
</svg>
