<svg width="1528" height="610" viewBox="0 0 1528 610" fill="none" xmlns="http://www.w3.org/2000/svg">
    <rect x="303.66" y="9.19239" width="420.23" height="416.44" rx="43.5" transform="rotate(45 303.66 9.19239)" fill="#F2F6FF" stroke="url(#paint0_linear_538_570)" stroke-width="13"/>
    <path d="M188.99 342.36C187.022 342.36 185.21 342.036 183.554 341.388C181.898 340.74 180.458 339.84 179.234 338.688C178.01 337.512 177.062 336.144 176.39 334.584C175.718 333 175.382 331.272 175.382 329.4C175.382 327.528 175.718 325.812 176.39 324.252C177.062 322.668 178.01 321.3 179.234 320.148C180.458 318.972 181.898 318.06 183.554 317.412C185.21 316.764 187.01 316.44 188.954 316.44C190.922 316.44 192.722 316.764 194.354 317.412C196.01 318.06 197.45 318.972 198.674 320.148C199.898 321.3 200.846 322.668 201.518 324.252C202.19 325.812 202.526 327.528 202.526 329.4C202.526 331.272 202.19 333 201.518 334.584C200.846 336.168 199.898 337.536 198.674 338.688C197.45 339.84 196.01 340.74 194.354 341.388C192.722 342.036 190.934 342.36 188.99 342.36ZM188.954 338.256C190.226 338.256 191.402 338.04 192.482 337.608C193.562 337.176 194.498 336.564 195.29 335.772C196.082 334.956 196.694 334.02 197.126 332.964C197.582 331.884 197.81 330.696 197.81 329.4C197.81 328.104 197.582 326.928 197.126 325.872C196.694 324.792 196.082 323.856 195.29 323.064C194.498 322.248 193.562 321.624 192.482 321.192C191.402 320.76 190.226 320.544 188.954 320.544C187.682 320.544 186.506 320.76 185.426 321.192C184.37 321.624 183.434 322.248 182.618 323.064C181.826 323.856 181.202 324.792 180.746 325.872C180.314 326.928 180.098 328.104 180.098 329.4C180.098 330.672 180.314 331.848 180.746 332.928C181.202 334.008 181.826 334.956 182.618 335.772C183.41 336.564 184.346 337.176 185.426 337.608C186.506 338.04 187.682 338.256 188.954 338.256ZM207.196 342V322.776H225.628V342H221.164V325.548L222.208 326.592H210.652L211.696 325.548V342H207.196ZM228.892 341.964L229.108 338.184C229.276 338.208 229.432 338.232 229.576 338.256C229.72 338.28 229.852 338.292 229.972 338.292C230.716 338.292 231.292 338.064 231.7 337.608C232.108 337.152 232.408 336.54 232.6 335.772C232.816 334.98 232.96 334.104 233.032 333.144C233.128 332.16 233.2 331.176 233.248 330.192L233.572 322.776H249.124V342H244.624V325.368L245.668 326.592H236.524L237.496 325.332L237.244 330.408C237.172 332.112 237.028 333.696 236.812 335.16C236.62 336.6 236.308 337.86 235.876 338.94C235.468 340.02 234.892 340.86 234.148 341.46C233.428 342.06 232.504 342.36 231.376 342.36C231.016 342.36 230.62 342.324 230.188 342.252C229.78 342.18 229.348 342.084 228.892 341.964ZM266.848 342V338.112L266.596 337.284V330.48C266.596 329.16 266.2 328.14 265.408 327.42C264.616 326.676 263.416 326.304 261.808 326.304C260.728 326.304 259.66 326.472 258.604 326.808C257.572 327.144 256.696 327.612 255.976 328.212L254.212 324.936C255.244 324.144 256.468 323.556 257.884 323.172C259.324 322.764 260.812 322.56 262.348 322.56C265.132 322.56 267.28 323.232 268.792 324.576C270.328 325.896 271.096 327.948 271.096 330.732V342H266.848ZM260.8 342.252C259.36 342.252 258.1 342.012 257.02 341.532C255.94 341.028 255.1 340.344 254.5 339.48C253.924 338.592 253.636 337.596 253.636 336.492C253.636 335.412 253.888 334.44 254.392 333.576C254.92 332.712 255.772 332.028 256.948 331.524C258.124 331.02 259.684 330.768 261.628 330.768H267.208V333.756H261.952C260.416 333.756 259.384 334.008 258.856 334.512C258.328 334.992 258.064 335.592 258.064 336.312C258.064 337.128 258.388 337.776 259.036 338.256C259.684 338.736 260.584 338.976 261.736 338.976C262.84 338.976 263.824 338.724 264.688 338.22C265.576 337.716 266.212 336.972 266.596 335.988L267.352 338.688C266.92 339.816 266.14 340.692 265.012 341.316C263.908 341.94 262.504 342.252 260.8 342.252ZM280.661 342V325.512L281.705 326.592H273.893V322.776H291.893V326.592H284.117L285.161 325.512V342H280.661ZM306.821 342V338.112L306.569 337.284V330.48C306.569 329.16 306.173 328.14 305.381 327.42C304.589 326.676 303.389 326.304 301.781 326.304C300.701 326.304 299.633 326.472 298.577 326.808C297.545 327.144 296.669 327.612 295.949 328.212L294.185 324.936C295.217 324.144 296.441 323.556 297.857 323.172C299.297 322.764 300.785 322.56 302.321 322.56C305.105 322.56 307.253 323.232 308.765 324.576C310.301 325.896 311.069 327.948 311.069 330.732V342H306.821ZM300.773 342.252C299.333 342.252 298.073 342.012 296.993 341.532C295.913 341.028 295.073 340.344 294.473 339.48C293.897 338.592 293.609 337.596 293.609 336.492C293.609 335.412 293.861 334.44 294.365 333.576C294.893 332.712 295.745 332.028 296.921 331.524C298.097 331.02 299.657 330.768 301.601 330.768H307.181V333.756H301.925C300.389 333.756 299.357 334.008 298.829 334.512C298.301 334.992 298.037 335.592 298.037 336.312C298.037 337.128 298.361 337.776 299.009 338.256C299.657 338.736 300.557 338.976 301.709 338.976C302.813 338.976 303.797 338.724 304.661 338.22C305.549 337.716 306.185 336.972 306.569 335.988L307.325 338.688C306.893 339.816 306.113 340.692 304.985 341.316C303.881 341.94 302.477 342.252 300.773 342.252ZM338.719 334.404C337.807 334.836 336.835 335.196 335.803 335.484C334.795 335.748 333.727 335.88 332.599 335.88C330.175 335.88 328.291 335.316 326.947 334.188C325.603 333.06 324.931 331.308 324.931 328.932V322.776H329.431V328.644C329.431 329.916 329.791 330.84 330.511 331.416C331.255 331.992 332.275 332.28 333.571 332.28C334.435 332.28 335.299 332.172 336.163 331.956C337.027 331.74 337.879 331.44 338.719 331.056V334.404ZM338.395 342V322.776H342.895V342H338.395ZM357.91 342.252C355.774 342.252 353.902 341.832 352.294 340.992C350.71 340.128 349.474 338.952 348.586 337.464C347.722 335.976 347.29 334.284 347.29 332.388C347.29 330.468 347.71 328.776 348.55 327.312C349.414 325.824 350.59 324.66 352.078 323.82C353.59 322.98 355.306 322.56 357.226 322.56C359.098 322.56 360.766 322.968 362.23 323.784C363.694 324.6 364.846 325.752 365.686 327.24C366.526 328.728 366.946 330.48 366.946 332.496C366.946 332.688 366.934 332.904 366.91 333.144C366.91 333.384 366.898 333.612 366.874 333.828H350.854V330.84H364.498L362.734 331.776C362.758 330.672 362.53 329.7 362.05 328.86C361.57 328.02 360.91 327.36 360.07 326.88C359.254 326.4 358.306 326.16 357.226 326.16C356.122 326.16 355.15 326.4 354.31 326.88C353.494 327.36 352.846 328.032 352.366 328.896C351.91 329.736 351.682 330.732 351.682 331.884V332.604C351.682 333.756 351.946 334.776 352.474 335.664C353.002 336.552 353.746 337.236 354.706 337.716C355.666 338.196 356.77 338.436 358.018 338.436C359.098 338.436 360.07 338.268 360.934 337.932C361.798 337.596 362.566 337.068 363.238 336.348L365.65 339.12C364.786 340.128 363.694 340.908 362.374 341.46C361.078 341.988 359.59 342.252 357.91 342.252ZM382.524 342.252C380.964 342.252 379.536 341.892 378.24 341.172C376.968 340.452 375.948 339.372 375.18 337.932C374.436 336.468 374.064 334.62 374.064 332.388C374.064 330.132 374.424 328.284 375.144 326.844C375.888 325.404 376.896 324.336 378.168 323.64C379.44 322.92 380.892 322.56 382.524 322.56C384.42 322.56 386.088 322.968 387.528 323.784C388.992 324.6 390.144 325.74 390.984 327.204C391.848 328.668 392.28 330.396 392.28 332.388C392.28 334.38 391.848 336.12 390.984 337.608C390.144 339.072 388.992 340.212 387.528 341.028C386.088 341.844 384.42 342.252 382.524 342.252ZM371.868 348.984V322.776H376.152V327.312L376.008 332.424L376.368 337.536V348.984H371.868ZM382.02 338.4C383.1 338.4 384.06 338.16 384.9 337.68C385.764 337.2 386.448 336.504 386.952 335.592C387.456 334.68 387.708 333.612 387.708 332.388C387.708 331.14 387.456 330.072 386.952 329.184C386.448 328.272 385.764 327.576 384.9 327.096C384.06 326.616 383.1 326.376 382.02 326.376C380.94 326.376 379.968 326.616 379.104 327.096C378.24 327.576 377.556 328.272 377.052 329.184C376.548 330.072 376.296 331.14 376.296 332.388C376.296 333.612 376.548 334.68 377.052 335.592C377.556 336.504 378.24 337.2 379.104 337.68C379.968 338.16 380.94 338.4 382.02 338.4ZM405.722 342.252C403.586 342.252 401.714 341.832 400.106 340.992C398.522 340.128 397.286 338.952 396.398 337.464C395.534 335.976 395.102 334.284 395.102 332.388C395.102 330.468 395.522 328.776 396.362 327.312C397.226 325.824 398.402 324.66 399.89 323.82C401.402 322.98 403.118 322.56 405.038 322.56C406.91 322.56 408.578 322.968 410.042 323.784C411.506 324.6 412.658 325.752 413.498 327.24C414.338 328.728 414.758 330.48 414.758 332.496C414.758 332.688 414.746 332.904 414.722 333.144C414.722 333.384 414.71 333.612 414.686 333.828H398.666V330.84H412.31L410.546 331.776C410.57 330.672 410.342 329.7 409.862 328.86C409.382 328.02 408.722 327.36 407.882 326.88C407.066 326.4 406.118 326.16 405.038 326.16C403.934 326.16 402.962 326.4 402.122 326.88C401.306 327.36 400.658 328.032 400.178 328.896C399.722 329.736 399.494 330.732 399.494 331.884V332.604C399.494 333.756 399.758 334.776 400.286 335.664C400.814 336.552 401.558 337.236 402.518 337.716C403.478 338.196 404.582 338.436 405.83 338.436C406.91 338.436 407.882 338.268 408.746 337.932C409.61 337.596 410.378 337.068 411.05 336.348L413.462 339.12C412.598 340.128 411.506 340.908 410.186 341.46C408.89 341.988 407.402 342.252 405.722 342.252ZM425.448 342.324C423.984 342.324 422.532 342.156 421.092 341.82C419.676 341.46 418.392 340.956 417.24 340.308L418.5 336.96C419.436 337.488 420.492 337.896 421.668 338.184C422.844 338.472 424.02 338.616 425.196 338.616C426.204 338.616 427.068 338.52 427.788 338.328C428.508 338.112 429.06 337.8 429.444 337.392C429.852 336.984 430.056 336.516 430.056 335.988C430.056 335.22 429.72 334.644 429.048 334.26C428.4 333.852 427.464 333.648 426.24 333.648H422.532V330.624H425.88C426.648 330.624 427.296 330.54 427.824 330.372C428.376 330.204 428.796 329.952 429.084 329.616C429.372 329.28 429.516 328.884 429.516 328.428C429.516 327.972 429.336 327.576 428.976 327.24C428.64 326.88 428.148 326.616 427.5 326.448C426.852 326.256 426.072 326.16 425.16 326.16C424.2 326.16 423.204 326.28 422.172 326.52C421.164 326.76 420.132 327.108 419.076 327.564L417.924 324.252C419.148 323.7 420.336 323.28 421.488 322.992C422.664 322.68 423.828 322.512 424.98 322.488C426.732 322.416 428.292 322.596 429.66 323.028C431.028 323.46 432.108 324.084 432.9 324.9C433.692 325.716 434.088 326.676 434.088 327.78C434.088 328.692 433.8 329.52 433.224 330.264C432.672 330.984 431.904 331.548 430.92 331.956C429.96 332.364 428.856 332.568 427.608 332.568L427.752 331.596C429.888 331.596 431.568 332.028 432.792 332.892C434.016 333.732 434.628 334.884 434.628 336.348C434.628 337.524 434.232 338.568 433.44 339.48C432.648 340.368 431.556 341.064 430.164 341.568C428.796 342.072 427.224 342.324 425.448 342.324ZM223.227 386V366.776H227.943L235.683 380.42H233.811L241.947 366.776H246.159L246.195 386H242.127V371.6L242.847 372.068L235.647 383.984H233.703L226.467 371.744L227.331 371.528V386H223.227ZM263.895 386V382.112L263.643 381.284V374.48C263.643 373.16 263.247 372.14 262.455 371.42C261.663 370.676 260.463 370.304 258.855 370.304C257.775 370.304 256.707 370.472 255.651 370.808C254.619 371.144 253.743 371.612 253.023 372.212L251.259 368.936C252.291 368.144 253.515 367.556 254.931 367.172C256.371 366.764 257.859 366.56 259.395 366.56C262.179 366.56 264.327 367.232 265.839 368.576C267.375 369.896 268.143 371.948 268.143 374.732V386H263.895ZM257.847 386.252C256.407 386.252 255.147 386.012 254.067 385.532C252.987 385.028 252.147 384.344 251.547 383.48C250.971 382.592 250.683 381.596 250.683 380.492C250.683 379.412 250.935 378.44 251.439 377.576C251.967 376.712 252.819 376.028 253.995 375.524C255.171 375.02 256.731 374.768 258.675 374.768H264.255V377.756H258.999C257.463 377.756 256.431 378.008 255.903 378.512C255.375 378.992 255.111 379.592 255.111 380.312C255.111 381.128 255.435 381.776 256.083 382.256C256.731 382.736 257.631 382.976 258.783 382.976C259.887 382.976 260.871 382.724 261.735 382.22C262.623 381.716 263.259 380.972 263.643 379.988L264.399 382.688C263.967 383.816 263.187 384.692 262.059 385.316C260.955 385.94 259.551 386.252 257.847 386.252ZM273.712 386V366.776H288.472V370.592H277.168L278.212 369.584V386H273.712ZM303.411 386V382.112L303.159 381.284V374.48C303.159 373.16 302.763 372.14 301.971 371.42C301.179 370.676 299.979 370.304 298.371 370.304C297.291 370.304 296.223 370.472 295.167 370.808C294.135 371.144 293.259 371.612 292.539 372.212L290.775 368.936C291.807 368.144 293.031 367.556 294.447 367.172C295.887 366.764 297.375 366.56 298.911 366.56C301.695 366.56 303.843 367.232 305.355 368.576C306.891 369.896 307.659 371.948 307.659 374.732V386H303.411ZM297.363 386.252C295.923 386.252 294.663 386.012 293.583 385.532C292.503 385.028 291.663 384.344 291.063 383.48C290.487 382.592 290.199 381.596 290.199 380.492C290.199 379.412 290.451 378.44 290.955 377.576C291.483 376.712 292.335 376.028 293.511 375.524C294.687 375.02 296.247 374.768 298.191 374.768H303.771V377.756H298.515C296.979 377.756 295.947 378.008 295.419 378.512C294.891 378.992 294.627 379.592 294.627 380.312C294.627 381.128 294.951 381.776 295.599 382.256C296.247 382.736 297.147 382.976 298.299 382.976C299.403 382.976 300.387 382.724 301.251 382.22C302.139 381.716 302.775 380.972 303.159 379.988L303.915 382.688C303.483 383.816 302.703 384.692 301.575 385.316C300.471 385.94 299.067 386.252 297.363 386.252ZM319.065 386.324C317.601 386.324 316.149 386.156 314.709 385.82C313.293 385.46 312.009 384.956 310.857 384.308L312.117 380.96C313.053 381.488 314.109 381.896 315.285 382.184C316.461 382.472 317.637 382.616 318.813 382.616C319.821 382.616 320.685 382.52 321.405 382.328C322.125 382.112 322.677 381.8 323.061 381.392C323.469 380.984 323.673 380.516 323.673 379.988C323.673 379.22 323.337 378.644 322.665 378.26C322.017 377.852 321.081 377.648 319.857 377.648H316.149V374.624H319.497C320.265 374.624 320.913 374.54 321.441 374.372C321.993 374.204 322.413 373.952 322.701 373.616C322.989 373.28 323.133 372.884 323.133 372.428C323.133 371.972 322.953 371.576 322.593 371.24C322.257 370.88 321.765 370.616 321.117 370.448C320.469 370.256 319.689 370.16 318.777 370.16C317.817 370.16 316.821 370.28 315.789 370.52C314.781 370.76 313.749 371.108 312.693 371.564L311.541 368.252C312.765 367.7 313.953 367.28 315.105 366.992C316.281 366.68 317.445 366.512 318.597 366.488C320.349 366.416 321.909 366.596 323.277 367.028C324.645 367.46 325.725 368.084 326.517 368.9C327.309 369.716 327.705 370.676 327.705 371.78C327.705 372.692 327.417 373.52 326.841 374.264C326.289 374.984 325.521 375.548 324.537 375.956C323.577 376.364 322.473 376.568 321.225 376.568L321.369 375.596C323.505 375.596 325.185 376.028 326.409 376.892C327.633 377.732 328.245 378.884 328.245 380.348C328.245 381.524 327.849 382.568 327.057 383.48C326.265 384.368 325.173 385.064 323.781 385.568C322.413 386.072 320.841 386.324 319.065 386.324ZM332.879 386V366.776H337.379V379.448L347.999 366.776H352.103V386H347.603V373.328L337.019 386H332.879ZM358.157 386V366.776H362.657V374.588H372.341V366.776H376.841V386H372.341V378.404H362.657V386H358.157ZM205.297 430V410.776H214.693C217.021 410.776 218.845 411.208 220.165 412.072C221.509 412.936 222.181 414.16 222.181 415.744C222.181 417.304 221.557 418.528 220.309 419.416C219.061 420.28 217.405 420.712 215.341 420.712L215.881 419.596C218.209 419.596 219.937 420.028 221.065 420.892C222.217 421.732 222.793 422.968 222.793 424.6C222.793 426.304 222.157 427.636 220.885 428.596C219.613 429.532 217.681 430 215.089 430H205.297ZM209.581 426.724H214.729C215.953 426.724 216.877 426.532 217.501 426.148C218.125 425.74 218.437 425.128 218.437 424.312C218.437 423.448 218.149 422.812 217.573 422.404C216.997 421.996 216.097 421.792 214.873 421.792H209.581V426.724ZM209.581 418.804H214.297C215.449 418.804 216.313 418.6 216.889 418.192C217.489 417.76 217.789 417.16 217.789 416.392C217.789 415.6 217.489 415.012 216.889 414.628C216.313 414.244 215.449 414.052 214.297 414.052H209.581V418.804ZM243.008 430V408.76H234.656V404.8H256.04V408.76H247.688V430H243.008ZM266.187 430.252C264.051 430.252 262.179 429.832 260.571 428.992C258.987 428.128 257.751 426.952 256.863 425.464C255.999 423.976 255.567 422.284 255.567 420.388C255.567 418.468 255.987 416.776 256.827 415.312C257.691 413.824 258.867 412.66 260.355 411.82C261.867 410.98 263.583 410.56 265.503 410.56C267.375 410.56 269.043 410.968 270.507 411.784C271.971 412.6 273.123 413.752 273.963 415.24C274.803 416.728 275.223 418.48 275.223 420.496C275.223 420.688 275.211 420.904 275.187 421.144C275.187 421.384 275.175 421.612 275.151 421.828H259.131V418.84H272.775L271.011 419.776C271.035 418.672 270.807 417.7 270.327 416.86C269.847 416.02 269.187 415.36 268.347 414.88C267.531 414.4 266.583 414.16 265.503 414.16C264.399 414.16 263.427 414.4 262.587 414.88C261.771 415.36 261.123 416.032 260.643 416.896C260.187 417.736 259.959 418.732 259.959 419.884V420.604C259.959 421.756 260.223 422.776 260.751 423.664C261.279 424.552 262.023 425.236 262.983 425.716C263.943 426.196 265.047 426.436 266.295 426.436C267.375 426.436 268.347 426.268 269.211 425.932C270.075 425.596 270.843 425.068 271.515 424.348L273.927 427.12C273.063 428.128 271.971 428.908 270.651 429.46C269.355 429.988 267.867 430.252 266.187 430.252ZM279.546 430V403.288H284.046V430H279.546ZM298.988 430.252C296.852 430.252 294.98 429.832 293.372 428.992C291.788 428.128 290.552 426.952 289.664 425.464C288.8 423.976 288.368 422.284 288.368 420.388C288.368 418.468 288.788 416.776 289.628 415.312C290.492 413.824 291.668 412.66 293.156 411.82C294.668 410.98 296.384 410.56 298.304 410.56C300.176 410.56 301.844 410.968 303.308 411.784C304.772 412.6 305.924 413.752 306.764 415.24C307.604 416.728 308.024 418.48 308.024 420.496C308.024 420.688 308.012 420.904 307.988 421.144C307.988 421.384 307.976 421.612 307.952 421.828H291.932V418.84H305.576L303.812 419.776C303.836 418.672 303.608 417.7 303.128 416.86C302.648 416.02 301.988 415.36 301.148 414.88C300.332 414.4 299.384 414.16 298.304 414.16C297.2 414.16 296.228 414.4 295.388 414.88C294.572 415.36 293.924 416.032 293.444 416.896C292.988 417.736 292.76 418.732 292.76 419.884V420.604C292.76 421.756 293.024 422.776 293.552 423.664C294.08 424.552 294.824 425.236 295.784 425.716C296.744 426.196 297.848 426.436 299.096 426.436C300.176 426.436 301.148 426.268 302.012 425.932C302.876 425.596 303.644 425.068 304.316 424.348L306.728 427.12C305.864 428.128 304.772 428.908 303.452 429.46C302.156 429.988 300.668 430.252 298.988 430.252ZM321.059 437.236C319.283 437.236 317.543 436.996 315.839 436.516C314.159 436.06 312.779 435.388 311.699 434.5L313.715 431.116C314.555 431.812 315.611 432.364 316.883 432.772C318.179 433.204 319.487 433.42 320.807 433.42C322.919 433.42 324.467 432.928 325.451 431.944C326.435 430.984 326.927 429.532 326.927 427.588V424.168L327.287 419.812L327.143 415.456V410.776H331.427V427.084C331.427 430.564 330.539 433.12 328.763 434.752C326.987 436.408 324.419 437.236 321.059 437.236ZM320.483 429.136C318.659 429.136 317.003 428.752 315.515 427.984C314.051 427.192 312.887 426.1 312.023 424.708C311.183 423.316 310.763 421.684 310.763 419.812C310.763 417.964 311.183 416.344 312.023 414.952C312.887 413.56 314.051 412.48 315.515 411.712C317.003 410.944 318.659 410.56 320.483 410.56C322.115 410.56 323.579 410.884 324.875 411.532C326.171 412.18 327.203 413.188 327.971 414.556C328.763 415.924 329.159 417.676 329.159 419.812C329.159 421.948 328.763 423.712 327.971 425.104C327.203 426.472 326.171 427.492 324.875 428.164C323.579 428.812 322.115 429.136 320.483 429.136ZM321.167 425.32C322.295 425.32 323.303 425.092 324.191 424.636C325.079 424.156 325.763 423.508 326.243 422.692C326.747 421.852 326.999 420.892 326.999 419.812C326.999 418.732 326.747 417.784 326.243 416.968C325.763 416.128 325.079 415.492 324.191 415.06C323.303 414.604 322.295 414.376 321.167 414.376C320.039 414.376 319.019 414.604 318.107 415.06C317.219 415.492 316.523 416.128 316.019 416.968C315.539 417.784 315.299 418.732 315.299 419.812C315.299 420.892 315.539 421.852 316.019 422.692C316.523 423.508 317.219 424.156 318.107 424.636C319.019 425.092 320.039 425.32 321.167 425.32ZM337.343 430V410.776H341.627V416.068L341.123 414.52C341.699 413.224 342.599 412.24 343.823 411.568C345.071 410.896 346.619 410.56 348.467 410.56V414.844C348.275 414.796 348.095 414.772 347.927 414.772C347.759 414.748 347.591 414.736 347.423 414.736C345.719 414.736 344.363 415.24 343.355 416.248C342.347 417.232 341.843 418.708 341.843 420.676V430H337.343ZM362.757 430V426.112L362.505 425.284V418.48C362.505 417.16 362.109 416.14 361.317 415.42C360.525 414.676 359.325 414.304 357.717 414.304C356.637 414.304 355.569 414.472 354.513 414.808C353.481 415.144 352.605 415.612 351.885 416.212L350.121 412.936C351.153 412.144 352.377 411.556 353.793 411.172C355.233 410.764 356.721 410.56 358.257 410.56C361.041 410.56 363.189 411.232 364.701 412.576C366.237 413.896 367.005 415.948 367.005 418.732V430H362.757ZM356.709 430.252C355.269 430.252 354.009 430.012 352.929 429.532C351.849 429.028 351.009 428.344 350.409 427.48C349.833 426.592 349.545 425.596 349.545 424.492C349.545 423.412 349.797 422.44 350.301 421.576C350.829 420.712 351.681 420.028 352.857 419.524C354.033 419.02 355.593 418.768 357.537 418.768H363.117V421.756H357.861C356.325 421.756 355.293 422.008 354.765 422.512C354.237 422.992 353.973 423.592 353.973 424.312C353.973 425.128 354.297 425.776 354.945 426.256C355.593 426.736 356.493 426.976 357.645 426.976C358.749 426.976 359.733 426.724 360.597 426.22C361.485 425.716 362.121 424.972 362.505 423.988L363.261 426.688C362.829 427.816 362.049 428.692 360.921 429.316C359.817 429.94 358.413 430.252 356.709 430.252ZM397.044 410.56C398.58 410.56 399.936 410.86 401.112 411.46C402.312 412.06 403.248 412.984 403.92 414.232C404.592 415.456 404.928 417.04 404.928 418.984V430H400.428V419.56C400.428 417.856 400.056 416.584 399.312 415.744C398.568 414.904 397.5 414.484 396.108 414.484C395.124 414.484 394.248 414.7 393.48 415.132C392.736 415.564 392.148 416.2 391.716 417.04C391.308 417.88 391.104 418.948 391.104 420.244V430H386.604V419.56C386.604 417.856 386.232 416.584 385.488 415.744C384.744 414.904 383.676 414.484 382.284 414.484C381.3 414.484 380.424 414.7 379.656 415.132C378.912 415.564 378.324 416.2 377.892 417.04C377.484 417.88 377.28 418.948 377.28 420.244V430H372.78V410.776H377.064V415.888L376.308 414.376C376.956 413.128 377.892 412.18 379.116 411.532C380.364 410.884 381.78 410.56 383.364 410.56C385.164 410.56 386.724 411.004 388.044 411.892C389.388 412.78 390.276 414.124 390.708 415.924L388.944 415.312C389.568 413.872 390.6 412.72 392.04 411.856C393.48 410.992 395.148 410.56 397.044 410.56Z" fill="#0A1526"/>
    <g clip-path="url(#clip0_538_570)">
        <path d="M308.536 203.5C308.536 215.208 332.909 229.861 332.909 249.771C332.909 257.974 327.45 260.428 327.45 260.428H281.549C281.549 260.428 276.09 257.975 276.09 249.771C276.09 229.86 300.463 215.208 300.463 203.5C300.463 191.792 276.09 177.139 276.09 157.228C276.09 149.025 281.549 146.571 281.549 146.571H327.45C327.45 146.571 332.909 149.025 332.909 157.228C332.909 177.139 308.536 191.791 308.536 203.499V203.5Z" fill="#E5E5E5"/>
        <path d="M308.537 203.5C308.537 215.208 332.91 229.861 332.91 249.771C332.91 257.974 327.451 260.428 327.451 260.428H322.699C322.699 260.428 323.782 259.941 324.985 258.675H327.594C327.594 257.401 327.474 256.193 327.251 255.04C327.792 253.63 328.157 251.893 328.157 249.771C328.157 234.312 313.464 222.022 306.894 211.819V202.799C306.894 185.481 328.931 179.943 328.931 162.977H327.49C327.918 161.111 328.156 159.195 328.156 157.228C328.156 149.025 322.697 146.571 322.697 146.571H327.45C327.45 146.571 332.909 149.025 332.909 157.228C332.909 177.139 308.536 191.791 308.536 203.499L308.537 203.5Z" fill="#CCCCCC"/>
        <path d="M336.587 139H272.413C271.08 139 270 140.076 270 141.403V146.272C270 147.599 271.08 148.675 272.413 148.675H336.587C337.92 148.675 339 147.599 339 146.272V141.403C339 140.076 337.92 139 336.587 139Z" fill="#7F0EAC"/>
        <path d="M306.894 219.485C306.894 235.227 324.556 241.078 327.251 255.039C326.632 256.651 325.782 257.834 324.984 258.675H281.97C281.97 241.977 302.741 236.527 302.741 219.484V202.798C302.741 185.481 280.28 179.943 280.28 162.977H327.491C323.581 180.005 303.785 192.948 303.785 203.5C303.785 206.117 305.003 208.881 306.895 211.82V219.485H306.894Z" fill="#E5CC61"/>
        <path d="M287.409 162.977H282.963C282.472 159.488 282.848 156.379 283.175 154.617C283.339 153.733 284.115 153.092 285.018 153.092C286.147 153.092 287.022 154.08 286.876 155.196C286.483 158.209 286.768 160.795 287.409 162.977H287.409Z" fill="white"/>
        <path d="M290.93 173.997L290.919 174.003C289.912 174.555 288.65 174.369 287.863 173.533C284.785 170.266 283.448 166.435 282.962 162.977H287.409C288.352 166.188 290.069 168.52 291.534 170.039C292.687 171.236 292.389 173.196 290.93 173.997V173.997Z" fill="#F9E8A5"/>
        <path d="M294.537 180.645C296.034 180.645 297.248 179.436 297.248 177.945C297.248 176.455 296.034 175.246 294.537 175.246C293.04 175.246 291.826 176.455 291.826 177.945C291.826 179.436 293.04 180.645 294.537 180.645Z" fill="#F9E8A5"/>
        <path d="M291.768 247.304L291.757 247.299C290.75 246.747 289.488 246.933 288.701 247.769C285.623 251.035 284.286 254.867 283.8 258.325H288.246C289.19 255.114 290.907 252.782 292.372 251.262C293.525 250.065 293.227 248.105 291.768 247.305V247.304Z" fill="#F9E8A5"/>
        <path d="M295.375 246.056C296.872 246.056 298.086 244.847 298.086 243.357C298.086 241.866 296.872 240.657 295.375 240.657C293.878 240.657 292.664 241.866 292.664 243.357C292.664 244.847 293.878 246.056 295.375 246.056Z" fill="#F9E8A5"/>
        <path d="M327.594 258.676H324.984C325.782 257.835 326.632 256.652 327.251 255.04C327.474 256.193 327.595 257.402 327.595 258.676H327.594Z" fill="#CCB552"/>
        <path d="M328.931 162.977C328.931 179.943 306.893 185.482 306.893 202.799V211.82C305.002 208.881 303.783 206.117 303.783 203.5C303.783 192.948 323.579 180.005 327.49 162.977H328.931V162.977Z" fill="#CCB552"/>
        <path d="M336.587 258.325H272.413C271.08 258.325 270 259.401 270 260.728V265.597C270 266.924 271.08 268 272.413 268H336.587C337.92 268 339 266.924 339 265.597V260.728C339 259.401 337.92 258.325 336.587 258.325Z" fill="#7F0EAC"/>
        <path d="M339 260.727V265.597C339 266.924 337.919 268 336.587 268H315.58C325.282 267.507 331.578 265.514 327.523 258.325H336.586C337.918 258.325 338.999 259.401 338.999 260.728L339 260.727Z" fill="#3E0B56"/>
        <path d="M339 146.272V141.403C339 140.076 337.919 139 336.587 139H315.58C325.282 139.494 331.578 141.487 327.523 148.675H336.586C337.918 148.675 338.999 147.599 338.999 146.272H339Z" fill="#3E0B56"/>
        <path d="M273.063 140.332H273.062C272.188 140.332 271.479 141.038 271.479 141.909V144.924C271.479 145.796 272.188 146.502 273.062 146.502H273.063C273.938 146.502 274.647 145.796 274.647 144.924V141.909C274.647 141.038 273.938 140.332 273.063 140.332Z" fill="#BC2CFF"/>
        <path d="M273.063 260.288H273.062C272.188 260.288 271.479 260.994 271.479 261.865V264.881C271.479 265.752 272.188 266.458 273.062 266.458H273.063C273.938 266.458 274.647 265.752 274.647 264.881V261.865C274.647 260.994 273.938 260.288 273.063 260.288Z" fill="#BC2CFF"/>
    </g>
    <rect x="756.773" y="35.1924" width="383.299" height="379.833" rx="43.5" transform="rotate(45 756.773 35.1924)" fill="#F2F6FF" stroke="url(#paint1_linear_538_570)" stroke-width="13"/>
    <path d="M653.277 349.983L664.617 324.783H669.225L680.601 349.983H675.705L665.949 327.267H667.821L658.101 349.983H653.277ZM658.497 344.151L659.757 340.479H673.365L674.625 344.151H658.497ZM683.961 349.983V330.759H688.461V338.571H698.145V330.759H702.645V349.983H698.145V342.387H688.461V349.983H683.961ZM720.34 349.983V346.095L720.088 345.267V338.463C720.088 337.143 719.692 336.123 718.9 335.403C718.108 334.659 716.908 334.287 715.3 334.287C714.22 334.287 713.152 334.455 712.096 334.791C711.064 335.127 710.188 335.595 709.468 336.195L707.704 332.919C708.736 332.127 709.96 331.539 711.376 331.155C712.816 330.747 714.304 330.543 715.84 330.543C718.624 330.543 720.772 331.215 722.284 332.559C723.82 333.879 724.588 335.931 724.588 338.715V349.983H720.34ZM714.292 350.235C712.852 350.235 711.592 349.995 710.512 349.515C709.432 349.011 708.592 348.327 707.992 347.463C707.416 346.575 707.128 345.579 707.128 344.475C707.128 343.395 707.38 342.423 707.884 341.559C708.412 340.695 709.264 340.011 710.44 339.507C711.616 339.003 713.176 338.751 715.12 338.751H720.7V341.739H715.444C713.908 341.739 712.876 341.991 712.348 342.495C711.82 342.975 711.556 343.575 711.556 344.295C711.556 345.111 711.88 345.759 712.528 346.239C713.176 346.719 714.076 346.959 715.228 346.959C716.332 346.959 717.316 346.707 718.18 346.203C719.068 345.699 719.704 344.955 720.088 343.971L720.844 346.671C720.412 347.799 719.632 348.675 718.504 349.299C717.4 349.923 715.996 350.235 714.292 350.235ZM727.349 349.947L727.565 346.167C727.733 346.191 727.889 346.215 728.033 346.239C728.177 346.263 728.309 346.275 728.429 346.275C729.173 346.275 729.749 346.047 730.157 345.591C730.565 345.135 730.865 344.523 731.057 343.755C731.273 342.963 731.417 342.087 731.489 341.127C731.585 340.143 731.657 339.159 731.705 338.175L732.029 330.759H747.581V349.983H743.081V333.351L744.125 334.575H734.981L735.953 333.315L735.701 338.391C735.629 340.095 735.485 341.679 735.269 343.143C735.077 344.583 734.765 345.843 734.333 346.923C733.925 348.003 733.349 348.843 732.605 349.443C731.885 350.043 730.961 350.343 729.833 350.343C729.473 350.343 729.077 350.307 728.645 350.235C728.237 350.163 727.805 350.067 727.349 349.947ZM753.641 349.983V330.759H758.141V343.431L768.761 330.759H772.865V349.983H768.365V337.311L757.781 349.983H753.641ZM782.914 349.983V333.495L783.958 334.575H776.146V330.759H794.146V334.575H786.37L787.414 333.495V349.983H782.914ZM797.411 349.983V330.759H801.911V343.431L812.531 330.759H816.635V349.983H812.135V337.311L801.551 349.983H797.411ZM836.476 349.983L829.528 340.767L833.2 338.499L841.768 349.983H836.476ZM822.688 349.983V330.759H827.188V349.983H822.688ZM825.856 342.279V338.535H832.372V342.279H825.856ZM833.632 340.911L829.42 340.407L836.476 330.759H841.3L833.632 340.911ZM856.254 349.983V346.095L856.002 345.267V338.463C856.002 337.143 855.606 336.123 854.814 335.403C854.022 334.659 852.822 334.287 851.214 334.287C850.134 334.287 849.066 334.455 848.01 334.791C846.978 335.127 846.102 335.595 845.382 336.195L843.618 332.919C844.65 332.127 845.874 331.539 847.29 331.155C848.73 330.747 850.218 330.543 851.754 330.543C854.538 330.543 856.686 331.215 858.198 332.559C859.734 333.879 860.502 335.931 860.502 338.715V349.983H856.254ZM850.206 350.235C848.766 350.235 847.506 349.995 846.426 349.515C845.346 349.011 844.506 348.327 843.906 347.463C843.33 346.575 843.042 345.579 843.042 344.475C843.042 343.395 843.294 342.423 843.798 341.559C844.326 340.695 845.178 340.011 846.354 339.507C847.53 339.003 849.09 338.751 851.034 338.751H856.614V341.739H851.358C849.822 341.739 848.79 341.991 848.262 342.495C847.734 342.975 847.47 343.575 847.47 344.295C847.47 345.111 847.794 345.759 848.442 346.239C849.09 346.719 849.99 346.959 851.142 346.959C852.246 346.959 853.23 346.707 854.094 346.203C854.982 345.699 855.618 344.955 856.002 343.971L856.758 346.671C856.326 347.799 855.546 348.675 854.418 349.299C853.314 349.923 851.91 350.235 850.206 350.235Z" fill="#0A1526"/>
    <g clip-path="url(#clip1_538_570)">
        <path d="M761.536 203.5C761.536 215.208 785.909 229.861 785.909 249.771C785.909 257.974 780.45 260.428 780.45 260.428H734.549C734.549 260.428 729.09 257.975 729.09 249.771C729.09 229.86 753.463 215.208 753.463 203.5C753.463 191.792 729.09 177.139 729.09 157.228C729.09 149.025 734.549 146.571 734.549 146.571H780.45C780.45 146.571 785.909 149.025 785.909 157.228C785.909 177.139 761.536 191.791 761.536 203.499V203.5Z" fill="#E5E5E5"/>
        <path d="M761.537 203.5C761.537 215.208 785.91 229.861 785.91 249.771C785.91 257.974 780.451 260.428 780.451 260.428H775.699C775.699 260.428 776.782 259.941 777.985 258.675H780.594C780.594 257.401 780.474 256.193 780.251 255.04C780.792 253.63 781.157 251.893 781.157 249.771C781.157 234.312 766.464 222.022 759.894 211.819V202.799C759.894 185.481 781.931 179.943 781.931 162.977H780.49C780.918 161.111 781.156 159.195 781.156 157.228C781.156 149.025 775.697 146.571 775.697 146.571H780.45C780.45 146.571 785.909 149.025 785.909 157.228C785.909 177.139 761.536 191.791 761.536 203.499L761.537 203.5Z" fill="#CCCCCC"/>
        <path d="M789.587 139H725.413C724.08 139 723 140.076 723 141.403V146.272C723 147.599 724.08 148.675 725.413 148.675H789.587C790.92 148.675 792 147.599 792 146.272V141.403C792 140.076 790.92 139 789.587 139Z" fill="#7F0EAC"/>
        <path d="M759.894 219.485C759.894 235.227 777.556 241.078 780.251 255.039C779.632 256.651 778.782 257.834 777.984 258.675H734.97C734.97 241.977 755.741 236.527 755.741 219.484V202.798C755.741 185.481 733.28 179.943 733.28 162.977H780.491C776.581 180.005 756.785 192.948 756.785 203.5C756.785 206.117 758.003 208.881 759.895 211.82V219.485H759.894Z" fill="#E5CC61"/>
        <path d="M740.409 162.977H735.963C735.472 159.488 735.848 156.379 736.175 154.617C736.339 153.733 737.115 153.092 738.018 153.092C739.147 153.092 740.022 154.08 739.876 155.196C739.483 158.209 739.768 160.795 740.409 162.977H740.409Z" fill="white"/>
        <path d="M743.93 173.997L743.919 174.003C742.912 174.555 741.65 174.369 740.863 173.533C737.785 170.266 736.448 166.435 735.962 162.977H740.409C741.352 166.188 743.069 168.52 744.534 170.039C745.687 171.236 745.389 173.196 743.93 173.997V173.997Z" fill="#F9E8A5"/>
        <path d="M747.537 180.645C749.034 180.645 750.248 179.436 750.248 177.945C750.248 176.455 749.034 175.246 747.537 175.246C746.04 175.246 744.826 176.455 744.826 177.945C744.826 179.436 746.04 180.645 747.537 180.645Z" fill="#F9E8A5"/>
        <path d="M744.768 247.304L744.757 247.299C743.75 246.747 742.488 246.933 741.701 247.769C738.623 251.035 737.286 254.867 736.8 258.325H741.246C742.19 255.114 743.907 252.782 745.372 251.262C746.525 250.065 746.227 248.105 744.768 247.305V247.304Z" fill="#F9E8A5"/>
        <path d="M748.375 246.056C749.872 246.056 751.086 244.847 751.086 243.357C751.086 241.866 749.872 240.657 748.375 240.657C746.878 240.657 745.664 241.866 745.664 243.357C745.664 244.847 746.878 246.056 748.375 246.056Z" fill="#F9E8A5"/>
        <path d="M780.594 258.676H777.984C778.782 257.835 779.632 256.652 780.251 255.04C780.474 256.193 780.595 257.402 780.595 258.676H780.594Z" fill="#CCB552"/>
        <path d="M781.931 162.977C781.931 179.943 759.893 185.482 759.893 202.799V211.82C758.002 208.881 756.783 206.117 756.783 203.5C756.783 192.948 776.579 180.005 780.49 162.977H781.931V162.977Z" fill="#CCB552"/>
        <path d="M789.587 258.325H725.413C724.08 258.325 723 259.401 723 260.728V265.597C723 266.924 724.08 268 725.413 268H789.587C790.92 268 792 266.924 792 265.597V260.728C792 259.401 790.92 258.325 789.587 258.325Z" fill="#7F0EAC"/>
        <path d="M792 260.727V265.597C792 266.924 790.919 268 789.587 268H768.58C778.282 267.507 784.578 265.514 780.523 258.325H789.586C790.918 258.325 791.999 259.401 791.999 260.728L792 260.727Z" fill="#3E0B56"/>
        <path d="M792 146.272V141.403C792 140.076 790.919 139 789.587 139H768.58C778.282 139.494 784.578 141.487 780.523 148.675H789.586C790.918 148.675 791.999 147.599 791.999 146.272H792Z" fill="#3E0B56"/>
        <path d="M726.063 140.332H726.062C725.188 140.332 724.479 141.038 724.479 141.909V144.924C724.479 145.796 725.188 146.502 726.062 146.502H726.063C726.938 146.502 727.647 145.796 727.647 144.924V141.909C727.647 141.038 726.938 140.332 726.063 140.332Z" fill="#BC2CFF"/>
        <path d="M726.063 260.288H726.062C725.188 260.288 724.479 260.994 724.479 261.865V264.881C724.479 265.752 725.188 266.458 726.062 266.458H726.063C726.938 266.458 727.647 265.752 727.647 264.881V261.865C727.647 260.994 726.938 260.288 726.063 260.288Z" fill="#BC2CFF"/>
    </g>
    <rect x="1221.66" y="9.19239" width="420.23" height="416.44" rx="43.5" transform="rotate(45 1221.66 9.19239)" fill="#F2F6FF" stroke="url(#paint2_linear_538_570)" stroke-width="13"/>
    <path d="M1055.82 339.516L1057.33 336.096C1058.41 336.84 1059.59 337.416 1060.86 337.824C1062.16 338.208 1063.44 338.412 1064.71 338.436C1065.99 338.46 1067.14 338.316 1068.17 338.004C1069.23 337.692 1070.07 337.224 1070.69 336.6C1071.31 335.976 1071.63 335.196 1071.63 334.26C1071.63 333.132 1071.16 332.292 1070.22 331.74C1069.31 331.164 1068.06 330.876 1066.48 330.876H1060.61V327.204H1066.12C1067.53 327.204 1068.63 326.916 1069.39 326.34C1070.19 325.764 1070.58 324.984 1070.58 324C1070.58 323.184 1070.32 322.512 1069.79 321.984C1069.29 321.456 1068.59 321.06 1067.7 320.796C1066.84 320.532 1065.85 320.412 1064.75 320.436C1063.67 320.436 1062.54 320.604 1061.37 320.94C1060.19 321.252 1059.07 321.72 1058.02 322.344L1056.54 318.564C1058.13 317.724 1059.78 317.136 1061.51 316.8C1063.26 316.464 1064.95 316.368 1066.59 316.512C1068.22 316.656 1069.68 317.028 1070.98 317.628C1072.3 318.228 1073.35 319.02 1074.15 320.004C1074.94 320.964 1075.33 322.104 1075.33 323.424C1075.33 324.624 1075.01 325.692 1074.36 326.628C1073.74 327.54 1072.87 328.248 1071.77 328.752C1070.67 329.256 1069.38 329.508 1067.92 329.508L1068.1 328.356C1069.75 328.356 1071.19 328.644 1072.42 329.22C1073.67 329.772 1074.63 330.54 1075.3 331.524C1075.99 332.508 1076.34 333.648 1076.34 334.944C1076.34 336.168 1076.03 337.26 1075.41 338.22C1074.78 339.156 1073.93 339.948 1072.85 340.596C1071.77 341.22 1070.53 341.688 1069.14 342C1067.75 342.288 1066.29 342.396 1064.75 342.324C1063.21 342.252 1061.68 341.988 1060.14 341.532C1058.63 341.076 1057.19 340.404 1055.82 339.516ZM1092.84 342V338.112L1092.59 337.284V330.48C1092.59 329.16 1092.2 328.14 1091.4 327.42C1090.61 326.676 1089.41 326.304 1087.8 326.304C1086.72 326.304 1085.66 326.472 1084.6 326.808C1083.57 327.144 1082.69 327.612 1081.97 328.212L1080.21 324.936C1081.24 324.144 1082.46 323.556 1083.88 323.172C1085.32 322.764 1086.81 322.56 1088.34 322.56C1091.13 322.56 1093.28 323.232 1094.79 324.576C1096.32 325.896 1097.09 327.948 1097.09 330.732V342H1092.84ZM1086.8 342.252C1085.36 342.252 1084.1 342.012 1083.02 341.532C1081.94 341.028 1081.1 340.344 1080.5 339.48C1079.92 338.592 1079.63 337.596 1079.63 336.492C1079.63 335.412 1079.88 334.44 1080.39 333.576C1080.92 332.712 1081.77 332.028 1082.94 331.524C1084.12 331.02 1085.68 330.768 1087.62 330.768H1093.2V333.756H1087.95C1086.41 333.756 1085.38 334.008 1084.85 334.512C1084.32 334.992 1084.06 335.592 1084.06 336.312C1084.06 337.128 1084.38 337.776 1085.03 338.256C1085.68 338.736 1086.58 338.976 1087.73 338.976C1088.84 338.976 1089.82 338.724 1090.68 338.22C1091.57 337.716 1092.21 336.972 1092.59 335.988L1093.35 338.688C1092.92 339.816 1092.14 340.692 1091.01 341.316C1089.9 341.94 1088.5 342.252 1086.8 342.252ZM1102.66 342V322.776H1117.42V326.592H1106.12L1107.16 325.584V342H1102.66ZM1131.35 342.252C1129.79 342.252 1128.36 341.892 1127.07 341.172C1125.8 340.452 1124.78 339.372 1124.01 337.932C1123.26 336.468 1122.89 334.62 1122.89 332.388C1122.89 330.132 1123.25 328.284 1123.97 326.844C1124.72 325.404 1125.72 324.336 1127 323.64C1128.27 322.92 1129.72 322.56 1131.35 322.56C1133.25 322.56 1134.92 322.968 1136.36 323.784C1137.82 324.6 1138.97 325.74 1139.81 327.204C1140.68 328.668 1141.11 330.396 1141.11 332.388C1141.11 334.38 1140.68 336.12 1139.81 337.608C1138.97 339.072 1137.82 340.212 1136.36 341.028C1134.92 341.844 1133.25 342.252 1131.35 342.252ZM1120.7 348.984V322.776H1124.98V327.312L1124.84 332.424L1125.2 337.536V348.984H1120.7ZM1130.85 338.4C1131.93 338.4 1132.89 338.16 1133.73 337.68C1134.59 337.2 1135.28 336.504 1135.78 335.592C1136.28 334.68 1136.54 333.612 1136.54 332.388C1136.54 331.14 1136.28 330.072 1135.78 329.184C1135.28 328.272 1134.59 327.576 1133.73 327.096C1132.89 326.616 1131.93 326.376 1130.85 326.376C1129.77 326.376 1128.8 326.616 1127.93 327.096C1127.07 327.576 1126.38 328.272 1125.88 329.184C1125.38 330.072 1125.12 331.14 1125.12 332.388C1125.12 333.612 1125.38 334.68 1125.88 335.592C1126.38 336.504 1127.07 337.2 1127.93 337.68C1128.8 338.16 1129.77 338.4 1130.85 338.4ZM1146.79 349.236C1145.85 349.236 1144.92 349.08 1143.98 348.768C1143.04 348.456 1142.26 348.024 1141.64 347.472L1143.44 344.16C1143.9 344.568 1144.41 344.892 1144.99 345.132C1145.56 345.372 1146.15 345.492 1146.75 345.492C1147.57 345.492 1148.23 345.288 1148.73 344.88C1149.24 344.472 1149.7 343.788 1150.14 342.828L1151.25 340.308L1151.61 339.768L1158.88 322.776H1163.2L1154.2 343.548C1153.6 344.988 1152.93 346.128 1152.19 346.968C1151.47 347.808 1150.65 348.396 1149.74 348.732C1148.85 349.068 1147.87 349.236 1146.79 349.236ZM1150.75 342.684L1142.07 322.776H1146.75L1153.81 339.372L1150.75 342.684ZM1171.96 342.324C1170.49 342.324 1169.04 342.156 1167.6 341.82C1166.18 341.46 1164.9 340.956 1163.75 340.308L1165.01 336.96C1165.94 337.488 1167 337.896 1168.18 338.184C1169.35 338.472 1170.53 338.616 1171.7 338.616C1172.71 338.616 1173.58 338.52 1174.3 338.328C1175.02 338.112 1175.57 337.8 1175.95 337.392C1176.36 336.984 1176.56 336.516 1176.56 335.988C1176.56 335.22 1176.23 334.644 1175.56 334.26C1174.91 333.852 1173.97 333.648 1172.75 333.648H1169.04V330.624H1172.39C1173.16 330.624 1173.8 330.54 1174.33 330.372C1174.88 330.204 1175.3 329.952 1175.59 329.616C1175.88 329.28 1176.02 328.884 1176.02 328.428C1176.02 327.972 1175.84 327.576 1175.48 327.24C1175.15 326.88 1174.66 326.616 1174.01 326.448C1173.36 326.256 1172.58 326.16 1171.67 326.16C1170.71 326.16 1169.71 326.28 1168.68 326.52C1167.67 326.76 1166.64 327.108 1165.58 327.564L1164.43 324.252C1165.66 323.7 1166.84 323.28 1168 322.992C1169.17 322.68 1170.34 322.512 1171.49 322.488C1173.24 322.416 1174.8 322.596 1176.17 323.028C1177.54 323.46 1178.62 324.084 1179.41 324.9C1180.2 325.716 1180.6 326.676 1180.6 327.78C1180.6 328.692 1180.31 329.52 1179.73 330.264C1179.18 330.984 1178.41 331.548 1177.43 331.956C1176.47 332.364 1175.36 332.568 1174.12 332.568L1174.26 331.596C1176.4 331.596 1178.08 332.028 1179.3 332.892C1180.52 333.732 1181.14 334.884 1181.14 336.348C1181.14 337.524 1180.74 338.568 1179.95 339.48C1179.16 340.368 1178.06 341.064 1176.67 341.568C1175.3 342.072 1173.73 342.324 1171.96 342.324ZM1199.56 342L1192.61 332.784L1196.28 330.516L1204.85 342H1199.56ZM1185.77 342V322.776H1190.27V342H1185.77ZM1188.94 334.296V330.552H1195.45V334.296H1188.94ZM1196.71 332.928L1192.5 332.424L1199.56 322.776H1204.38L1196.71 332.928ZM1219.34 342V338.112L1219.08 337.284V330.48C1219.08 329.16 1218.69 328.14 1217.9 327.42C1217.1 326.676 1215.9 326.304 1214.3 326.304C1213.22 326.304 1212.15 326.472 1211.09 326.808C1210.06 327.144 1209.18 327.612 1208.46 328.212L1206.7 324.936C1207.73 324.144 1208.96 323.556 1210.37 323.172C1211.81 322.764 1213.3 322.56 1214.84 322.56C1217.62 322.56 1219.77 323.232 1221.28 324.576C1222.82 325.896 1223.58 327.948 1223.58 330.732V342H1219.34ZM1213.29 342.252C1211.85 342.252 1210.59 342.012 1209.51 341.532C1208.43 341.028 1207.59 340.344 1206.99 339.48C1206.41 338.592 1206.12 337.596 1206.12 336.492C1206.12 335.412 1206.38 334.44 1206.88 333.576C1207.41 332.712 1208.26 332.028 1209.44 331.524C1210.61 331.02 1212.17 330.768 1214.12 330.768H1219.7V333.756H1214.44C1212.9 333.756 1211.87 334.008 1211.34 334.512C1210.82 334.992 1210.55 335.592 1210.55 336.312C1210.55 337.128 1210.88 337.776 1211.52 338.256C1212.17 338.736 1213.07 338.976 1214.22 338.976C1215.33 338.976 1216.31 338.724 1217.18 338.22C1218.06 337.716 1218.7 336.972 1219.08 335.988L1219.84 338.688C1219.41 339.816 1218.63 340.692 1217.5 341.316C1216.4 341.94 1214.99 342.252 1213.29 342.252ZM1243.1 342V325.512L1244.14 326.592H1236.33V322.776H1254.33V326.592H1246.55L1247.6 325.512V342H1243.1ZM1265.32 342.252C1263.35 342.252 1261.6 341.832 1260.06 340.992C1258.53 340.128 1257.31 338.952 1256.43 337.464C1255.54 335.976 1255.09 334.284 1255.09 332.388C1255.09 330.468 1255.54 328.776 1256.43 327.312C1257.31 325.824 1258.53 324.66 1260.06 323.82C1261.6 322.98 1263.35 322.56 1265.32 322.56C1267.31 322.56 1269.07 322.98 1270.61 323.82C1272.17 324.66 1273.38 325.812 1274.25 327.276C1275.13 328.74 1275.58 330.444 1275.58 332.388C1275.58 334.284 1275.13 335.976 1274.25 337.464C1273.38 338.952 1272.17 340.128 1270.61 340.992C1269.07 341.832 1267.31 342.252 1265.32 342.252ZM1265.32 338.4C1266.42 338.4 1267.41 338.16 1268.27 337.68C1269.13 337.2 1269.81 336.504 1270.29 335.592C1270.79 334.68 1271.04 333.612 1271.04 332.388C1271.04 331.14 1270.79 330.072 1270.29 329.184C1269.81 328.272 1269.13 327.576 1268.27 327.096C1267.41 326.616 1266.43 326.376 1265.35 326.376C1264.25 326.376 1263.27 326.616 1262.4 327.096C1261.56 327.576 1260.89 328.272 1260.39 329.184C1259.88 330.072 1259.63 331.14 1259.63 332.388C1259.63 333.612 1259.88 334.68 1260.39 335.592C1260.89 336.504 1261.56 337.2 1262.4 337.68C1263.27 338.16 1264.24 338.4 1265.32 338.4ZM1280.02 342V322.776H1289.42C1291.75 322.776 1293.57 323.208 1294.89 324.072C1296.24 324.936 1296.91 326.16 1296.91 327.744C1296.91 329.304 1296.28 330.528 1295.04 331.416C1293.79 332.28 1292.13 332.712 1290.07 332.712L1290.61 331.596C1292.94 331.596 1294.66 332.028 1295.79 332.892C1296.94 333.732 1297.52 334.968 1297.52 336.6C1297.52 338.304 1296.88 339.636 1295.61 340.596C1294.34 341.532 1292.41 342 1289.82 342H1280.02ZM1284.31 338.724H1289.46C1290.68 338.724 1291.6 338.532 1292.23 338.148C1292.85 337.74 1293.16 337.128 1293.16 336.312C1293.16 335.448 1292.88 334.812 1292.3 334.404C1291.72 333.996 1290.82 333.792 1289.6 333.792H1284.31V338.724ZM1284.31 330.804H1289.02C1290.18 330.804 1291.04 330.6 1291.62 330.192C1292.22 329.76 1292.52 329.16 1292.52 328.392C1292.52 327.6 1292.22 327.012 1291.62 326.628C1291.04 326.244 1290.18 326.052 1289.02 326.052H1284.31V330.804ZM1313.98 342V338.112L1313.73 337.284V330.48C1313.73 329.16 1313.33 328.14 1312.54 327.42C1311.75 326.676 1310.55 326.304 1308.94 326.304C1307.86 326.304 1306.79 326.472 1305.73 326.808C1304.7 327.144 1303.83 327.612 1303.11 328.212L1301.34 324.936C1302.37 324.144 1303.6 323.556 1305.01 323.172C1306.45 322.764 1307.94 322.56 1309.48 322.56C1312.26 322.56 1314.41 323.232 1315.92 324.576C1317.46 325.896 1318.23 327.948 1318.23 330.732V342H1313.98ZM1307.93 342.252C1306.49 342.252 1305.23 342.012 1304.15 341.532C1303.07 341.028 1302.23 340.344 1301.63 339.48C1301.05 338.592 1300.77 337.596 1300.77 336.492C1300.77 335.412 1301.02 334.44 1301.52 333.576C1302.05 332.712 1302.9 332.028 1304.08 331.524C1305.25 331.02 1306.81 330.768 1308.76 330.768H1314.34V333.756H1309.08C1307.55 333.756 1306.51 334.008 1305.99 334.512C1305.46 334.992 1305.19 335.592 1305.19 336.312C1305.19 337.128 1305.52 337.776 1306.17 338.256C1306.81 338.736 1307.71 338.976 1308.87 338.976C1309.97 338.976 1310.95 338.724 1311.82 338.22C1312.71 337.716 1313.34 336.972 1313.73 335.988L1314.48 338.688C1314.05 339.816 1313.27 340.692 1312.14 341.316C1311.04 341.94 1309.63 342.252 1307.93 342.252ZM1334.45 342.252C1332.89 342.252 1331.46 341.892 1330.17 341.172C1328.89 340.452 1327.87 339.372 1327.11 337.932C1326.36 336.468 1325.99 334.62 1325.99 332.388C1325.99 330.132 1326.35 328.284 1327.07 326.844C1327.81 325.404 1328.82 324.336 1330.09 323.64C1331.37 322.92 1332.82 322.56 1334.45 322.56C1336.35 322.56 1338.01 322.968 1339.45 323.784C1340.92 324.6 1342.07 325.74 1342.91 327.204C1343.77 328.668 1344.21 330.396 1344.21 332.388C1344.21 334.38 1343.77 336.12 1342.91 337.608C1342.07 339.072 1340.92 340.212 1339.45 341.028C1338.01 341.844 1336.35 342.252 1334.45 342.252ZM1323.79 348.984V322.776H1328.08V327.312L1327.93 332.424L1328.29 337.536V348.984H1323.79ZM1333.95 338.4C1335.03 338.4 1335.99 338.16 1336.83 337.68C1337.69 337.2 1338.37 336.504 1338.88 335.592C1339.38 334.68 1339.63 333.612 1339.63 332.388C1339.63 331.14 1339.38 330.072 1338.88 329.184C1338.37 328.272 1337.69 327.576 1336.83 327.096C1335.99 326.616 1335.03 326.376 1333.95 326.376C1332.87 326.376 1331.89 326.616 1331.03 327.096C1330.17 327.576 1329.48 328.272 1328.98 329.184C1328.47 330.072 1328.22 331.14 1328.22 332.388C1328.22 333.612 1328.47 334.68 1328.98 335.592C1329.48 336.504 1330.17 337.2 1331.03 337.68C1331.89 338.16 1332.87 338.4 1333.95 338.4ZM1357.25 342.252C1355.28 342.252 1353.53 341.832 1352 340.992C1350.46 340.128 1349.25 338.952 1348.36 337.464C1347.47 335.976 1347.03 334.284 1347.03 332.388C1347.03 330.468 1347.47 328.776 1348.36 327.312C1349.25 325.824 1350.46 324.66 1352 323.82C1353.53 322.98 1355.28 322.56 1357.25 322.56C1359.24 322.56 1361.01 322.98 1362.54 323.82C1364.1 324.66 1365.32 325.812 1366.18 327.276C1367.07 328.74 1367.51 330.444 1367.51 332.388C1367.51 334.284 1367.07 335.976 1366.18 337.464C1365.32 338.952 1364.1 340.128 1362.54 340.992C1361.01 341.832 1359.24 342.252 1357.25 342.252ZM1357.25 338.4C1358.36 338.4 1359.34 338.16 1360.2 337.68C1361.07 337.2 1361.74 336.504 1362.22 335.592C1362.72 334.68 1362.98 333.612 1362.98 332.388C1362.98 331.14 1362.72 330.072 1362.22 329.184C1361.74 328.272 1361.07 327.576 1360.2 327.096C1359.34 326.616 1358.37 326.376 1357.29 326.376C1356.18 326.376 1355.2 326.616 1354.34 327.096C1353.5 327.576 1352.82 328.272 1352.32 329.184C1351.82 330.072 1351.56 331.14 1351.56 332.388C1351.56 333.612 1351.82 334.68 1352.32 335.592C1352.82 336.504 1353.5 337.2 1354.34 337.68C1355.2 338.16 1356.17 338.4 1357.25 338.4ZM1371.96 342V322.776H1381.35C1383.68 322.776 1385.51 323.208 1386.83 324.072C1388.17 324.936 1388.84 326.16 1388.84 327.744C1388.84 329.304 1388.22 330.528 1386.97 331.416C1385.72 332.28 1384.07 332.712 1382 332.712L1382.54 331.596C1384.87 331.596 1386.6 332.028 1387.73 332.892C1388.88 333.732 1389.45 334.968 1389.45 336.6C1389.45 338.304 1388.82 339.636 1387.55 340.596C1386.27 341.532 1384.34 342 1381.75 342H1371.96ZM1376.24 338.724H1381.39C1382.61 338.724 1383.54 338.532 1384.16 338.148C1384.79 337.74 1385.1 337.128 1385.1 336.312C1385.1 335.448 1384.81 334.812 1384.23 334.404C1383.66 333.996 1382.76 333.792 1381.53 333.792H1376.24V338.724ZM1376.24 330.804H1380.96C1382.11 330.804 1382.97 330.6 1383.55 330.192C1384.15 329.76 1384.45 329.16 1384.45 328.392C1384.45 327.6 1384.15 327.012 1383.55 326.628C1382.97 326.244 1382.11 326.052 1380.96 326.052H1376.24V330.804ZM1090.29 386.252C1088.33 386.252 1086.57 385.832 1085.04 384.992C1083.5 384.128 1082.29 382.952 1081.4 381.464C1080.51 379.976 1080.07 378.284 1080.07 376.388C1080.07 374.468 1080.51 372.776 1081.4 371.312C1082.29 369.824 1083.5 368.66 1085.04 367.82C1086.57 366.98 1088.33 366.56 1090.29 366.56C1092.29 366.56 1094.05 366.98 1095.59 367.82C1097.15 368.66 1098.36 369.812 1099.22 371.276C1100.11 372.74 1100.55 374.444 1100.55 376.388C1100.55 378.284 1100.11 379.976 1099.22 381.464C1098.36 382.952 1097.15 384.128 1095.59 384.992C1094.05 385.832 1092.29 386.252 1090.29 386.252ZM1090.29 382.4C1091.4 382.4 1092.38 382.16 1093.25 381.68C1094.11 381.2 1094.78 380.504 1095.26 379.592C1095.77 378.68 1096.02 377.612 1096.02 376.388C1096.02 375.14 1095.77 374.072 1095.26 373.184C1094.78 372.272 1094.11 371.576 1093.25 371.096C1092.38 370.616 1091.41 370.376 1090.33 370.376C1089.23 370.376 1088.24 370.616 1087.38 371.096C1086.54 371.576 1085.87 372.272 1085.36 373.184C1084.86 374.072 1084.61 375.14 1084.61 376.388C1084.61 377.612 1084.86 378.68 1085.36 379.592C1085.87 380.504 1086.54 381.2 1087.38 381.68C1088.24 382.16 1089.21 382.4 1090.29 382.4ZM1117.96 383.912V370.592H1110.58L1110.48 373.688C1110.43 374.792 1110.36 375.86 1110.26 376.892C1110.16 377.9 1110.01 378.836 1109.79 379.7C1109.58 380.54 1109.26 381.236 1108.86 381.788C1108.45 382.34 1107.91 382.7 1107.24 382.868L1102.77 382.184C1103.49 382.184 1104.07 381.956 1104.5 381.5C1104.96 381.02 1105.3 380.372 1105.54 379.556C1105.81 378.716 1106 377.768 1106.12 376.712C1106.24 375.632 1106.32 374.516 1106.37 373.364L1106.62 366.776H1122.46V383.912H1117.96ZM1102.09 390.284V382.184H1125.31V390.284H1121.1V386H1106.26V390.284H1102.09ZM1129.33 386V366.776H1133.83V374.588H1143.51V366.776H1148.01V386H1143.51V378.404H1133.83V386H1129.33ZM1154.04 386V366.776H1158.54V379.448L1169.16 366.776H1173.27V386H1168.77V373.328L1158.18 386H1154.04ZM1179.32 386V366.776H1184.03L1191.77 380.42H1189.9L1198.04 366.776H1202.25L1202.29 386H1198.22V371.6L1198.94 372.068L1191.74 383.984H1189.79L1182.56 371.744L1183.42 371.528V386H1179.32ZM1230.48 386.36C1230.45 386.36 1230.34 386.36 1230.15 386.36C1229.98 386.36 1229.82 386.36 1229.65 386.36C1229.5 386.36 1229.41 386.36 1229.36 386.36C1225.3 386.312 1222.16 385.436 1219.93 383.732C1217.7 382.004 1216.58 379.544 1216.58 376.352C1216.58 373.184 1217.7 370.76 1219.93 369.08C1222.16 367.4 1225.34 366.536 1229.47 366.488C1229.52 366.488 1229.61 366.488 1229.76 366.488C1229.92 366.488 1230.08 366.488 1230.22 366.488C1230.39 366.488 1230.49 366.488 1230.51 366.488C1234.66 366.488 1237.89 367.34 1240.2 369.044C1242.52 370.724 1243.69 373.16 1243.69 376.352C1243.69 379.568 1242.52 382.04 1240.2 383.768C1237.89 385.496 1234.65 386.36 1230.48 386.36ZM1230.33 382.616C1232.37 382.616 1234.05 382.388 1235.37 381.932C1236.69 381.452 1237.68 380.756 1238.32 379.844C1238.97 378.908 1239.3 377.744 1239.3 376.352C1239.3 374.984 1238.97 373.856 1238.32 372.968C1237.68 372.056 1236.69 371.384 1235.37 370.952C1234.05 370.496 1232.37 370.268 1230.33 370.268C1230.28 370.268 1230.16 370.268 1229.97 370.268C1229.8 370.268 1229.7 370.268 1229.65 370.268C1227.66 370.268 1226.02 370.508 1224.75 370.988C1223.48 371.444 1222.53 372.116 1221.91 373.004C1221.31 373.892 1221.01 375.008 1221.01 376.352C1221.01 377.72 1221.31 378.86 1221.91 379.772C1222.53 380.684 1223.48 381.38 1224.75 381.86C1226.05 382.34 1227.68 382.592 1229.65 382.616C1229.7 382.616 1229.8 382.616 1229.97 382.616C1230.16 382.616 1230.28 382.616 1230.33 382.616ZM1227.99 392.984V359.288H1232.24V392.984H1227.99ZM1259.47 386V382.112L1259.22 381.284V374.48C1259.22 373.16 1258.82 372.14 1258.03 371.42C1257.24 370.676 1256.04 370.304 1254.43 370.304C1253.35 370.304 1252.28 370.472 1251.22 370.808C1250.19 371.144 1249.32 371.612 1248.6 372.212L1246.83 368.936C1247.86 368.144 1249.09 367.556 1250.5 367.172C1251.94 366.764 1253.43 366.56 1254.97 366.56C1257.75 366.56 1259.9 367.232 1261.41 368.576C1262.95 369.896 1263.72 371.948 1263.72 374.732V386H1259.47ZM1253.42 386.252C1251.98 386.252 1250.72 386.012 1249.64 385.532C1248.56 385.028 1247.72 384.344 1247.12 383.48C1246.54 382.592 1246.26 381.596 1246.26 380.492C1246.26 379.412 1246.51 378.44 1247.01 377.576C1247.54 376.712 1248.39 376.028 1249.57 375.524C1250.74 375.02 1252.3 374.768 1254.25 374.768H1259.83V377.756H1254.57C1253.04 377.756 1252 378.008 1251.48 378.512C1250.95 378.992 1250.68 379.592 1250.68 380.312C1250.68 381.128 1251.01 381.776 1251.66 382.256C1252.3 382.736 1253.2 382.976 1254.36 382.976C1255.46 382.976 1256.44 382.724 1257.31 382.22C1258.2 381.716 1258.83 380.972 1259.22 379.988L1259.97 382.688C1259.54 383.816 1258.76 384.692 1257.63 385.316C1256.53 385.94 1255.12 386.252 1253.42 386.252ZM1269.28 386V366.776H1273.78V379.448L1284.4 366.776H1288.51V386H1284.01V373.328L1273.42 386H1269.28ZM1278.61 364.508C1276.69 364.508 1275.21 364.064 1274.18 363.176C1273.15 362.264 1272.62 360.944 1272.6 359.216H1275.58C1275.61 360.08 1275.87 360.764 1276.38 361.268C1276.9 361.772 1277.64 362.024 1278.57 362.024C1279.48 362.024 1280.2 361.772 1280.73 361.268C1281.28 360.764 1281.57 360.08 1281.6 359.216H1284.66C1284.63 360.944 1284.09 362.264 1283.04 363.176C1282 364.064 1280.53 364.508 1278.61 364.508ZM1291.75 385.964L1291.97 382.184C1292.14 382.208 1292.29 382.232 1292.44 382.256C1292.58 382.28 1292.71 382.292 1292.83 382.292C1293.58 382.292 1294.15 382.064 1294.56 381.608C1294.97 381.152 1295.27 380.54 1295.46 379.772C1295.68 378.98 1295.82 378.104 1295.89 377.144C1295.99 376.16 1296.06 375.176 1296.11 374.192L1296.43 366.776H1311.99V386H1307.49V369.368L1308.53 370.592H1299.39L1300.36 369.332L1300.11 374.408C1300.03 376.112 1299.89 377.696 1299.67 379.16C1299.48 380.6 1299.17 381.86 1298.74 382.94C1298.33 384.02 1297.75 384.86 1297.01 385.46C1296.29 386.06 1295.37 386.36 1294.24 386.36C1293.88 386.36 1293.48 386.324 1293.05 386.252C1292.64 386.18 1292.21 386.084 1291.75 385.964ZM1326.61 386.252C1324.65 386.252 1322.89 385.832 1321.36 384.992C1319.82 384.128 1318.61 382.952 1317.72 381.464C1316.83 379.976 1316.39 378.284 1316.39 376.388C1316.39 374.468 1316.83 372.776 1317.72 371.312C1318.61 369.824 1319.82 368.66 1321.36 367.82C1322.89 366.98 1324.65 366.56 1326.61 366.56C1328.61 366.56 1330.37 366.98 1331.91 367.82C1333.47 368.66 1334.68 369.812 1335.54 371.276C1336.43 372.74 1336.87 374.444 1336.87 376.388C1336.87 378.284 1336.43 379.976 1335.54 381.464C1334.68 382.952 1333.47 384.128 1331.91 384.992C1330.37 385.832 1328.61 386.252 1326.61 386.252ZM1326.61 382.4C1327.72 382.4 1328.7 382.16 1329.57 381.68C1330.43 381.2 1331.1 380.504 1331.58 379.592C1332.09 378.68 1332.34 377.612 1332.34 376.388C1332.34 375.14 1332.09 374.072 1331.58 373.184C1331.1 372.272 1330.43 371.576 1329.57 371.096C1328.7 370.616 1327.73 370.376 1326.65 370.376C1325.55 370.376 1324.56 370.616 1323.7 371.096C1322.86 371.576 1322.19 372.272 1321.68 373.184C1321.18 374.072 1320.93 375.14 1320.93 376.388C1320.93 377.612 1321.18 378.68 1321.68 379.592C1322.19 380.504 1322.86 381.2 1323.7 381.68C1324.56 382.16 1325.53 382.4 1326.61 382.4ZM1341.32 386V366.776H1346.03L1353.77 380.42H1351.9L1360.04 366.776H1364.25L1364.29 386H1360.22V371.6L1360.94 372.068L1353.74 383.984H1351.79L1344.56 371.744L1345.42 371.528V386H1341.32Z" fill="#0A1526"/>
    <g clip-path="url(#clip2_538_570)">
        <path d="M1226.54 203.5C1226.54 215.208 1250.91 229.861 1250.91 249.771C1250.91 257.974 1245.45 260.428 1245.45 260.428H1199.55C1199.55 260.428 1194.09 257.975 1194.09 249.771C1194.09 229.86 1218.46 215.208 1218.46 203.5C1218.46 191.792 1194.09 177.139 1194.09 157.228C1194.09 149.025 1199.55 146.571 1199.55 146.571H1245.45C1245.45 146.571 1250.91 149.025 1250.91 157.228C1250.91 177.139 1226.54 191.791 1226.54 203.499V203.5Z" fill="#E5E5E5"/>
        <path d="M1226.54 203.5C1226.54 215.208 1250.91 229.861 1250.91 249.771C1250.91 257.974 1245.45 260.428 1245.45 260.428H1240.7C1240.7 260.428 1241.78 259.941 1242.98 258.675H1245.59C1245.59 257.401 1245.47 256.193 1245.25 255.04C1245.79 253.63 1246.16 251.893 1246.16 249.771C1246.16 234.312 1231.46 222.022 1224.89 211.819V202.799C1224.89 185.481 1246.93 179.943 1246.93 162.977H1245.49C1245.92 161.111 1246.16 159.195 1246.16 157.228C1246.16 149.025 1240.7 146.571 1240.7 146.571H1245.45C1245.45 146.571 1250.91 149.025 1250.91 157.228C1250.91 177.139 1226.54 191.791 1226.54 203.499L1226.54 203.5Z" fill="#CCCCCC"/>
        <path d="M1254.59 139H1190.41C1189.08 139 1188 140.076 1188 141.403V146.272C1188 147.599 1189.08 148.675 1190.41 148.675H1254.59C1255.92 148.675 1257 147.599 1257 146.272V141.403C1257 140.076 1255.92 139 1254.59 139Z" fill="#7F0EAC"/>
        <path d="M1224.89 219.485C1224.89 235.227 1242.56 241.078 1245.25 255.039C1244.63 256.651 1243.78 257.834 1242.98 258.675H1199.97C1199.97 241.977 1220.74 236.527 1220.74 219.484V202.798C1220.74 185.481 1198.28 179.943 1198.28 162.977H1245.49C1241.58 180.005 1221.78 192.948 1221.78 203.5C1221.78 206.117 1223 208.881 1224.89 211.82V219.485H1224.89Z" fill="#E5CC61"/>
        <path d="M1205.41 162.977H1200.96C1200.47 159.488 1200.85 156.379 1201.17 154.617C1201.34 153.733 1202.11 153.092 1203.02 153.092C1204.15 153.092 1205.02 154.08 1204.88 155.196C1204.48 158.209 1204.77 160.795 1205.41 162.977H1205.41Z" fill="white"/>
        <path d="M1208.93 173.997L1208.92 174.003C1207.91 174.555 1206.65 174.369 1205.86 173.533C1202.79 170.266 1201.45 166.435 1200.96 162.977H1205.41C1206.35 166.188 1208.07 168.52 1209.53 170.039C1210.69 171.236 1210.39 173.196 1208.93 173.997V173.997Z" fill="#F9E8A5"/>
        <path d="M1212.54 180.645C1214.03 180.645 1215.25 179.436 1215.25 177.945C1215.25 176.455 1214.03 175.246 1212.54 175.246C1211.04 175.246 1209.83 176.455 1209.83 177.945C1209.83 179.436 1211.04 180.645 1212.54 180.645Z" fill="#F9E8A5"/>
        <path d="M1209.77 247.304L1209.76 247.299C1208.75 246.747 1207.49 246.933 1206.7 247.769C1203.62 251.035 1202.29 254.867 1201.8 258.325H1206.25C1207.19 255.114 1208.91 252.782 1210.37 251.262C1211.53 250.065 1211.23 248.105 1209.77 247.305V247.304Z" fill="#F9E8A5"/>
        <path d="M1213.37 246.056C1214.87 246.056 1216.09 244.847 1216.09 243.357C1216.09 241.866 1214.87 240.657 1213.37 240.657C1211.88 240.657 1210.66 241.866 1210.66 243.357C1210.66 244.847 1211.88 246.056 1213.37 246.056Z" fill="#F9E8A5"/>
        <path d="M1245.59 258.676H1242.98C1243.78 257.835 1244.63 256.652 1245.25 255.04C1245.47 256.193 1245.59 257.402 1245.59 258.676H1245.59Z" fill="#CCB552"/>
        <path d="M1246.93 162.977C1246.93 179.943 1224.89 185.482 1224.89 202.799V211.82C1223 208.881 1221.78 206.117 1221.78 203.5C1221.78 192.948 1241.58 180.005 1245.49 162.977H1246.93V162.977Z" fill="#CCB552"/>
        <path d="M1254.59 258.325H1190.41C1189.08 258.325 1188 259.401 1188 260.728V265.597C1188 266.924 1189.08 268 1190.41 268H1254.59C1255.92 268 1257 266.924 1257 265.597V260.728C1257 259.401 1255.92 258.325 1254.59 258.325Z" fill="#7F0EAC"/>
        <path d="M1257 260.727V265.597C1257 266.924 1255.92 268 1254.59 268H1233.58C1243.28 267.507 1249.58 265.514 1245.52 258.325H1254.59C1255.92 258.325 1257 259.401 1257 260.728L1257 260.727Z" fill="#3E0B56"/>
        <path d="M1257 146.272V141.403C1257 140.076 1255.92 139 1254.59 139H1233.58C1243.28 139.494 1249.58 141.487 1245.52 148.675H1254.59C1255.92 148.675 1257 147.599 1257 146.272H1257Z" fill="#3E0B56"/>
        <path d="M1191.06 140.332H1191.06C1190.19 140.332 1189.48 141.038 1189.48 141.909V144.924C1189.48 145.796 1190.19 146.502 1191.06 146.502H1191.06C1191.94 146.502 1192.65 145.796 1192.65 144.924V141.909C1192.65 141.038 1191.94 140.332 1191.06 140.332Z" fill="#BC2CFF"/>
        <path d="M1191.06 260.288H1191.06C1190.19 260.288 1189.48 260.994 1189.48 261.865V264.881C1189.48 265.752 1190.19 266.458 1191.06 266.458H1191.06C1191.94 266.458 1192.65 265.752 1192.65 264.881V261.865C1192.65 260.994 1191.94 260.288 1191.06 260.288Z" fill="#BC2CFF"/>
    </g>
    <rect x="756.773" y="35.1924" width="383.299" height="379.833" rx="43.5" transform="rotate(45 756.773 35.1924)" stroke="url(#paint3_linear_538_570)" stroke-width="13"/>
    <rect x="303.66" y="9.19239" width="420.23" height="416.44" rx="43.5" transform="rotate(45 303.66 9.19239)" stroke="url(#paint4_linear_538_570)" stroke-width="13"/>
    <defs>
        <linearGradient id="paint0_linear_538_570" x1="520.275" y1="0" x2="520.275" y2="429.44" gradientUnits="userSpaceOnUse">
            <stop stop-color="#168ECD"/>
            <stop offset="1" stop-color="#8705AB"/>
        </linearGradient>
        <linearGradient id="paint1_linear_538_570" x1="954.923" y1="26" x2="954.923" y2="418.833" gradientUnits="userSpaceOnUse">
            <stop stop-color="#168ECD"/>
            <stop offset="1" stop-color="#8705AB"/>
        </linearGradient>
        <linearGradient id="paint2_linear_538_570" x1="1438.27" y1="0" x2="1438.27" y2="429.44" gradientUnits="userSpaceOnUse">
            <stop stop-color="#168ECD"/>
            <stop offset="1" stop-color="#8705AB"/>
        </linearGradient>
        <linearGradient id="paint3_linear_538_570" x1="954.923" y1="26" x2="954.923" y2="418.833" gradientUnits="userSpaceOnUse">
            <stop stop-color="#168ECD"/>
            <stop offset="1" stop-color="#8705AB"/>
        </linearGradient>
        <linearGradient id="paint4_linear_538_570" x1="520.275" y1="0" x2="520.275" y2="429.44" gradientUnits="userSpaceOnUse">
            <stop stop-color="#168ECD"/>
            <stop offset="1" stop-color="#8705AB"/>
        </linearGradient>
        <clipPath id="clip0_538_570">
            <rect width="69" height="129" fill="white" transform="translate(270 139)"/>
        </clipPath>
        <clipPath id="clip1_538_570">
            <rect width="69" height="129" fill="white" transform="translate(723 139)"/>
        </clipPath>
        <clipPath id="clip2_538_570">
            <rect width="69" height="129" fill="white" transform="translate(1188 139)"/>
        </clipPath>
    </defs>
</svg>
