<svg width="675" height="196" viewBox="0 0 675 196" fill="none" xmlns="http://www.w3.org/2000/svg">
    <g clip-path="url(#clip0_0_1)">
        <path d="M567.637 59.9432C567.637 59.9432 566.675 46.2949 581.285 46.2949C595.896 46.2949 593.879 59.9432 593.879 59.9432" stroke="url(#paint0_linear_0_1)" stroke-width="6" stroke-miterlimit="10" stroke-linecap="round"/>
        <path d="M568.638 127.807C568.638 127.807 586.135 114.818 586.728 114.357C587.321 113.895 586.398 113.522 586.398 113.522H525.796L522.427 130.201C521.812 133.228 524.127 136.057 527.215 136.057H568.348C568.348 136.057 566.539 134.084 566.539 131.717C566.539 129.349 568.643 127.807 568.643 127.807H568.638Z" fill="url(#paint1_linear_0_1)"/>
        <path d="M599.357 64.9072C599.225 67.0376 597.419 68.6718 595.285 68.6718H564.346C563.152 68.6718 561.988 69.1769 561.236 70.1082C560.604 70.8989 560.059 72.0717 560.059 73.7937C560.059 73.9606 560.059 74.1319 560.072 74.2901C560.2 76.4425 561.996 78.1074 564.149 78.1074H574.88C576.62 78.1074 578.188 79.2056 578.741 80.8572C578.974 81.5557 579.132 82.4079 579.132 83.4314V83.5456C579.102 85.7727 577.27 87.543 575.047 87.543H557.107C555.258 87.543 553.602 88.7817 553.163 90.5784C553.026 91.1319 552.938 91.7556 552.938 92.4673C552.938 92.7879 552.956 93.091 552.987 93.3766C553.211 95.4368 554.972 96.983 557.046 96.983H614.217C616.032 96.983 617.639 98.1778 618.14 99.9218C618.342 100.629 618.478 101.459 618.478 102.404C618.478 105.918 616.774 106.919 616.774 106.919L599.361 118.363C599.273 118.42 599.19 118.472 599.097 118.525C598.658 118.767 597.147 119.667 599.01 119.667H632.684L632.988 119.874L623.113 70.9692C621.817 64.5557 616.181 59.9478 609.64 59.9478H597.639C597.639 59.9478 599.379 61.6873 599.379 64.4986C599.379 64.6392 599.379 64.7798 599.361 64.9116L599.357 64.9072Z" fill="url(#paint2_linear_0_1)"/>
        <g filter="url(#filter0_d_0_1)">
            <path d="M632.865 129.401L632.36 126.911L632.022 126.678H594.393C592.311 126.678 593.998 125.672 594.49 125.4C594.591 125.343 594.688 125.285 594.784 125.22L614.244 112.432C614.244 112.432 616.151 111.312 616.151 107.385C616.151 106.331 615.997 105.404 615.773 104.613C615.215 102.663 613.418 101.327 611.389 101.327H547.501C545.186 101.327 543.218 99.6011 542.967 97.2993C542.932 96.983 542.915 96.6448 542.915 96.2846C542.915 95.4939 543.011 94.7954 543.165 94.176C543.657 92.1685 545.507 90.7848 547.575 90.7848H567.624C570.106 90.7848 572.153 88.8037 572.188 86.3174V86.19C572.188 85.0479 572.012 84.0947 571.753 83.3128C571.138 81.4678 569.381 80.2422 567.439 80.2422H555.447C553.044 80.2422 551.033 78.3797 550.892 75.9769C550.883 75.8012 550.879 75.6123 550.879 75.4234C550.879 73.4994 551.485 72.1859 552.192 71.303C553.031 70.2619 554.332 69.6996 555.667 69.6996H590.238C592.623 69.6996 594.644 67.8723 594.789 65.4914C594.802 65.342 594.806 65.1883 594.806 65.0302C594.806 61.8893 592.86 59.9434 592.86 59.9434H549.42C542.111 59.9434 535.816 65.096 534.366 72.2606L526.657 110.438H595.553C595.553 110.438 596.599 110.864 595.926 111.387C595.254 111.91 575.364 126.678 575.364 126.678C575.364 126.678 572.974 128.435 572.974 131.123C572.974 133.812 575.03 136.056 575.03 136.056H627.422C630.932 136.056 633.559 132.841 632.865 129.401Z" fill="url(#paint3_linear_0_1)"/>
        </g>
        <path d="M577.002 0C522.875 0 479 43.8748 479 98.0022C479 152.13 522.875 196 577.002 196C631.13 196 675 152.125 675 98.0022C675 43.8792 631.125 0 577.002 0ZM577.002 193.852C524.065 193.852 481.152 150.935 481.152 98.0022C481.152 45.0696 524.065 2.14805 577.002 2.14805C629.939 2.14805 672.852 45.0652 672.852 98.0022C672.852 150.939 629.935 193.852 577.002 193.852Z" fill="url(#paint4_linear_0_1)"/>
    </g>
    <path d="M19.88 48.296C24.8293 48.296 29.864 48.296 34.984 48.296C40.1893 48.296 45.2667 48.424 50.216 48.68C55.2507 48.8507 59.8587 49.192 64.04 49.704L62.888 66.856H29.864C27.9867 66.856 26.536 67.368 25.512 68.392C24.488 69.3307 23.976 70.6533 23.976 72.36V113.32C23.976 115.027 24.488 116.392 25.512 117.416C26.536 118.355 27.9867 118.824 29.864 118.824H62.888L64.04 135.976C59.8587 136.403 55.2507 136.744 50.216 137C45.2667 137.171 40.1893 137.256 34.984 137.256C29.864 137.341 24.8293 137.384 19.88 137.384C13.992 137.384 9.21333 135.635 5.544 132.136C1.87467 128.637 0.0400004 124.072 0.0400004 118.44V67.24C0.0400004 61.5227 1.87467 56.9573 5.544 53.544C9.21333 50.0453 13.992 48.296 19.88 48.296ZM2.344 83.368H58.28V99.624H2.344V83.368ZM104.73 88.616L131.61 88.744L99.482 121.768L72.602 121.64L104.73 88.616ZM132.25 121.64V137H72.602V121.64H132.25ZM131.61 73.384V88.744H73.242V73.384H131.61ZM175.793 46.888C180.316 46.9733 185.308 47.272 190.769 47.784C196.23 48.296 201.521 49.3627 206.641 50.984L205.105 66.6C201.35 66.5147 196.742 66.4293 191.281 66.344C185.905 66.2587 180.614 66.216 175.409 66.216C173.446 66.216 171.782 66.3013 170.417 66.472C169.137 66.5573 168.07 66.8133 167.217 67.24C166.449 67.5813 165.894 68.136 165.553 68.904C165.212 69.5867 165.041 70.568 165.041 71.848C165.041 73.896 165.638 75.4747 166.833 76.584C168.113 77.608 170.332 78.6747 173.489 79.784L190.001 85.928C197.169 88.744 202.161 92.2427 204.977 96.424C207.878 100.52 209.329 105.853 209.329 112.424C209.329 117.373 208.732 121.555 207.537 124.968C206.342 128.381 204.38 131.069 201.649 133.032C199.004 134.995 195.462 136.445 191.025 137.384C186.673 138.323 181.254 138.792 174.769 138.792C171.782 138.792 167.388 138.579 161.585 138.152C155.868 137.725 149.382 136.616 142.129 134.824L143.537 117.928C148.657 118.013 153.18 118.141 157.105 118.312C161.116 118.397 164.572 118.483 167.473 118.568C170.46 118.568 172.806 118.568 174.513 118.568C177.414 118.568 179.633 118.44 181.169 118.184C182.705 117.843 183.772 117.288 184.369 116.52C184.966 115.667 185.265 114.472 185.265 112.936C185.265 111.485 185.052 110.333 184.625 109.48C184.198 108.627 183.43 107.901 182.321 107.304C181.297 106.707 179.889 106.109 178.097 105.512L160.433 98.472C153.436 95.5707 148.486 92.1147 145.585 88.104C142.684 84.0933 141.233 78.8453 141.233 72.36C141.233 67.24 141.873 63.0587 143.153 59.816C144.433 56.5733 146.396 54.0133 149.041 52.136C151.772 50.2587 155.356 48.936 159.793 48.168C164.23 47.3147 169.564 46.888 175.793 46.888ZM267.01 71.592C279.298 71.592 285.442 77.5227 285.442 89.384V137H262.146V96.68C262.146 94.632 261.719 93.224 260.866 92.456C260.098 91.688 258.69 91.304 256.642 91.304C254.509 91.304 252.205 91.6027 249.73 92.2C247.341 92.7973 244.311 93.9067 240.642 95.528L238.338 84.776C242.946 80.424 247.682 77.1387 252.546 74.92C257.495 72.7013 262.317 71.592 267.01 71.592ZM243.074 47.4L243.202 67.752C243.202 71.336 242.946 74.792 242.434 78.12C241.922 81.448 241.367 84.136 240.77 86.184L243.074 87.848V137H219.778V47.4H243.074ZM330.153 71.592C338.516 71.592 345.214 72.7013 350.249 74.92C355.284 77.0533 358.91 80.5947 361.129 85.544C363.348 90.408 364.457 96.9787 364.457 105.256C364.457 113.448 363.348 119.976 361.129 124.84C358.91 129.619 355.284 133.117 350.249 135.336C345.214 137.469 338.516 138.536 330.153 138.536C321.79 138.536 315.092 137.469 310.057 135.336C305.022 133.117 301.396 129.619 299.177 124.84C296.958 119.976 295.849 113.448 295.849 105.256C295.849 96.9787 296.958 90.408 299.177 85.544C301.396 80.5947 305.022 77.0533 310.057 74.92C315.092 72.7013 321.79 71.592 330.153 71.592ZM330.153 87.848C327.508 87.848 325.46 88.3173 324.009 89.256C322.644 90.1947 321.662 91.9013 321.065 94.376C320.468 96.8507 320.169 100.477 320.169 105.256C320.169 109.949 320.468 113.533 321.065 116.008C321.662 118.483 322.644 120.189 324.009 121.128C325.46 121.981 327.508 122.408 330.153 122.408C332.798 122.408 334.846 121.981 336.297 121.128C337.748 120.189 338.729 118.483 339.241 116.008C339.838 113.533 340.137 109.949 340.137 105.256C340.137 100.477 339.838 96.8507 339.241 94.376C338.729 91.9013 337.748 90.1947 336.297 89.256C334.846 88.3173 332.798 87.848 330.153 87.848ZM419.7 71.848C427.892 71.848 433.695 74.792 437.108 80.68C440.607 86.568 442.356 94.9733 442.356 105.896C442.356 114.515 441.417 121.213 439.54 125.992C437.748 130.685 435.06 134.013 431.476 135.976C427.977 137.853 423.583 138.792 418.292 138.792C413.599 138.792 409.161 138.109 404.98 136.744C400.799 135.293 397.3 132.947 394.484 129.704L396.02 120.104C398.239 120.787 400.287 121.469 402.164 122.152C404.127 122.749 406.516 123.048 409.332 123.048C411.551 123.048 413.3 122.664 414.58 121.896C415.945 121.043 416.927 119.421 417.524 117.032C418.121 114.557 418.42 110.888 418.42 106.024C418.42 101.16 418.121 97.4907 417.524 95.016C416.927 92.5413 415.988 90.92 414.708 90.152C413.513 89.384 411.935 89 409.972 89C407.412 89 405.279 89.384 403.572 90.152C401.865 90.8347 399.945 91.816 397.812 93.096L394.74 83.624C396.105 81.4053 398.068 79.4 400.628 77.608C403.188 75.816 406.089 74.408 409.332 73.384C412.66 72.36 416.116 71.848 419.7 71.848ZM393.716 73.384L395.892 84.136L398.324 86.056V127.912L397.556 129.448C397.812 132.093 397.983 134.909 398.068 137.896C398.239 140.968 398.324 143.912 398.324 146.728V160.68H375.028V73.384H393.716Z" fill="url(#paint5_linear_0_1)"/>
    <defs>
        <filter id="filter0_d_0_1" x="521.657" y="54.9434" width="126.319" height="96.1133" filterUnits="userSpaceOnUse" color-interpolation-filters="sRGB">
            <feFlood flood-opacity="0" result="BackgroundImageFix"/>
            <feColorMatrix in="SourceAlpha" type="matrix" values="0 0 0 0 0 0 0 0 0 0 0 0 0 0 0 0 0 0 127 0" result="hardAlpha"/>
            <feOffset dx="5" dy="5"/>
            <feGaussianBlur stdDeviation="5"/>
            <feColorMatrix type="matrix" values="0 0 0 0 0 0 0 0 0 0 0 0 0 0 0 0 0 0 0.6 0"/>
            <feBlend mode="normal" in2="BackgroundImageFix" result="effect1_dropShadow_0_1"/>
            <feBlend mode="normal" in="SourceGraphic" in2="effect1_dropShadow_0_1" result="shape"/>
        </filter>
        <linearGradient id="paint0_linear_0_1" x1="566.306" y1="53.1169" x2="595.294" y2="53.1169" gradientUnits="userSpaceOnUse">
            <stop stop-color="#5571A1"/>
            <stop offset="0.15" stop-color="#7C94C0"/>
            <stop offset="0.4" stop-color="#CCDCFF"/>
            <stop offset="0.41" stop-color="#CEDDFF"/>
            <stop offset="0.54" stop-color="#E9F0FF"/>
            <stop offset="0.66" stop-color="#F9FBFF"/>
            <stop offset="0.75" stop-color="white"/>
        </linearGradient>
        <linearGradient id="paint1_linear_0_1" x1="528.967" y1="135.754" x2="584.224" y2="102.285" gradientUnits="userSpaceOnUse">
            <stop stop-color="#5571A1"/>
            <stop offset="0.15" stop-color="#7C94C0"/>
            <stop offset="0.4" stop-color="#CCDCFF"/>
            <stop offset="0.41" stop-color="#CEDDFF"/>
            <stop offset="0.54" stop-color="#E9F0FF"/>
            <stop offset="0.66" stop-color="#F9FBFF"/>
            <stop offset="0.75" stop-color="white"/>
        </linearGradient>
        <linearGradient id="paint2_linear_0_1" x1="552.934" y1="89.9063" x2="632.979" y2="89.9063" gradientUnits="userSpaceOnUse">
            <stop stop-color="#5571A1"/>
            <stop offset="0.15" stop-color="#7C94C0"/>
            <stop offset="0.4" stop-color="#CCDCFF"/>
            <stop offset="0.41" stop-color="#CEDDFF"/>
            <stop offset="0.54" stop-color="#E9F0FF"/>
            <stop offset="0.66" stop-color="#F9FBFF"/>
            <stop offset="0.75" stop-color="white"/>
        </linearGradient>
        <linearGradient id="paint3_linear_0_1" x1="543.89" y1="124.003" x2="634.965" y2="69.1506" gradientUnits="userSpaceOnUse">
            <stop stop-color="#8C00AA"/>
            <stop offset="0.03" stop-color="#9009AD"/>
            <stop offset="0.07" stop-color="#9C23B5"/>
            <stop offset="0.13" stop-color="#AF4EC4"/>
            <stop offset="0.2" stop-color="#CA89D7"/>
            <stop offset="0.28" stop-color="#EBD4F0"/>
            <stop offset="0.32" stop-color="white"/>
            <stop offset="0.35" stop-color="#DCF2F9"/>
            <stop offset="0.4" stop-color="#A3DDEF"/>
            <stop offset="0.45" stop-color="#71CBE7"/>
            <stop offset="0.5" stop-color="#48BDE0"/>
            <stop offset="0.55" stop-color="#28B1DA"/>
            <stop offset="0.59" stop-color="#12A9D7"/>
            <stop offset="0.64" stop-color="#04A4D4"/>
            <stop offset="0.68" stop-color="#00A3D4"/>
        </linearGradient>
        <linearGradient id="paint4_linear_0_1" x1="508.761" y1="139.101" x2="724.133" y2="9.3873" gradientUnits="userSpaceOnUse">
            <stop stop-color="#8C00AA"/>
            <stop offset="0.03" stop-color="#9009AD"/>
            <stop offset="0.07" stop-color="#9C23B5"/>
            <stop offset="0.13" stop-color="#AF4EC4"/>
            <stop offset="0.2" stop-color="#CA89D7"/>
            <stop offset="0.28" stop-color="#EBD4F0"/>
            <stop offset="0.32" stop-color="white"/>
            <stop offset="0.35" stop-color="#DCF2F9"/>
            <stop offset="0.4" stop-color="#A3DDEF"/>
            <stop offset="0.45" stop-color="#71CBE7"/>
            <stop offset="0.5" stop-color="#48BDE0"/>
            <stop offset="0.55" stop-color="#28B1DA"/>
            <stop offset="0.59" stop-color="#12A9D7"/>
            <stop offset="0.64" stop-color="#04A4D4"/>
            <stop offset="0.68" stop-color="#00A3D4"/>
        </linearGradient>
        <linearGradient id="paint5_linear_0_1" x1="-7" y1="146.358" x2="480.126" y2="73.3713" gradientUnits="userSpaceOnUse">
            <stop stop-color="#9AACCC"/>
            <stop offset="1" stop-color="white"/>
        </linearGradient>
        <clipPath id="clip0_0_1">
            <rect width="196" height="196" fill="white" transform="translate(479)"/>
        </clipPath>
    </defs>
</svg>
