<svg width="783" height="779" viewBox="0 0 783 779" fill="none" xmlns="http://www.w3.org/2000/svg">
    <g clip-path="url(#clip0_509_601)">
        <path d="M684.927 669.499C664.798 690.365 646.788 702.632 632.999 711.893C498.517 802.201 344.788 776.173 297.257 767.275C220.574 752.922 155.844 742.794 100.229 692.262C-26.147 577.436 -20.0004 337.898 76.5678 189.513C88.0175 171.917 184.437 28.178 338.5 7.92449C342.268 7.43043 345.08 7.14691 347.543 6.88585C371.376 4.3482 519.065 -9.04465 639.492 92.4221C656.731 106.946 684.472 133.145 710.197 173.105C804.26 319.208 804.558 545.491 684.933 669.502L684.927 669.499Z" fill="url(#paint0_linear_509_601)"/>
        <path d="M11.5956 250.004C11.2301 250.004 10.8842 249.791 10.7324 249.434C10.2375 248.278 9.75949 247.113 9.29835 245.939C9.10715 245.457 9.34615 244.912 9.82978 244.724C10.3106 244.536 10.8589 244.772 11.0473 245.254C11.5028 246.411 11.9752 247.562 12.4616 248.702C12.6641 249.179 12.4419 249.729 11.9639 249.931C11.843 249.982 11.7193 250.007 11.5956 250.007V250.004Z" fill="#91B3FA"/>
        <path d="M6.30124 235.227C5.89353 235.227 5.51956 234.961 5.39866 234.551C4.70696 232.187 4.0743 229.779 3.51757 227.387C3.39947 226.882 3.71439 226.379 4.22052 226.261C4.72664 226.141 5.22995 226.458 5.34804 226.963C5.89634 229.321 6.52337 231.696 7.20383 234.026C7.35004 234.523 7.06324 235.045 6.56555 235.188C6.47839 235.213 6.38841 235.224 6.30124 235.224V235.227ZM2.24101 216.363C1.77988 216.363 1.37779 216.024 1.31031 215.555C0.970083 213.124 0.691715 210.648 0.483642 208.195C0.438654 207.678 0.823869 207.223 1.34124 207.181C1.85017 207.133 2.31412 207.521 2.3563 208.037C2.56156 210.457 2.83711 212.899 3.17172 215.297C3.24482 215.81 2.88491 216.285 2.37036 216.355C2.32537 216.36 2.28319 216.363 2.2382 216.363H2.24101ZM0.939153 197.115H0.936341C0.418971 197.115 -0.00279782 196.691 1.39778e-05 196.174C0.00844936 193.721 0.0871796 191.231 0.230581 188.775C0.258699 188.258 0.68328 187.865 1.22314 187.893C1.74051 187.924 2.13698 188.368 2.10605 188.884C1.96546 191.307 1.88954 193.763 1.87829 196.183C1.87829 196.699 1.45652 197.118 0.939153 197.118V197.115ZM2.40129 177.886C2.3563 177.886 2.3085 177.883 2.2607 177.875C1.74614 177.799 1.39466 177.322 1.47058 176.808C1.83611 174.374 2.27194 171.921 2.76963 169.518C2.87367 169.01 3.36854 168.684 3.88029 168.788C4.38922 168.895 4.71539 169.389 4.61135 169.897C4.11929 172.266 3.68909 174.686 3.33199 177.083C3.26169 177.549 2.86242 177.883 2.4041 177.883L2.40129 177.886ZM6.63866 159.067C6.54868 159.067 6.45589 159.053 6.36591 159.028C5.86823 158.876 5.58986 158.354 5.73888 157.857C6.45308 155.507 7.24319 153.141 8.08954 150.819C8.26669 150.331 8.80655 150.084 9.2958 150.261C9.78224 150.438 10.0353 150.977 9.85535 151.465C9.02025 153.753 8.24138 156.088 7.53843 158.404C7.41471 158.809 7.04356 159.07 6.63866 159.07V159.067ZM13.5754 141.048C13.4404 141.048 13.3054 141.02 13.1761 140.958C12.7065 140.736 12.5041 140.178 12.7262 139.709C13.7778 137.48 14.9025 135.251 16.0722 133.09C16.3197 132.635 16.8905 132.461 17.346 132.711C17.8043 132.958 17.973 133.525 17.7256 133.982C16.5727 136.113 15.4621 138.308 14.4273 140.509C14.2671 140.849 13.9296 141.048 13.5754 141.048ZM23.0483 124.227C22.8711 124.227 22.6912 124.177 22.5309 124.073C22.0979 123.787 21.9798 123.206 22.2666 122.773C23.6247 120.724 25.0587 118.683 26.5293 116.71C26.8386 116.295 27.4291 116.207 27.8452 116.516C28.2613 116.825 28.3485 117.415 28.0392 117.83C26.5883 119.778 25.174 121.791 23.8356 123.809C23.6556 124.082 23.3548 124.23 23.0511 124.23L23.0483 124.227ZM34.8466 108.945C34.6244 108.945 34.3995 108.867 34.2195 108.707C33.8315 108.362 33.7978 107.769 34.1436 107.382C35.7801 105.552 37.4925 103.738 39.2302 101.995C39.5957 101.63 40.1918 101.627 40.5601 101.995C40.9285 102.36 40.9285 102.955 40.5601 103.323C38.8421 105.044 37.155 106.832 35.5411 108.637C35.3555 108.844 35.0968 108.951 34.8409 108.951L34.8466 108.945ZM48.7143 95.5133C48.4444 95.5133 48.1801 95.401 47.9945 95.1792C47.6599 94.7834 47.7133 94.1911 48.1098 93.8571C49.9993 92.2738 51.9535 90.7243 53.9161 89.2562C54.3323 88.9446 54.92 89.0288 55.2321 89.4443C55.5442 89.8597 55.4598 90.4464 55.0437 90.758C53.1092 92.2065 51.1831 93.7307 49.3161 95.2943C49.1389 95.4431 48.9252 95.5133 48.7143 95.5133ZM64.3676 84.2146C64.0527 84.2146 63.7462 84.0574 63.5662 83.771C63.2935 83.3303 63.4284 82.752 63.8699 82.4797C65.9619 81.1885 68.1185 79.9393 70.278 78.7659C70.7335 78.5189 71.3043 78.6873 71.5517 79.1421C71.7991 79.5968 71.6304 80.1667 71.1749 80.4137C69.0436 81.5702 66.9207 82.8026 64.8596 84.0742C64.705 84.1696 64.5335 84.2146 64.3648 84.2146H64.3676ZM81.4858 75.2963C81.1202 75.2963 80.7744 75.0857 80.6226 74.7292C80.4173 74.2548 80.6366 73.7018 81.1118 73.4969C83.3669 72.5228 85.6838 71.5993 87.9979 70.7459C88.4843 70.5663 89.0242 70.8133 89.2042 71.3017C89.3841 71.7874 89.1339 72.3263 88.6474 72.506C86.3642 73.3453 84.0783 74.2576 81.8569 75.2177C81.736 75.271 81.6095 75.2935 81.4858 75.2935V75.2963ZM182.932 73.4211C182.82 73.4211 182.702 73.4015 182.592 73.3566C180.329 72.4751 178.009 71.647 175.706 70.8947C175.211 70.7347 174.944 70.2041 175.104 69.7129C175.265 69.2216 175.799 68.9465 176.288 69.1122C178.628 69.8757 180.975 70.715 183.275 71.6105C183.759 71.7986 183.998 72.3432 183.81 72.826C183.664 73.1965 183.309 73.4239 182.935 73.4239L182.932 73.4211ZM99.7287 68.9493C99.3125 68.9493 98.9358 68.6742 98.8233 68.256C98.6883 67.7535 98.9864 67.2398 99.4869 67.1051C101.868 66.4678 104.295 65.8868 106.702 65.3843C107.208 65.2776 107.709 65.6004 107.815 66.1085C107.922 66.6138 107.596 67.1135 107.09 67.2202C104.72 67.717 102.327 68.2897 99.9789 68.9185C99.8974 68.9409 99.8159 68.9493 99.7343 68.9493H99.7287ZM164.465 67.7423C164.394 67.7423 164.324 67.7339 164.254 67.7198C161.883 67.178 159.471 66.6952 157.081 66.2854C156.569 66.1984 156.226 65.7127 156.313 65.2018C156.4 64.6909 156.887 64.3485 157.399 64.4355C159.822 64.8509 162.269 65.3394 164.673 65.8924C165.179 66.0075 165.494 66.5128 165.378 67.0152C165.277 67.4503 164.892 67.7423 164.465 67.7423ZM118.7 65.3113C118.23 65.3113 117.825 64.9604 117.766 64.4832C117.704 63.9695 118.073 63.5007 118.59 63.4417C121.031 63.1554 123.516 62.9308 125.977 62.7736C126.483 62.7484 126.941 63.133 126.975 63.6495C127.009 64.166 126.615 64.6123 126.098 64.646C123.671 64.8004 121.219 65.0194 118.812 65.3057C118.776 65.3113 118.739 65.3113 118.703 65.3113H118.7ZM145.364 64.806C145.339 64.806 145.313 64.806 145.288 64.806C142.876 64.6123 140.415 64.4832 137.98 64.4214C137.463 64.4074 137.052 63.9779 137.064 63.4586C137.075 62.9393 137.491 62.5266 138.028 62.5435C140.497 62.6052 142.991 62.7372 145.437 62.9337C145.955 62.9758 146.34 63.4277 146.298 63.9442C146.258 64.4355 145.845 64.806 145.361 64.806H145.364Z" fill="#91B3FA"/>
        <path d="M197.292 80.0182C197.143 80.0182 196.991 79.9817 196.851 79.9087C195.754 79.3248 194.649 78.755 193.536 78.2019C193.072 77.9718 192.883 77.4075 193.114 76.9444C193.345 76.4812 193.907 76.2903 194.374 76.5233C195.501 77.0847 196.623 77.663 197.734 78.2553C198.192 78.4995 198.366 79.0666 198.119 79.5241C197.95 79.8413 197.624 80.021 197.29 80.021L197.292 80.0182Z" fill="#91B3FA"/>
        <path d="M262.509 159.578C262.104 159.578 261.73 159.314 261.609 158.907C261.252 157.714 260.881 156.529 260.493 155.353C260.333 154.859 260.6 154.331 261.092 154.169C261.589 154.008 262.115 154.275 262.278 154.766C262.672 155.962 263.049 157.161 263.409 158.371C263.558 158.868 263.274 159.39 262.776 159.536C262.686 159.561 262.596 159.575 262.509 159.575V159.578Z" fill="#91B3FA"/>
        <path d="M140.072 330.945C139.572 330.945 139.155 330.552 139.133 330.047C139.11 329.53 139.513 329.092 140.03 329.067L140.904 329.028C143.154 328.918 145.431 328.75 147.672 328.531C148.19 328.483 148.651 328.856 148.701 329.373C148.752 329.889 148.375 330.347 147.858 330.4C145.586 330.625 143.278 330.793 140.994 330.906L140.111 330.945C140.111 330.945 140.083 330.945 140.069 330.945H140.072ZM127.54 330.889C127.523 330.889 127.506 330.889 127.492 330.889C124.908 330.757 122.302 330.549 119.748 330.268C119.234 330.212 118.86 329.749 118.916 329.235C118.972 328.719 119.434 328.343 119.951 328.405C122.47 328.68 125.04 328.885 127.588 329.014C128.105 329.039 128.504 329.482 128.479 329.999C128.454 330.501 128.038 330.889 127.54 330.889ZM160.162 328.595C159.721 328.595 159.327 328.284 159.24 327.837C159.142 327.329 159.473 326.835 159.982 326.737C162.482 326.251 164.996 325.687 167.453 325.061C167.954 324.929 168.468 325.235 168.595 325.738C168.721 326.24 168.421 326.751 167.917 326.877C165.426 327.515 162.876 328.084 160.342 328.579C160.28 328.59 160.221 328.595 160.162 328.595ZM107.467 328.332C107.405 328.332 107.34 328.326 107.275 328.312C104.75 327.793 102.206 327.192 99.7144 326.527C99.2139 326.392 98.9159 325.878 99.0508 325.378C99.1858 324.879 99.7004 324.581 100.201 324.716C102.658 325.373 105.164 325.965 107.652 326.476C108.161 326.58 108.487 327.077 108.383 327.585C108.29 328.028 107.9 328.334 107.464 328.334L107.467 328.332ZM179.668 323.242C179.283 323.242 178.92 323.004 178.782 322.622C178.608 322.133 178.861 321.597 179.35 321.42C181.746 320.564 184.144 319.624 186.481 318.63C186.959 318.428 187.51 318.65 187.712 319.127C187.915 319.604 187.693 320.154 187.215 320.356C184.847 321.364 182.415 322.316 179.985 323.186C179.881 323.223 179.775 323.242 179.668 323.242ZM88.0174 322.762C87.9077 322.762 87.798 322.742 87.6884 322.703C85.2702 321.805 82.8465 320.825 80.4874 319.789C80.0122 319.582 79.7957 319.029 80.0066 318.554C80.2146 318.08 80.7686 317.864 81.2437 318.074C83.5691 319.093 85.9591 320.062 88.3435 320.946C88.83 321.126 89.0774 321.667 88.8974 322.153C88.7569 322.529 88.3969 322.765 88.0174 322.765V322.762ZM198.13 314.992C197.795 314.992 197.472 314.815 197.303 314.501C197.056 314.046 197.225 313.476 197.68 313.229C199.907 312.022 202.131 310.734 204.293 309.395C204.735 309.122 205.314 309.257 205.587 309.698C205.86 310.138 205.725 310.717 205.283 310.989C203.09 312.348 200.832 313.656 198.574 314.877C198.431 314.953 198.279 314.989 198.127 314.989L198.13 314.992ZM215.119 304.047C214.835 304.047 214.554 303.918 214.368 303.676C214.053 303.264 214.135 302.674 214.548 302.363C216.573 300.83 218.58 299.219 220.512 297.571C220.906 297.234 221.502 297.282 221.836 297.675C222.174 298.071 222.126 298.663 221.732 298.997C219.772 300.667 217.737 302.301 215.684 303.856C215.515 303.985 215.313 304.047 215.116 304.047H215.119ZM230.266 290.665C230.03 290.665 229.794 290.578 229.611 290.402C229.237 290.039 229.228 289.447 229.591 289.074C231.368 287.246 233.111 285.351 234.768 283.44C235.108 283.047 235.704 283.005 236.092 283.344C236.486 283.684 236.528 284.276 236.188 284.667C234.506 286.606 232.74 288.529 230.938 290.379C230.752 290.57 230.508 290.665 230.263 290.665H230.266ZM243.231 275.162C243.043 275.162 242.852 275.105 242.686 274.988C242.264 274.687 242.165 274.1 242.466 273.679C243.943 271.613 245.382 269.477 246.74 267.33C247.019 266.892 247.601 266.76 248.036 267.038C248.475 267.316 248.607 267.894 248.329 268.332C246.951 270.51 245.495 272.677 243.996 274.771C243.813 275.027 243.524 275.164 243.231 275.164V275.162ZM253.716 257.886C253.573 257.886 253.43 257.856 253.292 257.785C252.831 257.552 252.645 256.988 252.878 256.525C254.026 254.262 255.125 251.932 256.143 249.6C256.351 249.125 256.905 248.909 257.38 249.114C257.855 249.322 258.075 249.875 257.867 250.349C256.835 252.716 255.718 255.076 254.554 257.373C254.388 257.698 254.059 257.886 253.716 257.886ZM261.463 239.222C261.364 239.222 261.266 239.208 261.17 239.174C260.676 239.014 260.408 238.484 260.571 237.989C261.362 235.584 262.095 233.113 262.748 230.643C262.88 230.141 263.395 229.846 263.898 229.975C264.398 230.107 264.699 230.621 264.567 231.123C263.903 233.627 263.161 236.131 262.36 238.573C262.23 238.969 261.862 239.219 261.466 239.219L261.463 239.222ZM266.279 219.594C266.229 219.594 266.175 219.591 266.125 219.58C265.613 219.496 265.267 219.013 265.352 218.502C265.765 216.004 266.111 213.455 266.381 210.929C266.434 210.412 266.892 210.039 267.413 210.095C267.927 210.148 268.304 210.611 268.248 211.125C267.975 213.688 267.623 216.273 267.204 218.808C267.129 219.269 266.729 219.594 266.279 219.594ZM268.054 199.481H268.042C267.525 199.476 267.106 199.052 267.115 198.532C267.12 197.988 267.126 197.44 267.126 196.893C267.126 194.9 267.081 192.879 266.991 190.883C266.968 190.366 267.368 189.926 267.888 189.903C268.411 189.875 268.844 190.279 268.869 190.799C268.959 192.823 269.007 194.872 269.007 196.893C269.007 197.446 269.004 198.002 268.996 198.552C268.99 199.066 268.571 199.478 268.056 199.478L268.054 199.481ZM266.791 179.32C266.33 179.32 265.928 178.981 265.86 178.509C265.512 175.991 265.084 173.453 264.592 170.966C264.491 170.458 264.823 169.964 265.332 169.863C265.838 169.765 266.333 170.093 266.437 170.601C266.935 173.122 267.368 175.696 267.722 178.251C267.792 178.764 267.435 179.236 266.92 179.309C266.878 179.315 266.833 179.318 266.791 179.318V179.32Z" fill="#91B3FA"/>
        <path d="M69.5696 314.262C69.4149 314.262 69.2575 314.226 69.1141 314.145C68.0119 313.533 66.9181 312.901 65.8355 312.258C65.3884 311.994 65.2422 311.419 65.5065 310.972C65.7709 310.526 66.3473 310.38 66.7943 310.644C67.8628 311.278 68.9397 311.899 70.0251 312.502C70.4778 312.755 70.6409 313.325 70.3906 313.78C70.2191 314.088 69.8986 314.262 69.5696 314.262Z" fill="#91B3FA"/>
        <path d="M71.4197 277.573C71.9117 278.047 72.6512 278.159 73.2614 277.851L90.658 269.033C98.4776 273.702 107.101 277.157 116.262 279.145L122.92 297.439C123.154 298.082 123.77 298.503 124.453 298.491L147.853 298.107C148.536 298.096 149.138 297.652 149.351 297.004L155.405 278.499C164.498 276.214 173.001 272.478 180.663 267.554L198.341 275.796C198.96 276.085 199.697 275.95 200.172 275.459L216.446 258.669C216.922 258.178 217.034 257.44 216.725 256.831L207.893 239.463C212.569 231.656 216.03 223.047 218.021 213.901L236.348 207.254C236.992 207.021 237.414 206.406 237.403 205.724L237.017 182.363C237.006 181.681 236.562 181.08 235.912 180.87L217.377 174.826C215.088 165.748 211.346 157.259 206.414 149.609L214.669 131.961C214.959 131.343 214.824 130.608 214.332 130.133L197.515 113.886C197.022 113.411 196.283 113.299 195.676 113.608L178.279 122.425C170.459 117.757 161.836 114.301 152.675 112.314L146.017 94.0168C145.783 93.3739 145.167 92.9529 144.484 92.9641L121.084 93.3487C120.401 93.3599 119.799 93.8034 119.586 94.4519L113.532 112.957C104.439 115.242 95.9357 118.978 88.2736 123.902L70.5958 115.66C69.9772 115.371 69.2405 115.505 68.7653 115.997L52.4907 132.786C52.0155 133.277 51.903 134.016 52.2123 134.622L61.0442 151.99C56.3682 159.796 52.9068 168.406 50.9161 177.552L32.5888 184.199C31.9477 184.432 31.5232 185.047 31.5344 185.729L31.9196 209.09C31.9309 209.772 32.3751 210.373 33.0246 210.586L51.56 216.63C53.8488 225.708 57.5913 234.197 62.5232 241.846L54.2677 259.495C53.9781 260.112 54.1131 260.848 54.6052 261.322L71.4225 277.57L71.4197 277.573Z" fill="#91B3FA"/>
        <path d="M134.471 217.885C124.692 217.885 115.711 211.369 113.043 201.502C109.854 189.709 116.87 177.526 128.682 174.34C140.489 171.154 152.697 178.161 155.889 189.954C159.077 201.746 152.062 213.929 140.25 217.115C138.321 217.635 136.381 217.885 134.471 217.885ZM134.46 176.389C132.793 176.389 131.1 176.606 129.416 177.06C119.105 179.839 112.981 190.476 115.765 200.769C118.548 211.063 129.205 217.177 139.516 214.398C149.827 211.619 155.951 200.983 153.167 190.689C150.839 182.077 142.997 176.389 134.46 176.389Z" fill="#BDD0FB"/>
        <path d="M134.775 253.128C130.965 253.128 127.163 252.757 123.46 252.024L124.008 249.262C127.83 250.02 131.766 250.382 135.686 250.306C138.472 250.262 141.222 250.012 143.922 249.563C143.93 249.557 143.936 249.563 143.944 249.56C143.95 249.554 143.958 249.56 143.967 249.557C155.498 247.637 166.073 242.112 174.351 233.573C184.364 223.243 189.844 209.707 189.844 195.368C189.844 195.062 189.844 194.753 189.835 194.444C189.343 164.447 164.737 140.379 134.794 140.379C134.488 140.379 134.187 140.379 133.878 140.387C103.825 140.881 79.7171 165.447 79.7227 195.343C79.7227 195.646 79.7227 195.949 79.7311 196.252C79.8942 206.218 82.7538 215.93 87.9978 224.346L85.605 225.831C80.091 216.986 77.0852 206.773 76.9137 196.297C76.9081 195.977 76.9053 195.66 76.9053 195.343C76.8997 163.917 102.242 138.094 133.833 137.572C165.752 137.067 192.13 162.541 192.653 194.4C192.658 194.722 192.661 195.048 192.661 195.371C192.661 210.442 186.9 224.672 176.375 235.53C165.626 246.621 151.19 252.869 135.731 253.122C135.413 253.128 135.093 253.13 134.775 253.13V253.128Z" fill="#BDD0FB"/>
        <path d="M231.062 122.594L240.386 116.898C244.961 119.158 249.932 120.707 255.137 121.409L259.669 131.332C259.83 131.68 260.19 131.888 260.572 131.852L273.624 130.6C274.007 130.563 274.322 130.288 274.412 129.918L276.97 119.315C281.947 117.636 286.531 115.172 290.591 112.084L300.831 115.904C301.191 116.039 301.596 115.93 301.838 115.635L310.181 105.535C310.425 105.24 310.453 104.822 310.254 104.496L304.549 95.1876C306.812 90.6204 308.364 85.6574 309.067 80.4614L319.007 75.9363C319.355 75.7763 319.563 75.4142 319.527 75.0352L318.273 62.0045C318.236 61.6227 317.961 61.3083 317.59 61.2185L306.969 58.664C305.288 53.6953 302.819 49.1197 299.726 45.0662L303.553 34.8426C303.688 34.4833 303.578 34.0819 303.283 33.8377L293.166 25.5089C292.871 25.2647 292.452 25.2366 292.126 25.4359L282.802 31.1316C278.227 28.8718 273.256 27.3223 268.051 26.6205L263.519 16.6973C263.359 16.3492 262.996 16.1415 262.616 16.178L249.564 17.4299C249.181 17.4664 248.867 17.7415 248.777 18.1121L246.218 28.7146C241.241 30.3933 236.658 32.858 232.598 35.9458L222.357 32.1253C221.997 31.9906 221.592 32.1 221.35 32.3948L213.008 42.4949C212.763 42.7896 212.735 43.2079 212.935 43.5335L218.64 52.842C216.376 57.4092 214.824 62.3722 214.121 67.5682L204.182 72.0933C203.833 72.2505 203.625 72.6126 203.661 72.9944L204.915 86.0251C204.952 86.4069 205.228 86.7213 205.599 86.8111L216.219 89.3656C217.9 94.3343 220.369 98.9099 223.462 102.963L219.635 113.187C219.5 113.546 219.61 113.948 219.905 114.192L230.022 122.521C230.317 122.765 230.736 122.793 231.062 122.594Z" fill="#91B3FA"/>
        <path d="M261.606 87.0466C256.244 87.0466 251.205 83.7201 249.299 78.3978C248.126 75.119 248.304 71.582 249.797 68.4352C251.29 65.2884 253.919 62.9136 257.203 61.743C260.487 60.5724 264.03 60.7493 267.179 62.2399C270.331 63.7305 272.71 66.3552 273.882 69.6311C276.303 76.3991 272.758 83.8689 265.981 86.2858C264.536 86.8023 263.06 87.0466 261.606 87.0466ZM261.601 63.7922C260.439 63.7922 259.278 63.9915 258.153 64.393C255.578 65.3109 253.517 67.1748 252.347 69.6395C251.177 72.107 251.039 74.8804 251.959 77.449C253.854 82.7516 259.717 85.5251 265.039 83.6331C270.354 81.7383 273.132 75.8798 271.234 70.5771C270.314 68.0086 268.447 65.9481 265.979 64.7803C264.59 64.1235 263.099 63.7922 261.606 63.7922H261.601Z" fill="#BDD0FB"/>
        <path d="M207.71 120.025C207.44 120.025 207.176 119.91 206.988 119.691C206.175 118.725 205.382 117.723 204.623 116.713C204.311 116.297 204.395 115.71 204.811 115.399C205.228 115.09 205.818 115.171 206.127 115.587C206.867 116.569 207.64 117.543 208.43 118.487C208.762 118.885 208.711 119.475 208.315 119.809C208.138 119.958 207.924 120.028 207.713 120.028L207.71 120.025Z" fill="#91B3FA"/>
        <path d="M199.078 107.028C198.737 107.028 198.406 106.843 198.24 106.517C197.124 104.342 196.103 102.071 195.206 99.7659C195.017 99.2831 195.256 98.7385 195.74 98.5532C196.224 98.3652 196.769 98.6038 196.955 99.0866C197.829 101.332 198.822 103.544 199.91 105.661C200.146 106.121 199.963 106.688 199.502 106.924C199.365 106.994 199.218 107.028 199.075 107.028H199.078ZM192.72 88.9865C192.284 88.9865 191.894 88.6805 191.801 88.237C191.303 85.8257 190.929 83.361 190.69 80.9188C190.64 80.4023 191.016 79.9447 191.534 79.8942C192.062 79.8521 192.509 80.2226 192.56 80.7363C192.793 83.1168 193.159 85.5113 193.643 87.8609C193.747 88.3689 193.42 88.863 192.911 88.9697C192.847 88.9837 192.785 88.9893 192.72 88.9893V88.9865ZM191.469 69.9036C191.446 69.9036 191.424 69.9036 191.402 69.9036C190.884 69.8671 190.496 69.418 190.533 68.9015C190.71 66.4536 191.019 63.9834 191.452 61.5552C191.542 61.0471 192.026 60.7018 192.543 60.7973C193.052 60.8871 193.395 61.3755 193.302 61.8864C192.88 64.25 192.58 66.6558 192.405 69.039C192.369 69.5331 191.958 69.9092 191.469 69.9092V69.9036ZM195.448 51.1969C195.341 51.1969 195.234 51.18 195.13 51.1407C194.641 50.9667 194.388 50.4277 194.565 49.9393C195.4 47.6234 196.364 45.3271 197.436 43.1151C197.661 42.6491 198.223 42.4554 198.69 42.6772C199.156 42.9018 199.353 43.4632 199.128 43.9292C198.088 46.0823 197.149 48.3195 196.333 50.5737C196.196 50.9554 195.836 51.194 195.45 51.194L195.448 51.1969ZM204.316 34.253C204.128 34.253 203.939 34.1968 203.773 34.0789C203.352 33.7786 203.25 33.1919 203.551 32.7708C204.977 30.7693 206.523 28.8156 208.149 26.9685C208.494 26.5783 209.088 26.5418 209.476 26.8843C209.867 27.2267 209.903 27.819 209.56 28.2092C207.977 30.0086 206.47 31.909 205.084 33.8572C204.901 34.1154 204.611 34.253 204.316 34.253ZM217.427 20.324C217.152 20.324 216.882 20.2061 216.696 19.9759C216.37 19.5717 216.435 18.9822 216.837 18.6565C218.755 17.1126 220.773 15.6529 222.84 14.3167C223.276 14.036 223.858 14.1595 224.139 14.5946C224.42 15.0297 224.297 15.6108 223.861 15.8915C221.848 17.1912 219.882 18.6116 218.015 20.1163C217.841 20.2566 217.633 20.324 217.425 20.324H217.427ZM233.834 10.4681C233.469 10.4681 233.123 10.2548 232.971 9.90108C232.766 9.42387 232.988 8.87367 233.463 8.66875C234.83 8.08487 236.233 7.53467 237.636 7.03219C238.561 6.70095 239.489 6.39497 240.417 6.10303C240.914 5.94583 241.44 6.22374 241.595 6.71779C241.749 7.21185 241.474 7.73959 240.979 7.89398C240.076 8.1775 239.171 8.47787 238.271 8.79788C236.905 9.28632 235.538 9.82248 234.208 10.3923C234.087 10.4457 233.961 10.4681 233.837 10.4681H233.834ZM252.297 5.36756C251.833 5.36756 251.43 5.02509 251.366 4.5563C251.298 4.04259 251.658 3.57099 252.173 3.50081C254.613 3.17238 257.102 2.97027 259.565 2.90009C260.088 2.88044 260.515 3.29309 260.532 3.81241C260.546 4.32892 260.139 4.76122 259.618 4.77806C257.223 4.84543 254.802 5.04474 252.426 5.36195C252.384 5.36756 252.341 5.37037 252.299 5.37037L252.297 5.36756Z" fill="#91B3FA"/>
        <path d="M275.199 6.08085C275.137 6.08085 275.078 6.07523 275.016 6.0612C273.816 5.82259 272.587 5.61486 271.364 5.44082C270.849 5.36783 270.492 4.89062 270.565 4.37972C270.641 3.86602 271.116 3.51512 271.628 3.5825C272.885 3.76215 274.15 3.9783 275.382 4.22252C275.891 4.32358 276.222 4.81483 276.121 5.32573C276.034 5.77206 275.64 6.08085 275.202 6.08085H275.199Z" fill="#91B3FA"/>
        <path d="M321.186 37.6892C320.873 37.6892 320.567 37.532 320.387 37.2485C319.729 36.1986 319.04 35.16 318.34 34.1635C318.042 33.7396 318.143 33.1557 318.568 32.8553C318.992 32.5578 319.577 32.6588 319.878 33.0827C320.598 34.1073 321.306 35.1712 321.981 36.252C322.257 36.6927 322.122 37.271 321.683 37.5432C321.529 37.6415 321.354 37.6864 321.186 37.6864V37.6892Z" fill="#91B3FA"/>
        <path d="M261.601 145.136C261.109 145.136 260.62 145.13 260.131 145.119C259.61 145.107 259.2 144.678 259.211 144.161C259.222 143.642 259.65 143.229 260.17 143.244C262.529 143.294 264.922 143.221 267.27 143.025C267.77 142.982 268.24 143.367 268.285 143.884C268.327 144.4 267.942 144.852 267.424 144.897C265.501 145.054 263.541 145.136 261.604 145.136H261.601ZM278.871 142.968C278.452 142.968 278.07 142.685 277.963 142.261C277.834 141.759 278.137 141.248 278.641 141.121C280.744 140.585 282.858 139.942 284.925 139.207L285.428 139.024C285.915 138.848 286.455 139.097 286.632 139.586C286.809 140.071 286.559 140.61 286.069 140.787L285.558 140.973C283.438 141.728 281.267 142.39 279.107 142.94C279.029 142.96 278.953 142.968 278.874 142.968H278.871ZM296.355 135.951C296.026 135.951 295.711 135.779 295.537 135.476C295.281 135.024 295.438 134.452 295.891 134.196C297.944 133.034 299.96 131.754 301.88 130.387C302.305 130.086 302.89 130.185 303.19 130.606C303.491 131.027 303.393 131.614 302.971 131.914C301 133.317 298.931 134.634 296.819 135.827C296.673 135.908 296.512 135.948 296.358 135.948L296.355 135.951ZM311.342 124.548C311.1 124.548 310.861 124.455 310.678 124.273C310.31 123.908 310.31 123.313 310.678 122.945C312.343 121.28 313.94 119.506 315.425 117.679C315.751 117.275 316.341 117.213 316.746 117.541C317.148 117.867 317.21 118.459 316.884 118.861C315.357 120.739 313.718 122.561 312.008 124.27C311.825 124.455 311.584 124.545 311.342 124.545V124.548ZM322.735 109.572C322.578 109.572 322.42 109.533 322.274 109.451C321.821 109.196 321.664 108.623 321.92 108.171C323.084 106.122 324.152 103.989 325.103 101.833C325.311 101.358 325.865 101.142 326.34 101.353C326.815 101.56 327.032 102.113 326.821 102.588C325.845 104.803 324.746 106.992 323.553 109.098C323.382 109.401 323.061 109.572 322.735 109.572ZM329.762 92.1143C329.686 92.1143 329.607 92.1059 329.531 92.0863C329.028 91.9599 328.724 91.449 328.851 90.9466C329.43 88.6616 329.897 86.3204 330.24 83.9933C330.316 83.4824 330.783 83.1203 331.306 83.2017C331.817 83.2775 332.174 83.7519 332.098 84.2656C331.747 86.6573 331.266 89.0602 330.673 91.4069C330.563 91.8308 330.181 92.1143 329.762 92.1143ZM331.893 73.4188C331.384 73.4188 330.965 73.0118 330.954 72.5009C330.903 70.1457 330.726 67.768 330.434 65.4325C330.369 64.9188 330.735 64.4472 331.249 64.3854C331.775 64.3265 332.236 64.6858 332.298 65.1995C332.599 67.5996 332.779 70.0418 332.832 72.4616C332.844 72.9781 332.433 73.4076 331.913 73.4188H331.893ZM328.946 54.8384C328.542 54.8384 328.168 54.5773 328.047 54.1703C327.701 53.0193 327.318 51.8572 326.911 50.7175C326.52 49.6283 326.101 48.542 325.665 47.4893C325.468 47.0121 325.693 46.4619 326.174 46.2654C326.652 46.0689 327.203 46.2934 327.4 46.7735C327.847 47.8542 328.277 48.9686 328.679 50.0859C329.098 51.2565 329.489 52.4495 329.846 53.6313C329.995 54.1282 329.714 54.6503 329.216 54.7991C329.126 54.8243 329.036 54.8384 328.946 54.8384Z" fill="#91B3FA"/>
        <path d="M248.49 143.894C248.431 143.894 248.372 143.889 248.312 143.877C247.078 143.642 245.827 143.369 244.595 143.066C244.092 142.943 243.783 142.434 243.909 141.932C244.033 141.429 244.545 141.121 245.045 141.247C246.246 141.542 247.463 141.808 248.667 142.036C249.176 142.134 249.51 142.625 249.415 143.133C249.328 143.583 248.934 143.897 248.492 143.897L248.49 143.894Z" fill="#91B3FA"/>
        <path d="M261.716 106.781C261.224 106.781 260.732 106.77 260.24 106.747C259.45 106.713 258.663 106.649 257.878 106.559L258.204 103.763C260.33 104.01 262.495 104.033 264.64 103.828C264.714 103.819 264.789 103.814 264.865 103.805C272.345 103.033 279.132 99.5917 284.149 94.056C284.464 93.7079 284.773 93.3514 285.074 92.9865C289.581 87.5294 291.985 80.8204 291.985 73.839C291.985 72.8649 291.937 71.8824 291.845 70.8999C290.25 54.335 275.446 42.1549 258.862 43.7437C243.245 45.2427 231.52 58.4138 231.52 73.766C231.52 74.7261 231.565 75.6945 231.661 76.6686C232.187 82.1172 234.175 87.3076 237.408 91.6868L235.139 93.357C231.602 88.5709 229.426 82.8948 228.852 76.9381C228.748 75.8714 228.7 74.8131 228.697 73.7632C228.697 56.9765 241.516 42.5759 258.589 40.9394C276.709 39.1905 292.905 52.5188 294.648 70.6276C294.752 71.7028 294.803 72.7751 294.803 73.8418C294.803 81.4772 292.176 88.8095 287.247 94.7774C281.629 101.576 273.697 105.784 264.91 106.626C263.848 106.727 262.782 106.781 261.713 106.781H261.716Z" fill="#BDD0FB"/>
        <path d="M146.084 570.127C143.702 572.55 144.332 576.581 147.313 578.214C161.003 585.723 195.431 599.352 224.451 567.342C261.612 526.352 352.126 335.099 363.292 285.991C374.458 236.883 416.665 161.223 439.857 152.296C463.049 143.369 390.696 148.445 370.552 148.787C350.411 149.13 335.897 139.167 347.878 134.586C347.878 134.586 286.612 110.717 240.664 181.732C212.895 224.653 123.497 422.969 49.3919 444.729C46.6504 445.535 62.1996 456.073 63.4058 458.658C70.5478 473.997 96.7706 519.335 165.513 543.072C165.513 543.072 156.591 559.443 146.084 570.124V570.127Z" fill="#7F0EAC"/>
        <path d="M419.584 745.486C404.713 746.769 378.906 748.855 358.557 749.748C346.326 750.284 339.285 749.091 335.23 747.468C335.236 747.926 335.25 748.355 335.267 748.757C335.363 750.893 337.103 752.605 339.265 752.726C377.711 754.868 408.286 753.467 419.174 752.807C421.423 752.67 422.764 750.228 421.614 748.313C421.038 747.356 420.341 746.415 419.584 745.489V745.486Z" fill="url(#paint1_linear_509_601)"/>
        <path d="M358.56 749.747C378.906 748.852 404.716 746.769 419.587 745.486C404.966 727.579 358.56 715.509 358.56 715.509H345.454C336.44 728.481 335.135 740.832 335.233 747.471C339.288 749.091 346.329 750.286 358.56 749.75V749.747Z" fill="url(#paint2_linear_509_601)"/>
        <path d="M343.247 694.146L344.473 718.378C344.605 721.002 346.573 723.206 349.205 723.582C351.823 723.955 355.332 724.003 359.049 722.768C361.338 722.007 363.036 720.084 363.458 717.735L367.695 694.146H343.244H343.247Z" fill="url(#paint3_linear_509_601)"/>
        <path d="M191.129 773.44C184.679 772.28 181.763 767.957 180.54 763.337C180.531 763.379 180.523 763.421 180.514 763.46C179.567 768.336 181.766 773.386 186.163 775.789C191.477 778.695 197.289 779.189 201.8 778.947C206.639 778.689 211.084 776.107 213.525 771.969L213.561 771.907C208.702 775.009 201.884 775.374 191.129 773.44Z" fill="url(#paint4_linear_509_601)"/>
        <path d="M221.533 701.613H210.725C194.261 701.178 183.923 745.983 180.537 763.334C181.76 767.955 184.679 772.278 191.126 773.437C201.881 775.371 208.7 775.006 213.559 771.904C222.453 756.802 226.864 734.684 228.981 721.774C231.391 707.093 221.53 701.611 221.53 701.611L221.533 701.613Z" fill="url(#paint5_linear_509_601)"/>
        <path d="M212.113 679.122L206.11 702.955C205.373 705.877 206.774 708.9 209.481 710.284C212.839 712.005 217.565 713.813 221.909 713.288C223.954 713.041 225.649 711.606 226.324 709.683L235.136 684.61L212.11 679.119L212.113 679.122Z" fill="url(#paint6_linear_509_601)"/>
        <path d="M423.248 365.242C423.248 365.242 369.613 699.957 370.496 701.795C370.496 701.795 355.683 708.518 339.533 702.651C339.533 702.651 344.383 523.722 355.748 455.118C355.748 455.118 264.21 615.046 235.142 694.735C235.142 694.735 219.981 692.93 207.432 684.686C207.432 684.686 305.993 396.825 332.287 358.482L423.251 365.245L423.248 365.242Z" fill="url(#paint7_linear_509_601)"/>
        <path d="M357.888 453.129C357.646 453.129 357.401 453.064 357.179 452.926C356.555 452.536 356.364 451.711 356.755 451.088L376.797 419.126C376.991 418.814 377.306 418.598 377.666 418.525L392.417 415.561C393.139 415.412 393.845 415.883 393.991 416.605C394.137 417.326 393.668 418.031 392.945 418.177L378.757 421.026L359.018 452.5C358.765 452.904 358.329 453.126 357.885 453.126L357.888 453.129Z" fill="url(#paint8_linear_509_601)"/>
        <path d="M531.479 224.689C527.622 199.203 538.768 191.051 533.265 183.761C509.533 194.465 482.248 147.338 442.939 133.741C439.314 132.486 435.535 131.753 431.703 131.529C410.778 130.305 341.818 128.067 284.759 146.889C272.749 150.85 263.023 159.712 258.01 171.196C242.573 206.56 217.585 287.094 286.96 327.756C292.291 314.545 298.444 303.926 303.702 296.125C292.53 277.312 289.221 251.615 309.047 218.154C323.502 257.125 330.284 313.987 331.702 339.15C332.168 347.434 330.712 355.704 327.456 363.353L327.101 364.187C326.404 365.823 327.363 367.704 329.117 368.097C368.173 376.855 408.792 374.475 420.928 373.476C423.096 373.296 424.896 371.749 425.39 369.658C444.381 289.767 444.426 235.272 439.776 200.823C457.54 204.789 488.279 256.783 531.477 224.686L531.479 224.689Z" fill="url(#paint9_linear_509_601)"/>
        <path d="M425.992 152.296C425.992 152.296 435.285 166.913 439.857 201.393L425.992 152.296Z" fill="url(#paint10_linear_509_601)"/>
        <path d="M343.472 84.9893C343.472 84.9893 339.522 126.695 336.043 139.032C335.515 140.905 336.33 142.878 338.034 143.849C343.939 147.218 358.099 152.711 377.47 143.235C380.607 141.699 382.494 138.434 382.348 134.979L380.641 94.6767L343.475 84.9921L343.472 84.9893Z" fill="url(#paint11_linear_509_601)"/>
        <path d="M381.49 31.6367C381.49 31.6367 394.126 60.6176 394.975 75.8295C395.824 91.0413 399.106 100.911 381.49 103.974C363.871 107.036 349.031 98.2753 340.992 83.1224C340.992 83.1224 328.395 59.7755 331.221 50.2143C334.047 40.6532 381.49 31.6367 381.49 31.6367Z" fill="url(#paint12_linear_509_601)"/>
        <path d="M347.012 72.2279L348.015 71.7872C349.292 71.2258 349.838 69.7071 349.196 68.472C346.714 63.6802 341.869 52.6987 348.125 50.1358C356.189 46.8346 388.128 40.3332 395.017 29.0177C401.639 18.1428 395.771 4.10714 386.953 0.115393C386.363 -0.151285 385.668 0.0592501 385.365 0.631906L384.631 2.02144C384.127 2.97306 382.721 2.82709 382.423 1.79406C382.137 0.803141 380.815 0.609449 380.267 1.48528C378.149 4.87068 372.43 10.3586 357.137 13.177C335.402 17.1828 321.033 25.9635 320.676 40.9564C320.654 41.908 319.639 42.4386 318.823 41.9417C317.218 40.9648 314.651 40.5073 311.218 43.3874C305.248 48.3981 307.692 61.3952 320.775 72.0876C321.396 72.5957 321.391 73.5641 320.719 74.002C318.345 75.5432 314.811 79.2121 323.972 84.1021C333.45 89.1606 340.528 88.7451 343.252 88.296C343.93 88.1837 344.369 87.5296 344.22 86.8587L341.312 73.6792C341.146 72.9325 341.717 72.2279 342.482 72.2279H347.012Z" fill="url(#paint13_linear_509_601)"/>
        <path d="M347.56 75.0102C347.56 75.0102 342.737 56.4971 334.426 61.6875C326.111 66.8779 338.739 82.4294 345.423 83.1228L347.56 75.0102Z" fill="url(#paint14_linear_509_601)"/>
        <path d="M347.203 356.24L404.229 355.002C404.229 355.002 354.499 340.969 351.415 344.79C351.415 344.79 320.592 324.57 303.701 296.125C298.441 303.926 292.288 314.545 286.96 327.756C302.101 336.629 321.989 352.049 347.203 356.237V356.24Z" fill="url(#paint15_linear_509_601)"/>
        <path d="M345.594 346.382C345.594 346.382 344.419 369.066 374.244 365.771C390.454 363.98 416.623 348.891 416.623 348.891C416.623 348.891 348.414 348.712 345.594 346.379V346.382Z" fill="url(#paint16_linear_509_601)"/>
        <path d="M466.873 614.047H745.356C754.236 614.047 761.434 603.304 761.434 590.055V188.836C761.434 175.612 754.261 164.88 745.398 164.844L464.688 163.721C455.758 163.684 448.518 174.514 448.566 187.84L450.793 590.184C450.84 603.383 458.025 614.047 466.87 614.047H466.873Z" fill="#7D97F4"/>
        <path opacity="0.6" d="M480.518 194.431L729.528 196.719C738.529 196.8 745.783 207.745 745.744 221.175L744.006 558.623C743.964 571.851 736.853 582.61 727.987 582.852L486.044 589.437C477.007 589.684 469.558 578.922 469.432 565.439L464.103 219.117C463.974 205.48 471.377 194.347 480.518 194.431Z" fill="white"/>
        <path opacity="0.6" d="M503.601 370.691V373.254C503.601 377.276 505.785 380.536 508.482 380.536H700.342C703.038 380.536 705.223 377.274 705.223 373.254V370.691C705.223 366.668 703.038 363.409 700.342 363.409H508.482C505.785 363.409 503.601 366.671 503.601 370.691Z" fill="white"/>
        <path opacity="0.6" d="M525.007 402.909C525.145 406.721 527.234 409.727 529.793 409.798L697.584 414.359C700.314 414.432 702.552 411.151 702.552 407.078V406.482C702.552 402.505 700.412 399.262 697.75 399.201L529.959 395.231C527.13 395.164 524.855 398.69 525.007 402.906V402.909Z" fill="white"/>
        <path d="M494.921 568.777C492.177 568.777 489.548 567.634 487.31 565.464C483.719 561.984 481.529 556.176 481.455 549.93L476.012 314.237C476.012 314.237 476.012 314.223 476.012 314.214C475.885 303.5 481.678 294.935 489.202 294.716L715.754 288.136C718.611 288.063 721.282 289.178 723.587 291.384C727.212 294.854 729.425 300.676 729.503 306.955L735.341 545.163C735.476 555.816 729.512 564.575 722.044 564.709L495.098 568.774C495.039 568.774 494.98 568.774 494.921 568.774V568.777ZM479.768 314.164L485.212 549.868C485.277 555.157 487.037 559.974 489.927 562.775C490.993 563.805 492.717 565.026 494.924 565.026C494.96 565.026 494.994 565.026 495.031 565.026L721.976 560.962C727.29 560.866 731.691 553.666 731.581 545.236L725.744 307.028C725.677 301.712 723.897 296.886 720.984 294.096C719.895 293.054 718.096 291.83 715.863 291.892L489.312 298.472C484.042 298.626 479.676 305.81 479.771 314.164H479.768Z" fill="white"/>
        <path d="M727.994 337.853H480.831C479.794 337.853 478.953 337.014 478.953 335.978C478.953 334.942 479.794 334.103 480.831 334.103H727.994C729.031 334.103 729.872 334.942 729.872 335.978C729.872 337.014 729.031 337.853 727.994 337.853Z" fill="white"/>
        <path d="M499.104 210.084C499.104 205.626 502.49 201.907 506.933 201.452C509.075 201.233 511.386 201.09 513.608 201.09C520.322 201.09 523.806 201.901 527.163 204.338C530.774 206.889 533.687 212.571 533.687 220.919C533.687 227.53 531.659 233.79 526.466 237.153V237.386C531.786 239.938 535.143 246.894 535.143 256.635C535.143 264.29 532.928 270.319 529.823 274.261C526.404 278.435 520.828 280.871 511.33 280.871C509.84 280.871 508.465 280.827 507.205 280.745C502.645 280.459 499.107 276.652 499.107 272.091V210.084H499.104ZM510.948 231.356H513.481C519.054 231.356 521.588 228.572 521.588 223.704C521.588 219.297 519.498 216.745 515.253 216.745C512.972 216.745 511.769 216.978 510.945 217.208V231.356H510.948ZM510.948 264.753C511.898 264.986 513.037 264.986 514.811 264.986C518.992 264.986 522.476 262.319 522.476 255.478C522.476 248.637 518.866 246.664 514.052 246.664H510.948V264.753Z" fill="url(#paint17_linear_509_601)"/>
        <path d="M541.54 207.642C541.54 204.706 543.7 202.224 546.607 201.792C549.433 201.371 552.815 201.093 556.614 201.093C563.77 201.093 568.522 202.948 571.815 207.238C574.539 210.834 576.249 216.515 576.249 224.4C576.249 234.837 571.626 241.445 568.649 243.186V243.649C571.5 245.853 573.083 250.956 574.286 257.449C575.166 262.283 576.046 268.383 576.786 273.124C577.345 276.709 574.57 279.945 570.935 279.945H570.555C567.735 279.945 565.303 277.963 564.749 275.204C564.144 272.181 563.407 267.905 562.569 262.086C561.239 252.694 559.53 250.838 555.54 250.838H553.386V274.033C553.386 277.298 550.735 279.945 547.465 279.945C544.194 279.945 541.543 277.298 541.543 274.033V207.645L541.54 207.642ZM553.383 235.416H556.929C561.616 235.416 564.403 231.938 564.403 226.023C564.403 220.108 561.996 217.093 557.941 217.093C555.281 217.093 554.013 217.326 553.38 217.557V235.416H553.383Z" fill="url(#paint18_linear_509_601)"/>
        <path d="M600.582 264.158L598.718 276.711C598.442 278.57 596.845 279.945 594.964 279.945H590.142C587.788 279.945 586 277.826 586.405 275.51L598.679 204.927C598.993 203.114 600.571 201.786 602.415 201.786H612.4C614.233 201.786 615.802 203.094 616.131 204.894L629.026 275.476C629.451 277.801 627.663 279.942 625.295 279.942H619.775C617.914 279.942 616.325 278.592 616.03 276.756L613.989 264.11C613.694 262.274 612.105 260.924 610.243 260.924H604.333C602.452 260.924 600.855 262.3 600.579 264.158H600.582ZM607.167 244.923C609.51 244.923 611.292 242.826 610.91 240.519L609.358 231.124C608.762 227.662 608.087 223.415 607.454 219.561C607.367 219.022 606.588 219.03 606.512 219.569C606.026 222.946 605.25 228.297 604.797 231.241L603.414 240.584C603.073 242.871 604.85 244.926 607.167 244.926V244.923Z" fill="url(#paint19_linear_509_601)"/>
        <path d="M631.476 276.15L631.566 205.567C631.566 203.476 633.267 201.783 635.359 201.783H643.786C645.447 201.783 646.915 202.864 647.41 204.447L653.613 224.395C655.876 231.623 658.095 240.213 660.018 248.766C660.15 249.353 661.016 249.246 661.002 248.646C660.814 241.678 660.519 229.49 660.519 222.191V205.57C660.519 203.479 662.217 201.783 664.312 201.783H667.804C669.902 201.783 671.6 203.482 671.597 205.576L671.507 276.158C671.507 278.25 669.806 279.942 667.714 279.942H661.23C659.548 279.942 658.067 278.836 657.591 277.225L650.764 254.083C648.4 246.229 645.796 237.24 643.535 228.024C643.395 227.452 642.551 227.553 642.554 228.142C642.591 235.424 642.658 250.175 642.658 258.835L642.577 276.17C642.568 278.255 640.87 279.939 638.783 279.939H635.274C633.177 279.939 631.478 278.241 631.481 276.147L631.476 276.15Z" fill="url(#paint20_linear_509_601)"/>
        <path d="M677.181 205.831C677.181 204.006 678.482 202.448 680.279 202.106C683.836 201.427 687.978 201.09 692.193 201.09C701.188 201.09 706.696 203.524 711.383 208.975C716.388 214.772 719.869 224.282 719.869 238.545C719.869 254.779 716.197 264.638 712.016 270.435C706.758 277.742 698.843 280.871 689.848 280.871C685.782 280.871 682.68 280.585 680.364 280.195C678.53 279.886 677.181 278.314 677.181 276.456V205.831ZM689.15 263.824C689.848 264.057 691.051 264.057 691.937 264.057C700.676 264.29 707.076 256.753 707.076 239.705C707.076 224.167 701.058 217.672 693.332 217.672C691.116 217.672 689.786 218.02 689.15 218.253V263.827V263.824Z" fill="url(#paint21_linear_509_601)"/>
        <path d="M592.032 173.299C586.886 176.406 580.402 177.942 574.711 175.951C571.382 174.786 558.552 166.463 562.744 162.056C563.444 161.318 564.448 160.944 565.424 160.619C574.894 157.458 584.161 158.881 593.969 159.162C596.758 159.24 601.069 158.957 601.777 162.606C602.711 167.401 595.369 171.283 592.034 173.296L592.032 173.299Z" fill="url(#paint22_linear_509_601)"/>
        <path d="M500.55 43.4625C500.199 43.353 499.825 43.3221 499.434 43.3755C492.528 44.2682 485.673 45.2956 478.871 46.4521C477.404 46.7019 475.86 46.6318 474.406 46.2444C472.947 45.8598 471.586 45.1664 470.461 44.2317C465.245 39.9031 459.894 35.6559 454.414 31.4957C454.105 31.2599 453.762 31.0999 453.402 31.0241C452.736 30.8837 452.002 31.0129 451.442 31.3834C451.06 31.6332 450.602 32.0992 450.571 32.8908C450.318 39.1199 450.022 45.3461 449.688 51.5667C449.539 54.3009 447.913 56.7683 445.377 58.1859C439.605 61.4141 433.925 64.735 428.341 68.1429C427.311 68.7716 427.309 69.7289 427.359 70.1078C427.41 70.4896 427.643 71.4132 428.799 71.7921C435.03 73.8498 441.188 76.0309 447.27 78.3271C449.949 79.3349 451.898 81.5553 452.483 84.2277C453.815 90.3052 455.047 96.3855 456.183 102.469C456.391 103.594 457.28 103.939 457.648 104.038C458.019 104.136 458.964 104.274 459.751 103.409C463.997 98.7463 468.327 94.1341 472.736 89.5725C474.673 87.5626 477.533 86.6166 480.362 87.0601C486.786 88.0651 493.197 89.1992 499.589 90.4624C500.77 90.6954 501.464 90.0189 501.712 89.7157C501.956 89.4125 502.473 88.5985 501.934 87.5514C499.026 81.9091 495.981 76.2892 492.798 70.7002C491.398 68.2467 491.339 65.3329 492.68 62.9132C495.736 57.4112 498.832 51.9232 501.962 46.4521C502.361 45.7559 502.218 45.1299 502.029 44.7313C501.748 44.139 501.2 43.6646 500.553 43.4653L500.55 43.4625Z" fill="#7F0EAC"/>
        <path d="M594.585 15.8407C594.163 15.72 593.719 15.6891 593.255 15.7621C585.081 17.0169 576.974 18.4317 568.947 20.0037C567.212 20.3405 565.384 20.2928 563.644 19.8661C561.906 19.4366 560.264 18.631 558.903 17.5306C552.579 12.4244 546.109 7.4221 539.493 2.52365C539.116 2.24574 538.709 2.06328 538.278 1.97625C537.488 1.81905 536.622 2.00152 535.97 2.46189C535.529 2.77629 535 3.34614 534.986 4.30898C534.885 11.849 534.736 19.3889 534.539 26.9205C534.449 30.2329 532.604 33.2562 529.649 35.0359C522.923 39.0838 516.316 43.2384 509.832 47.4968C508.634 48.2828 508.667 49.4393 508.735 49.8969C508.802 50.3573 509.115 51.4689 510.487 51.8984C517.91 54.2395 525.26 56.7238 532.534 59.3485C535.734 60.5079 538.118 63.1381 538.894 66.3579C540.669 73.6761 542.327 81 543.868 88.3266C544.155 89.6796 545.212 90.081 545.657 90.1905C546.101 90.2972 547.226 90.4347 548.128 89.3764C553.012 83.633 557.995 77.943 563.078 72.3119C565.311 69.8332 568.674 68.6149 572.048 69.0808C579.713 70.1335 587.37 71.3406 595.015 72.7105C596.429 72.9631 597.236 72.1266 597.517 71.7532C597.796 71.3827 598.381 70.3806 597.709 69.1314C594.056 62.3802 590.246 55.6599 586.276 48.9818C584.532 46.0427 584.361 42.5253 585.876 39.5666C589.327 32.8323 592.819 26.1204 596.356 19.4254C596.809 18.5692 596.618 17.8253 596.379 17.3425C596.027 16.6351 595.352 16.0737 594.582 15.8463L594.585 15.8407Z" fill="#7F0EAC"/>
        <path d="M670.078 10.375C669.629 10.5518 669.212 10.8185 668.861 11.1918C662.571 17.7353 656.461 24.3713 650.528 31.0888C649.249 32.5373 647.618 33.7191 645.804 34.5023C643.993 35.2883 642.008 35.6757 640.063 35.628C631.042 35.3978 621.969 35.3529 612.847 35.496C612.33 35.5016 611.849 35.6139 611.416 35.8273C610.62 36.2203 609.99 36.9501 609.74 37.7838C609.566 38.3509 609.501 39.1986 610.151 40.0436C615.232 46.674 620.273 53.3326 625.267 60.0164C627.463 62.9611 627.924 66.8152 626.574 70.3298C623.493 78.3245 620.591 86.3361 617.866 94.3504C617.363 95.8298 618.184 96.8123 618.558 97.166C618.932 97.5169 619.964 98.2861 621.454 97.7443C629.515 94.8473 637.619 92.1216 645.759 89.5643C649.339 88.4358 653.227 89.146 656.112 91.4254C662.681 96.6102 669.151 101.879 675.525 107.227C676.703 108.212 677.901 107.856 678.365 107.656C678.826 107.457 679.906 106.828 679.965 105.301C680.285 97.0509 680.735 88.7783 681.312 80.4944C681.562 76.8508 683.665 73.5468 686.935 71.7025C694.358 67.5058 701.891 63.4495 709.531 59.5363C710.945 58.8149 711.074 57.5461 711.066 57.0352C711.052 56.5215 710.883 55.2667 709.429 54.6267C701.59 51.1907 693.638 47.8895 685.577 44.7287C682.034 43.3392 679.473 40.3917 678.761 36.807C677.156 28.6522 675.601 20.4807 674.096 12.2979C673.902 11.2564 673.228 10.7315 672.685 10.4732C671.892 10.0914 670.922 10.0578 670.087 10.3722L670.078 10.375Z" fill="#7F0EAC"/>
        <path d="M781.035 128.904C780.501 128.556 779.902 128.317 779.235 128.219C767.51 126.425 755.836 124.898 744.217 123.632C741.709 123.363 739.218 122.504 736.997 121.168C734.778 119.826 732.838 118.007 731.393 115.893C724.684 106.099 717.75 96.3945 710.588 86.7857C710.178 86.2411 709.694 85.8144 709.14 85.5113C708.117 84.9583 706.868 84.8404 705.8 85.2025C705.08 85.4411 704.135 86.0166 703.747 87.3471C700.708 97.7672 697.606 108.159 694.44 118.529C693.043 123.093 689.362 126.498 684.638 127.711C673.891 130.47 663.274 133.435 652.792 136.596C650.852 137.185 650.458 138.794 650.371 139.462C650.289 140.127 650.284 141.806 651.99 142.982C661.213 149.368 670.295 155.937 679.237 162.677C683.17 165.647 685.423 170.315 685.251 175.115C684.872 186.032 684.332 196.907 683.637 207.737C683.511 209.741 684.81 210.749 685.375 211.091C685.943 211.437 687.43 212.107 689.078 211.021C697.98 205.137 706.998 199.383 716.136 193.752C720.154 191.27 725.238 191.032 729.697 193.131C739.831 197.903 749.908 202.906 759.921 208.144C761.777 209.107 763.205 208.304 763.734 207.905C764.26 207.515 765.449 206.373 764.996 204.343C762.539 193.361 759.856 182.363 756.949 171.359C755.673 166.514 756.783 161.571 760 158.101C767.316 150.241 774.689 142.423 782.112 134.647C783.057 133.659 783.082 132.531 782.938 131.762C782.725 130.625 782.011 129.561 781.038 128.907L781.035 128.904Z" fill="#7F0EAC"/>
    </g>
    <defs>
        <linearGradient id="paint0_linear_509_601" x1="4.66466" y1="391.284" x2="777.967" y2="391.284" gradientUnits="userSpaceOnUse">
            <stop stop-color="#F2F6FF"/>
            <stop offset="1" stop-color="#E9EFFD"/>
        </linearGradient>
        <linearGradient id="paint1_linear_509_601" x1="335.23" y1="749.677" x2="422.036" y2="749.677" gradientUnits="userSpaceOnUse">
            <stop stop-color="#4F52FF"/>
            <stop offset="1" stop-color="#4042E2"/>
        </linearGradient>
        <linearGradient id="paint2_linear_509_601" x1="335.228" y1="732.694" x2="419.584" y2="732.694" gradientUnits="userSpaceOnUse">
            <stop stop-color="#09005D"/>
            <stop offset="1" stop-color="#1A0F91"/>
        </linearGradient>
        <linearGradient id="paint3_linear_509_601" x1="343.247" y1="708.982" x2="367.695" y2="708.982" gradientUnits="userSpaceOnUse">
            <stop stop-color="#FEBBBA"/>
            <stop offset="1" stop-color="#FF928E"/>
        </linearGradient>
        <linearGradient id="paint4_linear_509_601" x1="180.295" y1="771.169" x2="213.561" y2="771.169" gradientUnits="userSpaceOnUse">
            <stop stop-color="#4F52FF"/>
            <stop offset="1" stop-color="#4042E2"/>
        </linearGradient>
        <linearGradient id="paint5_linear_509_601" x1="180.537" y1="738.12" x2="229.364" y2="738.12" gradientUnits="userSpaceOnUse">
            <stop stop-color="#09005D"/>
            <stop offset="1" stop-color="#1A0F91"/>
        </linearGradient>
        <linearGradient id="paint6_linear_509_601" x1="205.916" y1="696.251" x2="235.139" y2="696.251" gradientUnits="userSpaceOnUse">
            <stop stop-color="#FEBBBA"/>
            <stop offset="1" stop-color="#FF928E"/>
        </linearGradient>
        <linearGradient id="paint7_linear_509_601" x1="442.278" y1="381.436" x2="193.396" y2="789.807" gradientUnits="userSpaceOnUse">
            <stop stop-color="#09005D"/>
            <stop offset="1" stop-color="#1A0F91"/>
        </linearGradient>
        <linearGradient id="paint8_linear_509_601" x1="597.174" y1="-39.5265" x2="367.206" y2="453.222" gradientUnits="userSpaceOnUse">
            <stop stop-color="#4F52FF"/>
            <stop offset="1" stop-color="#4042E2"/>
        </linearGradient>
        <linearGradient id="paint9_linear_509_601" x1="595.841" y1="-285.295" x2="678.765" y2="-485.21" gradientUnits="userSpaceOnUse">
            <stop stop-color="#4F52FF"/>
            <stop offset="1" stop-color="#4042E2"/>
        </linearGradient>
        <linearGradient id="paint10_linear_509_601" x1="587.009" y1="42.5481" x2="498.337" y2="120.089" gradientUnits="userSpaceOnUse">
            <stop stop-color="#4F52FF"/>
            <stop offset="1" stop-color="#4042E2"/>
        </linearGradient>
        <linearGradient id="paint11_linear_509_601" x1="349.88" y1="178.899" x2="362.501" y2="112.531" gradientUnits="userSpaceOnUse">
            <stop stop-color="#FEBBBA"/>
            <stop offset="1" stop-color="#FF928E"/>
        </linearGradient>
        <linearGradient id="paint12_linear_509_601" x1="384.139" y1="57.1452" x2="311.987" y2="112.446" gradientUnits="userSpaceOnUse">
            <stop stop-color="#FEBBBA"/>
            <stop offset="1" stop-color="#FF928E"/>
        </linearGradient>
        <linearGradient id="paint13_linear_509_601" x1="333.284" y1="13.4521" x2="400.426" y2="100.042" gradientUnits="userSpaceOnUse">
            <stop stop-color="#09005D"/>
            <stop offset="1" stop-color="#1A0F91"/>
        </linearGradient>
        <linearGradient id="paint14_linear_509_601" x1="375.177" y1="45.4539" x2="303.025" y2="100.755" gradientUnits="userSpaceOnUse">
            <stop stop-color="#FEBBBA"/>
            <stop offset="1" stop-color="#FF928E"/>
        </linearGradient>
        <linearGradient id="paint15_linear_509_601" x1="403.821" y1="250.899" x2="362.465" y2="313.042" gradientUnits="userSpaceOnUse">
            <stop stop-color="#FEBBBA"/>
            <stop offset="1" stop-color="#FF928E"/>
        </linearGradient>
        <linearGradient id="paint16_linear_509_601" x1="321.129" y1="260.927" x2="361.655" y2="321.817" gradientUnits="userSpaceOnUse">
            <stop stop-color="#FEBBBA"/>
            <stop offset="1" stop-color="#FF928E"/>
        </linearGradient>
        <linearGradient id="paint17_linear_509_601" x1="1077.46" y1="-1110.46" x2="1160.39" y2="-1310.37" gradientUnits="userSpaceOnUse">
            <stop stop-color="#4F52FF"/>
            <stop offset="1" stop-color="#4042E2"/>
        </linearGradient>
        <linearGradient id="paint18_linear_509_601" x1="1115.09" y1="-1094.85" x2="1198.01" y2="-1294.77" gradientUnits="userSpaceOnUse">
            <stop stop-color="#4F52FF"/>
            <stop offset="1" stop-color="#4042E2"/>
        </linearGradient>
        <linearGradient id="paint19_linear_509_601" x1="1161.71" y1="-1075.51" x2="1244.64" y2="-1275.43" gradientUnits="userSpaceOnUse">
            <stop stop-color="#4F52FF"/>
            <stop offset="1" stop-color="#4042E2"/>
        </linearGradient>
        <linearGradient id="paint20_linear_509_601" x1="1193.84" y1="-1062.19" x2="1276.77" y2="-1262.1" gradientUnits="userSpaceOnUse">
            <stop stop-color="#4F52FF"/>
            <stop offset="1" stop-color="#4042E2"/>
        </linearGradient>
        <linearGradient id="paint21_linear_509_601" x1="1229.84" y1="-1047.26" x2="1312.76" y2="-1247.17" gradientUnits="userSpaceOnUse">
            <stop stop-color="#4F52FF"/>
            <stop offset="1" stop-color="#4042E2"/>
        </linearGradient>
        <linearGradient id="paint22_linear_509_601" x1="601.859" y1="167.724" x2="561.912" y2="167.724" gradientUnits="userSpaceOnUse">
            <stop stop-color="#FEBBBA"/>
            <stop offset="1" stop-color="#FF928E"/>
        </linearGradient>
        <clipPath id="clip0_509_601">
            <rect width="783" height="779" fill="white"/>
        </clipPath>
    </defs>
</svg>
