<svg width="35" height="35" viewBox="0 0 35 35" fill="none" xmlns="http://www.w3.org/2000/svg">
    <g clip-path="url(#clip0_589_655)">
        <path d="M17.4988 0C7.83348 0 0 7.83579 0 17.5012C0 27.1665 7.83348 35 17.4988 35C27.1642 35 35 27.1642 35 17.5012C35 7.8381 27.1642 0 17.4988 0ZM25.5934 10.5247L22.1444 24.3136C21.9434 25.1198 20.9824 25.4594 20.3171 24.9558L16.5171 22.0705L13.7473 24.4198L13.9413 20.1162L22.1329 12.9388L11.7906 19.1506L7.24672 17.6167C6.74312 17.4457 6.72926 16.7365 7.22824 16.5471L24.8403 9.8548C25.2699 9.69309 25.7042 10.0789 25.5934 10.5247Z" fill="#ACBBD5"/>
    </g>
    <defs>
        <clipPath id="clip0_589_655">
            <rect width="35" height="35" fill="white"/>
        </clipPath>
    </defs>
</svg>
