<svg width="84" height="131" viewBox="0 0 84 131" fill="none" xmlns="http://www.w3.org/2000/svg">
    <path d="M20.7203 31.0001C21.2071 30.9972 21.6897 31.0908 22.1404 31.2753C22.591 31.4598 23.0009 31.7317 23.3466 32.0753L53.5665 62.3672C55.2889 64.0893 56.6553 66.135 57.5877 68.3873C58.5201 70.6395 59 73.054 59 75.4924C59 77.9309 58.5201 80.3454 57.5877 82.5976C56.6554 84.8499 55.2889 86.8956 53.5665 88.6177L23.3466 118.91C23.0017 119.255 22.5923 119.53 22.1416 119.717C21.691 119.904 21.2081 120 20.7203 120C20.2326 120 19.7497 119.904 19.299 119.717C18.8484 119.53 18.439 119.255 18.0941 118.91C17.7493 118.564 17.4757 118.153 17.289 117.702C17.1024 117.25 17.0063 116.766 17.0063 116.277C17.0063 115.788 17.1024 115.304 17.289 114.852C17.4757 114.401 17.7493 113.99 18.0941 113.645L48.3141 83.3528C50.3922 81.2672 51.5594 78.4401 51.5594 75.4924C51.5594 72.5448 50.3922 69.7177 48.3141 67.6321L18.0941 37.3402C17.7474 36.9955 17.4723 36.5855 17.2845 36.1337C17.0967 35.6818 17 35.1972 17 34.7078C17 34.2183 17.0967 33.7337 17.2845 33.2819C17.4723 32.8301 17.7474 32.42 18.0941 32.0753C18.4398 31.7317 18.8496 31.4598 19.3003 31.2753C19.751 31.0908 20.2335 30.9972 20.7203 31.0001Z" fill="url(#paint0_linear_534_459)"/>
    <defs>
        <linearGradient id="paint0_linear_534_459" x1="59" y1="31" x2="17" y2="120" gradientUnits="userSpaceOnUse">
            <stop stop-color="#2080C9"/>
            <stop offset="1" stop-color="#7E0FAC"/>
        </linearGradient>
    </defs>
</svg>
