<svg width="98" height="126" viewBox="0 0 98 126" fill="none" xmlns="http://www.w3.org/2000/svg">
    <path d="M69.2797 7.00006C68.7929 6.99725 68.3103 7.09077 67.8596 7.27529C67.409 7.4598 66.9991 7.73167 66.6534 8.07531L36.4335 38.3672C34.7111 40.0893 33.3447 42.135 32.4123 44.3873C31.4799 46.6395 31 49.054 31 51.4924C31 53.9309 31.4799 56.3454 32.4123 58.5976C33.3446 60.8499 34.7111 62.8956 36.4335 64.6177L66.6534 94.9096C66.9983 95.2553 67.4077 95.5295 67.8584 95.7166C68.309 95.9037 68.7919 96 69.2797 96C69.7674 96 70.2503 95.9037 70.701 95.7166C71.1516 95.5295 71.561 95.2553 71.9059 94.9096C72.2507 94.5639 72.5243 94.1535 72.711 93.7018C72.8976 93.2501 72.9937 92.766 72.9937 92.2771C72.9937 91.7882 72.8976 91.3041 72.711 90.8525C72.5243 90.4008 72.2507 89.9904 71.9059 89.6447L41.6859 59.3528C39.6078 57.2672 38.4406 54.4401 38.4406 51.4924C38.4406 48.5448 39.6078 45.7177 41.6859 43.6321L71.9059 13.3402C72.2526 12.9955 72.5278 12.5855 72.7155 12.1337C72.9033 11.6818 73 11.1972 73 10.7078C73 10.2183 72.9033 9.73369 72.7155 9.28187C72.5278 8.83005 72.2526 8.41999 71.9059 8.07531C71.5602 7.73167 71.1504 7.4598 70.6997 7.27529C70.249 7.09077 69.7665 6.99725 69.2797 7.00006Z" fill="url(#paint0_linear_534_458)"/>
    <defs>
        <linearGradient id="paint0_linear_534_458" x1="31" y1="7" x2="73" y2="96" gradientUnits="userSpaceOnUse">
            <stop stop-color="#2080C9"/>
            <stop offset="1" stop-color="#7E0FAC"/>
        </linearGradient>
    </defs>
</svg>
