<svg width="17" height="17" viewBox="0 0 17 17" fill="none" xmlns="http://www.w3.org/2000/svg">
    <path d="M11.5444 5.87067L12.5389 6.88004L8.43554 10.9225C8.16142 11.1966 7.80087 11.3333 7.43892 11.3333C7.07696 11.3333 6.71287 11.1952 6.43592 10.919L4.46533 9.00929L5.45204 7.99142L7.43042 9.90887L11.5444 5.87067ZM17 8.5C17 13.187 13.187 17 8.5 17C3.81296 17 0 13.187 0 8.5C0 3.81296 3.81296 0 8.5 0C13.187 0 17 3.81296 17 8.5ZM15.5833 8.5C15.5833 4.59425 12.4057 1.41667 8.5 1.41667C4.59425 1.41667 1.41667 4.59425 1.41667 8.5C1.41667 12.4057 4.59425 15.5833 8.5 15.5833C12.4057 15.5833 15.5833 12.4057 15.5833 8.5Z" fill="#878787"/>
</svg>
