<svg width="17" height="17" viewBox="0 0 17 17" fill="none" xmlns="http://www.w3.org/2000/svg">
    <path d="M8.5 17C6.81886 17 5.17547 16.5015 3.77766 15.5675C2.37984 14.6335 1.29037 13.306 0.647028 11.7528C0.00368293 10.1996 -0.164645 8.49057 0.163329 6.84174C0.491303 5.1929 1.30085 3.67834 2.4896 2.4896C3.67834 1.30085 5.1929 0.491303 6.84174 0.163329C8.49057 -0.164645 10.1996 0.00368293 11.7528 0.647028C13.306 1.29037 14.6335 2.37984 15.5675 3.77766C16.5015 5.17547 17 6.81886 17 8.5C16.9976 10.7536 16.1013 12.9142 14.5077 14.5077C12.9142 16.1013 10.7536 16.9976 8.5 17ZM8.5 1.41667C7.09905 1.41667 5.72956 1.8321 4.56471 2.61043C3.39987 3.38875 2.49198 4.49502 1.95586 5.78933C1.41974 7.08364 1.27946 8.50786 1.55277 9.88189C1.82609 11.2559 2.50071 12.5181 3.49133 13.5087C4.48195 14.4993 5.74408 15.1739 7.11811 15.4472C8.49215 15.7205 9.91637 15.5803 11.2107 15.0442C12.505 14.508 13.6113 13.6001 14.3896 12.4353C15.1679 11.2704 15.5833 9.90096 15.5833 8.5C15.5813 6.62202 14.8343 4.82154 13.5064 3.49361C12.1785 2.16567 10.378 1.41873 8.5 1.41667Z" fill="#878787"/>
</svg>
